<?xml version="1.0" standalone="no"?>
<!DOCTYPE svg PUBLIC "-//W3C//DTD SVG 1.1//EN" "http://www.w3.org/Graphics/SVG/1.1/DTD/svg11.dtd" >
<svg xmlns="http://www.w3.org/2000/svg">
<metadata>Generated by IcoMoon</metadata>
<defs>
<font id="icomoon" horiz-adv-x="1024">
<font-face units-per-em="1024" ascent="960" descent="-64" />
<missing-glyph horiz-adv-x="1024" />
<glyph unicode="&#x20;" horiz-adv-x="512" d="" />
<glyph unicode="&#xe900;" glyph-name="ico-start-input" d="M259.657 312.686l-259.657 248.686 351.086 51.2 149.943 310.857 171.886-321.829 351.086-51.2-252.343-237.714 62.171-354.743-310.857 171.886-321.829-160.914z" />
<glyph unicode="&#xe901;" glyph-name="ico-rewards" d="M815.543 601.6c0-10.971 0-21.943 0-32.914 0-179.2-146.286-325.486-325.486-325.486s-325.486 146.286-325.486 325.486c0 179.2 146.286 325.486 325.486 325.486 54.857 0 106.057-14.629 153.6-36.571l25.6 40.229c-51.2 29.257-113.371 43.886-179.2 43.886-204.8 3.657-373.029-164.571-373.029-373.029s168.229-373.029 373.029-373.029c208.457 0 373.029 168.229 373.029 373.029 0 14.629 0 32.914-3.657 47.543l-43.886-14.629zM490.057 400.457l-160.914 193.829c-7.314 7.314-3.657 18.286 0 25.6 7.314 7.314 18.286 3.657 25.6-3.657l135.314-164.571 362.057 449.829c7.314 7.314 18.286 7.314 25.6 3.657 7.314-7.314 7.314-18.286 3.657-25.6l-391.314-479.086zM493.714 363.886l-182.857 215.771c-7.314 7.314-10.971 18.286-10.971 29.257s7.314 21.943 14.629 29.257c18.286 14.629 43.886 10.971 58.514-7.314l117.029-142.629 343.771 424.229c14.629 18.286 40.229 18.286 58.514 7.314 7.314-7.314 14.629-14.629 14.629-25.6s-3.657-21.943-7.314-29.257l-405.943-501.029zM117.029 56.686l84.114 204.8c0 0 153.6-117.029 266.971-102.4l-91.429-208.457-109.714 120.686-149.943-14.629zM552.229 148.114c0 0 149.943 32.914 241.371 128l91.429-226.743h-164.571l-98.743-98.743-69.486 197.486z" />
<glyph unicode="&#xe902;" glyph-name="ico-reserv" d="M673.684 730.947c0-20.211-16.842-37.053-37.053-37.053s-37.053 16.842-37.053 37.053v154.947c0 20.211 16.842 37.053 37.053 37.053s37.053-16.842 37.053-37.053v-154.947zM343.579 730.947c0-20.211-16.842-37.053-37.053-37.053s-37.053 16.842-37.053 37.053v154.947c0 20.211 16.842 37.053 37.053 37.053s37.053-16.842 37.053-37.053v-154.947zM360.421 518.737h94.316v-94.316h-94.316v94.316zM491.789 518.737h94.316v-94.316h-94.316v94.316zM626.526 518.737h94.316v-94.316h-94.316v94.316zM225.684 384h94.316v-94.316h-94.316v94.316zM360.421 384h94.316v-94.316h-94.316v94.316zM491.789 384h94.316v-94.316h-94.316v94.316zM225.684 252.632h94.316v-94.316h-94.316v94.316zM360.421 252.632h94.316v-94.316h-94.316v94.316zM491.789 252.632v-94.316h47.158c0 33.684 6.737 67.368 23.579 94.316h-70.737zM720.842 360.421v23.579h-94.316v-60.632c26.947 20.211 60.632 33.684 94.316 37.053zM545.684 111.158h-353.684c-20.211 0-40.421 16.842-40.421 40.421v414.316h640v-208.842c20.211-6.737 40.421-13.474 60.632-23.579v431.158c0 26.947-20.211 47.158-47.158 47.158h-114.526v-77.474c0-30.316-23.579-53.895-53.895-53.895s-53.895 23.579-53.895 53.895v74.105h-218.947v-77.474c0-30.316-23.579-53.895-53.895-53.895s-57.263 23.579-57.263 53.895v77.474h-111.158c-26.947 0-47.158-20.211-47.158-47.158v-663.579c0-26.947 20.211-47.158 47.158-47.158h427.789c-10.105 20.211-20.211 40.421-23.579 60.632zM744.421 343.579c-101.053 0-185.263-84.211-185.263-185.263s84.211-185.263 185.263-185.263 185.263 84.211 185.263 185.263c0 101.053-84.211 185.263-185.263 185.263zM744.421 13.474c-80.842 0-144.842 64-144.842 144.842s64 144.842 144.842 144.842c80.842 0 144.842-64 144.842-144.842s-64-144.842-144.842-144.842zM838.737 208.842l-23.579 23.579c-6.737 6.737-20.211 6.737-26.947 0l-67.368-67.368-26.947 26.947c-6.737 6.737-20.211 6.737-26.947 0l-23.579-23.579c-6.737-6.737-6.737-20.211 0-26.947l60.632-60.632c3.368-3.368 10.105-6.737 13.474-6.737s10.105 0 13.474 6.737l101.053 101.053c13.474 6.737 13.474 20.211 6.737 26.947z" />
<glyph unicode="&#xe903;" d="M1020.062 448c0-274.069-227.467-496.246-508.062-496.246s-508.062 222.177-508.062 496.246c0 274.069 227.467 496.246 508.062 496.246s508.062-222.177 508.062-496.246z" />
<glyph unicode="&#xe904;" d="M441.108 789.157c31.508 0 59.077-15.754 74.831-39.385 15.754 15.754 39.385 27.569 63.015 27.569 47.262 0 86.646-39.385 86.646-86.646 0-15.754-3.938-31.508-11.815-47.262h133.908c11.815 0 19.692-7.877 19.692-19.692v-118.154c0-11.815-7.877-19.692-19.692-19.692h-19.692v-267.815c0-11.815-7.877-19.692-19.692-19.692h-472.615c-11.815 0-19.692 7.877-19.692 19.692v267.815h-19.692c-11.815 0-19.692 7.877-19.692 19.692v118.154c0 11.815 7.877 19.692 19.692 19.692h129.969c-11.815 15.754-15.754 31.508-15.754 51.2-3.938 51.2 39.385 94.523 90.585 94.523zM441.108 749.772c-27.569 0-51.2-23.631-51.2-51.2s23.631-51.2 51.2-51.2h51.2c0 15.754 0 35.446 0 51.2 0 27.569-23.631 51.2-51.2 51.2zM578.954 734.018c-23.631 0-47.262-19.692-47.262-47.262v-47.262h47.262c23.631 0 47.262 19.692 47.262 47.262-3.938 27.569-23.631 47.262-47.262 47.262zM768 604.049c-78.769 0-157.538 0-236.308 0v-78.769c78.769 0 157.538 0 236.308 0v78.769zM492.308 604.049c-78.769 0-157.538 0-236.308 0v-78.769c78.769 0 157.538 0 236.308 0v78.769zM728.615 485.895h-196.923v-248.123h196.923v248.123zM492.308 485.895h-196.923v-248.123h196.923v248.123z" />
<glyph unicode="&#xe905;" d="M1020.062 448c0-274.069-227.467-496.246-508.062-496.246s-508.062 222.177-508.062 496.246c0 274.069 227.467 496.246 508.062 496.246s508.062-222.177 508.062-496.246z" />
<glyph unicode="&#xe906;" d="M417.477 132.923c-3.938 0-3.938 0 0 0-7.877 0-11.815 3.938-11.815 7.877l-43.323 82.708-94.523-3.938c-3.938 0-7.877 0-11.815 3.938s-3.938 7.877-3.938 11.815l3.938 94.523-82.708 39.385c-3.938 0-7.877 3.938-7.877 7.877s0 7.877 0 11.815l51.2 78.769-51.2 78.769c-3.938 3.938-3.938 7.877 0 11.815 0 3.938 3.938 7.877 7.877 7.877l82.708 43.323-3.938 98.462c0 3.938 0 7.877 3.938 11.815s3.938 3.938 11.815 3.938l94.523-3.938 43.323 82.708c0 3.938 3.938 7.877 7.877 7.877s7.877 0 11.815 0l78.769-51.2 78.769 51.2c3.938 3.938 7.877 3.938 11.815 0 3.938 0 7.877-3.938 7.877-7.877l43.323-82.708 94.523 3.938c3.938 0 7.877 0 11.815-3.938s3.938-7.877 3.938-11.815l-3.938-94.523 82.708-43.323c3.938 0 7.877-3.938 7.877-7.877s0-7.877 0-11.815l-51.2-78.769 51.2-78.769c3.938-3.938 3.938-7.877 0-11.815 0-3.938-3.938-7.877-7.877-7.877l-82.708-43.323 3.938-94.523c0-3.938 0-7.877-3.938-11.815s-7.877-3.938-11.815-3.938l-94.523 3.938-43.323-82.708c0-3.938-3.938-7.877-7.877-7.877s-7.877 0-11.815 0l-78.769 51.2-78.769-51.2c-3.938 0-7.877 0-7.877 0zM370.215 251.077c3.938 0 11.815-3.938 11.815-7.877l39.385-78.769 74.831 47.262c3.938 3.938 11.815 3.938 15.754 0l74.831-47.262 39.385 78.769c3.938 3.938 7.877 7.877 11.815 7.877l86.646-3.938-3.938 86.646c0 3.938 3.938 11.815 7.877 11.815l78.769 39.385-47.262 74.831c-3.938 3.938-3.938 11.815 0 15.754l47.262 74.831-78.769 39.385c-3.938 3.938-7.877 7.877-7.877 11.815l3.938 86.646-86.646-3.938c-7.877 0-11.815 3.938-11.815 7.877l-39.385 78.769-74.831-43.323c-3.938-3.938-11.815-3.938-15.754 0l-74.831 47.262-39.385-78.769c-3.938-3.938-7.877-7.877-15.754-3.938h-86.646l3.938-86.646c0-3.938-3.938-11.815-7.877-11.815l-78.769-39.385 47.262-74.831c3.938-3.938 3.938-11.815 0-15.754l-47.262-74.831 78.769-39.385c3.938-3.938 7.877-7.877 7.877-11.815l-3.938-86.646h90.585zM445.046 341.662l133.908 224.492c3.938 7.877 0 15.754-3.938 19.692-7.877 3.938-15.754 0-19.692-3.938l-133.908-224.492c-3.938-7.877 0-15.754 3.938-19.692 3.938 0 3.938-3.938 7.877-3.938s7.877 3.938 11.815 7.877zM429.292 467.692c-31.508 0-59.077 27.569-59.077 59.077s27.569 59.077 59.077 59.077c31.508 0 59.077-27.569 59.077-59.077s-27.569-59.077-59.077-59.077zM429.292 558.277c-15.754 0-31.508-15.754-31.508-31.508s15.754-31.508 31.508-31.508c15.754 0 31.508 15.754 31.508 31.508 0 19.692-15.754 31.508-31.508 31.508zM578.954 349.538c-31.508 0-59.077 27.569-59.077 59.077s27.569 59.077 59.077 59.077c31.508 0 59.077-27.569 59.077-59.077s-27.569-59.077-59.077-59.077zM578.954 440.123c-15.754 0-31.508-15.754-31.508-31.508s15.754-31.508 31.508-31.508c15.754 0 31.508 15.754 31.508 31.508 0 19.692-15.754 31.508-31.508 31.508z" />
<glyph unicode="&#xe907;" glyph-name="ico-promo" d="M390.737-26.947c-3.368 0-3.368 0-6.737 0-6.737 0-10.105 6.737-13.474 10.105l-60.632 117.895-131.368-6.737c-6.737 0-10.105 3.368-13.474 6.737s-6.737 10.105-6.737 13.474l6.737 131.368-117.895 60.632c-3.368 3.368-10.105 6.737-10.105 13.474s0 10.105 3.368 16.842l70.737 111.158-70.737 111.158c-3.368 3.368-3.368 10.105-3.368 16.842s6.737 10.105 10.105 13.474l117.895 60.632-6.737 131.368c0 6.737 3.368 10.105 6.737 13.474s6.737 6.737 13.474 6.737l131.368-6.737 60.632 117.895c3.368 3.368 6.737 10.105 13.474 10.105s10.105 0 16.842-3.368l111.158-70.737 111.158 70.737c3.368 3.368 10.105 3.368 16.842 3.368s10.105-6.737 13.474-10.105l60.632-117.895 131.368 6.737c6.737 0 10.105-3.368 13.474-6.737s6.737-10.105 6.737-13.474l-6.737-131.368 117.895-60.632c3.368-3.368 10.105-6.737 10.105-13.474s0-10.105-3.368-16.842l-70.737-111.158 70.737-111.158c3.368-3.368 3.368-10.105 3.368-16.842s-6.737-10.105-10.105-13.474l-117.895-60.632 6.737-131.368c0-6.737-3.368-10.105-6.737-13.474s-10.105-6.737-13.474-6.737l-131.368 6.737-64-117.895c-3.368-3.368-6.737-10.105-13.474-10.105s-10.105 0-16.842 3.368l-111.158 70.737-111.158-70.737c0-3.368-3.368-3.368-6.737-3.368zM323.368 141.474c6.737 0 13.474-3.368 16.842-10.105l57.263-107.789 104.421 67.368c6.737 3.368 13.474 3.368 20.211 0l104.421-67.368 57.263 107.789c3.368 6.737 10.105 10.105 20.211 10.105l121.263-6.737-6.737 121.263c0 6.737 3.368 13.474 10.105 20.211l107.789 57.263-67.368 104.421c-3.368 6.737-3.368 13.474 0 20.211l67.368 104.421-107.789 57.263c-6.737 3.368-10.105 10.105-10.105 20.211l6.737 121.263-121.263-6.737c-6.737 0-13.474 3.368-20.211 10.105l-57.263 107.789-104.421-67.368c-6.737-3.368-13.474-3.368-20.211 0l-104.421 67.368-57.263-107.789c-3.368-3.368-10.105-10.105-16.842-10.105l-124.632 6.737 6.737-121.263c0-6.737-3.368-13.474-10.105-20.211l-107.789-57.263 67.368-104.421c3.368-6.737 3.368-13.474 0-20.211l-67.368-104.421 107.789-57.263c6.737-3.368 10.105-10.105 10.105-20.211l-6.737-121.263 124.632 6.737c0 0 0 0 0 0zM427.789 269.474l188.632 313.263c6.737 10.105 3.368 20.211-6.737 26.947s-20.211 3.368-26.947-6.737l-188.632-313.263c-6.737-10.105-3.368-20.211 6.737-26.947 3.368-3.368 6.737-3.368 10.105-3.368 6.737 0 13.474 3.368 16.842 10.105zM407.579 444.632c-47.158 0-84.211 37.053-84.211 84.211s37.053 84.211 84.211 84.211c47.158 0 84.211-37.053 84.211-84.211s-37.053-84.211-84.211-84.211zM407.579 572.632c-23.579 0-43.789-20.211-43.789-43.789s20.211-43.789 43.789-43.789c23.579 0 43.789 20.211 43.789 43.789s-20.211 43.789-43.789 43.789zM616.421 279.579c-47.158 0-84.211 37.053-84.211 84.211s37.053 84.211 84.211 84.211c47.158 0 84.211-37.053 84.211-84.211-3.368-47.158-40.421-84.211-84.211-84.211zM616.421 407.579c-23.579 0-43.789-20.211-43.789-43.789s20.211-43.789 43.789-43.789c23.579 0 43.789 20.211 43.789 43.789s-20.211 43.789-43.789 43.789z" />
<glyph unicode="&#xe909;" glyph-name="ico-pointsev" d="M512 660.114c-117.029 0-212.114-95.086-212.114-212.114s95.086-212.114 212.114-212.114c117.029 0 212.114 95.086 212.114 212.114s-95.086 212.114-212.114 212.114zM512 320c-69.486 0-128 58.514-128 128s58.514 128 128 128c69.486 0 128-58.514 128-128s-58.514-128-128-128zM574.171 451.657c0-34.336-27.835-62.171-62.171-62.171s-62.171 27.835-62.171 62.171c0 34.336 27.835 62.171 62.171 62.171s62.171-27.835 62.171-62.171z" />
<glyph unicode="&#xe90a;" glyph-name="ico-plus" d="M621.714 448h-87.771v-95.086h-40.229v95.086h-87.771v36.571h87.771v95.086h40.229v-95.086h87.771v-36.571z" />
<glyph unicode="&#xe90b;" glyph-name="ico-phone" d="M40.421 872.421c0 3.368 0 6.737 3.368 6.737 3.368 23.579 23.579 40.421 47.158 40.421 64 0 128 0 192 0 26.947 0 50.526-20.211 50.526-47.158 0 0 0-3.368 0-3.368 0-60.632 10.105-121.263 23.579-178.526 3.368-6.737 3.368-13.474 6.737-20.211 0-16.842-6.737-30.316-16.842-40.421-33.684-33.684-70.737-70.737-107.789-104.421-6.737-3.368-6.737-10.105-3.368-16.842 0 0 0 0 0 0 60.632-114.526 148.211-212.211 256-286.316 23.579-16.842 50.526-30.316 74.105-47.158 3.368-3.368 10.105-3.368 13.474 0 0 0 0 0 0 0 33.684 33.684 67.368 67.368 101.053 101.053 16.842 16.842 40.421 23.579 64 16.842 60.632-20.211 121.263-30.316 185.263-30.316 26.947 3.368 50.526-20.211 50.526-47.158 0-3.368 0-3.368 0-6.737 0-60.632 0-124.632 0-185.263 0-33.684-20.211-50.526-53.895-50.526-205.474 0-404.211 70.737-559.158 198.737-154.947 124.632-262.737 296.421-306.526 491.789-10.105 60.632-20.211 117.895-20.211 175.158 0 3.368 0 6.737 0 6.737 0 10.105 0 20.211 0 26.947z" />
<glyph unicode="&#xe90c;" glyph-name="ico-palomita" d="M299.886 396.8l113.371-153.6 310.857 409.6-310.857-285.257z" />
<glyph unicode="&#xe90d;" glyph-name="ico-next" d="M460.8 309.029c-3.657 0-3.657 0-7.314 3.657s-3.657 7.314 0 10.971l95.086 117.029-95.086 131.657c-3.657 3.657-3.657 10.971 3.657 10.971 3.657 3.657 10.971 3.657 10.971-3.657l102.4-142.629-102.4-128c0 0-3.657 0-7.314 0z" />
<glyph unicode="&#xe90f;" glyph-name="ico-message" d="M972.8 456.533c0-249.78-202.487-452.267-452.267-452.267s-452.267 202.487-452.267 452.267c0 249.78 202.487 452.267 452.267 452.267s452.267-202.487 452.267-452.267z" />
<glyph unicode="&#xe910;" glyph-name="ico-masinfo" d="M512 811.789c-202.105 0-363.789-161.684-363.789-363.789s161.684-363.789 363.789-363.789c202.105 0 363.789 161.684 363.789 363.789s-165.053 363.789-363.789 363.789zM495.158 239.158c-40.421 0-64 16.842-64 60.632 0 10.105 3.368 33.684 6.737 57.263l33.684 151.579h-47.158l3.368 13.474h128c-13.474-60.632-40.421-192-43.789-212.211-3.368-10.105-6.737-23.579-6.737-30.316 0-13.474 6.737-16.842 13.474-16.842 10.105 0 23.579 10.105 37.053 26.947l13.474-10.105c-16.842-26.947-40.421-40.421-74.105-40.421zM512 569.263c-33.684 0-43.789 20.211-43.789 37.053 0 30.316 23.579 50.526 57.263 50.526 26.947 0 43.789-10.105 43.789-37.053 0-30.316-23.579-50.526-57.263-50.526z" />
<glyph unicode="&#xe911;" glyph-name="ico-locale" d="M512 946.526c-171.789 0-309.895-138.105-309.895-306.526 0-282.947 309.895-690.526 309.895-690.526s306.526 407.579 306.526 690.526c0 168.421-138.105 306.526-306.526 306.526zM512 458.105c-104.421 0-188.632 84.211-188.632 188.632s84.211 188.632 188.632 188.632c104.421 0 188.632-84.211 188.632-188.632s-84.211-188.632-188.632-188.632z" />
<glyph unicode="&#xe912;" glyph-name="ico-gift" d="M451.368 699.358c26.947 0 50.526-13.474 64-33.684 13.474 13.474 33.684 23.579 53.895 23.579 40.421 0 74.105-33.684 74.105-74.105 0-13.474-3.368-26.947-10.105-40.421h117.895c10.105 0 16.842-6.737 16.842-16.842v-101.053c0-10.105-6.737-16.842-16.842-16.842h-16.842v-229.053c0-10.105-6.737-16.842-16.842-16.842h-404.211c-10.105 0-16.842 6.737-16.842 16.842v229.053h-20.211c-10.105 0-16.842 6.737-16.842 16.842v101.053c0 10.105 6.737 16.842 16.842 16.842h111.158c-10.105 13.474-13.474 26.947-13.474 43.789-3.368 47.158 33.684 80.842 77.474 80.842zM451.368 665.673c-23.579 0-43.789-20.211-43.789-43.789s20.211-43.789 43.789-43.789h43.789c0 13.474 0 30.316 0 43.789 0 23.579-20.211 43.789-43.789 43.789zM569.263 655.568c-20.211 0-40.421-16.842-40.421-40.421v-40.421h40.421c20.211 0 40.421 16.842 40.421 40.421-3.368 23.579-20.211 40.421-40.421 40.421zM730.947 544.41c-67.368 0-134.737 0-202.105 0v-67.368c67.368 0 134.737 0 202.105 0v67.368zM495.158 544.41c-67.368 0-134.737 0-202.105 0v-67.368c67.368 0 134.737 0 202.105 0v67.368zM697.263 443.358h-168.421v-212.211h168.421v212.211zM495.158 443.358h-168.421v-212.211h168.421v212.211z" />
<glyph unicode="&#xe914;" glyph-name="ico-email" d="M296.229 614.845c-18.286 0-32.914-14.629-32.914-36.571v-259.657c0-18.286 14.629-36.571 32.914-36.571h431.543c18.286 0 32.914 14.629 32.914 36.571v259.657c0 18.286-14.629 36.571-32.914 36.571h-431.543zM303.543 589.245h413.257l-197.486-179.2c-3.657-3.657-18.286-3.657-21.943 0l-193.829 179.2zM285.257 574.617l146.286-135.314-146.286-120.686v256zM738.743 574.617v-256l-146.286 120.686 146.286 135.314zM449.829 424.674l36.571-32.914c14.629-14.629 32.914-14.629 47.543 0l36.571 32.914 142.629-120.686h-405.943l142.629 120.686z" />
<glyph unicode="&#xe915;" glyph-name="ico-current" d="M493.714 181.029v51.2c-32.914 3.657-58.514 10.971-76.8 18.286s-36.571 21.943-51.2 40.229c-14.629 18.286-21.943 43.886-25.6 69.486l62.171 10.971c3.657-29.257 14.629-47.543 25.6-62.171 18.286-18.286 40.229-29.257 65.829-32.914v171.886c-25.6 3.657-51.2 10.971-80.457 25.6-21.943 10.971-36.571 21.943-47.543 40.229s-14.629 36.571-14.629 54.857c0 36.571 14.629 69.486 47.543 91.429 21.943 14.629 54.857 25.6 95.086 29.257v25.6h36.571v-25.6c36.571-3.657 65.829-10.971 87.771-25.6 29.257-18.286 43.886-43.886 51.2-80.457l-65.829-7.314c-3.657 21.943-10.971 36.571-21.943 47.543s-29.257 18.286-47.543 21.943v-153.6c32.914-7.314 54.857-10.971 62.171-14.629 18.286-7.314 36.571-14.629 47.543-25.6s21.943-21.943 29.257-36.571c7.314-14.629 10.971-29.257 10.971-47.543 0-36.571-14.629-65.829-40.229-91.429-29.257-25.6-65.829-36.571-109.714-40.229v-54.857h-40.229zM493.714 645.486c-25.6-3.657-43.886-10.971-58.514-25.6s-21.943-29.257-21.943-47.543c0-18.286 7.314-32.914 18.286-43.886s32.914-21.943 62.171-29.257v146.286zM533.943 279.771c25.6 3.657 43.886 10.971 62.171 25.6 14.629 14.629 25.6 32.914 25.6 54.857 0 18.286-7.314 32.914-18.286 47.543-10.971 10.971-32.914 21.943-69.486 32.914v-160.914z" />
<glyph unicode="&#xe916;" glyph-name="ico-cup-input" d="M570.514 9.143c10.971 0 21.943 0 21.943 0 32.914 0 62.171 0 106.057 0 10.971 0 10.971 0 21.943 0 21.943 0 32.914-10.971 32.914-32.914s-10.971-32.914-21.943-32.914c-10.971 0-21.943 0-32.914 0-117.029 0-223.086 0-340.114 0-10.971 0-21.943 0-32.914 0-10.971 10.971-21.943 21.943-21.943 32.914s10.971 32.914 32.914 32.914c10.971 0 10.971 0 21.943 0 32.914 0 62.171 0 106.057 0 10.971 0 21.943 0 21.943 0 0 10.971 0 21.943 0 21.943 0 84.114 0 179.2 0 266.971 0 10.971 0 21.943-10.971 32.914-149.943 175.543-299.886 358.4-446.171 548.571 0 10.971-10.971 10.971-10.971 21.943-10.971 21.943 0 54.857 32.914 54.857 10.971 0 10.971 0 21.943 0 296.229 0 585.143 0 881.371 0 10.971 0 10.971 0 21.943 0 21.943 0 43.886-32.914 21.943-54.857 0-10.971-10.971-10.971-21.943-21.943-138.971-179.2-266.971-362.057-402.286-541.257-10.971-10.971-10.971-21.943-10.971-32.914 0-95.086 0-190.171 0-285.257 7.314 0 7.314-10.971 7.314-10.971zM537.6 393.143c117.029 160.914 234.057 318.171 351.086 468.114l10.971 10.971c-106.057 10.971-735.086 0-753.371 0 128-149.943 252.343-310.857 391.314-479.086z" />
<glyph unicode="&#xe917;" glyph-name="ico-creditcard" d="M866.743 586.971c0 14.629-7.314 21.943-14.629 25.6-7.314 7.314-21.943 14.629-40.229 21.943v-102.4c14.629 0 25.6 7.314 40.229 14.629 7.314 14.629 14.629 18.286 14.629 40.229zM786.286 766.171c-14.629 0-25.6-7.314-32.914-14.629s-14.629-21.943-14.629-25.6c0-14.629 7.314-21.943 14.629-25.6 7.314-7.314 21.943-14.629 40.229-21.943v87.771h-7.314zM797.257 868.571c-102.4 0-190.171-76.8-219.429-171.886h-522.971c-29.257 0-54.857-29.257-54.857-54.857v-541.257c0-25.6 25.6-54.857 54.857-54.857h888.686c25.6 0 54.857 25.6 54.857 54.857v431.543c21.943 32.914 25.6 69.486 25.6 109.714 0 124.343-102.4 226.743-226.743 226.743zM738.743 656.457c-14.629 7.314-21.943 14.629-25.6 25.6-10.971 14.629-18.286 21.943-18.286 32.914 0 21.943 7.314 40.229 25.6 62.171 14.629 7.314 32.914 14.629 62.171 21.943v7.314h21.943v-14.629c21.943 0 40.229-7.314 54.857-21.943 21.943-10.971 29.257-25.6 36.571-47.543l-40.229-7.314c0 14.629-7.314 21.943-14.629 25.6-7.314 10.971-21.943 18.286-36.571 18.286v-95.086c21.943-7.314 32.914-7.314 40.229-7.314 14.629-7.314 21.943-14.629 25.6-14.629 7.314-7.314 14.629-14.629 21.943-21.943s7.314-21.943 7.314-25.6c0-21.943-7.314-40.229-25.6-62.171-21.943-14.629-40.229-25.6-69.486-25.6v-32.914h-21.943v32.914c-21.943 0-32.914 7.314-47.543 14.629s-21.943 14.629-32.914 25.6c-7.314 14.629-14.629 25.6-14.629 40.229l43.886 7.314c0-21.943 7.314-32.914 14.629-40.229 14.629-14.629 25.6-21.943 40.229-21.943v109.714c-14.629 0-36.571 7.314-47.543 14.629zM914.286 155.429c0-25.6 0-25.6-25.6-25.6h-778.971c-25.6 0-25.6 0-25.6 25.6v54.857h830.171v-54.857zM914.286 349.257h-833.829v237.714c0 25.6 0 25.6 29.257 25.6h471.771c14.629-109.714 109.714-197.486 219.429-197.486 40.229 0 80.457 14.629 117.029 32.914-3.657 3.657-3.657-98.743-3.657-98.743z" />
<glyph unicode="&#xe918;" d="M1020.062 448c0-274.069-227.467-496.246-508.062-496.246s-508.062 222.177-508.062 496.246c0 274.069 227.467 496.246 508.062 496.246s508.062-222.177 508.062-496.246z" />
<glyph unicode="&#xe919;" d="M716.8 522.831c0 7.877-3.938 11.815-7.877 15.754s-11.815 7.877-23.631 11.815v-59.077c7.877 0 15.754 3.938 23.631 7.877 3.938 7.877 7.877 11.815 7.877 23.631z" />
<glyph unicode="&#xe91a;" d="M669.538 625.231c-7.877 0-15.754-3.938-19.692-7.877s-7.877-11.815-7.877-15.754c0-7.877 3.938-11.815 7.877-15.754s11.815-7.877 23.631-11.815v51.2z" />
<glyph unicode="&#xe91b;" d="M677.415 684.308c-59.077 0-110.277-43.323-126.031-98.462h-303.262c-15.754 0-31.508-15.754-31.508-31.508v-311.138c0-15.754 15.754-31.508 31.508-31.508h512c15.754 0 31.508 15.754 31.508 31.508v248.123c11.815 19.692 15.754 39.385 15.754 63.015 0 70.892-59.077 129.969-129.969 129.969zM641.969 562.215c-7.877 3.938-11.815 7.877-15.754 11.815-3.938 7.877-7.877 11.815-7.877 19.692 0 11.815 3.938 23.631 15.754 35.446 7.877 3.938 19.692 7.877 35.446 11.815v7.877h11.815v-7.877c11.815 0 23.631-3.938 31.508-11.815 11.815-7.877 15.754-15.754 19.692-27.569l-23.631-3.938c0 7.877-3.938 11.815-7.877 15.754s-11.815 7.877-19.692 7.877v-55.138c11.815-3.938 19.692-3.938 23.631-3.938 7.877-3.938 11.815-7.877 15.754-7.877 3.938-3.938 7.877-7.877 11.815-11.815s3.938-11.815 3.938-15.754-3.938-23.631-15.754-35.446c-11.815-7.877-23.631-15.754-39.385-15.754v-19.692h-11.815v19.692c-11.815 0-19.692 3.938-27.569 7.877s-11.815 7.877-19.692 15.754c-3.938 7.877-7.877 15.754-7.877 23.631l23.631 3.938c0-11.815 3.938-19.692 7.877-23.631 7.877-7.877 15.754-11.815 23.631-11.815v63.015c-7.877 0-19.692 3.938-27.569 7.877zM744.369 274.708c0-15.754 0-15.754-15.754-15.754h-448.985c-15.754 0-15.754 0-15.754 15.754v31.508h480.492v-31.508zM744.369 384.985h-480.492v137.846c0 15.754 0 15.754 15.754 15.754h271.754c7.877-63.015 63.015-114.215 126.031-114.215 23.631 0 47.262 7.877 66.954 19.692v-59.077z" />
<glyph unicode="&#xe91c;" glyph-name="ico-close" d="M947.2-49.371h-138.971c-10.971 0-18.286 0-18.286 10.971-10.971 10.971-10.971 10.971-10.971 18.286l-274.286 413.257c0-10.971-10.971-18.286-10.971-29.257l-256-391.314c0-10.971-10.971-10.971-18.286-18.286-10.971-10.971-10.971-10.971-18.286-10.971h-124.343l343.771 512-325.486 497.371h138.971c10.971 0 18.286 0 18.286 0l10.971-10.971 256-402.286c0 10.971 10.971 18.286 10.971 29.257l245.029 362.057c0 10.971 10.971 10.971 10.971 18.286s18.286 0 29.257 0h128l-332.8-479.086 336.457-519.314z" />
<glyph unicode="&#xe91d;" d="M1020.062 448c0-274.069-227.467-496.246-508.062-496.246s-508.062 222.177-508.062 496.246c0 274.069 227.467 496.246 508.062 496.246s508.062-222.177 508.062-496.246z" />
<glyph unicode="&#xe91e;" d="M488.369 176.246v55.138c-35.446 3.938-63.015 11.815-82.708 19.692s-39.385 23.631-55.138 43.323c-15.754 19.692-23.631 47.262-27.569 74.831l66.954 11.815c3.938-31.508 15.754-51.2 27.569-66.954 19.692-19.692 43.323-31.508 70.892-35.446v181.169c-27.569 3.938-55.138 11.815-86.646 27.569-23.631 11.815-39.385 23.631-51.2 43.323s-15.754 39.385-15.754 59.077c0 39.385 15.754 74.831 51.2 98.462 23.631 15.754 59.077 27.569 102.4 31.508v31.508h39.385v-27.569c39.385-3.938 70.892-11.815 94.523-27.569 31.508-19.692 47.262-47.262 55.138-86.646l-70.892-7.877c-3.938 23.631-11.815 39.385-23.631 51.2s-31.508 19.692-51.2 23.631v-165.415c35.446-7.877 59.077-11.815 66.954-15.754 19.692-7.877 39.385-15.754 51.2-27.569s23.631-23.631 31.508-39.385c7.877-15.754 11.815-31.508 11.815-51.2 0-39.385-15.754-70.892-43.323-98.462-31.508-27.569-70.892-39.385-118.154-43.323v-59.077h-43.323zM488.369 676.431c-27.569-3.938-47.262-11.815-63.015-27.569s-23.631-31.508-23.631-51.2c0-19.692 7.877-35.446 19.692-47.262s35.446-23.631 66.954-31.508v157.538zM531.692 282.585c27.569 3.938 47.262 11.815 66.954 27.569 15.754 15.754 27.569 35.446 27.569 59.077 0 19.692-7.877 35.446-19.692 51.2-11.815 11.815-35.446 23.631-74.831 35.446v-173.292z" />
<glyph unicode="&#xe91f;" glyph-name="ico-cama-input" d="M1016.686 495.543v10.971l-10.971 32.914-10.971 10.971h-7.314l-32.914 10.971h-36.571l-164.571-47.543-36.571 3.657-58.514 21.943-36.571 10.971-117.029 14.629-36.571 10.971-29.257 3.657h-3.657v58.514l-7.314 10.971-3.657 10.971-14.629 10.971-10.971 10.971-14.629 3.657-10.971 3.657-3.657 3.657-14.629 7.314-21.943 7.314-21.943 3.657-18.286 7.314-21.943 3.657h-84.114l-18.286-3.657-21.943-7.314-21.943-3.657-18.286-10.971-21.943-3.657-21.943-10.971-18.286-18.286-10.971-7.314-10.971-10.971-3.657-10.971-7.314-10.971-3.657-14.629-7.314-10.971v-248.686l36.571-3.657 14.629 3.657v51.2l537.6-153.6v-62.171l40.229-10.971 36.571 10.971v62.171l299.886 87.771v-51.2l14.629-3.657 40.229 10.971v193.829l-3.657 10.971zM186.514 513.829l-7.314-7.314v-10.971h-7.314l-10.971-10.971h-25.6l-10.971 3.657-7.314 7.314-10.971 3.657-7.314 7.314-3.657-7.314-3.657 10.971-7.314 10.971v29.257l3.657 10.971 21.943 21.943 25.6 21.943 18.286 7.314 14.629 10.971 14.629 7.314 43.886 10.971h65.829l58.514-14.629 18.286-14.629 3.657-3.657v-14.629l-3.657-3.657h-62.171l-21.943-14.629-14.629-3.657-21.943-3.657-14.629-7.314-29.257-21.943-18.286-7.314v-18.286zM705.829 499.2l-32.914-10.971-21.943-21.943-14.629-43.886v-80.457l-391.314 109.714-3.657 7.314-10.971 3.657-10.971 7.314-3.657 3.657-7.314 3.657v21.943l10.971 10.971 21.943 14.629 29.257 21.943 3.657 3.657 18.286 7.314h3.657l43.886 7.314h95.086l182.857-18.286 109.714-32.914-21.943-14.629z" />
<glyph unicode="&#xe920;" glyph-name="ico-calendar-input" d="M768 738.133c0-25.6-17.067-42.667-42.667-42.667v0c-25.6 0-42.667 17.067-42.667 42.667v179.2c0 25.6 17.067 42.667 42.667 42.667v0c25.6 0 42.667-17.067 42.667-42.667v-179.2zM375.467 738.133c0-25.6-17.067-42.667-42.667-42.667v0c-25.6 0-42.667 17.067-42.667 42.667v179.2c0 25.6 17.067 42.667 42.667 42.667v0c25.6 0 42.667-17.067 42.667-42.667v-179.2zM921.6 832h-136.533v-93.867c0-34.133-25.6-68.267-68.267-68.267-34.133 0-68.267 25.6-68.267 68.267v93.867h-256v-93.867c0-34.133-25.6-68.267-68.267-68.267-34.133 0-68.267 25.6-68.267 68.267v93.867h-119.467c-34.133 0-51.2-25.6-51.2-51.2v-785.067c-8.533-42.667 17.067-59.733 51.2-59.733h785.067c34.133 0 51.2 25.6 51.2 51.2v785.067c8.533 34.133-17.067 59.733-51.2 59.733zM904.533 46.933c0-25.6-17.067-42.667-42.667-42.667h-665.6c-25.6 0-42.667 17.067-42.667 42.667v486.4h759.467v-486.4h-8.533zM392.533 482.133h110.933v-110.933h-110.933v110.933zM554.667 482.133h110.933v-110.933h-110.933v110.933zM708.267 482.133h110.933v-110.933h-110.933v110.933zM238.933 328.533h110.933v-110.933h-110.933v110.933zM392.533 328.533h110.933v-110.933h-110.933v110.933zM554.667 328.533h110.933v-110.933h-110.933v110.933zM708.267 328.533h110.933v-110.933h-110.933v110.933zM238.933 166.4h110.933v-110.933h-110.933v110.933zM392.533 166.4h110.933v-110.933h-110.933v110.933zM554.667 166.4h110.933v-110.933h-110.933v110.933z" />
<glyph unicode="&#xe921;" glyph-name="ico-boy-input" d="M742.4 711.314c0-127.246-103.154-230.4-230.4-230.4s-230.4 103.154-230.4 230.4c0 127.246 103.154 230.4 230.4 230.4s230.4-103.154 230.4-230.4zM983.771 305.371l-274.286 113.371c-7.314 0-7.314 0-18.286 0v0h-362.057c-7.314 0-7.314 0-18.286 0l-274.286-113.371c-32.914-18.286-43.886-51.2-32.914-95.086 18.286-32.914 51.2-58.514 84.114-43.886l241.371 98.743v-307.2h362.057v307.2l241.371-95.086c32.914-18.286 69.486 7.314 84.114 43.886 18.286 40.229 0 84.114-32.914 91.429z" />
<glyph unicode="&#xe922;" glyph-name="ico-airplane-input" d="M749.714 572.343l120.686 128c84.114 84.114 182.857 204.8 146.286 245.029s-168.229-62.171-245.029-146.286l-128-120.686-405.943 120.686c-117.029 25.6-131.657 25.6-175.543-14.629l387.657-266.971c-62.171-62.171-146.286-168.229-182.857-230.4l-21.943-36.571c-230.4 54.857-230.4 54.857-245.029 36.571l182.857-128-21.943-36.571 21.943-25.6 36.571 21.943 128-182.857c21.943 21.943 21.943 21.943-36.571 245.029l36.571 21.943c62.171 36.571 168.229 120.686 230.4 182.857l266.971-387.657c36.571 36.571 36.571 62.171 21.943 168.229l-117.029 405.943z" />
<glyph unicode="&#xe923;" glyph-name="ico-adult-input" horiz-adv-x="947" d="M609.262 284.674v102.767c51.384 40.373 80.746 91.756 80.746 154.151v0c22.022 0 40.373 29.362 40.373 69.735s-22.022 69.735-40.373 69.735v69.735c0 121.118-91.756 201.864-212.875 201.864s-212.875-80.746-212.875-201.864v-80.746c-22.022 0-40.373-29.362-40.373-69.735s22.022-69.735 40.373-69.735v0c11.011-62.394 40.373-110.108 80.746-154.151v-102.767l-345.004-154.151v-183.513h946.925v194.523l-337.663 154.151z" />
<glyph unicode="&#xe924;" glyph-name="ico-addcard-input" d="M822.857 806.4c-84.114 0-160.914-58.514-186.514-131.657l-493.714 29.257-18.286 80.457c0 3.657-3.657 14.629-14.629 14.629l-62.171 21.943c-3.657 3.657-25.6 0-32.914-14.629-3.657-10.971 0-29.257 21.943-29.257l54.857-14.629 21.943-91.429 95.086-351.086c10.971-25.6 21.943-47.543 43.886-65.829-21.943-21.943-36.571-47.543-36.571-80.457 0-58.514 47.543-102.4 95.086-102.4 54.857 0 95.086 47.543 95.086 102.4 0 21.943-3.657 36.571-14.629 54.857h193.829c-10.971-14.629-14.629-32.914-14.629-54.857 0-58.514 47.543-102.4 102.4-102.4 58.514 0 95.086 47.543 95.086 102.4 0 25.6-10.971 54.857-25.6 69.486 21.943 14.629 43.886 43.886 54.857 69.486l21.943 91.429c113.371 0 197.486 91.429 197.486 197.486 3.657 113.371-87.771 204.8-193.829 204.8zM314.514 122.514c-25.6 0-54.857 21.943-54.857 54.857s21.943 54.857 54.857 54.857c21.943 0 54.857-21.943 54.857-54.857-10.971-32.914-29.257-54.857-54.857-54.857zM676.571 122.514c-25.6 0-54.857 21.943-54.857 54.857s21.943 54.857 54.857 54.857c25.6 0 54.857-21.943 54.857-54.857-3.657-32.914-21.943-54.857-54.857-54.857zM753.371 334.629c-3.657-32.914-32.914-58.514-69.486-58.514h-351.086c-25.6 0-58.514 21.943-69.486 58.514l-91.429 321.829 460.8-36.571c0-3.657 0-10.971 0-14.629 0-91.429 65.829-164.571 142.629-193.829l-21.943-76.8zM917.943 586.971h-80.457v-80.457h-43.886v80.457h-80.457v36.571h80.457v80.457h43.886v-80.457h80.457v-36.571z" />
</font>
</defs>
</svg>
