<?xml version="1.0" encoding="utf-8"?>
<!-- Generator: Adobe Illustrator 21.0.2, SVG Export Plug-In . SVG Version: 6.00 Build 0)  -->
<svg version="1.1" id="Capa_1" xmlns="http://www.w3.org/2000/svg" xmlns:xlink="http://www.w3.org/1999/xlink" x="0px" y="0px"
	 viewBox="0 0 22.8 17.7" style="enable-background:new 0 0 22.8 17.7;" xml:space="preserve">
<style type="text/css">
	.st0{fill:#514E4E;}
	.st1{fill:#242323;}
	.st2{fill:#535050;}
</style>
<g>
	<path class="st0" d="M22.7,1.3c0,0.6-0.5,1.1-1.1,1.1H1.2c-0.6,0-1.1-0.5-1.1-1.1c0-0.6,0.5-1.1,1.1-1.1h20.5
		C22.3,0.2,22.7,0.7,22.7,1.3"/>
	<path class="st1" d="M22.7,8.9c0,0.6-0.5,1.1-1.1,1.1H1.2c-0.6,0-1.1-0.5-1.1-1.1c0-0.6,0.5-1.1,1.1-1.1h20.5
		C22.3,7.8,22.7,8.3,22.7,8.9"/>
	<path class="st2" d="M22.7,16.4c0,0.6-0.5,1.1-1.1,1.1H1.2c-0.6,0-1.1-0.5-1.1-1.1c0-0.6,0.5-1.1,1.1-1.1h20.5
		C22.3,15.3,22.7,15.8,22.7,16.4"/>
</g>
</svg>
