<?xml version="1.0" encoding="utf-8"?>
<!-- Generator: Adobe Illustrator 21.0.2, SVG Export Plug-In . SVG Version: 6.00 Build 0)  -->
<svg version="1.1" id="Capa_1" xmlns="http://www.w3.org/2000/svg" xmlns:xlink="http://www.w3.org/1999/xlink" x="0px" y="0px"
	 viewBox="0 0 30.4 30.4" style="enable-background:new 0 0 30.4 30.4;" xml:space="preserve">
<style type="text/css">
	.st0{fill:#FFFFFF;}
</style>
<g>
	<g>
		<path class="st0" d="M20,6.8c0,0.6-0.5,1.1-1.1,1.1c-0.6,0-1.1-0.5-1.1-1.1V2.2c0-0.6,0.5-1.1,1.1-1.1c0.6,0,1.1,0.5,1.1,1.1V6.8z
			"/>
		<path class="st0" d="M10.2,6.8c0,0.6-0.5,1.1-1.1,1.1c-0.6,0-1.1-0.5-1.1-1.1V2.2c0-0.6,0.5-1.1,1.1-1.1c0.6,0,1.1,0.5,1.1,1.1
			V6.8z"/>
		<rect x="10.7" y="13.1" class="st0" width="2.8" height="2.8"/>
		<rect x="14.6" y="13.1" class="st0" width="2.8" height="2.8"/>
		<rect x="18.6" y="13.1" class="st0" width="2.8" height="2.8"/>
		<rect x="6.7" y="17.1" class="st0" width="2.8" height="2.8"/>
		<rect x="10.7" y="17.1" class="st0" width="2.8" height="2.8"/>
		<rect x="14.6" y="17.1" class="st0" width="2.8" height="2.8"/>
		<rect x="6.7" y="21" class="st0" width="2.8" height="2.8"/>
		<rect x="10.7" y="21" class="st0" width="2.8" height="2.8"/>
		<path class="st0" d="M14.6,21v2.8H16c0-1,0.2-2,0.7-2.8H14.6z"/>
		<path class="st0" d="M21.4,17.8v-0.7h-2.8v1.8C19.4,18.3,20.4,17.9,21.4,17.8"/>
		<path class="st0" d="M16.2,25.2H5.7c-0.6,0-1.2-0.5-1.2-1.2V11.7h19v6.2c0.6,0.2,1.2,0.4,1.8,0.7V5.8c0-0.8-0.6-1.4-1.4-1.4h-3.4
			v2.3c0,0.9-0.7,1.6-1.6,1.6c-0.9,0-1.6-0.7-1.6-1.6V4.5h-6.5v2.3c0,0.9-0.7,1.6-1.6,1.6S7.5,7.7,7.5,6.8V4.5H4.2
			c-0.8,0-1.4,0.6-1.4,1.4v19.7c0,0.8,0.6,1.4,1.4,1.4h12.7C16.6,26.4,16.3,25.8,16.2,25.2"/>
		<path class="st0" d="M22.1,18.3c-3,0-5.5,2.5-5.5,5.5c0,3,2.5,5.5,5.5,5.5s5.5-2.5,5.5-5.5C27.6,20.8,25.1,18.3,22.1,18.3
			 M22.1,28.1c-2.4,0-4.3-1.9-4.3-4.3c0-2.4,1.9-4.3,4.3-4.3c2.4,0,4.3,1.9,4.3,4.3C26.4,26.2,24.5,28.1,22.1,28.1"/>
		<path class="st0" d="M24.9,22.3l-0.7-0.7c-0.2-0.2-0.6-0.2-0.8,0l-2,2l-0.8-0.8c-0.2-0.2-0.6-0.2-0.8,0l-0.7,0.7
			c-0.2,0.2-0.2,0.6,0,0.8l1.8,1.8c0.1,0.1,0.3,0.2,0.4,0.2c0.1,0,0.3,0,0.4-0.2l3-3C25.1,22.9,25.1,22.5,24.9,22.3"/>
	</g>
</g>
</svg>
