<?xml version="1.0" encoding="utf-8"?>
<!-- Generator: Adobe Illustrator 21.0.2, SVG Export Plug-In . SVG Version: 6.00 Build 0)  -->
<svg version="1.1" id="Capa_1" xmlns="http://www.w3.org/2000/svg" xmlns:xlink="http://www.w3.org/1999/xlink" x="0px" y="0px"
	 viewBox="0 0 30.4 30.4" style="enable-background:new 0 0 30.4 30.4;" xml:space="preserve">
<style type="text/css">
	.st0{fill:#FFFFFF;}
</style>
<path class="st0" d="M15.2,4.4c-6,0-10.8,4.8-10.8,10.8S9.2,26,15.2,26c6,0,10.8-4.8,10.8-10.8S21.1,4.4,15.2,4.4z M14.7,21.4
	c-1.2,0-1.9-0.5-1.9-1.8c0-0.3,0.1-1,0.2-1.7l1-4.5h-1.4l0.1-0.4h3.8c-0.4,1.8-1.2,5.7-1.3,6.3C15.1,19.6,15,20,15,20.2
	c0,0.4,0.2,0.5,0.4,0.5c0.3,0,0.7-0.3,1.1-0.8l0.4,0.3C16.4,21,15.7,21.4,14.7,21.4z M15.2,11.6c-1,0-1.3-0.6-1.3-1.1
	c0-0.9,0.7-1.5,1.7-1.5c0.8,0,1.3,0.3,1.3,1.1C16.9,11,16.2,11.6,15.2,11.6z"/>
</svg>
