<?xml version="1.0" encoding="utf-8"?>
<!-- Generator: Adobe Illustrator 21.0.2, SVG Export Plug-In . SVG Version: 6.00 Build 0)  -->
<svg version="1.1" id="Capa_1" xmlns="http://www.w3.org/2000/svg" xmlns:xlink="http://www.w3.org/1999/xlink" x="0px" y="0px"
	 viewBox="0 0 28 28" style="enable-background:new 0 0 28 28;" xml:space="preserve">
<style type="text/css">
	.st0{fill:#FFFFFF;}
</style>
<g>
	<path class="st0" d="M19.2,12.1c0-0.2-0.1-0.3-0.2-0.4c-0.1-0.1-0.3-0.2-0.6-0.3v1.5c0.2,0,0.4-0.1,0.6-0.2
		C19.1,12.5,19.2,12.4,19.2,12.1z"/>
	<path class="st0" d="M18,9.5c-0.2,0-0.4,0.1-0.5,0.2c-0.1,0.1-0.2,0.3-0.2,0.4c0,0.2,0.1,0.3,0.2,0.4c0.1,0.1,0.3,0.2,0.6,0.3V9.5z
		"/>
	<path class="st0" d="M18.2,8c-1.5,0-2.8,1.1-3.2,2.5H7.3c-0.4,0-0.8,0.4-0.8,0.8v7.9c0,0.4,0.4,0.8,0.8,0.8h13
		c0.4,0,0.8-0.4,0.8-0.8v-6.3c0.3-0.5,0.4-1,0.4-1.6C21.5,9.5,20,8,18.2,8z M17.3,11.1c-0.2-0.1-0.3-0.2-0.4-0.4
		c-0.1-0.2-0.2-0.3-0.2-0.5c0-0.3,0.1-0.6,0.4-0.9c0.2-0.1,0.5-0.2,0.9-0.3V8.9h0.3v0.2c0.3,0,0.6,0.1,0.8,0.3
		c0.3,0.2,0.4,0.4,0.5,0.7l-0.6,0.1c0-0.2-0.1-0.3-0.2-0.4c-0.1-0.1-0.3-0.2-0.5-0.2v1.4c0.3,0.1,0.5,0.1,0.6,0.1
		c0.2,0.1,0.3,0.2,0.4,0.2c0.1,0.1,0.2,0.2,0.3,0.3c0.1,0.1,0.1,0.3,0.1,0.4c0,0.3-0.1,0.6-0.4,0.9c-0.3,0.2-0.6,0.4-1,0.4v0.5H18
		v-0.5c-0.3,0-0.5-0.1-0.7-0.2c-0.2-0.1-0.3-0.2-0.5-0.4c-0.1-0.2-0.2-0.4-0.2-0.6l0.6-0.1c0,0.3,0.1,0.5,0.2,0.6
		c0.2,0.2,0.4,0.3,0.6,0.3v-1.6C17.8,11.3,17.5,11.2,17.3,11.1z M19.9,18.4c0,0.4,0,0.4-0.4,0.4H8.1c-0.4,0-0.4,0-0.4-0.4v-0.8h12.2
		V18.4z M19.9,15.6H7.7v-3.5c0-0.4,0-0.4,0.4-0.4H15c0.2,1.6,1.6,2.9,3.2,2.9c0.6,0,1.2-0.2,1.7-0.5V15.6z"/>
</g>
</svg>
