<?xml version="1.0" encoding="utf-8"?>
<!-- Generator: Adobe Illustrator 21.0.2, SVG Export Plug-In . SVG Version: 6.00 Build 0)  -->
<svg version="1.1" id="Capa_1" xmlns="http://www.w3.org/2000/svg" xmlns:xlink="http://www.w3.org/1999/xlink" x="0px" y="0px"
	 viewBox="0 0 28 28" style="enable-background:new 0 0 28 28;" xml:space="preserve">
<g>
	<path d="M25.9,27.6h-3.8c-0.3,0-0.5,0-0.5-0.3c-0.3-0.3-0.3-0.3-0.3-0.5l-7.5-11.3c0,0.3-0.3,0.5-0.3,0.8l-7,10.7
		c0,0.3-0.3,0.3-0.5,0.5c-0.3,0.3-0.3,0.3-0.5,0.3H2.1l9.4-14L2.6,0.2h3.8c0.3,0,0.5,0,0.5,0l0.3,0.3l7,11c0-0.3,0.3-0.5,0.3-0.8
		l6.7-9.9c0-0.3,0.3-0.3,0.3-0.5s0.5,0,0.8,0h3.5l-9.1,13.1L25.9,27.6z"/>
</g>
</svg>
