<?xml version="1.0" encoding="utf-8"?>
<!-- Generator: Adobe Illustrator 21.0.2, SVG Export Plug-In . SVG Version: 6.00 Build 0)  -->
<svg version="1.1" id="Capa_1" xmlns="http://www.w3.org/2000/svg" xmlns:xlink="http://www.w3.org/1999/xlink" x="0px" y="0px"
	 viewBox="0 0 30.4 30.4" style="enable-background:new 0 0 30.4 30.4;" xml:space="preserve">
<style type="text/css">
	.st0{fill:#FFFFFF;}
</style>
<g transform="translate(0,-952.36218)">
	<path class="st0" d="M13.4,960.1c0.8,0,1.5,0.4,1.9,1c0.4-0.4,1-0.7,1.6-0.7c1.2,0,2.2,1,2.2,2.2c0,0.4-0.1,0.8-0.3,1.2h3.5
		c0.3,0,0.5,0.2,0.5,0.5v3c0,0.3-0.2,0.5-0.5,0.5h-0.5v6.8c0,0.3-0.2,0.5-0.5,0.5h-12c-0.3,0-0.5-0.2-0.5-0.5v-6.8H8.2
		c-0.3,0-0.5-0.2-0.5-0.5v-3c0-0.3,0.2-0.5,0.5-0.5h3.3c-0.3-0.4-0.4-0.8-0.4-1.3C11,961.1,12.1,960.1,13.4,960.1z M13.4,961.1
		c-0.7,0-1.3,0.6-1.3,1.3c0,0.7,0.6,1.3,1.3,1.3h1.3c0-0.4,0-0.9,0-1.3C14.7,961.7,14.1,961.1,13.4,961.1z M16.9,961.4
		c-0.6,0-1.2,0.5-1.2,1.2v1.2h1.2c0.6,0,1.2-0.5,1.2-1.2C18,961.9,17.5,961.4,16.9,961.4z M21.7,964.7c-2,0-4,0-6,0v2c2,0,4,0,6,0
		V964.7z M14.7,964.7c-2,0-4,0-6,0v2c2,0,4,0,6,0V964.7z M20.7,967.7h-5v6.3h5V967.7z M14.7,967.7h-5v6.3h5V967.7z"/>
</g>
</svg>
