<?xml version="1.0" encoding="utf-8"?>
<!-- Generator: Adobe Illustrator 21.0.2, SVG Export Plug-In . SVG Version: 6.00 Build 0)  -->
<svg version="1.1" id="Capa_1" xmlns="http://www.w3.org/2000/svg" xmlns:xlink="http://www.w3.org/1999/xlink" x="0px" y="0px"
	 viewBox="0 0 26 26" style="enable-background:new 0 0 26 26;" xml:space="preserve">
<style type="text/css">
	.st0{fill:#218FC7;}
	.st1{fill:#FFFFFF;}
</style>
<g>
	<ellipse class="st0" cx="13" cy="13" rx="12.9" ry="12.6"/>
</g>
<g>
	<path class="st1" d="M18.2,11.1c0-0.2-0.1-0.3-0.2-0.4c-0.1-0.1-0.3-0.2-0.6-0.3v1.5c0.2,0,0.4-0.1,0.6-0.2
		C18.1,11.5,18.2,11.4,18.2,11.1z"/>
	<path class="st1" d="M17,8.5c-0.2,0-0.4,0.1-0.5,0.2c-0.1,0.1-0.2,0.3-0.2,0.4c0,0.2,0.1,0.3,0.2,0.4c0.1,0.1,0.3,0.2,0.6,0.3V8.5z
		"/>
	<path class="st1" d="M17.2,7c-1.5,0-2.8,1.1-3.2,2.5H6.3c-0.4,0-0.8,0.4-0.8,0.8v7.9c0,0.4,0.4,0.8,0.8,0.8h13
		c0.4,0,0.8-0.4,0.8-0.8v-6.3c0.3-0.5,0.4-1,0.4-1.6C20.5,8.5,19,7,17.2,7z M16.3,10.1C16.1,10,16,9.9,15.9,9.8
		c-0.1-0.2-0.2-0.3-0.2-0.5c0-0.3,0.1-0.6,0.4-0.9c0.2-0.1,0.5-0.2,0.9-0.3V7.9h0.3v0.2c0.3,0,0.6,0.1,0.8,0.3
		c0.3,0.2,0.4,0.4,0.5,0.7l-0.6,0.1c0-0.2-0.1-0.3-0.2-0.4c-0.1-0.1-0.3-0.2-0.5-0.2v1.4c0.3,0.1,0.5,0.1,0.6,0.1
		c0.2,0.1,0.3,0.2,0.4,0.2c0.1,0.1,0.2,0.2,0.3,0.3c0.1,0.1,0.1,0.3,0.1,0.4c0,0.3-0.1,0.6-0.4,0.9c-0.3,0.2-0.6,0.4-1,0.4v0.5H17
		v-0.5c-0.3,0-0.5-0.1-0.7-0.2c-0.2-0.1-0.3-0.2-0.5-0.4c-0.1-0.2-0.2-0.4-0.2-0.6l0.6-0.1c0,0.3,0.1,0.5,0.2,0.6
		c0.2,0.2,0.4,0.3,0.6,0.3v-1.6C16.8,10.3,16.5,10.2,16.3,10.1z M18.9,17.4c0,0.4,0,0.4-0.4,0.4H7.1c-0.4,0-0.4,0-0.4-0.4v-0.8h12.2
		V17.4z M18.9,14.6H6.7v-3.5c0-0.4,0-0.4,0.4-0.4H14c0.2,1.6,1.6,2.9,3.2,2.9c0.6,0,1.2-0.2,1.7-0.5V14.6z"/>
</g>
</svg>
