<?xml version="1.0" encoding="utf-8"?>
<!-- Generator: Adobe Illustrator 21.0.2, SVG Export Plug-In . SVG Version: 6.00 Build 0)  -->
<svg version="1.1" id="Capa_1" xmlns="http://www.w3.org/2000/svg" xmlns:xlink="http://www.w3.org/1999/xlink" x="0px" y="0px"
	 viewBox="0 0 28 28" style="enable-background:new 0 0 28 28;" xml:space="preserve">
<style type="text/css">
	.st0{fill:#FFFFFF;}
</style>
<g>
	<path class="st0" d="M22.3,9.8c0,0.3,0,0.6,0,0.9c0,4.9-4,8.9-8.9,8.9c-4.9,0-8.9-4-8.9-8.9c0-4.9,4-8.9,8.9-8.9
		c1.5,0,2.9,0.4,4.2,1l0.7-1.1c-1.4-0.8-3.1-1.2-4.9-1.2C7.8,0.4,3.2,5,3.2,10.7c0,5.7,4.6,10.2,10.2,10.2c5.7,0,10.2-4.6,10.2-10.2
		c0-0.4,0-0.9-0.1-1.3L22.3,9.8z"/>
	<g>
		<path class="st0" d="M13.4,15.3L9,10C8.8,9.8,8.9,9.5,9,9.3c0.2-0.2,0.5-0.1,0.7,0.1l3.7,4.5l9.9-12.3c0.2-0.2,0.5-0.2,0.7-0.1
			c0.2,0.2,0.2,0.5,0.1,0.7L13.4,15.3z"/>
		<path class="st0" d="M13.5,16.3l-5-5.9c-0.2-0.2-0.3-0.5-0.3-0.8c0-0.3,0.2-0.6,0.4-0.8C9.1,8.4,9.8,8.5,10.2,9l3.2,3.9l9.4-11.6
			c0.4-0.5,1.1-0.5,1.6-0.2c0.2,0.2,0.4,0.4,0.4,0.7c0,0.3-0.1,0.6-0.2,0.8L13.5,16.3z"/>
	</g>
	<path class="st0" d="M3.2,24.7l2.3-5.6c0,0,4.2,3.2,7.3,2.8l-2.5,5.7l-3-3.3L3.2,24.7z"/>
	<path class="st0" d="M15.1,22.2c0,0,4.1-0.9,6.6-3.5l2.5,6.2h-4.5L17,27.6L15.1,22.2z"/>
</g>
</svg>
