<?xml version="1.0" encoding="utf-8"?>
<!-- Generator: Adobe Illustrator 21.0.2, SVG Export Plug-In . SVG Version: 6.00 Build 0)  -->
<svg version="1.1" id="Capa_1" xmlns="http://www.w3.org/2000/svg" xmlns:xlink="http://www.w3.org/1999/xlink" x="0px" y="0px"
	 viewBox="0 0 30.4 30.4" style="enable-background:new 0 0 30.4 30.4;" xml:space="preserve">
<style type="text/css">
	.st0{fill:#FFFFFF;}
</style>
<path class="st0" d="M1.2,2.6c0-0.1,0-0.2,0.1-0.2c0.1-0.7,0.7-1.2,1.4-1.2c1.9,0,3.8,0,5.7,0c0.8,0,1.5,0.6,1.5,1.4
	c0,0,0,0.1,0,0.1c0,1.8,0.3,3.6,0.7,5.3c0.1,0.2,0.1,0.4,0.2,0.6c0,0.5-0.2,0.9-0.5,1.2c-1,1-2.1,2.1-3.2,3.1
	c-0.2,0.1-0.2,0.3-0.1,0.5c0,0,0,0,0,0c1.8,3.4,4.4,6.3,7.6,8.5c0.7,0.5,1.5,0.9,2.2,1.4c0.1,0.1,0.3,0.1,0.4,0c0,0,0,0,0,0
	c1-1,2-2,3-3c0.5-0.5,1.2-0.7,1.9-0.5c1.8,0.6,3.6,0.9,5.5,0.9c0.8-0.1,1.5,0.6,1.5,1.4c0,0.1,0,0.1,0,0.2c0,1.8,0,3.7,0,5.5
	c0,1-0.6,1.5-1.6,1.5c-6.1,0-12-2.1-16.6-5.9c-4.6-3.7-7.8-8.8-9.1-14.6C1.5,7,1.2,5.3,1.2,3.6c0-0.1,0-0.2,0-0.2
	C1.2,3.1,1.2,2.8,1.2,2.6z"/>
</svg>
