<?xml version="1.0" encoding="utf-8"?>
<!-- Generator: Adobe Illustrator 21.0.2, SVG Export Plug-In . SVG Version: 6.00 Build 0)  -->
<svg version="1.1" id="Capa_1" xmlns="http://www.w3.org/2000/svg" xmlns:xlink="http://www.w3.org/1999/xlink" x="0px" y="0px"
	 viewBox="0 0 28 28" style="enable-background:new 0 0 28 28;" xml:space="preserve">
<style type="text/css">
	.st0{fill:#09060A;}
</style>
<path class="st0" d="M15.6,26c0.3,0,0.6,0,0.6,0c0.9,0,1.7,0,2.9,0c0.3,0,0.3,0,0.6,0c0.6,0,0.9,0.3,0.9,0.9c0,0.6-0.3,0.9-0.6,0.9
	c-0.3,0-0.6,0-0.9,0c-3.2,0-6.1,0-9.3,0c-0.3,0-0.6,0-0.9,0c-0.3-0.3-0.6-0.6-0.6-0.9c0-0.3,0.3-0.9,0.9-0.9c0.3,0,0.3,0,0.6,0
	c0.9,0,1.7,0,2.9,0c0.3,0,0.6,0,0.6,0c0-0.3,0-0.6,0-0.6c0-2.3,0-4.9,0-7.3c0-0.3,0-0.6-0.3-0.9C8.9,12.4,4.8,7.4,0.8,2.2
	c0-0.3-0.3-0.3-0.3-0.6C0.2,1,0.5,0.1,1.4,0.1c0.3,0,0.3,0,0.6,0c8.1,0,16,0,24.1,0c0.3,0,0.3,0,0.6,0c0.6,0,1.2,0.9,0.6,1.5
	c0,0.3-0.3,0.3-0.6,0.6c-3.8,4.9-7.3,9.9-11,14.8c-0.3,0.3-0.3,0.6-0.3,0.9c0,2.6,0,5.2,0,7.8C15.6,25.7,15.6,26,15.6,26z
	 M14.7,15.5c3.2-4.4,6.4-8.7,9.6-12.8l0.3-0.3l0,0l0,0c-2.9-0.3-20.1,0-20.6,0C7.5,6.5,10.9,10.9,14.7,15.5z"/>
</svg>
