<?xml version="1.0" encoding="utf-8"?>
<!-- Generator: Adobe Illustrator 21.0.2, SVG Export Plug-In . SVG Version: 6.00 Build 0)  -->
<svg version="1.1" id="Capa_1" xmlns="http://www.w3.org/2000/svg" xmlns:xlink="http://www.w3.org/1999/xlink" x="0px" y="0px"
	 viewBox="0 0 28 15" style="enable-background:new 0 0 28 15;" xml:space="preserve">
<style type="text/css">
	.st0{fill:#5B5B5F;}
</style>
<path class="st0" d="M27.8,6.2V5.9l-0.1-0.3l-0.1-0.3l-0.1-0.3l-0.3-0.3L27,4.7l-0.3-0.1l-0.3-0.1l-0.3-0.1h-0.3h-0.3h-0.3h-0.1
	l-4.5,1.3l-1-0.1l-0.8-0.3l-0.8-0.3L17,4.7l-0.8-0.1l-0.8-0.1l-0.8-0.1l-0.8-0.1L12.8,4l-0.8-0.1h-0.1v-1V2.5V2.3L11.7,2l-0.1-0.3
	l-0.4-0.3l-0.3-0.3L10.5,1l-0.3-0.1l-0.1-0.1l0,0L9.7,0.6L9.1,0.4L8.5,0.3L8,0.1L7.4,0H6.8H6.3H5.7H5.1L4.6,0.1L4,0.3L3.4,0.4
	L2.9,0.7L2.3,0.8L1.7,1.1l0,0L1.5,1.3L1.2,1.6L0.9,1.8L0.6,2.1L0.5,2.4L0.3,2.7L0.2,3.1L0,3.4v0.4v0.3v6.1l1,0.1l0.4-0.1V8.8
	L16.1,13v1.7l1.1,0.3l1-0.3V13l8.2-2.4V12l0.4,0.1l1.1-0.3V6.5L27.8,6.2z M5.1,5.7L4.9,5.9v0.1v0.1v0.1H4.7L4.4,6.5H4.2H3.9l0,0H3.7
	L3.4,6.4L3.2,6.2L2.9,6.1L2.7,5.9L2.6,6.1L2.5,5.8L2.3,5.5V5.2V5V4.7l0.1-0.3l0.1-0.1l0.1-0.1L3,3.8l0.7-0.6L4.2,3l0.4-0.3L5,2.5
	l0.4-0.1l0.4-0.1l0.4-0.1h0.4h0.4h0.4H8l0.4,0.1l0.4,0.1l0.4,0.1l0.4,0.1L10.1,3l0,0l0.1,0.1v0.1v0.1v0.1v0.1l-0.1,0.1H10H9.8H9.7
	H9.5H9H8.4L7.8,4L7.4,4.1L6.8,4.2L6.4,4.4L6,4.7L5.6,5L5.1,5.2L5.1,5.7L5.1,5.7z M19.3,6.1L19,6.2l-0.3,0.1l-0.3,0.1l-0.3,0.3
	l-0.3,0.3l-0.1,0.3l-0.1,0.3l-0.1,0.3l-0.1,0.3v0.4v0.4v1.4L6.7,7.4L6.6,7.2L6.3,7.1L6,6.9l0,0L5.9,6.8L5.7,6.7V6.5V6.4V6.2V6.1
	l0.1-0.1L6,5.8l0.6-0.4L7,5.1l0.4-0.3l0.1-0.1L8,4.5h0.1l0.6-0.1l0.6-0.1h0.6h0.6H11h0.6h0.6h-0.3l1,0.1l1,0.1l1,0.1l1,0.1l1,0.1
	l1,0.3l1,0.3l1,0.3L19.3,6.1z"/>
</svg>
