<?xml version="1.0" encoding="utf-8"?>
<!-- Generator: Adobe Illustrator 21.0.2, SVG Export Plug-In . SVG Version: 6.00 Build 0)  -->
<svg version="1.1" id="Capa_1" xmlns="http://www.w3.org/2000/svg" xmlns:xlink="http://www.w3.org/1999/xlink" x="0px" y="0px"
	 viewBox="0 0 28 28" style="enable-background:new 0 0 28 28;" xml:space="preserve">
<style type="text/css">
	.st0{fill:#5B5B5F;}
</style>
<g transform="translate(0,-952.36218)">
	<path class="st0" d="M8.1,961.8c-0.5,0-0.9,0.4-0.9,1v7.1c0,0.5,0.4,1,0.9,1h11.8c0.5,0,0.9-0.4,0.9-1v-7.1c0-0.5-0.4-1-0.9-1H8.1z
		 M8.3,962.5h11.3l-5.4,4.9c-0.1,0.1-0.5,0.1-0.6,0L8.3,962.5z M7.8,962.9l4,3.7l-4,3.3V962.9z M20.2,962.9v7l-4-3.3L20.2,962.9z
		 M12.3,967l1,0.9c0.4,0.4,0.9,0.4,1.3,0l1-0.9l3.9,3.3H8.4L12.3,967L12.3,967z"/>
</g>
</svg>
