<?xml version="1.0" encoding="utf-8"?>
<!-- Generator: Adobe Illustrator 21.0.2, SVG Export Plug-In . SVG Version: 6.00 Build 0)  -->
<svg version="1.1" id="Capa_1" xmlns="http://www.w3.org/2000/svg" xmlns:xlink="http://www.w3.org/1999/xlink" x="0px" y="0px"
	 viewBox="0 0 30.4 30.4" style="enable-background:new 0 0 30.4 30.4;" xml:space="preserve">
<style type="text/css">
	.st0{fill:#FFFFFF;}
</style>
<g>
	<path class="st0" d="M11.6,29.3c-0.1,0-0.1,0-0.2,0c-0.2,0-0.3-0.2-0.4-0.3l-1.8-3.5l-3.9,0.2c-0.2,0-0.3-0.1-0.4-0.2
		c-0.1-0.1-0.2-0.3-0.2-0.4l0.2-3.9l-3.5-1.8c-0.1-0.1-0.3-0.2-0.3-0.4c0-0.2,0-0.3,0.1-0.5l2.1-3.3l-2.1-3.3
		c-0.1-0.1-0.1-0.3-0.1-0.5c0-0.2,0.2-0.3,0.3-0.4l3.5-1.8L4.7,5.3c0-0.2,0.1-0.3,0.2-0.4C5,4.8,5.1,4.7,5.3,4.7l3.9,0.2L11,1.4
		c0.1-0.1,0.2-0.3,0.4-0.3c0.2,0,0.3,0,0.5,0.1l3.3,2.1l3.3-2.1c0.1-0.1,0.3-0.1,0.5-0.1c0.2,0,0.3,0.2,0.4,0.3l1.8,3.5l3.9-0.2
		c0.2,0,0.3,0.1,0.4,0.2c0.1,0.1,0.2,0.3,0.2,0.4l-0.2,3.9L29,11c0.1,0.1,0.3,0.2,0.3,0.4c0,0.2,0,0.3-0.1,0.5l-2.1,3.3l2.1,3.3
		c0.1,0.1,0.1,0.3,0.1,0.5c0,0.2-0.2,0.3-0.3,0.4l-3.5,1.8l0.2,3.9c0,0.2-0.1,0.3-0.2,0.4c-0.1,0.1-0.3,0.2-0.4,0.2l-3.9-0.2
		L19.3,29c-0.1,0.1-0.2,0.3-0.4,0.3c-0.2,0-0.3,0-0.5-0.1l-3.3-2.1l-3.3,2.1C11.8,29.3,11.7,29.3,11.6,29.3z M9.6,24.3
		c0.2,0,0.4,0.1,0.5,0.3l1.7,3.2l3.1-2c0.2-0.1,0.4-0.1,0.6,0l3.1,2l1.7-3.2c0.1-0.2,0.3-0.3,0.6-0.3l3.6,0.2l-0.2-3.6
		c0-0.2,0.1-0.4,0.3-0.6l3.2-1.7l-2-3.1c-0.1-0.2-0.1-0.4,0-0.6l2-3.1l-3.2-1.7c-0.2-0.1-0.3-0.3-0.3-0.6l0.2-3.6l-3.6,0.2
		c-0.2,0-0.4-0.1-0.6-0.3l-1.7-3.2l-3.1,2c-0.2,0.1-0.4,0.1-0.6,0l-3.1-2l-1.7,3.2C10,5.9,9.8,6.1,9.6,6.1L5.9,5.9l0.2,3.6
		c0,0.2-0.1,0.4-0.3,0.6l-3.2,1.7l2,3.1c0.1,0.2,0.1,0.4,0,0.6l-2,3.1l3.2,1.7c0.2,0.1,0.3,0.3,0.3,0.6l-0.2,3.6L9.6,24.3
		C9.6,24.3,9.6,24.3,9.6,24.3z M12.7,20.5l5.6-9.3c0.2-0.3,0.1-0.6-0.2-0.8c-0.3-0.2-0.6-0.1-0.8,0.2l-5.6,9.3
		c-0.2,0.3-0.1,0.6,0.2,0.8c0.1,0.1,0.2,0.1,0.3,0.1C12.4,20.8,12.6,20.7,12.7,20.5z M12.1,15.3c-1.4,0-2.5-1.1-2.5-2.5
		c0-1.4,1.1-2.5,2.5-2.5c1.4,0,2.5,1.1,2.5,2.5C14.6,14.2,13.5,15.3,12.1,15.3z M12.1,11.5c-0.7,0-1.3,0.6-1.3,1.3
		c0,0.7,0.6,1.3,1.3,1.3c0.7,0,1.3-0.6,1.3-1.3C13.4,12.1,12.8,11.5,12.1,11.5z M18.3,20.2c-1.4,0-2.5-1.1-2.5-2.5
		c0-1.4,1.1-2.5,2.5-2.5c1.4,0,2.5,1.1,2.5,2.5C20.7,19.1,19.6,20.2,18.3,20.2z M18.3,16.4c-0.7,0-1.3,0.6-1.3,1.3
		c0,0.7,0.6,1.3,1.3,1.3c0.7,0,1.3-0.6,1.3-1.3C19.6,17,19,16.4,18.3,16.4z"/>
</g>
</svg>
