<?xml version="1.0" encoding="utf-8"?>
<!-- Generator: Adobe Illustrator 21.0.2, SVG Export Plug-In . SVG Version: 6.00 Build 0)  -->
<svg version="1.1" id="Capa_1" xmlns="http://www.w3.org/2000/svg" xmlns:xlink="http://www.w3.org/1999/xlink" x="0px" y="0px"
	 viewBox="0 0 28 22.5" style="enable-background:new 0 0 28 22.5;" xml:space="preserve">
<style type="text/css">
	.st0{fill:#FFFFFF;}
</style>
<g>
	<path class="st0" d="M23.7,7.7c0-0.4-0.2-0.6-0.4-0.7c-0.2-0.2-0.6-0.4-1.1-0.6v2.8c0.4,0,0.7-0.2,1.1-0.4
		C23.5,8.4,23.7,8.3,23.7,7.7z"/>
	<path class="st0" d="M21.5,2.8c-0.4,0-0.7,0.2-0.9,0.4c-0.2,0.2-0.4,0.6-0.4,0.7c0,0.4,0.2,0.6,0.4,0.7c0.2,0.2,0.6,0.4,1.1,0.6
		V2.8H21.5z"/>
	<path class="st0" d="M21.8,0c-2.8,0-5.2,2.1-6,4.7H1.5C0.7,4.7,0,5.5,0,6.2V21c0,0.7,0.7,1.5,1.5,1.5h24.3c0.7,0,1.5-0.7,1.5-1.5
		V9.2c0.6-0.9,0.7-1.9,0.7-3C28,2.8,25.2,0,21.8,0z M20.2,5.8c-0.4-0.2-0.6-0.4-0.7-0.7C19.2,4.7,19,4.5,19,4.2
		c0-0.6,0.2-1.1,0.7-1.7c0.4-0.2,0.9-0.4,1.7-0.6V1.7H22v0.4c0.6,0,1.1,0.2,1.5,0.6C24.1,3,24.3,3.4,24.5,4l-1.1,0.2
		c0-0.4-0.2-0.6-0.4-0.7C22.8,3.2,22.4,3,22,3v2.6c0.6,0.2,0.9,0.2,1.1,0.2c0.4,0.2,0.6,0.4,0.7,0.4c0.2,0.2,0.4,0.4,0.6,0.6
		c0.2,0.2,0.2,0.6,0.2,0.7c0,0.6-0.2,1.1-0.7,1.7c-0.6,0.4-1.1,0.7-1.9,0.7v0.9h-0.6V9.9c-0.6,0-0.9-0.2-1.3-0.4
		c-0.4-0.2-0.6-0.4-0.9-0.7c-0.2-0.4-0.4-0.7-0.4-1.1L20,7.5c0,0.6,0.2,0.9,0.4,1.1c0.4,0.4,0.7,0.6,1.1,0.6v-3
		C21.1,6.2,20.5,6,20.2,5.8z M25,19.5c0,0.7,0,0.7-0.7,0.7H3c-0.7,0-0.7,0-0.7-0.7V18H25V19.5z M25,14.2H2.2V7.7C2.2,7,2.2,7,3,7
		h12.9c0.4,3,3,5.4,6,5.4c1.1,0,2.2-0.4,3.2-0.9C25,11.4,25,14.2,25,14.2z"/>
</g>
</svg>
