<?xml version="1.0" encoding="utf-8"?>
<!-- Generator: Adobe Illustrator 21.0.2, SVG Export Plug-In . SVG Version: 6.00 Build 0)  -->
<svg version="1.1" id="Capa_1" xmlns="http://www.w3.org/2000/svg" xmlns:xlink="http://www.w3.org/1999/xlink" x="0px" y="0px"
	 viewBox="0 0 26 26" style="enable-background:new 0 0 26 26;" xml:space="preserve">
<style type="text/css">
	.st0{fill:#39A1AE;}
	.st1{fill:#FFFFFF;}
</style>
<g>
	<ellipse class="st0" cx="13" cy="13" rx="12.9" ry="12.6"/>
	<path class="st1" d="M10.6,21C10.5,21,10.5,21,10.6,21c-0.2,0-0.3-0.1-0.3-0.2l-1.1-2.1l-2.4,0.1c-0.1,0-0.2,0-0.3-0.1
		c-0.1-0.1-0.1-0.2-0.1-0.3l0.1-2.4L4.4,15c-0.1,0-0.2-0.1-0.2-0.2c0-0.1,0-0.2,0-0.3l1.3-2l-1.3-2c-0.1-0.1-0.1-0.2,0-0.3
		c0-0.1,0.1-0.2,0.2-0.2l2.1-1.1L6.4,6.4c0-0.1,0-0.2,0.1-0.3C6.6,6,6.6,6,6.8,6l2.4,0.1L10.3,4c0-0.1,0.1-0.2,0.2-0.2
		c0.1,0,0.2,0,0.3,0l2,1.3l2-1.3c0.1-0.1,0.2-0.1,0.3,0c0.1,0,0.2,0.1,0.2,0.2l1.1,2.1L18.8,6c0.1,0,0.2,0,0.3,0.1
		c0.1,0.1,0.1,0.2,0.1,0.3l-0.1,2.4l2.1,1.1c0.1,0,0.2,0.1,0.2,0.2c0,0.1,0,0.2,0,0.3l-1.3,2l1.3,2c0.1,0.1,0.1,0.2,0,0.3
		c0,0.1-0.1,0.2-0.2,0.2l-2.1,1.1l0.1,2.4c0,0.1,0,0.2-0.1,0.3c-0.1,0.1-0.2,0.1-0.3,0.1l-2.4-0.1l-1.1,2.1c0,0.1-0.1,0.2-0.2,0.2
		c-0.1,0-0.2,0-0.3,0l-2-1.3l-2,1.3C10.7,21,10.6,21,10.6,21z M9.4,18c0.1,0,0.3,0.1,0.3,0.2l1,2l1.9-1.2c0.1-0.1,0.3-0.1,0.4,0
		l1.9,1.2l1-2c0.1-0.1,0.2-0.2,0.3-0.2l2.2,0.1l-0.1-2.2c0-0.1,0.1-0.3,0.2-0.3l2-1l-1.2-1.9c-0.1-0.1-0.1-0.3,0-0.4l1.2-1.9l-2-1
		c-0.1-0.1-0.2-0.2-0.2-0.3l0.1-2.2l-2.2,0.1c-0.2,0-0.3-0.1-0.3-0.2l-1-2L13,5.9c-0.1,0.1-0.3,0.1-0.4,0l-1.9-1.2l-1,2
		C9.6,6.8,9.5,6.9,9.3,6.8L7.1,6.8L7.2,9c0,0.1-0.1,0.3-0.2,0.3l-2,1l1.2,1.9c0.1,0.1,0.1,0.3,0,0.4L5,14.5l2,1
		c0.1,0.1,0.2,0.2,0.2,0.3l-0.1,2.2L9.4,18L9.4,18z M11.3,15.7l3.4-5.7c0.1-0.2,0-0.4-0.1-0.5c-0.2-0.1-0.4,0-0.5,0.1l-3.4,5.7
		c-0.1,0.2,0,0.4,0.1,0.5c0.1,0,0.1,0.1,0.2,0.1C11.1,15.9,11.2,15.8,11.3,15.7z M10.9,12.5c-0.8,0-1.5-0.7-1.5-1.5
		c0-0.8,0.7-1.5,1.5-1.5c0.8,0,1.5,0.7,1.5,1.5C12.4,11.8,11.7,12.5,10.9,12.5z M10.9,10.2c-0.4,0-0.8,0.4-0.8,0.8
		c0,0.4,0.4,0.8,0.8,0.8c0.4,0,0.8-0.4,0.8-0.8C11.7,10.5,11.3,10.2,10.9,10.2z M14.7,15.5c-0.8,0-1.5-0.7-1.5-1.5
		c0-0.8,0.7-1.5,1.5-1.5c0.8,0,1.5,0.7,1.5,1.5C16.2,14.8,15.5,15.5,14.7,15.5z M14.7,13.2c-0.4,0-0.8,0.4-0.8,0.8
		c0,0.4,0.4,0.8,0.8,0.8c0.4,0,0.8-0.4,0.8-0.8C15.5,13.5,15.1,13.2,14.7,13.2z"/>
</g>
</svg>
