<?xml version="1.0" encoding="utf-8"?>
<!-- Generator: Adobe Illustrator 21.0.2, SVG Export Plug-In . SVG Version: 6.00 Build 0)  -->
<svg version="1.1" id="Capa_1" xmlns="http://www.w3.org/2000/svg" xmlns:xlink="http://www.w3.org/1999/xlink" x="0px" y="0px"
	 viewBox="0 0 28 28" style="enable-background:new 0 0 28 28;" xml:space="preserve">
<style type="text/css">
	.st0{fill:#666666;}
</style>
<g>
	<circle class="st0" cx="14" cy="6.8" r="6.3"/>
	<g>
		<path class="st0" d="M26.9,17.9l-7.5-3.1c-0.2,0-0.2,0-0.5,0l0,0H9l0,0c-0.2,0-0.2,0-0.5,0L1,17.9c-0.9,0.5-1.2,1.4-0.9,2.6
			c0.5,0.9,1.4,1.6,2.3,1.2L9,19v8.4h9.9V19l6.6,2.6c0.9,0.5,1.9-0.2,2.3-1.2C28.3,19.3,27.8,18.1,26.9,17.9z"/>
	</g>
	<path class="st0" d="M20.1,22.1"/>
</g>
</svg>
