<?xml version="1.0" encoding="utf-8"?>
<!-- Generator: Adobe Illustrator 21.0.2, SVG Export Plug-In . SVG Version: 6.00 Build 0)  -->
<svg version="1.1" id="Capa_1" xmlns="http://www.w3.org/2000/svg" xmlns:xlink="http://www.w3.org/1999/xlink" x="0px" y="0px"
	 viewBox="0 0 28 28" style="enable-background:new 0 0 28 28;" xml:space="preserve">
<style type="text/css">
	.st0{fill:#09060A;}
</style>
<path class="st0" d="M20.5,10.6l3.3-3.5c2.3-2.3,5-5.6,4-6.7s-4.6,1.7-6.7,4l-3.5,3.3L6.5,4.4C3.3,3.7,2.9,3.7,1.7,4.8l10.6,7.3
	c-1.7,1.7-4,4.6-5,6.3l-0.6,1c-6.3-1.5-6.3-1.5-6.7-1l5,3.5l-0.6,1L5,23.6l1-0.6l3.5,5c0.6-0.6,0.6-0.6-1-6.7l1-0.6
	c1.7-1,4.6-3.3,6.3-5l7.3,10.6c1-1,1-1.7,0.6-4.6L20.5,10.6z"/>
</svg>
