<?xml version="1.0" encoding="utf-8"?>
<!-- Generator: Adobe Illustrator 21.0.2, SVG Export Plug-In . SVG Version: 6.00 Build 0)  -->
<svg version="1.1" id="Capa_1" xmlns="http://www.w3.org/2000/svg" xmlns:xlink="http://www.w3.org/1999/xlink" x="0px" y="0px"
	 viewBox="0 0 28 28" style="enable-background:new 0 0 28 28;" xml:space="preserve">
<style type="text/css">
	.st0{fill:#5B5B5F;}
</style>
<path class="st0" d="M23.8,13.1l0-0.2l-0.1-0.2l-0.1-0.2l-0.1-0.2l-0.2-0.2L23.2,12L23,11.9l-0.2-0.1l-0.2-0.1l-0.2,0h-0.2l-0.2,0
	l-0.1,0l-3.2,0.9L18,12.5l-0.6-0.2l-0.6-0.2L16.2,12l-0.6-0.1L15,11.8l-0.6-0.1l-0.6-0.1l-0.6-0.1l-0.6-0.1h-0.1v-0.7l0-0.2l0-0.2
	l-0.1-0.2l-0.1-0.2L12,9.7l-0.2-0.2l-0.2-0.1l-0.2-0.1l-0.1-0.1h0L11,9.1L10.6,9l-0.4-0.1L9.8,8.8L9.4,8.7L9,8.7l-0.4,0l-0.4,0
	l-0.4,0L7.4,8.8L7,8.9L6.6,9L6.2,9.2L5.8,9.3L5.4,9.5l0,0L5.2,9.6L5,9.8L4.8,10l-0.2,0.2l-0.1,0.2l-0.1,0.2l-0.1,0.3l-0.1,0.2l0,0.3
	l0,0.2v4.3L4.9,16l0.3-0.1v-1l10.3,3v1.2l0.8,0.2l0.7-0.2v-1.2l5.8-1.7v1l0.3,0.1l0.8-0.2v-3.8L23.8,13.1z M7.8,12.7l-0.2,0.2l0,0.1
	v0.1l0,0.1l-0.1,0l-0.2,0.1l-0.2,0H6.9h0H6.8l-0.2-0.1l-0.2-0.1l-0.2-0.1l-0.1-0.1L6,13l-0.1-0.2l-0.1-0.2l0-0.2v-0.2l0-0.2l0.1-0.2
	L6,11.7l0.1-0.1l0.2-0.2L6.8,11l0.3-0.2l0.3-0.2l0.3-0.1L8,10.4l0.3-0.1l0.3-0.1l0.3,0l0.3,0l0.3,0l0.3,0l0.3,0.1l0.3,0.1l0.3,0.1
	l0.3,0.1l0.3,0.2h0l0.1,0.1l0,0.1l0,0.1v0.1l0,0.1l-0.1,0.1l-0.1,0l-0.1,0l-0.1,0h-0.1l-0.4,0l-0.4,0l-0.4,0.1l-0.3,0.1l-0.4,0.1
	l-0.3,0.1l-0.3,0.2l-0.3,0.2l-0.3,0.2L7.8,12.7L7.8,12.7z M17.8,13l-0.2,0.1l-0.2,0.1l-0.2,0.1l-0.2,0.2l-0.2,0.2l-0.1,0.2l-0.1,0.2
	l-0.1,0.2l-0.1,0.2l0,0.3l0,0.3v1l-7.5-2.2l-0.1-0.1l-0.2-0.1l-0.2-0.1h0l-0.1-0.1l-0.1-0.1l0-0.1l0-0.1l0-0.1l0-0.1l0.1-0.1
	l0.1-0.1l0.4-0.3l0.3-0.2l0.3-0.2L9.5,12l0.3-0.1l0.1,0l0.4-0.1l0.4-0.1l0.4,0l0.4,0h0.4l0.4,0l0.4,0l-0.2,0l0.7,0.1l0.7,0.1
	l0.7,0.1l0.7,0.1l0.7,0.1l0.7,0.2l0.7,0.2l0.7,0.2L17.8,13z"/>
</svg>
