<?xml version="1.0" encoding="utf-8"?>
<!-- Generator: Adobe Illustrator 21.0.2, SVG Export Plug-In . SVG Version: 6.00 Build 0)  -->
<svg version="1.1" id="Capa_1" xmlns="http://www.w3.org/2000/svg" xmlns:xlink="http://www.w3.org/1999/xlink" x="0px" y="0px"
	 viewBox="0 0 28 28" style="enable-background:new 0 0 28 28;" xml:space="preserve">
<style type="text/css">
	.st0{fill:#666666;}
</style>
<g>
	<path class="st0" d="M16.8,10.6c0,0.3-0.2,0.5-0.5,0.5l0,0c-0.3,0-0.5-0.2-0.5-0.5V8.5C15.8,8.2,16,8,16.3,8l0,0
		c0.3,0,0.5,0.2,0.5,0.5V10.6z"/>
	<path class="st0" d="M12.2,10.6c0,0.3-0.2,0.5-0.5,0.5l0,0c-0.3,0-0.5-0.2-0.5-0.5V8.5c0-0.3,0.2-0.5,0.5-0.5l0,0
		c0.3,0,0.5,0.2,0.5,0.5V10.6z"/>
	<path class="st0" d="M18.6,9.5H17v1.1c0,0.4-0.3,0.8-0.8,0.8c-0.4,0-0.8-0.3-0.8-0.8V9.5h-3v1.1c0,0.4-0.3,0.8-0.8,0.8
		c-0.4,0-0.8-0.3-0.8-0.8V9.5H9.4c-0.4,0-0.6,0.3-0.6,0.6v9.2C8.7,19.8,9,20,9.4,20h9.2c0.4,0,0.6-0.3,0.6-0.6v-9.2
		C19.3,9.8,19,9.5,18.6,9.5z M18.4,18.7c0,0.3-0.2,0.5-0.5,0.5h-7.8c-0.3,0-0.5-0.2-0.5-0.5V13h8.9v5.7H18.4z"/>
	<rect x="12.4" y="13.6" class="st0" width="1.3" height="1.3"/>
	<rect x="14.3" y="13.6" class="st0" width="1.3" height="1.3"/>
	<rect x="16.1" y="13.6" class="st0" width="1.3" height="1.3"/>
	<rect x="10.6" y="15.4" class="st0" width="1.3" height="1.3"/>
	<rect x="12.4" y="15.4" class="st0" width="1.3" height="1.3"/>
	<rect x="14.3" y="15.4" class="st0" width="1.3" height="1.3"/>
	<rect x="16.1" y="15.4" class="st0" width="1.3" height="1.3"/>
	<rect x="10.6" y="17.3" class="st0" width="1.3" height="1.3"/>
	<rect x="12.4" y="17.3" class="st0" width="1.3" height="1.3"/>
	<rect x="14.3" y="17.3" class="st0" width="1.3" height="1.3"/>
</g>
</svg>
