<?xml version="1.0" encoding="utf-8"?>
<!-- Generator: Adobe Illustrator 21.0.2, SVG Export Plug-In . SVG Version: 6.00 Build 0)  -->
<svg version="1.1" id="Capa_1" xmlns="http://www.w3.org/2000/svg" xmlns:xlink="http://www.w3.org/1999/xlink" x="0px" y="0px"
	 viewBox="0 0 28 21" style="enable-background:new 0 0 28 21;" xml:space="preserve">
<style type="text/css">
	.st0{fill:#FFFFFF;}
</style>
<path class="st0" d="M22.5,0.7c-2.3,0-4.4,1.6-5.1,3.6L3.9,3.5L3.4,1.3c0-0.1-0.1-0.4-0.4-0.4L1.3,0.3c-0.1-0.1-0.7,0-0.9,0.4
	C0.3,1,0.4,1.5,1,1.5l1.5,0.4l0.6,2.5L5.7,14c0.3,0.7,0.6,1.3,1.2,1.8c-0.6,0.6-1,1.3-1,2.2c0,1.6,1.3,2.8,2.6,2.8
	c1.5,0,2.6-1.3,2.6-2.8c0-0.6-0.1-1-0.4-1.5h5.3c-0.3,0.4-0.4,0.9-0.4,1.5c0,1.6,1.3,2.8,2.8,2.8c1.6,0,2.6-1.3,2.6-2.8
	c0-0.7-0.3-1.5-0.7-1.9c0.6-0.4,1.2-1.2,1.5-1.9l0.6-2.5l0,0c3.1,0,5.4-2.5,5.4-5.4C27.9,3.2,25.4,0.7,22.5,0.7z M8.6,19.4
	c-0.7,0-1.5-0.6-1.5-1.5c0-0.9,0.6-1.5,1.5-1.5c0.6,0,1.5,0.6,1.5,1.5C9.8,18.8,9.3,19.4,8.6,19.4z M18.5,19.4
	c-0.7,0-1.5-0.6-1.5-1.5c0-0.9,0.6-1.5,1.5-1.5c0.7,0,1.5,0.6,1.5,1.5C19.9,18.8,19.4,19.4,18.5,19.4z M20.6,13.6
	c-0.1,0.9-0.9,1.6-1.9,1.6H9.1c-0.7,0-1.6-0.6-1.9-1.6L4.7,4.8l12.6,1c0,0.1,0,0.3,0,0.4c0,2.5,1.8,4.5,3.9,5.3L20.6,13.6z
	 M25.1,6.7h-2.2v2.2h-1.2V6.7h-2.2v-1h2.2V3.5h1.2v2.2h2.2V6.7z"/>
</svg>
