<?xml version="1.0" encoding="utf-8"?>
<!-- Generator: Adobe Illustrator 21.0.2, SVG Export Plug-In . SVG Version: 6.00 Build 0)  -->
<svg version="1.1" id="Capa_1" xmlns="http://www.w3.org/2000/svg" xmlns:xlink="http://www.w3.org/1999/xlink" x="0px" y="0px"
	 viewBox="0 0 28 28" style="enable-background:new 0 0 28 28;" xml:space="preserve">
<style type="text/css">
	.st0{fill:#FFFFFF;}
</style>
<g>
	<path class="st0" d="M13.5,21.3v-1.4c-0.9-0.1-1.6-0.3-2.1-0.5c-0.5-0.2-1-0.6-1.4-1.1c-0.4-0.5-0.6-1.2-0.7-1.9l1.7-0.3
		c0.1,0.8,0.4,1.3,0.7,1.7c0.5,0.5,1.1,0.8,1.8,0.9V14c-0.7-0.1-1.4-0.3-2.2-0.7c-0.6-0.3-1-0.6-1.3-1.1s-0.4-1-0.4-1.5
		c0-1,0.4-1.9,1.3-2.5c0.6-0.4,1.5-0.7,2.6-0.8V6.7h1v0.7c1,0.1,1.8,0.3,2.4,0.7c0.8,0.5,1.2,1.2,1.4,2.2l-1.8,0.2
		c-0.1-0.6-0.3-1-0.6-1.3s-0.8-0.5-1.3-0.6v4.2c0.9,0.2,1.5,0.3,1.7,0.4c0.5,0.2,1,0.4,1.3,0.7c0.3,0.3,0.6,0.6,0.8,1
		c0.2,0.4,0.3,0.8,0.3,1.3c0,1-0.4,1.8-1.1,2.5c-0.8,0.7-1.8,1-3,1.1v1.5H13.5z M13.5,8.6c-0.7,0.1-1.2,0.3-1.6,0.7
		c-0.4,0.4-0.6,0.8-0.6,1.3c0,0.5,0.2,0.9,0.5,1.2c0.3,0.3,0.9,0.6,1.7,0.8V8.6z M14.6,18.6c0.7-0.1,1.2-0.3,1.7-0.7
		c0.4-0.4,0.7-0.9,0.7-1.5c0-0.5-0.2-0.9-0.5-1.3c-0.3-0.3-0.9-0.6-1.9-0.9V18.6z"/>
</g>
</svg>
