<?xml version="1.0" encoding="utf-8"?>
<!-- Generator: Adobe Illustrator 21.0.2, SVG Export Plug-In . SVG Version: 6.00 Build 0)  -->
<svg version="1.1" id="Capa_1" xmlns="http://www.w3.org/2000/svg" xmlns:xlink="http://www.w3.org/1999/xlink" x="0px" y="0px"
	 viewBox="0 0 10.4 12" style="enable-background:new 0 0 10.4 12;" xml:space="preserve">
<style type="text/css">
	.st0{fill:#666666;}
</style>
<g>
	<path class="st0" d="M8,2.6c0,0.3-0.2,0.5-0.5,0.5l0,0C7.2,3.1,7,2.9,7,2.6V0.5C7,0.2,7.2,0,7.5,0l0,0C7.8,0,8,0.2,8,0.5V2.6z"/>
	<path class="st0" d="M3.4,2.6c0,0.3-0.2,0.5-0.5,0.5l0,0c-0.3,0-0.5-0.2-0.5-0.5V0.5C2.4,0.2,2.6,0,2.9,0l0,0
		c0.3,0,0.5,0.2,0.5,0.5V2.6z"/>
	<path class="st0" d="M9.8,1.5H8.2v1.1c0,0.4-0.3,0.8-0.8,0.8C7,3.4,6.6,3.1,6.6,2.6V1.5h-3v1.1c0,0.4-0.3,0.8-0.8,0.8
		C2.4,3.4,2,3.1,2,2.6V1.5H0.6C0.2,1.5,0,1.8,0,2.1v9.2C-0.1,11.8,0.2,12,0.6,12h9.2c0.4,0,0.6-0.3,0.6-0.6V2.2
		C10.5,1.8,10.2,1.5,9.8,1.5z M9.6,10.7c0,0.3-0.2,0.5-0.5,0.5H1.3c-0.3,0-0.5-0.2-0.5-0.5V5h8.9v5.7H9.6z"/>
	<rect x="3.6" y="5.6" class="st0" width="1.3" height="1.3"/>
	<rect x="5.5" y="5.6" class="st0" width="1.3" height="1.3"/>
	<rect x="7.3" y="5.6" class="st0" width="1.3" height="1.3"/>
	<rect x="1.8" y="7.4" class="st0" width="1.3" height="1.3"/>
	<rect x="3.6" y="7.4" class="st0" width="1.3" height="1.3"/>
	<rect x="5.5" y="7.4" class="st0" width="1.3" height="1.3"/>
	<rect x="7.3" y="7.4" class="st0" width="1.3" height="1.3"/>
	<rect x="1.8" y="9.3" class="st0" width="1.3" height="1.3"/>
	<rect x="3.6" y="9.3" class="st0" width="1.3" height="1.3"/>
	<rect x="5.5" y="9.3" class="st0" width="1.3" height="1.3"/>
</g>
</svg>
