<?xml version="1.0" encoding="utf-8"?>
<!-- Generator: Adobe Illustrator 21.0.2, SVG Export Plug-In . SVG Version: 6.00 Build 0)  -->
<svg version="1.1" id="Capa_1" xmlns="http://www.w3.org/2000/svg" xmlns:xlink="http://www.w3.org/1999/xlink" x="0px" y="0px"
	 viewBox="0 0 26 26" style="enable-background:new 0 0 26 26;" xml:space="preserve">
<style type="text/css">
	.st0{fill:#AABA2D;}
	.st1{fill:#FFFFFF;}
</style>
<g>
	<ellipse class="st0" cx="13" cy="13" rx="12.9" ry="12.6"/>
</g>
<g>
	<path class="st1" d="M12.4,19.9v-1.4c-0.9-0.1-1.6-0.3-2.1-0.5c-0.5-0.2-1-0.6-1.4-1.1c-0.4-0.5-0.6-1.2-0.7-1.9l1.7-0.3
		c0.1,0.8,0.4,1.3,0.7,1.7c0.5,0.5,1.1,0.8,1.8,0.9v-4.6c-0.7-0.1-1.4-0.3-2.2-0.7c-0.6-0.3-1-0.6-1.3-1.1s-0.4-1-0.4-1.5
		c0-1,0.4-1.9,1.3-2.5c0.6-0.4,1.5-0.7,2.6-0.8V5.3h1V6c1,0.1,1.8,0.3,2.4,0.7c0.8,0.5,1.2,1.2,1.4,2.2l-1.8,0.2
		c-0.1-0.6-0.3-1-0.6-1.3S14,7.3,13.5,7.2v4.2c0.9,0.2,1.5,0.3,1.7,0.4c0.5,0.2,1,0.4,1.3,0.7c0.3,0.3,0.6,0.6,0.8,1
		c0.2,0.4,0.3,0.8,0.3,1.3c0,1-0.4,1.8-1.1,2.5c-0.8,0.7-1.8,1-3,1.1v1.5H12.4z M12.4,7.2c-0.7,0.1-1.2,0.3-1.6,0.7
		c-0.4,0.4-0.6,0.8-0.6,1.3c0,0.5,0.2,0.9,0.5,1.2c0.3,0.3,0.9,0.6,1.7,0.8V7.2z M13.5,17.2c0.7-0.1,1.2-0.3,1.7-0.7
		c0.4-0.4,0.7-0.9,0.7-1.5c0-0.5-0.2-0.9-0.5-1.3c-0.3-0.3-0.9-0.6-1.9-0.9V17.2z"/>
</g>
</svg>
