<?xml version="1.0" encoding="utf-8"?>
<!-- Generator: Adobe Illustrator 21.0.2, SVG Export Plug-In . SVG Version: 6.00 Build 0)  -->
<svg version="1.1" id="Capa_1" xmlns="http://www.w3.org/2000/svg" xmlns:xlink="http://www.w3.org/1999/xlink" x="0px" y="0px"
	 viewBox="0 0 28 28" style="enable-background:new 0 0 28 28;" xml:space="preserve">
<style type="text/css">
	.st0{fill:#09060A;}
</style>
<path class="st0" d="M14.5,18.1c0.1,0,0.2,0,0.2,0c0.3,0,0.6,0,1,0c0.1,0,0.1,0,0.2,0c0.2,0,0.3,0.1,0.3,0.3c0,0.2-0.1,0.3-0.2,0.3
	c-0.1,0-0.2,0-0.3,0c-1.1,0-2.1,0-3.2,0c-0.1,0-0.2,0-0.3,0c-0.1-0.1-0.2-0.2-0.2-0.3c0-0.1,0.1-0.3,0.3-0.3c0.1,0,0.1,0,0.2,0
	c0.3,0,0.6,0,1,0c0.1,0,0.2,0,0.2,0c0-0.1,0-0.2,0-0.2c0-0.8,0-1.7,0-2.5c0-0.1,0-0.2-0.1-0.3c-1.4-1.7-2.8-3.4-4.2-5.2
	c0-0.1-0.1-0.1-0.1-0.2c-0.1-0.2,0-0.5,0.3-0.5c0.1,0,0.1,0,0.2,0c2.8,0,5.5,0,8.3,0c0.1,0,0.1,0,0.2,0c0.2,0,0.4,0.3,0.2,0.5
	c0,0.1-0.1,0.1-0.2,0.2c-1.3,1.7-2.5,3.4-3.8,5.1c-0.1,0.1-0.1,0.2-0.1,0.3c0,0.9,0,1.8,0,2.7C14.5,18,14.5,18.1,14.5,18.1z
	 M14.2,14.5c1.1-1.5,2.2-3,3.3-4.4c0,0,0.1-0.1,0.1-0.1c0,0,0,0,0,0c0,0,0,0,0,0c-1-0.1-6.9,0-7.1,0C11.7,11.4,12.9,12.9,14.2,14.5z
	"/>
</svg>
