<?xml version="1.0" encoding="utf-8"?>
<!-- Generator: Adobe Illustrator 21.0.2, SVG Export Plug-In . SVG Version: 6.00 Build 0)  -->
<svg version="1.1" id="Capa_1" xmlns="http://www.w3.org/2000/svg" xmlns:xlink="http://www.w3.org/1999/xlink" x="0px" y="0px"
	 viewBox="0 0 28 28" style="enable-background:new 0 0 28 28;" xml:space="preserve">
<style type="text/css">
	.st0{fill:#FFFFFF;}
</style>
<path class="st0" d="M19.7,7.3c-1.6,0-3,1.1-3.5,2.5L7,9.2L6.6,7.7c0-0.1-0.1-0.3-0.3-0.3L5.2,7C5.1,6.9,4.7,7,4.6,7.3
	C4.5,7.5,4.6,7.8,5,7.8l1,0.3l0.4,1.7l1.8,6.6c0.2,0.5,0.4,0.9,0.8,1.2c-0.4,0.4-0.7,0.9-0.7,1.5c0,1.1,0.9,1.9,1.8,1.9
	c1,0,1.8-0.9,1.8-1.9c0-0.4-0.1-0.7-0.3-1h3.6c-0.2,0.3-0.3,0.6-0.3,1c0,1.1,0.9,1.9,1.9,1.9c1.1,0,1.8-0.9,1.8-1.9
	c0-0.5-0.2-1-0.5-1.3c0.4-0.3,0.8-0.8,1-1.3l0.4-1.7l0,0c2.1,0,3.7-1.7,3.7-3.7C23.4,9,21.7,7.3,19.7,7.3z M10.2,20.1
	c-0.5,0-1-0.4-1-1c0-0.6,0.4-1,1-1c0.4,0,1,0.4,1,1C11,19.7,10.7,20.1,10.2,20.1z M17,20.1c-0.5,0-1-0.4-1-1c0-0.6,0.4-1,1-1
	c0.5,0,1,0.4,1,1C17.9,19.7,17.6,20.1,17,20.1z M18.4,16.1c-0.1,0.6-0.6,1.1-1.3,1.1h-6.6c-0.5,0-1.1-0.4-1.3-1.1l-1.7-6l8.6,0.7
	c0,0.1,0,0.2,0,0.3c0,1.7,1.2,3.1,2.7,3.6L18.4,16.1z M21.5,11.4h-1.5v1.5h-0.8v-1.5h-1.5v-0.7h1.5V9.2h0.8v1.5h1.5V11.4z"/>
</svg>
