<?xml version="1.0" encoding="utf-8"?>
<!-- Generator: Adobe Illustrator 21.0.2, SVG Export Plug-In . SVG Version: 6.00 Build 0)  -->
<svg version="1.1" id="Capa_1" xmlns="http://www.w3.org/2000/svg" xmlns:xlink="http://www.w3.org/1999/xlink" x="0px" y="0px"
	 viewBox="0 0 26 26" style="enable-background:new 0 0 26 26;" xml:space="preserve">
<style type="text/css">
	.st0{fill:#B94833;}
	.st1{fill:#FFFFFF;}
</style>
<g>
	<ellipse class="st0" cx="13" cy="13" rx="12.9" ry="12.6"/>
	<g transform="translate(0,-952.36218)">
		<path class="st1" d="M11.2,956.7c0.8,0,1.5,0.4,1.9,1c0.4-0.4,1-0.7,1.6-0.7c1.2,0,2.2,1,2.2,2.2c0,0.4-0.1,0.8-0.3,1.2H20
			c0.3,0,0.5,0.2,0.5,0.5v3c0,0.3-0.2,0.5-0.5,0.5h-0.5v6.8c0,0.3-0.2,0.5-0.5,0.5H7c-0.3,0-0.5-0.2-0.5-0.5v-6.8H6
			c-0.3,0-0.5-0.2-0.5-0.5v-3c0-0.3,0.2-0.5,0.5-0.5h3.3c-0.3-0.4-0.4-0.8-0.4-1.3C8.8,957.8,9.9,956.7,11.2,956.7z M11.2,957.7
			c-0.7,0-1.3,0.6-1.3,1.3c0,0.7,0.6,1.3,1.3,1.3h1.3c0-0.4,0-0.9,0-1.3C12.5,958.3,11.9,957.7,11.2,957.7z M14.7,958.1
			c-0.6,0-1.2,0.5-1.2,1.2v1.2h1.2c0.6,0,1.2-0.5,1.2-1.2C15.8,958.6,15.3,958.1,14.7,958.1z M19.5,961.4c-2,0-4,0-6,0v2
			c2,0,4,0,6,0V961.4z M12.5,961.4c-2,0-4,0-6,0v2c2,0,4,0,6,0V961.4z M18.5,964.4h-5v6.3h5V964.4z M12.5,964.4h-5v6.3h5V964.4z"/>
	</g>
</g>
</svg>
