<?xml version="1.0" encoding="utf-8"?>
<!-- Generator: Adobe Illustrator 21.0.2, SVG Export Plug-In . SVG Version: 6.00 Build 0)  -->
<svg version="1.1" id="Capa_1" xmlns="http://www.w3.org/2000/svg" xmlns:xlink="http://www.w3.org/1999/xlink" x="0px" y="0px"
	 viewBox="0 0 25.8 27.9" style="enable-background:new 0 0 25.8 27.9;" xml:space="preserve">
<style type="text/css">
	.st0{fill:#666666;}
</style>
<path class="st0" d="M16.6,18.4v-2.8c1.4-1.1,2.2-2.5,2.2-4.2l0,0c0.6,0,1.1-0.8,1.1-1.9s-0.6-1.9-1.1-1.9V5.7
	c0-3.3-2.5-5.5-5.8-5.5S7.2,2.4,7.2,5.7v2.2c-0.6,0-1.1,0.8-1.1,1.9s0.6,1.9,1.1,1.9l0,0c0.3,1.7,1.1,3,2.2,4.2v2.8L0,22.9v5h25.8
	v-5.3L16.6,18.4z"/>
</svg>
