<?xml version="1.0" encoding="utf-8"?>
<!-- Generator: Adobe Illustrator 21.0.2, SVG Export Plug-In . SVG Version: 6.00 Build 0)  -->
<svg version="1.1" id="Capa_1" xmlns="http://www.w3.org/2000/svg" xmlns:xlink="http://www.w3.org/1999/xlink" x="0px" y="0px"
	 viewBox="0 0 28 28" style="enable-background:new 0 0 28 28;" xml:space="preserve">
<g>
	<path d="M18.5,18.2h-1.4c-0.1,0-0.2,0-0.2-0.1c-0.1-0.1-0.1-0.1-0.1-0.2L14,13.7c0,0.1-0.1,0.2-0.1,0.3l-2.6,4
		c0,0.1-0.1,0.1-0.2,0.2c-0.1,0.1-0.1,0.1-0.2,0.1H9.6l3.5-5.2L9.8,8h1.4c0.1,0,0.2,0,0.2,0c0,0,0.1,0.1,0.1,0.1l2.6,4.1
		c0-0.1,0.1-0.2,0.1-0.3l2.5-3.7c0-0.1,0.1-0.1,0.1-0.2S17,8,17.1,8h1.3L15,12.9L18.5,18.2z"/>
</g>
</svg>
