<?xml version="1.0" standalone="no"?>
<!DOCTYPE svg PUBLIC "-//W3C//DTD SVG 1.1//EN" "http://www.w3.org/Graphics/SVG/1.1/DTD/svg11.dtd" >
<svg xmlns="http://www.w3.org/2000/svg" xmlns:xlink="http://www.w3.org/1999/xlink" version="1.1">
<metadata>
Created by FontForge 20161013 at Tue Oct 26 16:52:17 1999
 By ,,,
(c) 1991 Bigelow &#38; Holmes Inc. Pat. Des. 289,773. All Rights Reserved. (c) 1990-1991 Type Solutions, Inc. All Rights Reserved.
</metadata>
<defs>
<font id="LucidaBright-Italic" horiz-adv-x="1246" >
  <font-face 
    font-family="Lucida Bright"
    font-weight="400"
    font-style="italic"
    font-stretch="normal"
    units-per-em="2048"
    panose-1="2 4 6 2 5 5 5 9 3 4"
    ascent="1638"
    descent="-410"
    x-height="1086"
    cap-height="1480"
    bbox="-593 -432 2302 1900"
    underline-thickness="100"
    underline-position="-350"
    slope="-11.25"
    unicode-range="U+0020-F002"
  />
<missing-glyph horiz-adv-x="748" 
d="M68 0v1365h544v-1365h-544zM136 68h408v1229h-408v-1229z" />
    <glyph glyph-name=".notdef" horiz-adv-x="748" 
d="M68 0v1365h544v-1365h-544zM136 68h408v1229h-408v-1229z" />
    <glyph glyph-name="glyph1" horiz-adv-x="0" 
 />
    <glyph glyph-name="glyph2" horiz-adv-x="0" 
 />
    <glyph glyph-name="space" unicode=" " horiz-adv-x="623" 
 />
    <glyph glyph-name="exclam" unicode="!" horiz-adv-x="543" 
d="M173 0l39 197h198l-40 -197h-197zM320 395l89 789l59 296h197l-59 -296l-225 -789h-61z" />
    <glyph glyph-name="quotedbl" unicode="&#x22;" horiz-adv-x="771" 
d="M472 1086l-74 493h197l-61 -493h-62zM793 1086l-74 493h197l-62 -493h-61z" />
    <glyph glyph-name="numbersign" unicode="#" 
d="M171 0l215 456h-242l13 99h275l175 370h-370l13 99h403l215 456h112l-215 -456h279l215 456h112l-215 -456h242l-13 -99h-276l-174 -370h369l-13 -99h-402l-216 -456h-111l215 456h-280l-215 -456h-111zM544 555h279l175 370h-280z" />
    <glyph glyph-name="dollar" unicode="$" 
d="M577 -123l25 123q-186 12 -316 56l50 252h99l-2 -18q-12 -93 -12 -109q0 -97 194 -112l125 626l-43 31q-136 98 -184.5 170.5t-48.5 177.5q0 167 129 290t304 123l24 117h61l-24 -124q174 -10 344 -69l-48 -239h-99l3 19q12 87 12 110q0 49 -63.5 81.5t-159.5 32.5
l-117 -576l83 -63q131 -101 178 -171t47 -165q0 -174 -134.5 -298.5t-340.5 -141.5l-24 -123h-62zM677 69q287 46 287 327q0 78 -32 126.5t-139 131.5zM777 883l107 530q-114 -19 -184 -100.5t-70 -195.5q0 -112 147 -234z" />
    <glyph glyph-name="percent" unicode="%" horiz-adv-x="1554" 
d="M535 740q-113 0 -181.5 72t-68.5 191q0 198 113 337.5t273 139.5q117 0 186.5 -71t69.5 -192q0 -200 -114 -338.5t-278 -138.5zM432 994q0 -192 121 -192q91 0 165 130t74 292q0 196 -121 196q-93 0 -166 -130.5t-73 -295.5zM1180 0q-113 0 -181.5 72t-68.5 191
q0 197 113 337t272 140q118 0 187.5 -71t69.5 -192q0 -200 -114 -338.5t-278 -138.5zM1077 252q0 -191 121 -191q92 0 165.5 130.5t73.5 292.5q0 196 -121 196q-93 0 -166 -130.5t-73 -297.5zM182 -37l1362 1554h131l-1362 -1554h-131z" />
    <glyph glyph-name="ampersand" unicode="&#x26;" horiz-adv-x="1490" 
d="M1070 0q-22 23 -41 54q-24 36 -37 55q-224 -148 -417 -148q-175 0 -295 118.5t-120 291.5q0 362 471 522q-44 137 -44 223q0 166 122.5 283.5t295.5 117.5q122 0 197.5 -69t75.5 -182q0 -268 -436 -416q96 -267 275 -565q161 163 161 388q0 32 -22 40t-128 14l-22 1
l12 62h506l-12 -62l-19 -1q-55 -2 -87 -2t-50.5 -19t-47.5 -96l-9 -26q-72 -195 -243 -355l21 -33q59 -88 93 -106t158 -27l14 -1l-12 -62h-360zM961 168q-200 324 -313 665q-279 -130 -279 -403q0 -154 86.5 -250t225.5 -96q151 0 280 84zM823 906q281 140 281 385
q0 81 -32 121t-96 40q-89 0 -146.5 -79.5t-57.5 -204.5q0 -105 51 -262z" />
    <glyph glyph-name="quotesingle" unicode="'" horiz-adv-x="473" 
d="M456 1036l-99 543h247l-87 -543h-61z" />
    <glyph glyph-name="parenleft" unicode="(" horiz-adv-x="635" 
d="M491 -296q-299 226 -299 700q0 348 177.5 658.5t494.5 516.5l-13 -62q-157 -134 -242.5 -278.5t-151.5 -387.5q-100 -368 -100 -651q0 -285 139 -434z" />
    <glyph glyph-name="parenright" unicode=")" horiz-adv-x="635" 
d="M401 1579q299 -226 299 -700q0 -348 -177.5 -658.5t-494.5 -516.5l13 62q221 189 328 463q166 424 166 851q0 288 -139 437z" />
    <glyph glyph-name="asterisk" unicode="*" horiz-adv-x="938" 
d="M344 847l267 230q12 -28 44 -44l-195 -293zM383 1278l251 -114q-28 -23 -28 -71l-296 40zM823 1480l-99 -307q-27 9 -40 9q-12 0 -33 -9l22 307h150zM1070 1123l-313 -37q2 14 2 24q0 20 -21 47l307 112zM745 744l-67 285q41 0 66 30l148 -230z" />
    <glyph glyph-name="plus" unicode="+" 
d="M577 49l97 488h-487l22 111h487l97 487h111l-97 -487h488l-22 -111h-488l-97 -488h-111z" />
    <glyph glyph-name="comma" unicode="," horiz-adv-x="543" 
d="M240 0h-93l52 247h247l-45 -223q-69 -345 -320 -345l14 62q106 0 134 186z" />
    <glyph glyph-name="hyphen" unicode="-" horiz-adv-x="642" 
d="M195 543l42 148h456l-42 -148h-456z" />
    <glyph glyph-name="period" unicode="." horiz-adv-x="543" 
d="M148 0l49 247h247l-49 -247h-247z" />
    <glyph glyph-name="slash" unicode="/" horiz-adv-x="938" 
d="M-57 -296l1175 1875h132l-1175 -1875h-132z" />
    <glyph glyph-name="zero" unicode="0" 
d="M627 -37q-180 0 -292.5 137t-112.5 357q0 425 205.5 742.5t480.5 317.5q186 0 299 -135.5t113 -358.5q0 -430 -206 -745t-487 -315zM424 394q0 -184 56 -276.5t167 -92.5q186 0 328 317.5t142 732.5q0 191 -54.5 286t-164.5 95q-191 0 -332.5 -317.5t-141.5 -744.5z" />
    <glyph glyph-name="one" unicode="1" 
d="M1019 1493l-245 -1234q-17 -83 -17 -143q0 -30 24.5 -39t119.5 -14l105 -1l-12 -62h-753l12 62l118 1q124 0 149.5 24t55.5 172l188 942l22 128q0 42 -63 42q-18 0 -114 -18l-103 -18l13 62z" />
    <glyph glyph-name="two" unicode="2" 
d="M177 0l22 111q110 225 435 479l102 79q367 286 367 519q0 133 -63 199.5t-189 66.5q-128 0 -226 -65q-43 -28 -81 -174l-5 -18h-99l45 223q101 49 206.5 73.5t215.5 24.5q189 0 297 -86t108 -237q0 -144 -84 -254t-297 -243l-154 -98q-360 -225 -360 -427h689l-47 -173
h-882z" />
    <glyph glyph-name="three" unicode="3" 
d="M216 5l51 254h98l-2 -18q-5 -37 -12 -81q-2 -17 -2 -30q0 -45 61.5 -76t152.5 -31q163 0 278 134.5t115 324.5q0 148 -98 221.5t-295 73.5h-64l12 62h90q218 0 342.5 101.5t124.5 279.5q0 107 -67 171.5t-179 64.5q-189 0 -217 -126q-14 -62 -18 -75l-5 -19h-98l47 237
q165 44 310 44q212 0 317.5 -72.5t105.5 -218.5q0 -141 -115 -256t-306 -166q161 -25 241.5 -102t80.5 -207q0 -231 -174.5 -381.5t-442.5 -150.5q-80 0 -163 10.5t-169 31.5z" />
    <glyph glyph-name="four" unicode="4" 
d="M804 413h-666l22 111l934 975h99l-187 -938h210l-42 -148h-197l-31 -154q-16 -82 -16 -143q0 -32 19 -39t125 -14l18 -1l-12 -62h-556l13 62l31 1q122 7 150 34t55 162zM283 561h551l144 729z" />
    <glyph glyph-name="five" unicode="5" 
d="M241 6l51 253h98l-2 -18q-13 -99 -13 -108q0 -44 59 -74.5t143 -30.5q163 0 277 142t114 345q0 170 -93 254.5t-280 84.5q-69 0 -165 -14l128 640h784l-34 -172h-723l-79 -396q80 8 134 8q250 0 393.5 -106t143.5 -291q0 -249 -177 -404.5t-461 -155.5q-73 0 -147.5 11
t-150.5 32z" />
    <glyph glyph-name="six" unicode="6" 
d="M510 821q185 141 361 141q166 0 269.5 -99.5t103.5 -260.5q0 -252 -178 -445.5t-410 -193.5q-197 0 -307 135.5t-110 377.5q0 207 77 428.5t202 371.5q200 241 482 241q174 0 345 -76l-47 -238h-99l4 25q13 97 13 113q0 43 -71.5 78.5t-157.5 35.5q-161 0 -288 -168.5
t-189 -465.5zM436 402q0 -186 62 -279t185 -93q143 0 253.5 172.5t110.5 397.5q0 141 -57.5 211.5t-173.5 70.5q-177 0 -278.5 -128.5t-101.5 -351.5z" />
    <glyph glyph-name="seven" unicode="7" 
d="M313 0q28 177 105 294t403 481l467 520h-814l37 185h937l-28 -141q-386 -389 -616.5 -742t-257.5 -597h-233z" />
    <glyph glyph-name="eight" unicode="8" 
d="M617 794q-163 112 -163 280q0 184 144.5 314t349.5 130q170 0 273 -75t103 -199q0 -241 -373 -428q280 -168 280 -388q0 -192 -165.5 -328.5t-399.5 -136.5q-201 0 -314.5 90.5t-113.5 252.5q0 278 379 488zM697 736l-31 17q-237 -161 -237 -431q0 -148 64 -222.5
t191 -74.5q140 0 239 100t99 242q0 103 -70.5 183t-254.5 186zM893 856q258 119 258 361q0 120 -56.5 179.5t-170.5 59.5q-117 0 -198 -87t-81 -212q0 -156 248 -301z" />
    <glyph glyph-name="nine" unicode="9" 
d="M1051 659q-185 -141 -362 -141q-166 0 -269.5 100t-103.5 260q0 252 178 445.5t410 193.5q197 0 307 -135.5t110 -377.5q0 -207 -77 -428.5t-201 -371.5q-201 -241 -482 -241q-175 0 -346 77l47 238h99l-4 -25q-13 -98 -13 -114q0 -39 72.5 -76t149.5 -37
q167 0 294.5 166.5t190.5 466.5zM1124 1079q0 186 -61.5 278.5t-184.5 92.5q-144 0 -254.5 -172.5t-110.5 -396.5q0 -141 58 -212t174 -71q176 0 277.5 128.5t101.5 352.5z" />
    <glyph glyph-name="colon" unicode=":" horiz-adv-x="543" 
d="M148 0l49 247h247l-49 -247h-247zM315 839l49 247h247l-49 -247h-247z" />
    <glyph glyph-name="semicolon" unicode=";" horiz-adv-x="543" 
d="M241 0h-93l49 247h247l-45 -223q-68 -345 -315 -345l12 62q64 0 86.5 32t44.5 154zM315 839l49 247h246l-49 -247h-246z" />
    <glyph glyph-name="less" unicode="&#x3c;" 
d="M1392 1135l-31 -134l-916 -421l754 -414l-23 -117l-978 543z" />
    <glyph glyph-name="equal" unicode="=" 
d="M153 364l22 111h1086l-22 -111h-1086zM222 709l22 111h1086l-23 -111h-1085z" />
    <glyph glyph-name="greater" unicode="&#x3e;" 
d="M198 49l30 135l917 421l-754 414l23 116l978 -543z" />
    <glyph glyph-name="question" unicode="?" horiz-adv-x="965" 
d="M303 0l39 197h198l-40 -197h-197zM382 395l4 18q20 99 55.5 156.5t138.5 159.5l85 84q237 235 237 424q0 97 -61.5 157t-160.5 60q-198 0 -230 -138q-14 -63 -24 -101l-5 -18h-99l51 252q103 35 196 52t176 17q162 0 264.5 -77t102.5 -198q0 -100 -51.5 -171.5
t-202.5 -181.5l-70 -52q-184 -134 -215 -443h-191z" />
    <glyph glyph-name="at" unicode="@" horiz-adv-x="1764" 
d="M1249 44q-176 -81 -344 -81q-291 0 -479 173.5t-188 441.5q0 333 246 616q280 323 699 323q283 0 472.5 -179.5t189.5 -447.5q0 -239 -149.5 -417t-350.5 -178q-87 0 -130.5 34.5t-43.5 103.5q0 20 33 160l9 42h-21q-99 -169 -195.5 -254t-190.5 -85q-92 0 -138 58
t-46 174q0 238 165.5 441t359.5 203q47 0 165 -32q6 -2 27 -7h93l-114 -573q-11 -57 -11 -97q0 -46 25.5 -69.5t75.5 -23.5q139 0 257 166.5t118 364.5q0 235 -176 395t-434 160q-335 0 -604 -267t-269 -599q0 -247 170 -406t433 -159q157 0 324 75zM1222 819l42 211
q-40 22 -85.5 32.5t-95.5 10.5q-135 0 -225.5 -142t-90.5 -354q0 -79 23.5 -118.5t70.5 -39.5q73 0 163 100t198 300z" />
    <glyph glyph-name="A" unicode="A" horiz-adv-x="1530" 
d="M0 0l12 62l19 1q94 5 116.5 23.5t118.5 168.5l773 1250h73l236 -1232q26 -136 52.5 -171t104.5 -39l25 -1l-13 -62h-555l13 62h31q145 0 145 48q0 51 -17 143l-38 203h-616l-125 -199q-77 -121 -77 -156q0 -39 123 -39h25l-13 -62h-413zM520 543h557l-128 696z" />
    <glyph glyph-name="B" unicode="B" horiz-adv-x="1241" 
d="M874 758q177 -35 265 -119.5t88 -217.5q0 -189 -146.5 -305t-386.5 -116h-646l12 62l19 1q125 8 151.5 34t54.5 162l191 962q16 83 16 143q0 32 -18.5 39t-124.5 14l-19 2l13 61h471q261 0 377 -64.5t116 -210.5q0 -155 -117.5 -276.5t-315.5 -170.5zM588 734l-100 -469
q-23 -124 -22 -133q13 -59 139 -59q176 0 291.5 105t115.5 265q0 135 -99 213t-271 78h-54zM600 801h54q207 0 326 104.5t119 286.5q0 121 -76 171t-260 50h-41z" />
    <glyph glyph-name="C" unicode="C" horiz-adv-x="1463" 
d="M1327 90q-307 -127 -569 -127q-246 0 -388 151t-142 414q0 417 274 703t673 286q98 0 201.5 -12.5t213.5 -37.5l-59 -295h-125l4 20q17 93 17 111q0 64 -76 105.5t-194 41.5q-289 0 -498 -272.5t-209 -649.5q0 -209 114.5 -330t311.5 -121q175 0 469 99z" />
    <glyph glyph-name="D" unicode="D" horiz-adv-x="1577" 
d="M48 0l12 62l19 1q125 8 151.5 34t54.5 162l191 962q16 83 16 143q0 32 -18.5 39t-124.5 14l-19 2l13 61h459l230 3h38q285 0 427.5 -129.5t142.5 -388.5q0 -419 -254 -692t-644 -273h-694zM724 1413l-230 -1154q-19 -108 -17 -117q14 -75 178 -75q342 0 553.5 248
t211.5 648q0 250 -129.5 350t-454.5 100h-112z" />
    <glyph glyph-name="E" unicode="E" horiz-adv-x="1164" 
d="M1115 0h-1067l12 62l19 1q125 8 151.5 34t54.5 162l191 962q16 83 16 143q0 32 -18.5 39t-124.5 14l-19 2l13 61h1011l-51 -259h-112l3 19l20 111q0 49 -169 49h-324l-117 -592h271q85 0 109.5 10t33.5 49q5 19 12 46l5 18h80l-65 -326h-80l3 18q6 47 6 66q0 39 -120 39
h-271l-94 -469q-11 -56 -11 -109q0 -41 26.5 -52.5t120.5 -11.5h158q179 0 205.5 17t59.5 150l5 18h111z" />
    <glyph glyph-name="F" unicode="F" horiz-adv-x="1127" 
d="M586 718l-92 -459q-13 -67 -13 -129q0 -39 16 -50.5t73 -11.5l76 -5l19 -1l-12 -62h-605l12 62l19 1q125 8 151.5 34t54.5 162l191 962q16 83 16 143q0 32 -18.5 39t-124.5 14l-19 2l13 61h1011l-51 -259h-112l3 19l20 111q0 49 -169 49h-324l-119 -602h271
q87 0 110.5 9.5t32.5 49.5q2 7 12 46l5 18h80l-65 -327h-80l3 19q6 47 6 66q0 39 -120 39h-271z" />
    <glyph glyph-name="G" unicode="G" horiz-adv-x="1549" 
d="M1323 67q-323 -104 -542 -104q-263 0 -408 148t-145 416q0 419 272.5 705t670.5 286q105 0 209.5 -12.5t209.5 -38.5l-67 -270h-111l3 20q1 8 10 59q6 34 6 59q0 57 -66.5 85t-199.5 28q-299 0 -507 -274t-208 -667q0 -216 111.5 -335t313.5 -119q112 0 244 46l56 278
q16 83 16 143q0 32 -19 39t-125 14l-18 2l12 61h574l-12 -61l-19 -2q-143 -9 -159 -46q-36 -84 -48 -150z" />
    <glyph glyph-name="H" unicode="H" horiz-adv-x="1589" 
d="M587 726l-93 -467q-16 -82 -16 -143q0 -32 18.5 -39t125.5 -14l18 -1l-12 -62h-580l12 62l19 1q125 8 151.5 34t54.5 162l191 962q17 83 17 143q0 32 -19 39t-125 14l-19 2l13 61h580l-13 -61l-18 -2q-126 -8 -152.5 -33.5t-53.5 -162.5l-83 -415h704l83 415
q16 84 16 143q0 32 -18.5 39t-125.5 14l-18 2l12 61h580l-12 -61l-19 -2q-125 -8 -151.5 -33.5t-53.5 -162.5l-192 -962q-16 -82 -16 -143q0 -32 18.5 -39t125.5 -14l18 -1l-12 -62h-580l12 62l19 1q125 8 151.5 34t54.5 162l92 467h-704z" />
    <glyph glyph-name="I" unicode="I" horiz-adv-x="666" 
d="M635 62l-12 -62h-580l12 62l19 1q125 8 151.5 34t54.5 162l191 962q16 83 16 143q0 32 -18.5 39t-124.5 14l-19 2l13 61h579l-12 -61l-19 -2q-125 -8 -151.5 -33.5t-53.5 -162.5l-192 -962q-16 -82 -16 -143q0 -32 18.5 -39t125.5 -14z" />
    <glyph glyph-name="J" unicode="J" horiz-adv-x="864" 
d="M-43 -276l54 271h117l-3 -24q-10 -66 -12 -74q-6 -29 -6 -40q0 -39 25.5 -58.5t75.5 -19.5q109 0 159.5 73t93.5 296l214 1073q16 84 16 143q0 32 -18.5 39t-124.5 14l-19 2l12 61h580l-12 -61l-19 -2q-125 -8 -151.5 -33.5t-53.5 -162.5l-190 -951q-61 -310 -191 -438
t-381 -128q-39 0 -80.5 5t-85.5 15z" />
    <glyph glyph-name="K" unicode="K" horiz-adv-x="1430" 
d="M592 748l-98 -489q-16 -83 -16 -143q0 -31 19 -38.5t112 -14.5l19 -1l-12 -62h-568l12 62l19 1q125 8 151.5 34t54.5 162l191 962q16 83 16 143q0 32 -18.5 39t-124.5 14l-19 2l13 61h579l-12 -61l-19 -2q-125 -8 -151.5 -33.5t-53.5 -162.5l-93 -467l541 467
q175 169 175 184q0 14 -128 14h-24l12 61h429l-13 -61l-18 -2q-77 -3 -87 -6q-28 -7 -246 -197l-454 -386l393 -574q112 -166 145 -178q25 -9 84 -13l18 -1l-12 -62h-545l12 62h22q117 0 117 26q0 25 -94 174z" />
    <glyph glyph-name="L" unicode="L" horiz-adv-x="1171" 
d="M1134 0h-1086l12 62l19 1q125 8 151.5 34t54.5 162l191 962q16 83 16 143q0 32 -18.5 39t-124.5 14l-19 2l13 61h579l-12 -61l-19 -2q-125 -8 -151.5 -33.5t-53.5 -162.5l-192 -962q-17 -89 -17 -124q0 -33 24.5 -41t130.5 -8h176q179 0 208.5 20.5t65.5 169.5l6 20h105z
" />
    <glyph glyph-name="M" unicode="M" horiz-adv-x="1771" 
d="M1604 1321l-694 -1151h-72l-254 1045l-190 -956q-16 -82 -16 -143q0 -32 18.5 -39t125.5 -14l18 -1l-12 -62h-480l12 62l19 1q128 9 149.5 29.5t56.5 166.5l196 962q16 81 16 143q0 32 -18.5 39t-125.5 14l-18 2l12 61h376l257 -1058l645 1058h391l-12 -61l-19 -2
q-125 -8 -151.5 -33.5t-53.5 -162.5l-191 -962q-17 -82 -17 -143q0 -32 19 -39t125 -14l18 -1l-12 -62h-564l12 62l19 1q125 9 152 34.5t54 161.5z" />
    <glyph glyph-name="N" unicode="N" horiz-adv-x="1560" 
d="M1335 -18h-79l-688 1234l-190 -957q-17 -83 -17 -143q0 -32 19 -39t125 -14l18 -1l-12 -62h-464l12 62l19 1q125 8 152 34t54 162l190 962q17 83 17 143q0 32 -19 39t-125 14l-18 2l12 61h311l655 -1179l182 920q17 83 17 143q0 32 -19 39t-125 14l-18 2l12 61h461
l-12 -61l-19 -2q-125 -8 -151.5 -33.5t-53.5 -162.5z" />
    <glyph glyph-name="O" unicode="O" horiz-adv-x="1604" 
d="M770 -37q-252 0 -397 149t-145 409q0 403 267 699.5t631 296.5q256 0 401 -148.5t145 -411.5q0 -404 -268 -699t-634 -295zM451 483q0 -201 101 -323.5t267 -122.5q244 0 439.5 282.5t195.5 635.5q0 227 -99 360t-268 133q-256 0 -446 -289t-190 -676z" />
    <glyph glyph-name="P" unicode="P" horiz-adv-x="1185" 
d="M342 1480h329l236 5l99 2q353 0 353 -298q0 -252 -191.5 -413t-491.5 -161h-113l-70 -356q-17 -82 -17 -143q0 -30 23.5 -39t120.5 -14l43 -1l-12 -62h-603l12 62l19 1q125 8 151.5 34t54.5 162l191 962q16 83 16 143q0 32 -18.5 39t-124.5 14l-19 2zM577 685h85
q208 0 342 139.5t134 356.5q0 232 -282 232h-134z" />
    <glyph glyph-name="Q" unicode="Q" horiz-adv-x="1613" 
d="M1886 -195l-165 -182q-49 -13 -85 -13q-193 0 -395 101t-332 263q-54 -9 -108 -9q-271 0 -417 141t-146 402q0 409 266.5 709t628.5 300q253 0 396 -146t143 -405q0 -345 -194 -620.5t-492 -352.5q261 -223 637 -223q137 0 263 35zM455 483q0 -201 101.5 -323.5
t267.5 -122.5q241 0 438 281.5t197 626.5q0 235 -98 369t-270 134q-255 0 -445.5 -289t-190.5 -676z" />
    <glyph glyph-name="R" unicode="R" horiz-adv-x="1405" 
d="M1066 0l-320 697h-166l-87 -438q-16 -82 -16 -143q0 -32 18.5 -39t125.5 -14l18 -1l-12 -62h-580l12 62l19 1q125 8 151.5 34t54.5 162l191 962q16 83 16 143q0 32 -18.5 39t-124.5 14l-19 2l13 61h350l287 7q190 0 284.5 -72.5t94.5 -218.5q0 -153 -110 -281t-298 -195
l227 -465q74 -138 100 -162t110 -30l18 -1l-12 -62h-327zM593 763l84 -1q209 0 334.5 115.5t125.5 307.5q0 114 -71.5 171t-214.5 57h-128z" />
    <glyph glyph-name="S" unicode="S" horiz-adv-x="1125" 
d="M122 35l57 286h111l-3 -19q-11 -82 -15 -99q-6 -25 -6 -32q0 -59 87.5 -99t216.5 -40q126 0 218 95.5t92 225.5q0 150 -181 296l-94 75q-234 189 -234 371t145.5 302t365.5 120q85 0 185.5 -18t215.5 -55l-59 -297h-111l5 30q5 40 11 89.5t6 54.5q0 54 -79.5 92.5
t-190.5 38.5q-122 0 -207 -83.5t-85 -204.5q0 -148 194 -305l100 -80q227 -183 227 -374q0 -197 -158 -319.5t-412 -122.5q-79 0 -179.5 18t-222.5 54z" />
    <glyph glyph-name="T" unicode="T" horiz-adv-x="1357" 
d="M853 1400h-237q-120 0 -155.5 -14.5t-46.5 -68.5q-11 -55 -20 -88l-5 -20h-105l53 271h1271l-53 -271h-105l3 20q5 36 15 88q4 22 4 45q0 38 -173 38h-237l-227 -1141q-16 -82 -16 -143q0 -30 23.5 -39t120.5 -14l43 -1l-12 -62h-630l13 62l43 1q79 0 132 16
q40 12 74 180z" />
    <glyph glyph-name="U" unicode="U" horiz-adv-x="1489" 
d="M311 1419l12 61h580l-12 -61l-19 -2q-125 -8 -151.5 -33.5t-54.5 -162.5l-147 -739q-15 -76 -15 -147q0 -142 80 -221.5t223 -79.5q370 0 476 534l130 653q17 83 17 143q0 32 -19 39t-125 14l-18 2l12 61h474l-12 -61l-19 -2q-125 -8 -152 -33.5t-54 -162.5l-133 -676
q-115 -582 -601 -582q-226 0 -353.5 104t-127.5 287q0 88 22 199l133 668q16 84 16 143q0 32 -18.5 39t-125.5 14z" />
    <glyph glyph-name="V" unicode="V" horiz-adv-x="1344" 
d="M629 -19l-239 1238q-31 138 -49.5 166t-85.5 32l-18 2l12 61h512l-12 -61h-19q-91 0 -116.5 -12.5t-25.5 -57.5q0 -34 21 -143l182 -966l580 975q11 18 29 55q25 51 39 76q12 21 12 35q0 38 -122 38h-19l13 61h370l-13 -61l-18 -2q-80 -5 -96.5 -21.5t-130.5 -208.5
l-718 -1206h-88z" />
    <glyph glyph-name="W" unicode="W" horiz-adv-x="1798" 
d="M453 -19l-65 1238q-9 157 -20.5 174.5t-103.5 23.5l-18 2l12 61h518l-12 -61h-18q-106 0 -136.5 -17t-30.5 -75l5 -112l48 -871l559 1124h94l81 -1130l433 872q70 140 70 167q0 42 -137 42h-18l12 61h408l-13 -61l-18 -2q-112 -6 -124.5 -17.5t-102.5 -189.5l-611 -1229
h-71l-79 1178l-584 -1178h-78z" />
    <glyph glyph-name="X" unicode="X" horiz-adv-x="1278" 
d="M-48 0l12 62l19 1q85 5 124 31t164 158l430 479l-197 493q-64 150 -83 169t-113 24l-18 2l12 61h537l-13 -61h-18q-129 0 -129 -60q0 -28 20 -73q18 -39 29 -67l139 -341l309 347q125 160 125 175q0 19 -98 19h-19l13 61h382l-12 -61l-19 -2q-82 -5 -119.5 -30.5
t-154.5 -157.5l-367 -412l232 -563q56 -136 79.5 -161t96.5 -30l19 -1l-13 -62h-542l12 62h19q147 0 147 50q0 24 -48 146l-164 405l-363 -403q-123 -136 -123 -164q0 -34 113 -34h18l-12 -62h-426z" />
    <glyph glyph-name="Y" unicode="Y" horiz-adv-x="1357" 
d="M698 666l-218 544q-12 29 -42 114q-21 59 -43 74t-96 19l-18 2l12 61h537l-12 -61l-31 -2q-83 -4 -104 -13t-21 -42q0 -37 45 -152l177 -459l372 456q121 149 121 176q0 33 -66 33q-17 0 -37 1l-18 2l12 61h376l-12 -61l-19 -2q-76 -4 -90 -10q-24 -9 -182 -203
l-435 -535l-79 -410q-17 -85 -17 -143q0 -32 19 -39t125 -14l18 -1l-12 -62h-580l13 62l18 1q130 9 155 36.5t58 196.5z" />
    <glyph glyph-name="Z" unicode="Z" horiz-adv-x="1295" 
d="M114 0l16 80l1057 1320h-450q-131 0 -164.5 -12t-45.5 -66q-18 -80 -26 -113l-6 -25h-111l59 296h996l-14 -67l-1053 -1320h472q186 0 211.5 16t60.5 156l4 19h112l-57 -284h-1061z" />
    <glyph glyph-name="bracketleft" unicode="[" horiz-adv-x="635" 
d="M96 -296l373 1875h395l-12 -62h-223l-348 -1751h222l-12 -62h-395z" />
    <glyph glyph-name="backslash" unicode="\" horiz-adv-x="938" 
d="M768 -296l-447 1875h114l448 -1875h-115z" />
    <glyph glyph-name="bracketright" unicode="]" horiz-adv-x="635" 
d="M796 1579l-373 -1875h-395l12 62h222l349 1751h-222l12 62h395z" />
    <glyph glyph-name="asciicircum" unicode="^" 
d="M159 395l759 1085l327 -1085h-118l-248 835l-587 -835h-133z" />
    <glyph glyph-name="underscore" unicode="_" horiz-adv-x="1024" 
d="M73 -130l26 130h826l-25 -130h-827z" />
    <glyph glyph-name="grave" unicode="`" horiz-adv-x="1147" 
d="M647 1579h225l141 -296h-77z" />
    <glyph glyph-name="a" unicode="a" 
d="M846 0l91 456q-124 -218 -277 -349.5t-285 -131.5q-107 0 -160.5 63t-53.5 188q0 325 229 604.5t495 279.5q28 0 72 -6t105 -18h197l-164 -827q-17 -82 -17 -143q0 -32 19 -39t125 -14l18 -1l-12 -62h-382zM967 606l71 348q-58 30 -119 44.5t-126 14.5q-150 0 -243 -135
q-74 -108 -127 -288t-53 -324q0 -72 24 -108t72 -36q191 0 501 484z" />
    <glyph glyph-name="b" unicode="b" horiz-adv-x="1221" 
d="M180 -25l267 1345q17 83 17 142q0 33 -19 40t-125 14l-18 1l12 62h382l-189 -950q123 218 276.5 350t284.5 132q108 0 161.5 -62.5t53.5 -188.5q0 -324 -228.5 -604.5t-493.5 -280.5q-64 0 -123 12.5t-113 37.5zM477 479l-71 -347q61 -30 123 -45t125 -15q148 0 241 137
q73 106 125.5 287t52.5 325q0 72 -23.5 107.5t-71.5 35.5q-191 0 -501 -485z" />
    <glyph glyph-name="c" unicode="c" horiz-adv-x="998" 
d="M932 95q-218 -120 -427 -120q-156 0 -244 100.5t-88 278.5q0 296 207 526t473 230q60 0 122.5 -11.5t127.5 -34.5l-55 -274h-98l2 18q3 25 11 65q3 21 3 36q0 59 -51 88t-153 29q-162 0 -271 -181.5t-109 -451.5q0 -152 63 -228.5t189 -76.5q109 0 315 91z" />
    <glyph glyph-name="d" unicode="d" 
d="M846 0l91 456q-124 -218 -277 -349.5t-285 -131.5q-107 0 -160.5 63t-53.5 188q0 325 229 604.5t495 279.5q55 0 177 -24l46 234q17 82 17 143q0 32 -19 39t-125 14l-18 1l12 62h382l-262 -1320q-17 -82 -17 -143q0 -32 19 -39t125 -14l18 -1l-12 -62h-382zM967 606
l72 352q-117 59 -244 59q-149 0 -243 -137q-75 -109 -128.5 -289t-53.5 -325q0 -72 24 -108t72 -36q191 0 501 484z" />
    <glyph glyph-name="e" unicode="e" horiz-adv-x="1061" 
d="M1034 173q-299 -198 -528 -198q-152 0 -242.5 103t-90.5 277q0 292 204 524t460 232q97 0 161 -58.5t64 -148.5q0 -202 -186 -331.5t-496 -144.5l-2 -51q0 -144 60 -216t180 -72q201 0 434 173zM384 486q227 17 356.5 117.5t129.5 259.5q0 80 -33 120t-99 40
q-132 0 -232 -151.5t-122 -385.5z" />
    <glyph glyph-name="f" unicode="f" horiz-adv-x="777" 
d="M144 -395l279 1400h-148l16 81h148q89 280 204 399t297 119q59 0 112 -8.5t100 -25.5l-52 -262h-98l2 18q7 52 12 82q5 26 5 45q0 42 -33.5 62.5t-101.5 20.5q-95 0 -143 -78.5t-94 -307.5l-13 -64h308l-15 -81h-309l-278 -1400h-198z" />
    <glyph glyph-name="g" unicode="g" horiz-adv-x="1233" 
d="M166 -365l-73 280q274 -244 518 -244q103 0 155.5 87t103.5 339l82 417q-123 -215 -279 -347t-287 -132q-94 0 -152.5 66.5t-58.5 171.5q0 149 78.5 325t201.5 304q200 208 434 208q27 0 71 -6t106 -18h198l-152 -755q-76 -373 -148 -490q-161 -261 -527 -261
q-114 0 -271 55zM986 672l55 283q-56 29 -114.5 43t-120.5 14q-153 0 -244 -123q-176 -238 -176 -570q0 -68 23.5 -102.5t70.5 -34.5q185 0 506 490z" />
    <glyph glyph-name="h" unicode="h" horiz-adv-x="1292" 
d="M210 0l263 1320q16 82 16 143q0 32 -18.5 39t-125.5 14l-18 1l12 62h383l-187 -937q129 216 281 342t283 126q87 0 130.5 -46.5t43.5 -140.5q0 -46 -19 -142l-104 -522q-16 -82 -16 -143q0 -32 18.5 -39t125.5 -14l18 -1l-12 -62h-383l161 809q10 53 10 84q0 35 -17.5 52
t-52.5 17q-162 0 -496 -470l-99 -492h-197z" />
    <glyph glyph-name="i" unicode="i" horiz-adv-x="592" 
d="M210 0l165 827q16 83 16 142q0 32 -18.5 39t-125.5 15l-18 1l12 62h383l-165 -827q-16 -82 -16 -143q0 -32 18.5 -39t125.5 -14l18 -1l-12 -62h-383zM465 1283l40 197h197l-39 -197h-198z" />
    <glyph glyph-name="j" unicode="j" horiz-adv-x="703" 
d="M-162 -382l53 265h99l-3 -19q-15 -115 -15 -122q0 -43 33.5 -65t100.5 -22q108 0 152.5 66.5t90.5 297.5l161 808q17 81 17 142q0 32 -19 39t-125 15l-18 1l12 62h382l-187 -943q-112 -563 -531 -563q-46 0 -96.5 9.5t-106.5 28.5zM601 1283l39 197h198l-39 -197h-198z
" />
    <glyph glyph-name="k" unicode="k" horiz-adv-x="1147" 
d="M185 0l263 1320q16 82 16 143q0 32 -18.5 39t-125.5 14l-18 1l12 62h383l-194 -974h15q488 250 488 420q0 36 -31 61l200 12q14 -27 14 -49q0 -149 -506 -415q201 -331 360 -510q48 -55 152 -60l22 -1l-12 -63h-329q-199 241 -367 561h-15l-115 -561h-194z" />
    <glyph glyph-name="l" unicode="l" horiz-adv-x="592" 
d="M185 0l263 1320q16 82 16 143q0 32 -18.5 39t-125.5 14l-18 1l12 62h383l-263 -1320q-16 -82 -16 -143q0 -32 18.5 -39t125.5 -14l18 -1l-12 -62h-383z" />
    <glyph glyph-name="m" unicode="m" horiz-adv-x="1934" 
d="M210 0l165 827q16 83 16 142q0 32 -18.5 39t-125.5 15l-18 1l12 62h383l-89 -444q299 468 545 468q83 0 124 -46.5t41 -140.5q0 -34 -22 -143l-28 -138q315 469 553 469q82 0 122.5 -50t40.5 -151q0 -47 -18 -137l-102 -514q-16 -83 -16 -143q0 -32 18.5 -39t124.5 -14
l19 -1l-13 -62h-382l166 832q7 36 7 57q0 38 -13.5 56.5t-40.5 18.5q-81 0 -230 -141.5t-255 -318.5l-102 -504h-198l166 832q7 36 7 57q0 38 -13.5 56.5t-40.5 18.5q-82 0 -230 -141t-259 -324l-99 -499h-197z" />
    <glyph glyph-name="n" unicode="n" horiz-adv-x="1292" 
d="M210 0l165 827q16 83 16 142q0 32 -18.5 39t-125.5 15l-18 1l12 62h383l-89 -444q129 216 281 342t283 126q87 0 130.5 -46.5t43.5 -140.5q0 -46 -19 -142l-104 -522q-16 -82 -16 -143q0 -32 18.5 -39t125.5 -14l18 -1l-12 -62h-383l161 809q10 53 10 84q0 35 -17.5 52
t-52.5 17q-162 0 -496 -470l-99 -492h-197z" />
    <glyph glyph-name="o" unicode="o" horiz-adv-x="1147" 
d="M522 -25q-172 0 -258 94t-86 281q0 301 200 530.5t463 229.5q176 0 263.5 -93.5t87.5 -280.5q0 -303 -202 -532t-468 -229zM573 51q159 0 280 211t121 486q0 143 -46 214.5t-139 71.5q-155 0 -275 -216t-120 -496q0 -120 50 -195.5t129 -75.5z" />
    <glyph glyph-name="p" unicode="p" 
d="M131 -395l243 1222q17 83 17 142q0 32 -19 39t-125 15l-19 1l12 62h383l-91 -457q123 218 276.5 350t284.5 132q108 0 161.5 -62.5t53.5 -188.5q0 -325 -229 -605t-496 -280q-52 0 -176 25l-79 -395h-197zM502 479l-71 -347q122 -60 248 -60q147 0 241 137
q73 106 125.5 286.5t52.5 324.5q0 72 -23.5 108t-71.5 36q-192 0 -501 -485z" />
    <glyph glyph-name="q" unicode="q" horiz-adv-x="1228" 
d="M767 -395l170 851q-124 -218 -277 -349.5t-285 -131.5q-107 0 -160.5 63t-53.5 188q0 325 229 604.5t495 279.5q28 0 72 -6t105 -18h197l-294 -1481h-198zM967 606l72 352q-58 30 -119 44.5t-125 14.5q-149 0 -243 -137q-75 -109 -128.5 -289t-53.5 -325q0 -72 24 -108
t72 -36q191 0 501 484z" />
    <glyph glyph-name="r" unicode="r" horiz-adv-x="962" 
d="M210 0l165 827q16 82 16 142q0 32 -18.5 39t-125.5 15l-18 1l12 62h383l-89 -444q289 469 555 469q26 0 49 -9l-84 -226q-45 20 -91 20q-190 0 -455 -389l-102 -507h-197z" />
    <glyph glyph-name="s" unicode="s" horiz-adv-x="901" 
d="M100 60l49 248h99l-2 -18q-13 -99 -13 -113q0 -53 72.5 -96.5t162.5 -43.5q87 0 146 54.5t59 135.5q0 80 -83 168l-104 110q-182 191 -182 312q0 128 103.5 210.5t265.5 82.5q78 0 153 -18t147 -55l-48 -241h-98l2 18q6 49 10 71q6 31 6 51q0 57 -46.5 85t-139.5 28
q-74 0 -124 -53t-50 -131q0 -79 98 -177l104 -103q171 -170 171 -310q0 -135 -108 -217.5t-286 -82.5q-88 0 -179 21.5t-185 63.5z" />
    <glyph glyph-name="t" unicode="t" horiz-adv-x="728" 
d="M650 12q-84 -37 -158 -37q-112 0 -180.5 66.5t-68.5 173.5q0 43 12 103l137 687h-167l16 81h166l40 197l208 56l-50 -253h277l-17 -81h-276l-143 -715q-10 -55 -10 -104q0 -59 28 -89t84 -30q49 0 119 28z" />
    <glyph glyph-name="u" unicode="u" horiz-adv-x="1289" 
d="M882 0l89 444q-283 -469 -564 -469q-87 0 -130.5 47t-43.5 141q0 47 19 141l104 523q16 82 16 142q0 32 -18.5 39t-125.5 15l-18 1l12 62h383l-159 -797q-11 -66 -11 -85q0 -34 18 -51t53 -17q147 0 495 464l98 486h197l-165 -827q-16 -82 -16 -143q0 -32 18.5 -39
t125.5 -14l18 -1l-12 -62h-383z" />
    <glyph glyph-name="v" unicode="v" horiz-adv-x="1143" 
d="M486 -12q0 511 -156 884q-46 109 -69.5 126t-139.5 25l-18 1l12 62h362q157 -369 188 -865l183 215q235 276 235 478q0 93 -76 172h242q21 -48 21 -106q0 -101 -97 -242t-433 -527l-193 -223h-61z" />
    <glyph glyph-name="w" unicode="w" horiz-adv-x="1649" 
d="M453 -12q8 118 8 166q0 449 -142 792q-31 77 -153 77l-18 1l12 62h325q127 -384 157 -792q297 500 360 786h63q154 -385 185 -808l97 142q231 334 231 502q0 100 -65 170h242q5 -30 5 -52q0 -131 -204 -429q-349 -507 -433 -617h-67q9 100 9 139q0 335 -104 631
q-154 -325 -412 -721q-4 -6 -29 -49h-67z" />
    <glyph glyph-name="x" unicode="x" horiz-adv-x="1045" 
d="M531 551l-122 275q-71 154 -91.5 172t-128.5 25l-19 1l12 62h325l198 -426l45 36q195 159 195 263q0 56 -43 127h196q11 -36 11 -61q0 -87 -60.5 -157t-271.5 -229l-48 -36l165 -345q77 -151 98.5 -170t127.5 -25l18 -1l-12 -62h-328l-234 495l-86 -77
q-205 -183 -205 -315q0 -55 35 -103h-213q-5 29 -5 42q0 84 59.5 158t282.5 265z" />
    <glyph glyph-name="y" unicode="y" horiz-adv-x="1143" 
d="M-5 -395q185 129 499 420q-11 233 -58.5 490.5t-99.5 372.5q-44 95 -70 112t-138 23l-24 1l12 62h363q156 -368 179 -861l123 158q182 232 242.5 339.5t60.5 198.5q0 94 -79 165h247q22 -45 22 -86q0 -85 -55.5 -177.5t-232.5 -303.5l-379 -454q-226 -271 -338 -460h-274
z" />
    <glyph glyph-name="z" unicode="z" horiz-adv-x="1098" 
d="M103 0l14 74l816 938h-312q-119 0 -151 -13.5t-45 -70.5q-7 -28 -19 -72l-5 -17h-105l49 247h831l-13 -68l-829 -944h378q148 0 177 11.5t45 77.5q2 10 17 65l5 19h98l-49 -247h-902z" />
    <glyph glyph-name="braceleft" unicode="{" horiz-adv-x="691" 
d="M881 1579l-12 -62q-132 -16 -178 -80t-46 -232l-2 -78q0 -204 -82.5 -335.5t-225.5 -156.5q105 -74 132.5 -113.5t27.5 -118.5q0 -96 -77 -281l-48 -116q-28 -69 -28 -112q0 -53 45.5 -91t110.5 -38q11 0 22 1l-12 -62q-149 0 -235.5 63t-86.5 172q0 90 60 232l41 98
q58 140 58 218q0 118 -120 118h-50l12 61h46q122 0 175 82t53 269l-1 64q0 498 421 498z" />
    <glyph glyph-name="bar" unicode="|" horiz-adv-x="493" 
d="M120 -296l373 1875h136l-373 -1875h-136z" />
    <glyph glyph-name="braceright" unicode="}" horiz-adv-x="691" 
d="M175 -296l12 62q132 16 178 80t46 232l2 78q0 204 82.5 335.5t225.5 156.5q-105 73 -132.5 113t-27.5 118q0 97 77 282l48 116q28 69 28 112q0 53 -45.5 91t-110.5 38q-11 0 -22 -1l12 62q149 0 235.5 -63t86.5 -172q0 -90 -60 -232l-41 -98q-58 -140 -58 -218
q0 -117 120 -117h50l-12 -62h-46q-122 0 -175.5 -82t-53.5 -269l2 -63q0 -499 -421 -499z" />
    <glyph glyph-name="asciitilde" unicode="~" 
d="M167 438q87 340 327 340q75 0 240 -95l111 -64q138 -79 208 -79q113 0 197 194h62q-98 -327 -329 -327q-94 0 -237 82l-110 63q-155 91 -209 91q-116 0 -198 -205h-62z" />
    <glyph glyph-name="uni00A0" unicode="&#xa0;" 
 />
    <glyph glyph-name="exclamdown" unicode="&#xa1;" horiz-adv-x="543" 
d="M586 1086l-39 -198h-198l40 198h197zM439 691l-89 -790l-59 -296h-197l59 296l225 790h61z" />
    <glyph glyph-name="cent" unicode="&#xa2;" 
d="M644 0l38 190q-369 0 -369 370q0 278 160 484t434 280l32 156h61l-30 -152l33 1q118 0 258 -42l-48 -238h-98l2 18q12 97 12 107q0 76 -174 76l-192 -961q175 0 348 95l-15 -75q-173 -85 -352 -115l-38 -194h-62zM704 301l188 945q-179 -56 -281.5 -219t-102.5 -390
q0 -295 196 -336z" />
    <glyph glyph-name="sterling" unicode="&#xa3;" 
d="M227 0l29 148q110 21 164 92.5t88 240.5l55 278h-185l12 61h185l19 93q119 604 525 604q54 0 116.5 -16t134.5 -49l-48 -237h-86l3 19q7 60 7 99q0 55 -42.5 82t-128.5 27q-94 0 -153.5 -86t-97.5 -275l-51 -261h253l-13 -61h-253l-31 -159q-40 -200 -95 -276.5
t-232 -175.5h700l-30 -148h-845z" />
    <glyph glyph-name="currency" unicode="&#xa4;" 
d="M1037 448l153 -192l-52 -43l-153 192q-160 -108 -316 -108q-76 0 -143.5 27t-125.5 81l-230 -192l-35 43l231 192q-60 103 -60 205q0 198 176 379l-153 193l52 43l153 -192q159 108 316 108q77 0 144 -27t125 -81l230 192l35 -43l-231 -193q60 -104 60 -204
q0 -196 -176 -380zM1105 804q0 121 -77.5 198t-197.5 77q-163 0 -289.5 -123.5t-126.5 -281.5q0 -119 78 -196t198 -77q161 0 288 123.5t127 279.5z" />
    <glyph glyph-name="yen" unicode="&#xa5;" 
d="M597 395h-297l13 61h296l42 210h-297l13 62h296l-219 492q-64 131 -93 162t-94 35l-18 2l12 61h506l-12 -61h-19q-121 0 -121 -42q0 -35 61 -165l187 -406l356 405q131 148 133 175q3 33 -110 33h-18l12 61h370l-12 -61l-19 -2q-83 -5 -104 -20.5t-170 -182.5l-431 -486
h296l-12 -62h-296l-42 -210h296l-12 -61h-296l-27 -136q-17 -83 -17 -143q0 -32 19 -39t125 -14l19 -1l-13 -62h-567l12 62l19 1q125 8 151.5 33.5t53.5 162.5z" />
    <glyph glyph-name="brokenbar" unicode="&#xa6;" horiz-adv-x="493" 
d="M120 -296l162 814h136l-162 -814h-136zM331 765l162 814h136l-162 -814h-136z" />
    <glyph glyph-name="section" unicode="&#xa7;" 
d="M166 -262l45 229h87l-5 -31q-8 -50 -8 -67q0 -59 86 -99.5t212 -40.5q137 0 232 83t95 204q0 107 -166 183l-117 55q-178 82 -240.5 146t-62.5 164q0 170 220 343q-114 101 -114 218q0 174 151 283.5t390 109.5q82 0 162 -13t158 -40l-46 -231h-87l4 18q11 52 11 94
q0 41 -75.5 69t-183.5 28q-139 0 -225.5 -74t-86.5 -193q0 -109 167 -194l122 -62q167 -84 222 -145t55 -163q0 -153 -207 -332q128 -96 128 -221q0 -171 -151 -281.5t-384 -110.5q-91 0 -188 18t-200 53zM911 321q96 112 96 220q0 107 -172 195l-126 65q-46 23 -116 66
q-101 -110 -101 -228q0 -108 160 -187l125 -62z" />
    <glyph glyph-name="dieresis" unicode="&#xa8;" horiz-adv-x="1147" 
d="M580 1283l34 173h173l-34 -173h-173zM975 1283l34 173h173l-34 -173h-173z" />
    <glyph glyph-name="copyright" unicode="&#xa9;" horiz-adv-x="1727" 
d="M1008 -37q-321 0 -549 228t-228 549q0 322 228 549.5t549 227.5q322 0 550 -227.5t228 -549.5q0 -321 -228 -549t-550 -228zM1008 25q296 0 506 210t210 505q0 296 -210 506t-506 210q-295 0 -505 -210t-210 -506q0 -295 210 -505t505 -210zM1236 341q-146 -45 -259 -45
q-172 0 -271.5 92.5t-99.5 252.5q0 227 146 379t365 152q128 0 276 -42l-50 -192l-72 12l11 114q-96 45 -182 45q-144 0 -244.5 -136.5t-100.5 -331.5q0 -132 62 -198.5t186 -66.5q141 0 250 50z" />
    <glyph glyph-name="ordfeminine" unicode="&#xaa;" horiz-adv-x="938" 
d="M746 728l72 302h-22q-115 -157 -210 -236t-170 -79q-65 0 -98 44.5t-33 133.5q0 231 144 416q143 184 324 184q28 0 97 -7q19 -2 56 -6h167l-99 -495l-27 -137q0 -50 100 -57l18 -1l-12 -62h-307zM832 1160l41 206q-77 36 -150 36q-107 0 -187 -142.5t-80 -333.5
q0 -36 12 -54t35 -18q48 0 130 76.5t199 229.5z" />
    <glyph glyph-name="guillemotleft" unicode="&#xab;" horiz-adv-x="1075" 
d="M720 930l-346 -387l175 -395l-51 -37l-326 432l505 432zM1122 930l-346 -387l175 -395l-51 -37l-326 432l505 432z" />
    <glyph glyph-name="logicalnot" unicode="&#xac;" 
d="M221 709l22 111h1086l-95 -475h-129l72 364h-956z" />
    <glyph glyph-name="uni00AD" unicode="&#xad;" horiz-adv-x="642" 
d="M195 543l42 148h456l-42 -148h-456z" />
    <glyph glyph-name="registered" unicode="&#xae;" 
d="M806 617q-184 0 -314 130t-130 314t130 314t314 130q185 0 314.5 -130t129.5 -314t-130 -314t-314 -130zM806 672q159 0 274 115t115 274t-115 274t-274 115t-273.5 -115t-114.5 -274t114.5 -274t273.5 -115zM735 1024l-39 -197h-148l12 61h74l76 383h-74l12 61h182
q107 0 160.5 -29t53.5 -88q0 -64 -35 -107.5t-106 -66.5l48 -153h86l-12 -61h-135l-69 197h-86zM747 1086h50q85 0 127.5 29.5t42.5 87.5q0 34 -31 51t-93 17h-59z" />
    <glyph glyph-name="degree" unicode="&#xb0;" horiz-adv-x="567" 
d="M549 1172q-72 0 -122.5 50.5t-50.5 122.5t50.5 122t122.5 50t122 -50t50 -122t-50 -122.5t-122 -50.5zM549 1234q44 0 77 33t33 78q0 44 -33 77.5t-77 33.5q-45 0 -78 -33.5t-33 -77.5q0 -45 33 -78t78 -33z" />
    <glyph glyph-name="plusminus" unicode="&#xb1;" 
d="M80 0l22 111h1086l-22 -111h-1086zM626 296l78 389h-488l22 111h488l77 388h111l-77 -388h487l-22 -111h-487l-78 -389h-111z" />
    <glyph glyph-name="twosuperior" unicode="&#xb2;" horiz-adv-x="827" 
d="M267 728l15 75q77 130 208 221l70 48q125 87 168.5 141.5t43.5 125.5q0 51 -25.5 76t-77.5 25q-81 0 -106.5 -19t-45.5 -92l-8 -34h-110l34 170q76 27 142 40t122 13q125 0 187 -45.5t62 -136.5q0 -147 -231 -270l-76 -40q-137 -73 -195 -167h407l-26 -131h-558z" />
    <glyph glyph-name="threesuperior" unicode="&#xb3;" horiz-adv-x="827" 
d="M283 739l35 171l110 -1l-5 -32q-2 -16 -2 -31q0 -30 27.5 -45t82.5 -15q68 0 119.5 60t51.5 141q0 56 -43 84t-130 28h-97l15 77h66q122 0 182.5 45.5t60.5 135.5q0 42 -26 63t-79 21q-65 0 -89 -15.5t-38 -65.5l-7 -28h-109l29 150q119 35 241 35q123 0 184.5 -39
t61.5 -117q0 -64 -41.5 -117.5t-125.5 -96.5q59 -24 88.5 -63t29.5 -92q0 -123 -103.5 -203t-265.5 -80q-60 0 -115.5 7.5t-107.5 22.5z" />
    <glyph glyph-name="acute" unicode="&#xb4;" horiz-adv-x="1147" 
d="M968 1579h236l-402 -296h-85z" />
    <glyph glyph-name="uni00B5" unicode="&#xb5;" horiz-adv-x="1357" 
d="M176 -296l223 1123q17 83 17 142q0 32 -19 39t-125 15l-18 1l12 62h382l-136 -687q-17 -84 -17 -130q0 -143 104 -143q73 0 210.5 144.5t234.5 323.5l98 492h197l-164 -827q-17 -83 -17 -143q0 -32 19 -39t125 -14l19 -1l-13 -62h-382l88 444q-217 -469 -425 -469
q-93 0 -145 84l-71 -355h-197z" />
    <glyph glyph-name="paragraph" unicode="&#xb6;" 
d="M490 -296l204 1024q-169 30 -270 141.5t-101 267.5q0 350 356 350l99 -3l149 -4h262l-353 -1776h-74l333 1678h-197l-334 -1678h-74z" />
    <glyph glyph-name="cedilla" unicode="&#xb8;" horiz-adv-x="1147" 
d="M348 -375l18 84q35 -10 59 -10q57 0 85 21t28 63q0 55 -104 83l106 134h82l-79 -103q133 -43 133 -133q0 -66 -61.5 -112.5t-149.5 -46.5q-51 0 -117 20z" />
    <glyph glyph-name="onesuperior" unicode="&#xb9;" horiz-adv-x="827" 
d="M797 1517l-126 -631q-4 -19 -4 -37q0 -30 60 -35l89 -6l-15 -74h-493l15 74l100 5q48 3 60 13.5t22 61.5l91 456q4 21 4 40q0 33 -58 33l-98 3l15 74z" />
    <glyph glyph-name="ordmasculine" unicode="&#xba;" horiz-adv-x="938" 
d="M538 715q-119 0 -179 58.5t-60 174.5q0 217 167.5 393t375.5 176q124 0 185.5 -58t61.5 -174q0 -220 -169 -395t-382 -175zM629 792q109 0 199.5 134t90.5 296q0 108 -39.5 162t-118.5 54q-109 0 -199 -133.5t-90 -294.5q0 -109 39.5 -163.5t117.5 -54.5z" />
    <glyph glyph-name="guillemotright" unicode="&#xbb;" horiz-adv-x="1075" 
d="M572 156l346 387l-175 395l51 37l326 -432l-505 -432zM170 156l346 387l-175 395l51 37l326 -432l-505 -432z" />
    <glyph glyph-name="onequarter" unicode="&#xbc;" horiz-adv-x="1752" 
d="M825 1517l-126 -631q-4 -20 -4 -38q0 -36 60 -36l89 -4l-15 -74h-493l15 74l100 5q48 3 60 13.5t22 61.5l91 456q4 21 4 40q0 33 -58 33l-98 3l15 74zM303 -37l1417 1554h138l-1419 -1554h-136zM1381 205h-387l16 80l535 499h105l-92 -460h113l-24 -119h-112l-12 -55
q-6 -32 -6 -48q0 -21 59 -25l38 -3l-15 -74h-382l15 74l38 3q70 6 80 13.5t20 60.5zM1163 324h242l55 277z" />
    <glyph glyph-name="onehalf" unicode="&#xbd;" horiz-adv-x="1752" 
d="M771 1517l-126 -631q-4 -20 -4 -39q0 -35 60 -35l89 -4l-15 -74h-493l15 74l100 5q48 3 60 13.5t22 61.5l91 456q4 21 4 40q0 33 -58 33l-98 3l15 74zM190 -37l1417 1554h138l-1419 -1554h-136zM1039 0l15 75q78 131 208 221l70 48q125 87 168.5 141.5t43.5 125.5
q0 51 -25.5 76t-77.5 25q-81 0 -106.5 -18.5t-44.5 -92.5l-9 -34h-110l34 171q76 26 142 39t122 13q125 0 187 -45.5t62 -136.5q0 -147 -231 -270l-76 -40q-136 -72 -194 -167h406l-26 -131h-558z" />
    <glyph glyph-name="threequarters" unicode="&#xbe;" horiz-adv-x="1752" 
d="M259 739l35 171l110 -1l-5 -32q-2 -16 -2 -31q0 -30 27.5 -45t82.5 -15q68 0 119.5 60t51.5 141q0 56 -43 84t-130 28h-97l15 77h66q122 0 182.5 45.5t60.5 135.5q0 42 -26 63t-79 21q-65 0 -89 -15.5t-38 -65.5l-7 -28h-109l29 150q119 35 241 35q123 0 184.5 -39
t61.5 -117q0 -64 -41.5 -117.5t-125.5 -96.5q59 -24 88.5 -63t29.5 -92q0 -123 -103.5 -203t-265.5 -80q-60 0 -115.5 7.5t-107.5 22.5zM265 -37l1417 1554h138l-1419 -1554h-136zM1380 205h-387l16 80l535 499h104l-91 -460h112l-23 -119h-113l-11 -55q-6 -32 -6 -48
q0 -21 59 -25l38 -3l-15 -74h-382l14 74l39 3q69 6 79 13.5t21 60.5zM1162 324h241l55 277z" />
    <glyph glyph-name="questiondown" unicode="&#xbf;" horiz-adv-x="965" 
d="M882 1086l-39 -198h-198l40 198h197zM803 691l-3 -19q-18 -94 -55.5 -154t-139.5 -162l-84 -83q-237 -235 -237 -424q0 -97 61.5 -157.5t160.5 -60.5q198 0 229 139q14 63 24 100l5 19h99l-50 -252q-207 -69 -373 -69q-161 0 -263.5 77t-102.5 198q0 100 51.5 172
t201.5 181l71 52q184 134 215 443h190z" />
    <glyph glyph-name="Agrave" unicode="&#xc0;" horiz-adv-x="1530" 
d="M0 0l12 62l19 1q94 5 116.5 23.5t118.5 168.5l773 1250h73l236 -1232q26 -136 52.5 -171t104.5 -39l25 -1l-13 -62h-555l13 62h31q145 0 145 48q0 51 -17 143l-38 203h-616l-125 -199q-77 -121 -77 -156q0 -39 123 -39h25l-13 -62h-413zM520 543h557l-128 696zM877 1900
h225l141 -296h-77z" />
    <glyph glyph-name="Aacute" unicode="&#xc1;" horiz-adv-x="1530" 
d="M0 0l12 62l19 1q94 5 116.5 23.5t118.5 168.5l773 1250h73l236 -1232q26 -136 52.5 -171t104.5 -39l25 -1l-13 -62h-555l13 62h31q145 0 145 48q0 51 -17 143l-38 203h-616l-125 -199q-77 -121 -77 -156q0 -39 123 -39h25l-13 -62h-413zM520 543h557l-128 696zM1198 1900
h236l-402 -296h-85z" />
    <glyph glyph-name="Acircumflex" unicode="&#xc2;" horiz-adv-x="1530" 
d="M0 0l12 62l19 1q94 5 116.5 23.5t118.5 168.5l773 1250h73l236 -1232q26 -136 52.5 -171t104.5 -39l25 -1l-13 -62h-555l13 62h31q145 0 145 48q0 51 -17 143l-38 203h-616l-125 -199q-77 -121 -77 -156q0 -39 123 -39h25l-13 -62h-413zM520 543h557l-128 696zM752 1604
l290 296h209l144 -296h-68l-211 182l-287 -182h-77z" />
    <glyph glyph-name="Atilde" unicode="&#xc3;" horiz-adv-x="1530" 
d="M0 0l12 62l19 1q94 5 116.5 23.5t118.5 168.5l773 1250h73l236 -1232q26 -136 52.5 -171t104.5 -39l25 -1l-13 -62h-555l13 62h31q145 0 145 48q0 51 -17 143l-38 203h-616l-125 -199q-77 -121 -77 -156q0 -39 123 -39h25l-13 -62h-413zM520 543h557l-128 696zM781 1604
q40 235 229 235q53 0 115 -38l35 -22q54 -34 106 -34q98 0 117 93h62q-40 -234 -230 -234q-52 0 -114 38l-35 22q-55 34 -106 34q-91 0 -117 -94h-62z" />
    <glyph glyph-name="Adieresis" unicode="&#xc4;" horiz-adv-x="1530" 
d="M0 0l12 62l19 1q94 5 116.5 23.5t118.5 168.5l773 1250h73l236 -1232q26 -136 52.5 -171t104.5 -39l25 -1l-13 -62h-555l13 62h31q145 0 145 48q0 51 -17 143l-38 203h-616l-125 -199q-77 -121 -77 -156q0 -39 123 -39h25l-13 -62h-413zM520 543h557l-128 696zM798 1604
l34 173h173l-34 -173h-173zM1193 1604l34 173h173l-34 -173h-173z" />
    <glyph glyph-name="Aring" unicode="&#xc5;" horiz-adv-x="1530" 
d="M1530 62l-13 -62h-555l13 62h31q145 0 145 48q0 51 -17 143l-38 203h-616l-125 -199q-77 -121 -77 -156q0 -39 123 -39h25l-13 -62h-413l12 62l19 1q94 5 116 23t119 169l777 1247q-26 2 -73 45t-47 110t47 114t114 47q66 0 113 -47t47 -114t-47 -110t-81 -47l232 -1227
q26 -135 52.5 -170.5t104.5 -39.5zM520 543h557l-128 696zM1084 1559q41 0 69.5 28.5t28.5 69.5t-28.5 70t-69.5 29t-70 -29t-29 -70t29 -69.5t70 -28.5z" />
    <glyph glyph-name="AE" unicode="&#xc6;" horiz-adv-x="1857" 
d="M1807 0h-1067l12 62l19 1q125 9 151.5 34.5t53.5 161.5l41 204h-503l-158 -206q-106 -137 -106 -162q0 -30 62 -30l50 -2l30 -1l-12 -62h-376l12 62l19 1q51 3 88.5 35.5t141.5 163.5l935 1218h846l-51 -259h-112l3 19l20 111q0 49 -170 49h-323l-118 -592h284
q85 0 109.5 10t34.5 49q2 9 12 46l4 18h93l-65 -326h-93l3 18q6 47 6 65q0 40 -120 40h-284l-93 -469q-11 -56 -11 -109q0 -41 26.5 -52.5t120.5 -11.5h158q175 0 203 16t58 132l5 19h111zM573 543h460l159 802z" />
    <glyph glyph-name="Ccedilla" unicode="&#xc7;" horiz-adv-x="1463" 
d="M1327 90q-200 -97 -485 -127l-51 -70q176 -28 176 -127q0 -72 -62.5 -120t-156.5 -48q-102 0 -174 31l15 63q53 -26 117 -26q59 0 88.5 24t29.5 72q0 63 -123 91q-6 2 -19 5l83 102q-251 0 -394 149t-143 411q0 423 272.5 710t674.5 287q98 0 201.5 -12.5t213.5 -37.5
l-59 -295h-125l4 20q17 93 17 111q0 64 -76 105.5t-194 41.5q-289 0 -498 -272.5t-209 -649.5q0 -209 114.5 -330t311.5 -121q175 0 469 99z" />
    <glyph glyph-name="Egrave" unicode="&#xc8;" horiz-adv-x="1164" 
d="M1115 0h-1067l12 62l19 1q125 8 151.5 34t54.5 162l191 962q16 83 16 143q0 32 -18.5 39t-124.5 14l-19 2l13 61h1011l-51 -259h-112l3 19l20 111q0 49 -169 49h-324l-117 -592h271q85 0 109.5 10t33.5 49q5 19 12 46l5 18h80l-65 -326h-80l3 18q6 47 6 66q0 39 -120 39
h-271l-94 -469q-11 -56 -11 -109q0 -41 26.5 -52.5t120.5 -11.5h158q179 0 205.5 17t59.5 150l5 18h111zM729 1900h225l141 -296h-77z" />
    <glyph glyph-name="Eacute" unicode="&#xc9;" horiz-adv-x="1164" 
d="M1115 0h-1067l12 62l19 1q125 8 151.5 34t54.5 162l191 962q16 83 16 143q0 32 -18.5 39t-124.5 14l-19 2l13 61h1011l-51 -259h-112l3 19l20 111q0 49 -169 49h-324l-117 -592h271q85 0 109.5 10t33.5 49q5 19 12 46l5 18h80l-65 -326h-80l3 18q6 47 6 66q0 39 -120 39
h-271l-94 -469q-11 -56 -11 -109q0 -41 26.5 -52.5t120.5 -11.5h158q179 0 205.5 17t59.5 150l5 18h111zM1050 1900h236l-402 -296h-85z" />
    <glyph glyph-name="Ecircumflex" unicode="&#xca;" horiz-adv-x="1164" 
d="M1115 0h-1067l12 62l19 1q125 8 151.5 34t54.5 162l191 962q16 83 16 143q0 32 -18.5 39t-124.5 14l-19 2l13 61h1011l-51 -259h-112l3 19l20 111q0 49 -169 49h-324l-117 -592h271q85 0 109.5 10t33.5 49q5 19 12 46l5 18h80l-65 -326h-80l3 18q6 47 6 66q0 39 -120 39
h-271l-94 -469q-11 -56 -11 -109q0 -41 26.5 -52.5t120.5 -11.5h158q179 0 205.5 17t59.5 150l5 18h111zM616 1604l290 296h209l144 -296h-68l-211 182l-287 -182h-77z" />
    <glyph glyph-name="Edieresis" unicode="&#xcb;" horiz-adv-x="1164" 
d="M1115 0h-1067l12 62l19 1q125 8 151.5 34t54.5 162l191 962q16 83 16 143q0 32 -18.5 39t-124.5 14l-19 2l13 61h1011l-51 -259h-112l3 19l20 111q0 49 -169 49h-324l-117 -592h271q85 0 109.5 10t33.5 49q5 19 12 46l5 18h80l-65 -326h-80l3 18q6 47 6 66q0 39 -120 39
h-271l-94 -469q-11 -56 -11 -109q0 -41 26.5 -52.5t120.5 -11.5h158q179 0 205.5 17t59.5 150l5 18h111zM662 1604l34 173h173l-34 -173h-173zM1057 1604l34 173h173l-34 -173h-173z" />
    <glyph glyph-name="Igrave" unicode="&#xcc;" horiz-adv-x="666" 
d="M635 62l-12 -62h-580l12 62l19 1q125 8 151.5 34t54.5 162l191 962q16 83 16 143q0 32 -18.5 39t-124.5 14l-19 2l13 61h579l-12 -61l-19 -2q-125 -8 -151.5 -33.5t-53.5 -162.5l-192 -962q-16 -82 -16 -143q0 -32 18.5 -39t125.5 -14zM470 1900h225l141 -296h-77z" />
    <glyph glyph-name="Iacute" unicode="&#xcd;" horiz-adv-x="666" 
d="M635 62l-12 -62h-580l12 62l19 1q125 8 151.5 34t54.5 162l191 962q16 83 16 143q0 32 -18.5 39t-124.5 14l-19 2l13 61h579l-12 -61l-19 -2q-125 -8 -151.5 -33.5t-53.5 -162.5l-192 -962q-16 -82 -16 -143q0 -32 18.5 -39t125.5 -14zM791 1900h236l-402 -296h-85z" />
    <glyph glyph-name="Icircumflex" unicode="&#xce;" horiz-adv-x="666" 
d="M635 62l-12 -62h-580l12 62l19 1q125 8 151.5 34t54.5 162l191 962q16 83 16 143q0 32 -18.5 39t-124.5 14l-19 2l13 61h579l-12 -61l-19 -2q-125 -8 -151.5 -33.5t-53.5 -162.5l-192 -962q-16 -82 -16 -143q0 -32 18.5 -39t125.5 -14zM320 1604l290 296h209l144 -296
h-68l-211 182l-287 -182h-77z" />
    <glyph glyph-name="Idieresis" unicode="&#xcf;" horiz-adv-x="666" 
d="M635 62l-12 -62h-580l12 62l19 1q125 8 151.5 34t54.5 162l191 962q16 83 16 143q0 32 -18.5 39t-124.5 14l-19 2l13 61h579l-12 -61l-19 -2q-125 -8 -151.5 -33.5t-53.5 -162.5l-192 -962q-16 -82 -16 -143q0 -32 18.5 -39t125.5 -14zM366 1604l34 173h173l-34 -173
h-173zM761 1604l34 173h173l-34 -173h-173z" />
    <glyph glyph-name="Eth" unicode="&#xd0;" horiz-adv-x="1577" 
d="M48 0l12 62l19 1q125 8 151.5 34t54.5 162l90 457h-209l13 67h210l87 438q16 83 16 143q0 32 -18.5 39t-124.5 14l-19 2l13 61h459l230 3h38q285 0 427.5 -129.5t142.5 -388.5q0 -419 -254 -692t-644 -273h-694zM724 1413l-125 -627h346l-14 -68h-345l-92 -459
q-19 -108 -17 -117q14 -75 178 -75q342 0 553.5 248t211.5 648q0 250 -129.5 350t-454.5 100h-112z" />
    <glyph glyph-name="Ntilde" unicode="&#xd1;" horiz-adv-x="1560" 
d="M1335 -18h-79l-688 1234l-190 -957q-17 -83 -17 -143q0 -32 19 -39t125 -14l18 -1l-12 -62h-464l12 62l19 1q125 8 152 34t54 162l190 962q17 83 17 143q0 32 -19 39t-125 14l-18 2l12 61h311l655 -1179l182 920q17 83 17 143q0 32 -19 39t-125 14l-18 2l12 61h461
l-12 -61l-19 -2q-125 -8 -151.5 -33.5t-53.5 -162.5zM808 1604q40 235 229 235q53 0 115 -38l35 -22q54 -34 106 -34q98 0 117 93h62q-40 -234 -230 -234q-52 0 -114 38l-35 22q-55 34 -106 34q-91 0 -117 -94h-62z" />
    <glyph glyph-name="Ograve" unicode="&#xd2;" horiz-adv-x="1604" 
d="M770 -37q-252 0 -397 149t-145 409q0 403 267 699.5t631 296.5q256 0 401 -148.5t145 -411.5q0 -404 -268 -699t-634 -295zM451 483q0 -201 101 -323.5t267 -122.5q244 0 439.5 282.5t195.5 635.5q0 227 -99 360t-268 133q-256 0 -446 -289t-190 -676zM902 1900h225
l141 -296h-77z" />
    <glyph glyph-name="Oacute" unicode="&#xd3;" horiz-adv-x="1604" 
d="M770 -37q-252 0 -397 149t-145 409q0 403 267 699.5t631 296.5q256 0 401 -148.5t145 -411.5q0 -404 -268 -699t-634 -295zM451 483q0 -201 101 -323.5t267 -122.5q244 0 439.5 282.5t195.5 635.5q0 227 -99 360t-268 133q-256 0 -446 -289t-190 -676zM1260 1900h236
l-402 -296h-85z" />
    <glyph glyph-name="Ocircumflex" unicode="&#xd4;" horiz-adv-x="1604" 
d="M770 -37q-252 0 -397 149t-145 409q0 403 267 699.5t631 296.5q256 0 401 -148.5t145 -411.5q0 -404 -268 -699t-634 -295zM451 483q0 -201 101 -323.5t267 -122.5q244 0 439.5 282.5t195.5 635.5q0 227 -99 360t-268 133q-256 0 -446 -289t-190 -676zM826 1604l290 296
h209l144 -296h-68l-211 182l-287 -182h-77z" />
    <glyph glyph-name="Otilde" unicode="&#xd5;" horiz-adv-x="1604" 
d="M770 -37q-252 0 -397 149t-145 409q0 403 267 699.5t631 296.5q256 0 401 -148.5t145 -411.5q0 -404 -268 -699t-634 -295zM451 483q0 -201 101 -323.5t267 -122.5q244 0 439.5 282.5t195.5 635.5q0 227 -99 360t-268 133q-256 0 -446 -289t-190 -676zM855 1604
q40 235 229 235q53 0 115 -38l35 -22q54 -34 106 -34q98 0 117 93h62q-40 -234 -230 -234q-52 0 -114 38l-35 22q-55 34 -106 34q-91 0 -117 -94h-62z" />
    <glyph glyph-name="Odieresis" unicode="&#xd6;" horiz-adv-x="1604" 
d="M770 -37q-252 0 -397 149t-145 409q0 403 267 699.5t631 296.5q256 0 401 -148.5t145 -411.5q0 -404 -268 -699t-634 -295zM451 483q0 -201 101 -323.5t267 -122.5q244 0 439.5 282.5t195.5 635.5q0 227 -99 360t-268 133q-256 0 -446 -289t-190 -676zM872 1604l34 173
h173l-34 -173h-173zM1267 1604l34 173h173l-34 -173h-173z" />
    <glyph glyph-name="multiply" unicode="&#xd7;" 
d="M107 134l554 460l-370 462l81 79l374 -470l557 470l71 -91l-556 -465l372 -460l-85 -70l-374 458l-549 -458z" />
    <glyph glyph-name="Oslash" unicode="&#xd8;" horiz-adv-x="1604" 
d="M213 -37h-110l220 212q-97 128 -97 358q0 392 272 688t633 296q241 0 407 -156l162 156h108l-220 -213q92 -159 92 -350q0 -397 -270 -694t-631 -297q-252 0 -407 155zM472 320l938 913q-98 215 -320 215q-251 0 -444.5 -286.5t-193.5 -657.5q0 -115 20 -184zM1436 1154
l-934 -910q110 -205 320 -205q242 0 441 283t199 628q0 93 -26 204z" />
    <glyph glyph-name="Ugrave" unicode="&#xd9;" horiz-adv-x="1489" 
d="M311 1419l12 61h580l-12 -61l-19 -2q-125 -8 -151.5 -33.5t-54.5 -162.5l-147 -739q-15 -76 -15 -147q0 -142 80 -221.5t223 -79.5q370 0 476 534l130 653q17 83 17 143q0 32 -19 39t-125 14l-18 2l12 61h474l-12 -61l-19 -2q-125 -8 -152 -33.5t-54 -162.5l-133 -676
q-115 -582 -601 -582q-226 0 -353.5 104t-127.5 287q0 88 22 199l133 668q16 84 16 143q0 32 -18.5 39t-125.5 14zM882 1900h225l141 -296h-77z" />
    <glyph glyph-name="Uacute" unicode="&#xda;" horiz-adv-x="1489" 
d="M311 1419l12 61h580l-12 -61l-19 -2q-125 -8 -151.5 -33.5t-54.5 -162.5l-147 -739q-15 -76 -15 -147q0 -142 80 -221.5t223 -79.5q370 0 476 534l130 653q17 83 17 143q0 32 -19 39t-125 14l-18 2l12 61h474l-12 -61l-19 -2q-125 -8 -152 -33.5t-54 -162.5l-133 -676
q-115 -582 -601 -582q-226 0 -353.5 104t-127.5 287q0 88 22 199l133 668q16 84 16 143q0 32 -18.5 39t-125.5 14zM1203 1900h236l-402 -296h-85z" />
    <glyph glyph-name="Ucircumflex" unicode="&#xdb;" horiz-adv-x="1489" 
d="M311 1419l12 61h580l-12 -61l-19 -2q-125 -8 -151.5 -33.5t-54.5 -162.5l-147 -739q-15 -76 -15 -147q0 -142 80 -221.5t223 -79.5q370 0 476 534l130 653q17 83 17 143q0 32 -19 39t-125 14l-18 2l12 61h474l-12 -61l-19 -2q-125 -8 -152 -33.5t-54 -162.5l-133 -676
q-115 -582 -601 -582q-226 0 -353.5 104t-127.5 287q0 88 22 199l133 668q16 84 16 143q0 32 -18.5 39t-125.5 14zM769 1604l290 296h209l144 -296h-68l-211 182l-287 -182h-77z" />
    <glyph glyph-name="Udieresis" unicode="&#xdc;" horiz-adv-x="1489" 
d="M311 1419l12 61h580l-12 -61l-19 -2q-125 -8 -151.5 -33.5t-54.5 -162.5l-147 -739q-15 -76 -15 -147q0 -142 80 -221.5t223 -79.5q370 0 476 534l130 653q17 83 17 143q0 32 -19 39t-125 14l-18 2l12 61h474l-12 -61l-19 -2q-125 -8 -152 -33.5t-54 -162.5l-133 -676
q-115 -582 -601 -582q-226 0 -353.5 104t-127.5 287q0 88 22 199l133 668q16 84 16 143q0 32 -18.5 39t-125.5 14zM815 1604l34 173h173l-34 -173h-173zM1210 1604l34 173h173l-34 -173h-173z" />
    <glyph glyph-name="Yacute" unicode="&#xdd;" horiz-adv-x="1357" 
d="M698 666l-218 544q-12 29 -42 114q-21 59 -43 74t-96 19l-18 2l12 61h537l-12 -61l-31 -2q-83 -4 -104 -13t-21 -42q0 -37 45 -152l177 -459l372 456q121 149 121 176q0 33 -66 33q-17 0 -37 1l-18 2l12 61h376l-12 -61l-19 -2q-76 -4 -90 -10q-24 -9 -182 -203
l-435 -535l-79 -410q-17 -85 -17 -143q0 -32 19 -39t125 -14l18 -1l-12 -62h-580l13 62l18 1q130 9 155 36.5t58 196.5zM1128 1900h236l-402 -296h-85z" />
    <glyph glyph-name="Thorn" unicode="&#xde;" horiz-adv-x="1185" 
d="M507 321l-13 -62q-16 -82 -16 -143q0 -32 18.5 -39t125.5 -14l18 -1l-12 -62h-580l12 62l19 1q125 8 151.5 34t54.5 162l191 962q16 83 16 143q0 32 -18.5 39t-124.5 14l-19 2l13 61h579l-12 -61l-19 -2q-125 -8 -151.5 -33.5t-53.5 -162.5l-8 -37h125q277 0 389.5 -66
t112.5 -228q0 -249 -193 -409t-491 -160h-114zM520 389h85q207 0 341.5 139.5t134.5 355.5q0 117 -70.5 175t-211.5 58h-134z" />
    <glyph glyph-name="germandbls" unicode="&#xdf;" horiz-adv-x="1235" 
d="M133 -395l305 1532q47 234 163.5 350.5t302.5 116.5q128 0 208 -65.5t80 -169.5q0 -74 -30.5 -116t-170.5 -159l-49 -41q-101 -85 -101 -154q0 -60 89 -145l161 -153q142 -135 142 -269q0 -147 -117 -252t-280 -105q-55 0 -118 13t-134 39l44 220h99l-3 -19
q-13 -103 -13 -114q0 -40 33.5 -60.5t100.5 -20.5q90 0 155 69t65 164q0 92 -102 188l-165 155q-121 115 -121 202q0 92 117 195l45 40q165 144 165 307q0 88 -35 132t-105 44q-88 0 -133.5 -71.5t-85.5 -270.5l-315 -1582h-197z" />
    <glyph glyph-name="agrave" unicode="&#xe0;" 
d="M846 0l91 456q-124 -218 -277 -349.5t-285 -131.5q-107 0 -160.5 63t-53.5 188q0 325 229 604.5t495 279.5q28 0 72 -6t105 -18h197l-164 -827q-17 -82 -17 -143q0 -32 19 -39t125 -14l18 -1l-12 -62h-382zM967 606l71 348q-58 30 -119 44.5t-126 14.5q-150 0 -243 -135
q-74 -108 -127 -288t-53 -324q0 -72 24 -108t72 -36q191 0 501 484zM696 1579h225l141 -296h-77z" />
    <glyph glyph-name="aacute" unicode="&#xe1;" 
d="M846 0l91 456q-124 -218 -277 -349.5t-285 -131.5q-107 0 -160.5 63t-53.5 188q0 325 229 604.5t495 279.5q28 0 72 -6t105 -18h197l-164 -827q-17 -82 -17 -143q0 -32 19 -39t125 -14l18 -1l-12 -62h-382zM967 606l71 348q-58 30 -119 44.5t-126 14.5q-150 0 -243 -135
q-74 -108 -127 -288t-53 -324q0 -72 24 -108t72 -36q191 0 501 484zM1017 1579h236l-402 -296h-85z" />
    <glyph glyph-name="acircumflex" unicode="&#xe2;" 
d="M846 0l91 456q-124 -218 -277 -349.5t-285 -131.5q-107 0 -160.5 63t-53.5 188q0 325 229 604.5t495 279.5q28 0 72 -6t105 -18h197l-164 -827q-17 -82 -17 -143q0 -32 19 -39t125 -14l18 -1l-12 -62h-382zM967 606l71 348q-58 30 -119 44.5t-126 14.5q-150 0 -243 -135
q-74 -108 -127 -288t-53 -324q0 -72 24 -108t72 -36q191 0 501 484zM608 1283l290 296h209l144 -296h-68l-211 182l-287 -182h-77z" />
    <glyph glyph-name="atilde" unicode="&#xe3;" 
d="M846 0l91 456q-124 -218 -277 -349.5t-285 -131.5q-107 0 -160.5 63t-53.5 188q0 325 229 604.5t495 279.5q28 0 72 -6t105 -18h197l-164 -827q-17 -82 -17 -143q0 -32 19 -39t125 -14l18 -1l-12 -62h-382zM967 606l71 348q-58 30 -119 44.5t-126 14.5q-150 0 -243 -135
q-74 -108 -127 -288t-53 -324q0 -72 24 -108t72 -36q191 0 501 484zM612 1283q40 235 229 235q53 0 115 -38l35 -22q54 -34 106 -34q98 0 117 93h62q-40 -234 -230 -234q-52 0 -114 38l-35 22q-55 34 -106 34q-91 0 -117 -94h-62z" />
    <glyph glyph-name="adieresis" unicode="&#xe4;" 
d="M846 0l91 456q-124 -218 -277 -349.5t-285 -131.5q-107 0 -160.5 63t-53.5 188q0 325 229 604.5t495 279.5q28 0 72 -6t105 -18h197l-164 -827q-17 -82 -17 -143q0 -32 19 -39t125 -14l18 -1l-12 -62h-382zM967 606l71 348q-58 30 -119 44.5t-126 14.5q-150 0 -243 -135
q-74 -108 -127 -288t-53 -324q0 -72 24 -108t72 -36q191 0 501 484zM679 1283l34 173h173l-34 -173h-173zM1074 1283l34 173h173l-34 -173h-173z" />
    <glyph glyph-name="aring" unicode="&#xe5;" 
d="M846 0l91 456q-124 -218 -277 -349.5t-285 -131.5q-107 0 -160.5 63t-53.5 188q0 325 229 604.5t495 279.5q28 0 72 -6t105 -18h197l-164 -827q-17 -82 -17 -143q0 -32 19 -39t125 -14l18 -1l-12 -62h-382zM967 606l71 348q-58 30 -119 44.5t-126 14.5q-150 0 -243 -135
q-74 -108 -127 -288t-53 -324q0 -72 24 -108t72 -36q191 0 501 484zM975 1283q-66 0 -113 47t-47 113q0 67 47 114t113 47q67 0 114 -47t47 -114q0 -66 -47 -113t-114 -47zM975 1345q41 0 70 28.5t29 69.5q0 42 -29 70.5t-70 28.5t-70 -29t-29 -70t29 -69.5t70 -28.5z" />
    <glyph glyph-name="ae" unicode="&#xe6;" horiz-adv-x="1805" 
d="M1781 169q-295 -194 -533 -194q-311 0 -311 376l3 101q-142 -240 -287.5 -360.5t-294.5 -120.5q-85 0 -141 71t-56 180q0 326 229 605.5t497 279.5q39 0 84 -5t95 -16h183l-22 -118q194 143 355 143q97 0 160.5 -59t63.5 -148q0 -202 -185.5 -331.5t-496.5 -144.5l-2 -51
q0 -288 240 -288q202 0 434 173zM969 605l71 348q-58 30 -119.5 44.5t-125.5 14.5q-150 0 -243 -136q-74 -108 -127 -287.5t-53 -324.5q0 -72 24 -108t72 -36q96 0 221 121.5t280 363.5zM1128 478q227 18 356.5 118.5t129.5 258.5q0 80 -33 120t-99 40q-132 0 -232 -152
t-122 -385z" />
    <glyph glyph-name="ccedilla" unicode="&#xe7;" horiz-adv-x="998" 
d="M933 95q-149 -89 -345 -118l-65 -85q132 -41 132 -131q0 -65 -62.5 -110.5t-152.5 -45.5q-52 0 -116 19l19 82q35 -9 60 -9q57 0 85 21t28 62q0 55 -103 82l86 108q-163 11 -244.5 103t-81.5 266q0 306 205.5 538.5t475.5 232.5q60 0 122.5 -11.5t127.5 -34.5l-55 -274
h-98l2 18q3 25 11 65q3 21 3 36q0 59 -51 88t-153 29q-162 0 -271 -181.5t-109 -451.5q0 -152 63 -228.5t189 -76.5q109 0 315 91z" />
    <glyph glyph-name="egrave" unicode="&#xe8;" horiz-adv-x="1061" 
d="M1034 173q-299 -198 -528 -198q-152 0 -242.5 103t-90.5 277q0 292 204 524t460 232q97 0 161 -58.5t64 -148.5q0 -202 -186 -331.5t-496 -144.5l-2 -51q0 -144 60 -216t180 -72q201 0 434 173zM384 486q227 17 356.5 117.5t129.5 259.5q0 80 -33 120t-99 40
q-132 0 -232 -151.5t-122 -385.5zM566 1579h225l141 -296h-77z" />
    <glyph glyph-name="eacute" unicode="&#xe9;" horiz-adv-x="1061" 
d="M1034 173q-299 -198 -528 -198q-152 0 -242.5 103t-90.5 277q0 292 204 524t460 232q97 0 161 -58.5t64 -148.5q0 -202 -186 -331.5t-496 -144.5l-2 -51q0 -144 60 -216t180 -72q201 0 434 173zM384 486q227 17 356.5 117.5t129.5 259.5q0 80 -33 120t-99 40
q-132 0 -232 -151.5t-122 -385.5zM987 1579h236l-402 -296h-85z" />
    <glyph glyph-name="ecircumflex" unicode="&#xea;" horiz-adv-x="1061" 
d="M1034 173q-299 -198 -528 -198q-152 0 -242.5 103t-90.5 277q0 292 204 524t460 232q97 0 161 -58.5t64 -148.5q0 -202 -186 -331.5t-496 -144.5l-2 -51q0 -144 60 -216t180 -72q201 0 434 173zM384 486q227 17 356.5 117.5t129.5 259.5q0 80 -33 120t-99 40
q-132 0 -232 -151.5t-122 -385.5zM528 1283l290 296h209l144 -296h-68l-211 182l-287 -182h-77z" />
    <glyph glyph-name="edieresis" unicode="&#xeb;" horiz-adv-x="1061" 
d="M1034 173q-299 -198 -528 -198q-152 0 -242.5 103t-90.5 277q0 292 204 524t460 232q97 0 161 -58.5t64 -148.5q0 -202 -186 -331.5t-496 -144.5l-2 -51q0 -144 60 -216t180 -72q201 0 434 173zM384 486q227 17 356.5 117.5t129.5 259.5q0 80 -33 120t-99 40
q-132 0 -232 -151.5t-122 -385.5zM574 1283l34 173h173l-34 -173h-173zM969 1283l34 173h173l-34 -173h-173z" />
    <glyph glyph-name="igrave" unicode="&#xec;" horiz-adv-x="592" 
d="M210 0l165 827q16 83 16 142q0 32 -18.5 39t-125.5 15l-18 1l12 62h383l-165 -827q-16 -82 -16 -143q0 -32 18.5 -39t125.5 -14l18 -1l-12 -62h-383zM332 1579h225l141 -296h-77z" />
    <glyph glyph-name="iacute" unicode="&#xed;" horiz-adv-x="592" 
d="M210 0l165 827q16 83 16 142q0 32 -18.5 39t-125.5 15l-18 1l12 62h383l-165 -827q-16 -82 -16 -143q0 -32 18.5 -39t125.5 -14l18 -1l-12 -62h-383zM666 1579h236l-402 -296h-85z" />
    <glyph glyph-name="icircumflex" unicode="&#xee;" horiz-adv-x="592" 
d="M210 0l165 827q16 83 16 142q0 32 -18.5 39t-125.5 15l-18 1l12 62h383l-165 -827q-16 -82 -16 -143q0 -32 18.5 -39t125.5 -14l18 -1l-12 -62h-383zM207 1283l290 296h209l144 -296h-68l-211 182l-287 -182h-77z" />
    <glyph glyph-name="idieresis" unicode="&#xef;" horiz-adv-x="592" 
d="M210 0l165 827q16 83 16 142q0 32 -18.5 39t-125.5 15l-18 1l12 62h383l-165 -827q-16 -82 -16 -143q0 -32 18.5 -39t125.5 -14l18 -1l-12 -62h-383zM253 1283l34 173h173l-34 -173h-173zM648 1283l34 173h173l-34 -173h-173z" />
    <glyph glyph-name="eth" unicode="&#xf0;" horiz-adv-x="1152" 
d="M951 1045q-39 170 -115 276l-278 -186l-37 51l272 184q-127 127 -378 147l14 62q318 0 488 -127l218 146l36 -53l-208 -138q215 -231 215 -634q0 -343 -185 -570.5t-463 -227.5q-158 0 -249.5 101t-91.5 274q0 270 198.5 496.5t434.5 226.5q52 0 129 -28zM606 45
q170 0 278 180t108 464q0 319 -208 319q-160 0 -274.5 -183t-114.5 -440q0 -170 53 -255t158 -85z" />
    <glyph glyph-name="ntilde" unicode="&#xf1;" horiz-adv-x="1292" 
d="M210 0l165 827q16 83 16 142q0 32 -18.5 39t-125.5 15l-18 1l12 62h383l-89 -444q129 216 281 342t283 126q87 0 130.5 -46.5t43.5 -140.5q0 -46 -19 -142l-104 -522q-16 -82 -16 -143q0 -32 18.5 -39t125.5 -14l18 -1l-12 -62h-383l161 809q10 53 10 84q0 35 -17.5 52
t-52.5 17q-162 0 -496 -470l-99 -492h-197zM635 1283q40 235 229 235q53 0 115 -38l35 -22q54 -34 106 -34q98 0 117 93h62q-40 -234 -230 -234q-52 0 -114 38l-35 22q-55 34 -106 34q-91 0 -117 -94h-62z" />
    <glyph glyph-name="ograve" unicode="&#xf2;" horiz-adv-x="1147" 
d="M522 -25q-172 0 -258 94t-86 281q0 301 200 530.5t463 229.5q176 0 263.5 -93.5t87.5 -280.5q0 -303 -202 -532t-468 -229zM573 51q159 0 280 211t121 486q0 143 -46 214.5t-139 71.5q-155 0 -275 -216t-120 -496q0 -120 50 -195.5t129 -75.5zM647 1579h225l141 -296h-77
z" />
    <glyph glyph-name="oacute" unicode="&#xf3;" horiz-adv-x="1147" 
d="M522 -25q-172 0 -258 94t-86 281q0 301 200 530.5t463 229.5q176 0 263.5 -93.5t87.5 -280.5q0 -303 -202 -532t-468 -229zM573 51q159 0 280 211t121 486q0 143 -46 214.5t-139 71.5q-155 0 -275 -216t-120 -496q0 -120 50 -195.5t129 -75.5zM1010 1579h236l-402 -296
h-85z" />
    <glyph glyph-name="ocircumflex" unicode="&#xf4;" horiz-adv-x="1147" 
d="M522 -25q-172 0 -258 94t-86 281q0 301 200 530.5t463 229.5q176 0 263.5 -93.5t87.5 -280.5q0 -303 -202 -532t-468 -229zM573 51q159 0 280 211t121 486q0 143 -46 214.5t-139 71.5q-155 0 -275 -216t-120 -496q0 -120 50 -195.5t129 -75.5zM558 1283l290 296h209
l144 -296h-68l-211 182l-287 -182h-77z" />
    <glyph glyph-name="otilde" unicode="&#xf5;" horiz-adv-x="1147" 
d="M522 -25q-172 0 -258 94t-86 281q0 301 200 530.5t463 229.5q176 0 263.5 -93.5t87.5 -280.5q0 -303 -202 -532t-468 -229zM573 51q159 0 280 211t121 486q0 143 -46 214.5t-139 71.5q-155 0 -275 -216t-120 -496q0 -120 50 -195.5t129 -75.5zM575 1283q40 235 229 235
q53 0 115 -38l35 -22q54 -34 106 -34q98 0 117 93h62q-40 -234 -230 -234q-52 0 -114 38l-35 22q-55 34 -106 34q-91 0 -117 -94h-62z" />
    <glyph glyph-name="odieresis" unicode="&#xf6;" horiz-adv-x="1147" 
d="M522 -25q-172 0 -258 94t-86 281q0 301 200 530.5t463 229.5q176 0 263.5 -93.5t87.5 -280.5q0 -303 -202 -532t-468 -229zM573 51q159 0 280 211t121 486q0 143 -46 214.5t-139 71.5q-155 0 -275 -216t-120 -496q0 -120 50 -195.5t129 -75.5zM604 1283l34 173h173
l-34 -173h-173zM999 1283l34 173h173l-34 -173h-173z" />
    <glyph glyph-name="divide" unicode="&#xf7;" 
d="M549 93l37 185h185l-37 -185h-185zM187 537l22 111h1086l-22 -111h-1086zM711 907l37 185h185l-37 -185h-185z" />
    <glyph glyph-name="oslash" unicode="&#xf8;" horiz-adv-x="1147" 
d="M194 -25h-106l146 146q-57 112 -57 227q0 298 208 530t475 232q132 0 233 -92l84 92h104l-140 -152q52 -108 52 -220q0 -301 -206 -532t-474 -231q-133 0 -233 86zM392 285l573 601q-56 147 -185 147q-151 0 -271.5 -208.5t-120.5 -470.5q0 -26 4 -69zM982 792l-574 -596
q55 -151 186 -151q152 0 271.5 210.5t119.5 478.5q0 18 -3 58z" />
    <glyph glyph-name="ugrave" unicode="&#xf9;" horiz-adv-x="1289" 
d="M882 0l89 444q-283 -469 -564 -469q-87 0 -130.5 47t-43.5 141q0 47 19 141l104 523q16 82 16 142q0 32 -18.5 39t-125.5 15l-18 1l12 62h383l-159 -797q-11 -66 -11 -85q0 -34 18 -51t53 -17q147 0 495 464l98 486h197l-165 -827q-16 -82 -16 -143q0 -32 18.5 -39
t125.5 -14l18 -1l-12 -62h-383zM647 1579h225l141 -296h-77z" />
    <glyph glyph-name="uacute" unicode="&#xfa;" horiz-adv-x="1289" 
d="M882 0l89 444q-283 -469 -564 -469q-87 0 -130.5 47t-43.5 141q0 47 19 141l104 523q16 82 16 142q0 32 -18.5 39t-125.5 15l-18 1l12 62h383l-159 -797q-11 -66 -11 -85q0 -34 18 -51t53 -17q147 0 495 464l98 486h197l-165 -827q-16 -82 -16 -143q0 -32 18.5 -39
t125.5 -14l18 -1l-12 -62h-383zM1025 1579h236l-402 -296h-85z" />
    <glyph glyph-name="ucircumflex" unicode="&#xfb;" horiz-adv-x="1289" 
d="M882 0l89 444q-283 -469 -564 -469q-87 0 -130.5 47t-43.5 141q0 47 19 141l104 523q16 82 16 142q0 32 -18.5 39t-125.5 15l-18 1l12 62h383l-159 -797q-11 -66 -11 -85q0 -34 18 -51t53 -17q147 0 495 464l98 486h197l-165 -827q-16 -82 -16 -143q0 -32 18.5 -39
t125.5 -14l18 -1l-12 -62h-383zM563 1283l290 296h209l144 -296h-68l-211 182l-287 -182h-77z" />
    <glyph glyph-name="udieresis" unicode="&#xfc;" horiz-adv-x="1289" 
d="M882 0l89 444q-283 -469 -564 -469q-87 0 -130.5 47t-43.5 141q0 47 19 141l104 523q16 82 16 142q0 32 -18.5 39t-125.5 15l-18 1l12 62h383l-159 -797q-11 -66 -11 -85q0 -34 18 -51t53 -17q147 0 495 464l98 486h197l-165 -827q-16 -82 -16 -143q0 -32 18.5 -39
t125.5 -14l18 -1l-12 -62h-383zM619 1283l34 173h173l-34 -173h-173zM1014 1283l34 173h173l-34 -173h-173z" />
    <glyph glyph-name="yacute" unicode="&#xfd;" horiz-adv-x="1143" 
d="M-5 -395q185 129 499 420q-11 233 -58.5 490.5t-99.5 372.5q-44 95 -70 112t-138 23l-24 1l12 62h363q156 -368 179 -861l123 158q182 232 242.5 339.5t60.5 198.5q0 94 -79 165h247q22 -45 22 -86q0 -85 -55.5 -177.5t-232.5 -303.5l-379 -454q-226 -271 -338 -460h-274
zM992 1579h236l-402 -296h-85z" />
    <glyph glyph-name="thorn" unicode="&#xfe;" 
d="M131 -395l299 1505q17 83 17 143q0 32 -19 39t-125 14l-18 2l12 61h382l-147 -740q123 218 276.5 350t284.5 132q108 0 161.5 -62.5t53.5 -188.5q0 -325 -229 -605t-496 -280q-52 0 -176 25l-79 -395h-197zM502 479l-71 -347q122 -60 248 -60q147 0 241 137
q73 106 125.5 286.5t52.5 324.5q0 72 -23.5 108t-71.5 36q-192 0 -501 -485z" />
    <glyph glyph-name="ydieresis" unicode="&#xff;" horiz-adv-x="1143" 
d="M-5 -395q185 129 499 420q-11 233 -58.5 490.5t-99.5 372.5q-44 95 -70 112t-138 23l-24 1l12 62h363q156 -368 179 -861l123 158q182 232 242.5 339.5t60.5 198.5q0 94 -79 165h247q22 -45 22 -86q0 -85 -55.5 -177.5t-232.5 -303.5l-379 -454q-226 -271 -338 -460h-274
zM591 1283l34 173h173l-34 -173h-173zM986 1283l34 173h173l-34 -173h-173z" />
    <glyph glyph-name="dotlessi" unicode="&#x131;" horiz-adv-x="592" 
d="M210 0l165 827q16 83 16 142q0 32 -18.5 39t-125.5 15l-18 1l12 62h383l-165 -827q-16 -82 -16 -143q0 -32 18.5 -39t125.5 -14l18 -1l-12 -62h-383z" />
    <glyph glyph-name="OE" unicode="&#x152;" horiz-adv-x="2059" 
d="M2010 0h-888l18 87q-167 -125 -378 -125q-244 0 -389 150.5t-145 403.5q0 407 265 704.5t628 297.5q162 0 286 -102l11 64h831l-52 -259h-111l3 19l20 111q0 49 -170 49h-323l-118 -592h284q85 0 109.5 10t33.5 49q5 19 12 46l5 18h93l-65 -326h-93l3 18q6 47 6 66
q0 39 -120 39h-284l-93 -469q-11 -56 -11 -109q0 -41 26.5 -52.5t120.5 -11.5h157q175 0 204 16.5t58 131.5l5 19h111zM1233 540l113 583q9 43 9 84q0 108 -70.5 172.5t-189.5 64.5q-262 0 -454 -286.5t-192 -677.5q0 -200 102.5 -323.5t266.5 -123.5q172 0 267.5 116
t147.5 391z" />
    <glyph glyph-name="oe" unicode="&#x153;" horiz-adv-x="1827" 
d="M1802 169q-288 -194 -531 -194q-112 0 -187 53.5t-113 159.5q-107 -106 -221.5 -159.5t-236.5 -53.5q-152 0 -243.5 100t-91.5 267q0 304 206 536t476 232q113 0 189 -52.5t115 -158.5q216 212 439 212q97 0 161 -58.5t64 -148.5q0 -202 -186 -331.5t-496 -144.5l-1 -50
q0 -144 60 -216.5t179 -72.5q200 0 434 173zM386 350q0 -151 51 -226.5t153 -75.5q153 0 272 209t119 481q0 149 -50.5 223t-152.5 74q-152 0 -272 -209.5t-120 -475.5zM1151 482q227 17 356.5 117.5t129.5 259.5q0 80 -33 120t-99 40q-132 0 -232 -151.5t-122 -385.5z" />
    <glyph glyph-name="Scaron" unicode="&#x160;" horiz-adv-x="1125" 
d="M122 35l57 286h111l-3 -19q-11 -82 -15 -99q-6 -25 -6 -32q0 -59 87.5 -99t216.5 -40q126 0 218 95.5t92 225.5q0 150 -181 296l-94 75q-234 189 -234 371t145.5 302t365.5 120q85 0 185.5 -18t215.5 -55l-59 -297h-111l5 30q5 40 11 89.5t6 54.5q0 54 -79.5 92.5
t-190.5 38.5q-122 0 -207 -83.5t-85 -204.5q0 -148 194 -305l100 -80q227 -183 227 -374q0 -197 -158 -319.5t-412 -122.5q-79 0 -179.5 18t-222.5 54zM1333 1900l-290 -296h-209l-144 296h69l211 -182l286 182h77z" />
    <glyph glyph-name="scaron" unicode="&#x161;" horiz-adv-x="901" 
d="M100 60l49 248h99l-2 -18q-13 -99 -13 -113q0 -53 72.5 -96.5t162.5 -43.5q87 0 146 54.5t59 135.5q0 80 -83 168l-104 110q-182 191 -182 312q0 128 103.5 210.5t265.5 82.5q78 0 153 -18t147 -55l-48 -241h-98l2 18q6 49 10 71q6 31 6 51q0 57 -46.5 85t-139.5 28
q-74 0 -124 -53t-50 -131q0 -79 98 -177l104 -103q171 -170 171 -310q0 -135 -108 -217.5t-286 -82.5q-88 0 -179 21.5t-185 63.5zM1162 1579l-290 -296h-209l-144 296h69l211 -182l286 182h77z" />
    <glyph glyph-name="Ydieresis" unicode="&#x178;" horiz-adv-x="1357" 
d="M698 666l-218 544q-12 29 -42 114q-21 59 -43 74t-96 19l-18 2l12 61h537l-12 -61l-31 -2q-83 -4 -104 -13t-21 -42q0 -37 45 -152l177 -459l372 456q121 149 121 176q0 33 -66 33q-17 0 -37 1l-18 2l12 61h376l-12 -61l-19 -2q-76 -4 -90 -10q-24 -9 -182 -203
l-435 -535l-79 -410q-17 -85 -17 -143q0 -32 19 -39t125 -14l18 -1l-12 -62h-580l13 62l18 1q130 9 155 36.5t58 196.5zM739 1604l34 173h173l-34 -173h-173zM1134 1604l34 173h173l-34 -173h-173z" />
    <glyph glyph-name="florin" unicode="&#x192;" 
d="M374 -296l208 1036h-197l12 62h198l36 182q48 242 184.5 387.5t314.5 145.5q58 0 110.5 -8t99.5 -25l-53 -263h-98l2 19q9 63 12 82q5 26 5 44q0 39 -27.5 58.5t-83.5 19.5q-104 0 -157 -82.5t-100 -318.5l-48 -241h235l-13 -62h-234l-206 -1036h-200z" />
    <glyph glyph-name="circumflex" unicode="&#x2c6;" horiz-adv-x="1147" 
d="M534 1283l290 296h209l144 -296h-68l-211 182l-287 -182h-77z" />
    <glyph glyph-name="caron" unicode="&#x2c7;" horiz-adv-x="1147" 
d="M1259 1579l-290 -296h-209l-144 296h69l211 -182l286 182h77z" />
    <glyph glyph-name="macron" unicode="&#x2c9;" horiz-adv-x="1147" 
d="M577 1283l25 123h567l-24 -123h-568z" />
    <glyph glyph-name="breve" unicode="&#x2d8;" horiz-adv-x="1147" 
d="M588 1579h62q46 -154 226 -154q98 0 177.5 38.5t139.5 115.5h61q-60 -148 -159.5 -222t-237.5 -74q-269 0 -269 296z" />
    <glyph glyph-name="dotaccent" unicode="&#x2d9;" horiz-adv-x="1147" 
d="M730 1283l39 197h198l-40 -197h-197z" />
    <glyph glyph-name="ring" unicode="&#x2da;" horiz-adv-x="1147" 
d="M890 1283q-66 0 -113 47t-47 113q0 67 47 114t113 47q67 0 114 -47t47 -114q0 -66 -47 -113t-114 -47zM890 1345q41 0 70 28.5t29 69.5q0 42 -29 70.5t-70 28.5t-70 -29t-29 -70t29 -69.5t70 -28.5z" />
    <glyph glyph-name="ogonek" unicode="&#x2db;" horiz-adv-x="1147" 
d="M657 -280q-70 -22 -154 -22q-82 0 -123 30t-41 89q0 99 169 183h123q-140 -75 -140 -152q0 -35 30.5 -52.5t91.5 -17.5q22 0 57 7z" />
    <glyph glyph-name="tilde" unicode="&#x2dc;" horiz-adv-x="1147" 
d="M563 1283q40 235 229 235q53 0 115 -38l35 -22q54 -34 106 -34q98 0 117 93h62q-40 -234 -230 -234q-52 0 -114 38l-35 22q-55 34 -106 34q-91 0 -117 -94h-62z" />
    <glyph glyph-name="hungarumlaut" unicode="&#x2dd;" horiz-adv-x="1147" 
d="M586 1283l274 296h164l-373 -296h-65zM914 1283l274 296h163l-368 -296h-69z" />
    <glyph glyph-name="pi" unicode="&#x3c0;" horiz-adv-x="1645" 
d="M408 0l189 950h-44q-170 0 -305 -111v160q109 87 303 87h1221v-136h-311l-113 -566q-9 -47 -9 -96q0 -167 119 -288l-216 -19q-98 120 -98 270q0 96 17 182l103 517h-469l-189 -950h-198z" />
    <glyph glyph-name="endash" unicode="&#x2013;" horiz-adv-x="1024" 
d="M213 543l25 123h814l-25 -123h-814z" />
    <glyph glyph-name="emdash" unicode="&#x2014;" horiz-adv-x="2048" 
d="M207 543l20 99h1850l-20 -99h-1850z" />
    <glyph glyph-name="quoteleft" unicode="&#x2018;" horiz-adv-x="543" 
d="M552 1258h93l-52 -246h-247l45 223q69 344 320 344l-14 -62q-106 0 -134 -185z" />
    <glyph glyph-name="quoteright" unicode="&#x2019;" horiz-adv-x="543" 
d="M505 1332h-93l52 247h247l-45 -223q-69 -344 -320 -344l14 61q106 0 134 186z" />
    <glyph glyph-name="quotesinglbase" unicode="&#x201a;" horiz-adv-x="543" 
d="M240 0h-93l52 247h247l-45 -223q-69 -345 -320 -345l14 62q106 0 134 186z" />
    <glyph glyph-name="quotedblleft" unicode="&#x201c;" horiz-adv-x="937" 
d="M552 1258h93l-49 -246h-247l44 223q69 344 316 344l-13 -62q-55 0 -81 -37t-48 -148zM946 1258h93l-49 -246h-247l44 223q69 344 316 344l-12 -62q-56 0 -82 -37t-48 -148z" />
    <glyph glyph-name="quotedblright" unicode="&#x201d;" horiz-adv-x="937" 
d="M899 1332h-92l49 247h247l-45 -223q-68 -344 -315 -344l12 61q55 0 81.5 37.5t48.5 148.5zM505 1332h-92l49 247h247l-45 -223q-68 -344 -315 -344l12 61q55 0 81.5 37.5t48.5 148.5z" />
    <glyph glyph-name="quotedblbase" unicode="&#x201e;" horiz-adv-x="937" 
d="M634 0h-92l49 247h247l-45 -223q-68 -345 -315 -345l12 62q55 0 81.5 37.5t48.5 148.5zM240 0h-92l49 247h247l-45 -223q-68 -345 -315 -345l12 62q55 0 81.5 37.5t48.5 148.5z" />
    <glyph glyph-name="dagger" unicode="&#x2020;" 
d="M466 -296l278 1153l-403 -43l29 148l387 -43l62 561h197l-161 -561l404 43l-30 -148l-386 43l-180 -1153h-197z" />
    <glyph glyph-name="daggerdbl" unicode="&#x2021;" 
d="M466 -296l159 555l-403 -43l29 148l387 -43l106 536l-403 -43l29 148l387 -43l62 561h197l-161 -561l404 43l-30 -148l-386 43l-107 -536l404 43l-30 -148l-386 43l-61 -555h-197z" />
    <glyph glyph-name="bullet" unicode="&#x2022;" 
d="M734 438q-62 0 -105 43t-43 105q0 61 43.5 104.5t104.5 43.5t104.5 -43.5t43.5 -104.5q0 -62 -43 -105t-105 -43z" />
    <glyph glyph-name="ellipsis" unicode="&#x2026;" horiz-adv-x="2048" 
d="M247 0l39 197h198l-40 -197h-197zM926 0l39 197h197l-39 -197h-197zM1604 0l39 197h198l-40 -197h-197z" />
    <glyph glyph-name="perthousand" unicode="&#x2030;" horiz-adv-x="2182" 
d="M535 740q-113 0 -181.5 72t-68.5 191q0 198 113 337.5t273 139.5q117 0 186.5 -71t69.5 -192q0 -200 -114 -338.5t-278 -138.5zM432 994q0 -192 121 -192q91 0 165 130t74 292q0 196 -121 196q-93 0 -166 -130.5t-73 -295.5zM1180 0q-113 0 -181.5 72t-68.5 191
q0 197 113 337t272 140q118 0 187.5 -71t69.5 -192q0 -200 -114 -338.5t-278 -138.5zM1077 252q0 -191 121 -191q92 0 165.5 130.5t73.5 292.5q0 196 -121 196q-93 0 -166 -130.5t-73 -297.5zM182 -37l1362 1554h131l-1362 -1554h-131zM1911 0q-113 0 -182 72t-69 191
q0 197 113 337t273 140q117 0 186.5 -71t69.5 -192q0 -200 -114 -338.5t-277 -138.5zM1807 254q0 -193 122 -193q90 0 164 130.5t74 291.5q0 197 -121 197q-93 0 -166 -130.5t-73 -295.5z" />
    <glyph glyph-name="guilsinglleft" unicode="&#x2039;" horiz-adv-x="676" 
d="M722 930l-346 -387l175 -395l-51 -37l-326 432l505 432z" />
    <glyph glyph-name="guilsinglright" unicode="&#x203a;" horiz-adv-x="676" 
d="M168 156l346 387l-175 395l51 37l326 -432l-505 -432z" />
    <glyph glyph-name="Euro" unicode="&#x20ac;" horiz-adv-x="1245" 
d="M496 858h528l-12 -63h-533v-4q-4 -18 -11 -59.5t-7 -45.5h528l-12 -63h-522q-4 -10 -4 -91q0 -217 86 -336.5t243 -119.5q129 0 353 125l-19 -86q-251 -152 -465 -152q-194 0 -308 151.5t-114 413.5l4 86v9h-108l12 63h103q2 2 2 4q0 5 8.5 54t11.5 51h-125l12 63h129
q92 277 288.5 468.5t498.5 191.5q151 0 309 -52l-57 -295h-125q18 93 18 142q0 63 -46 100t-126 37q-168 0 -305.5 -149t-232.5 -437z" />
    <glyph glyph-name="trademark" unicode="&#x2122;" horiz-adv-x="1851" 
d="M584 1419h-185l-27 -136h-86l39 197h691l-39 -197h-86l26 136h-185l-125 -629h136l-12 -62h-420l13 62h135zM1377 790l-95 538l-119 -600h-235l12 62h136l125 629h-136l13 61h346l77 -442l241 442h325l-12 -61h-136l-125 -629h136l-13 -62h-286l128 641l-318 -579h-64z
" />
    <glyph glyph-name="uni2126" unicode="&#x2126;" horiz-adv-x="1721" 
d="M1110 130h159q179 0 205 16t60 150l5 19h111l-63 -315h-591l26 130q247 222 370.5 443t123.5 442q0 197 -103.5 312.5t-279.5 115.5q-255 0 -438 -224.5t-183 -536.5q0 -264 207 -552l-26 -130h-591l63 315h111l-3 -19l-15 -108q0 -36 40.5 -47t173.5 -11h159
q-336 342 -336 603q0 315 255 549.5t597 234.5q268 0 427.5 -145.5t159.5 -391.5q0 -220 -139.5 -410t-484.5 -440z" />
    <glyph glyph-name="partialdiff" unicode="&#x2202;" 
d="M343 1293q151 311 417 311q205 0 319 -182t114 -509q0 -404 -170 -671t-427 -267q-136 0 -218.5 95.5t-82.5 252.5q0 253 173 471t374 218q83 0 155 -43t134 -129q0 296 -109 443.5t-327 147.5q-185 0 -352 -138zM1125 752q-54 102 -121.5 152.5t-147.5 50.5
q-149 0 -262 -164t-113 -379q0 -138 53.5 -223.5t139.5 -85.5q161 0 291 187t160 462z" />
    <glyph glyph-name="uni2206" unicode="&#x2206;" horiz-adv-x="1524" 
d="M85 0l27 136l903 1360h70l384 -1360l-27 -136h-1357zM196 136h1054l-314 1114z" />
    <glyph glyph-name="product" unicode="&#x220f;" horiz-adv-x="1589" 
d="M722 1400l-228 -1141q-16 -82 -16 -143q0 -32 18.5 -39t125.5 -14l18 -1l-12 -62h-580l12 62l19 1q125 8 151.5 34t54.5 162l191 962q17 83 17 143q0 32 -19 39t-125 14l-19 2l13 61h1493l-12 -61l-19 -2q-125 -8 -151.5 -33.5t-53.5 -162.5l-192 -962q-16 -82 -16 -143
q0 -32 18.5 -39t125.5 -14l18 -1l-12 -62h-580l12 62l19 1q125 8 151.5 34t54.5 162l227 1141h-704z" />
    <glyph glyph-name="summation" unicode="&#x2211;" horiz-adv-x="1372" 
d="M70 0l28 142l782 555l-485 691l19 92h1123l-52 -259h-111l2 19l21 111q0 49 -170 49h-549l424 -617l-896 -641h762q179 0 205.5 16.5t60.5 149.5l4 19h111l-65 -327h-1214z" />
    <glyph glyph-name="fraction" unicode="&#x2215;" horiz-adv-x="74" 
d="M-593 -37l1417 1554h138l-1419 -1554h-136z" />
    <glyph glyph-name="periodcentered" unicode="&#x2219;" 
d="M615 487l42 210h209l-41 -210h-210z" />
    <glyph glyph-name="radical" unicode="&#x221a;" horiz-adv-x="1456" 
d="M360 379l-22 53l298 156l268 -786l996 1827h65l-1050 -1925h-103l-264 771z" />
    <glyph glyph-name="infinity" unicode="&#x221e;" horiz-adv-x="1727" 
d="M950 495q-230 -323 -445 -323q-119 0 -195.5 86.5t-76.5 221.5q0 198 143.5 365t314.5 167q112 0 186.5 -73.5t154.5 -260.5q251 334 441 334q116 0 191.5 -87t75.5 -220q0 -205 -139.5 -368.5t-314.5 -163.5q-113 0 -185 69t-151 253zM917 548q-141 311 -284 311
q-107 0 -199.5 -121.5t-92.5 -260.5q0 -92 53.5 -150t139.5 -58q184 0 383 279zM1064 626q143 -310 277 -310q105 0 199 120.5t94 254.5q0 96 -55 155.5t-143 59.5q-170 0 -372 -280z" />
    <glyph glyph-name="integral" unicode="&#x222b;" 
d="M1139 1440q-20 9 -36 9q-74 0 -111 -93t-91 -415q-47 -278 -50 -295l-17 -85q-91 -459 -205 -658q-115 -199 -287 -199q-66 0 -99.5 27t-33.5 81q0 42 38 78t82 36q70 0 70 -64q0 -21 -12.5 -41t-38.5 -39q17 -9 31 -9q79 0 120 93q40 93 91 409q43 267 48 293l17 85
q93 468 206 667q57 99 128 148.5t157 49.5q64 0 96 -28.5t32 -85.5q0 -45 -37 -83t-81 -38q-65 0 -65 70q0 25 12 46.5t36 40.5z" />
    <glyph glyph-name="approxequal" unicode="&#x2248;" 
d="M127 234q87 340 327 340q75 0 240 -94l111 -64q138 -80 208 -80q114 0 197 194h62q-97 -326 -329 -326q-94 0 -237 82l-110 63q-155 91 -209 91q-116 0 -198 -206h-62zM210 654q87 339 327 339q76 0 240 -94l112 -64q137 -79 208 -79q114 0 196 194h62
q-98 -327 -329 -327q-94 0 -237 82l-110 63q-154 91 -209 91q-116 0 -198 -205h-62z" />
    <glyph glyph-name="notequal" unicode="&#x2260;" 
d="M153 364l22 111h422l184 234h-559l22 111h623l169 222h123l-167 -222h338l-23 -111h-401l-181 -234h536l-22 -111h-601l-170 -222h-128l169 222h-356z" />
    <glyph glyph-name="lessequal" unicode="&#x2264;" 
d="M80 0l22 111h1086l-22 -111h-1086zM1418 1271l-30 -135l-916 -420l754 -415l-23 -116l-978 543z" />
    <glyph glyph-name="greaterequal" unicode="&#x2265;" 
d="M80 0l22 111h1086l-22 -111h-1086zM117 185l30 134l916 421l-753 414l23 117l977 -543z" />
    <glyph glyph-name="lozenge" unicode="&#x25ca;" 
d="M623 0l-435 543l651 543l435 -543zM655 159l470 384l-318 381l-461 -381z" />
    <glyph glyph-name="uniF001" unicode="&#xf001;" horiz-adv-x="1295" 
d="M144 -395l279 1400h-148l16 81h148q58 259 177 388.5t299 129.5q36 0 81 -6t99 -18l-54 -272h-99l3 18q6 46 12 82q6 32 6 54q0 35 -24.5 52.5t-74.5 17.5q-84 0 -123.5 -60.5t-76.5 -246.5l-28 -139h691l-164 -827q-17 -82 -17 -143q0 -32 19 -39t125 -14l18 -1l-12 -62
h-383l200 1005h-493l-278 -1400h-198zM1169 1283l39 197h197l-39 -197h-197z" />
    <glyph glyph-name="uniF002" unicode="&#xf002;" horiz-adv-x="1320" 
d="M144 -395l279 1400h-148l16 81h148q65 259 192.5 388.5t318.5 129.5q68 0 167 -25h308l-262 -1320q-17 -82 -17 -143q0 -32 19 -39t125 -14l18 -1l-12 -62h-383l289 1450q-143 92 -276 92q-100 0 -167.5 -89.5t-102.5 -268.5l-20 -98h308l-15 -81h-309l-278 -1400h-198z
" />
    <glyph glyph-name="f000" horiz-adv-x="1024" 
d="M128 0v1480h768v-1480h-768zM256 128h512v1224h-512v-1224z" />
  </font>
</defs>
</svg>
