<?xml version="1.0" standalone="no"?>
<!DOCTYPE svg PUBLIC "-//W3C//DTD SVG 1.1//EN" "http://www.w3.org/Graphics/SVG/1.1/DTD/svg11.dtd" >
<svg xmlns="http://www.w3.org/2000/svg" xmlns:xlink="http://www.w3.org/1999/xlink" version="1.1">
<metadata>
Created by FontForge 20161013 at Sat Nov 30 01:51:54 2013
 By ,,,
Copyright (c) 2013 by Absolut Foundry. All rights reserved.
</metadata>
<defs>
<font id="Mohave-Italic" horiz-adv-x="495" >
  <font-face 
    font-family="Mohave"
    font-weight="400"
    font-style="italic"
    font-stretch="normal"
    units-per-em="1000"
    panose-1="0 0 0 0 0 0 0 0 0 0"
    ascent="901"
    descent="-99"
    x-height="817"
    cap-height="817"
    bbox="-69 -251 864.939 1012"
    underline-thickness="50"
    underline-position="-199"
    unicode-range="U+0020-2212"
  />
<missing-glyph horiz-adv-x="393" 
d="M416 801l-141 -800h-299l140 800h300zM357 751h-200l-123 -700h200z" />
    <glyph glyph-name=".notdef" horiz-adv-x="393" 
d="M416 801l-141 -800h-299l140 800h300zM357 751h-200l-123 -700h200z" />
    <glyph glyph-name=".null" horiz-adv-x="0" 
 />
    <glyph glyph-name="nonmarkingreturn" horiz-adv-x="333" 
 />
    <glyph glyph-name="space" unicode=" " horiz-adv-x="200" 
 />
    <glyph glyph-name="exclam" unicode="!" horiz-adv-x="184" 
d="M73 86l-16 -86h-75l16 86h75zM206 817l-130 -654h-56l102 654h84z" />
    <glyph glyph-name="quotedbl" unicode="&#x22;" horiz-adv-x="349" 
d="M101 637h-37l43 66h-49l20 114h86l-20 -114zM238 637h-37l43 66h-49l20 114h86l-20 -114z" />
    <glyph glyph-name="numbersign" unicode="#" horiz-adv-x="530" 
d="M206 472l-62 -183h170q7 22 27.5 82t34.5 102q-26 0 -80.5 -0.5t-89.5 -0.5zM475 539h47l-12 -66h-65l-63 -184h73l-11 -66h-90q-8 -23 -79 -223h-67l77 223h-170q-59 -172 -78 -223h-66l76 223h-54l10 66h72q11 35 31 92t32 92h-78l12 66h96l100 278h68l-100 -278h170
q16 45 50.5 141t49.5 137h69z" />
    <glyph glyph-name="dollar" unicode="$" horiz-adv-x="409" 
d="M267 148l23 128q8 49 -65 76l-52 -294q35 16 62.5 41t31.5 49zM141 643l-23 -131q-8 -49 65 -75l52 296q-38 -15 -63.5 -39t-30.5 -51zM160 -19l-10 -54h-57l10 54q-60 17 -92.5 63.5t-22.5 103.5l13 80h66l-14 -80q-4 -25 13.5 -49.5t49.5 -40.5l56 315q-61 13 -95 51.5
t-26 87.5l23 131q11 58 59.5 104t115.5 62l9 53h57l-9 -53q62 -15 93.5 -61t21.5 -105l-14 -83h-66l14 83q12 62 -63 91l-56 -321q58 -15 93.5 -52.5t27.5 -84.5l-23 -128q-10 -58 -59 -104t-115 -63z" />
    <glyph glyph-name="percent" unicode="%" horiz-adv-x="578" 
d="M34 -25l456 842h58l-456 -842h-58zM137 405q-43 0 -68.5 29t-18.5 72l32 180q7 42 43.5 71.5t78.5 29.5q41 0 67 -29.5t19 -71.5l-32 -180q-7 -43 -43 -72t-78 -29zM204 506l32 180q4 20 -10 34t-31 14q-22 0 -38 -13.5t-20 -34.5l-32 -180q-4 -21 7.5 -34.5t33.5 -13.5
q19 0 36.5 14t21.5 34zM364 -25q-43 0 -68 29t-18 72l32 181q7 43 42.5 72t79.5 29q42 0 67 -29.5t18 -71.5l-32 -181q-7 -42 -43 -71.5t-78 -29.5zM431 76l32 181q3 18 -9.5 32.5t-31.5 14.5q-22 0 -38 -13t-20 -34l-32 -181q-4 -21 7.5 -34t34.5 -13q21 0 37.5 14t19.5 33
z" />
    <glyph glyph-name="ampersand" unicode="&#x26;" horiz-adv-x="529" 
d="M246 442h104l13 75h78l-13 -75h63l-11 -65h-63l-39 -219q-13 -73 -77 -123.5t-136 -50.5t-117 50.5t-33 123.5l23 130q12 68 81 123q-48 64 -38 121l23 130q13 73 76.5 123.5t135.5 50.5q75 0 116.5 -59t27.5 -153h-78q5 63 -15.5 99.5t-64.5 36.5q-45 0 -79.5 -27.5
t-41.5 -70.5l-23 -130q-2 -36 26 -63t62 -27zM300 158l39 219h-104q-45 0 -79 -25t-41 -64l-23 -130q-7 -43 17.5 -70.5t69.5 -27.5t79.5 27.5t41.5 70.5z" />
    <glyph glyph-name="quotesingle" unicode="'" horiz-adv-x="213" 
d="M102 637h-37l43 66h-49l20 114h86l-20 -114z" />
    <glyph glyph-name="parenleft" unicode="(" horiz-adv-x="364" 
d="M328 901h65l-13 -70q-36 0 -62 -3t-53 -11.5t-44 -27t-22 -46.5l-115 -648q-13 -75 16 -98.5t129 -24.5l-13 -70h-65q-76 0 -119.5 39.5t-30.5 116.5l121 685q14 78 71.5 118t134.5 40z" />
    <glyph glyph-name="parenright" unicode=")" horiz-adv-x="364" 
d="M150 901h65q77 0 120.5 -40t29.5 -118l-121 -685q-14 -77 -71.5 -116.5t-134.5 -39.5h-64l13 70q99 1 136 24.5t50 98.5l115 648q9 53 -32.5 70.5t-118.5 17.5z" />
    <glyph glyph-name="asterisk" unicode="*" horiz-adv-x="295" 
d="M256 742l-61 -36q2 -1 21 -14t27 -20q-9 -9 -31 -33l-49 33l-13 -75h-46l14 75q-17 -10 -30.5 -17t-19.5 -10t-9 -5l-20 33l57 33l-45 35q7 6 17 17t14 15l47 -34l14 77h46l-15 -77q2 2 61 34q3 -5 10 -15.5t11 -15.5z" />
    <glyph glyph-name="plus" unicode="+" horiz-adv-x="408" 
d="M398 424l-10 -57h-160l-29 -161h-57l29 161h-161l10 57h161l28 159h57l-28 -159h160z" />
    <glyph glyph-name="comma" unicode="," horiz-adv-x="163" 
d="M136 102l-16 -91l-87 -59l27 150h76z" />
    <glyph glyph-name="hyphen" unicode="-" horiz-adv-x="406" 
d="M342 367h-291l11 57h291z" />
    <glyph glyph-name="period" unicode="." horiz-adv-x="192" 
d="M140 102l-17 -102h-76l17 102h76z" />
    <glyph glyph-name="slash" unicode="/" horiz-adv-x="418" 
d="M465 829l-456 -842h-57l454 842h59z" />
    <glyph glyph-name="zero" unicode="0" horiz-adv-x="503" 
d="M179 -9q-82 0 -132 56.5t-36 138.5l77 436q15 82 84.5 138.5t151.5 56.5t132 -56.5t35 -138.5l-77 -436q-15 -82 -84.5 -138.5t-150.5 -56.5zM313 753q-55 0 -102.5 -38t-57.5 -93l-85 -481l330 574q-35 38 -85 38zM190 55q54 0 101 38t57 93l86 488l-329 -575
q28 -44 85 -44z" />
    <glyph glyph-name="one" unicode="1" horiz-adv-x="277" 
d="M172 0h-66l117 660q-16 -3 -37 -4.5t-36 -1.5t-40 0.5t-35 0.5l10 56h33q27 0 39.5 0.5t34.5 3.5t33 11t13 21l13 70h66z" />
    <glyph glyph-name="two" unicode="2" horiz-adv-x="456" 
d="M162 649l-23 -129h-66l23 129q12 70 72 119t130 49t112 -50t30 -118q-11 -66 -17 -101.5t-8 -44.5q-8 -46 -25.5 -81.5t-46.5 -62.5t-50.5 -42t-59.5 -37q-65 -42 -109 -97.5t-43 -117.5h272l-12 -65h-342l12 71q16 92 51.5 146.5t122.5 100.5q41 26 61.5 40.5t46 37.5
t38.5 48t19 56l24 149q7 43 -20 73t-68 30t-79 -31.5t-45 -71.5z" />
    <glyph glyph-name="three" unicode="3" horiz-adv-x="446" 
d="M207 387h-48l10 55h47h15.5h20t19.5 1.5t21.5 4.5t19 8.5t18 13.5t12.5 20t9 28l23 130q8 45 -18 74t-73 29q-44 0 -81.5 -29.5t-45.5 -73.5l-22 -128h-68l22 128q13 71 74.5 120t132.5 49q72 0 115.5 -48.5t30.5 -120.5l-23 -130q-4 -24 -16 -42.5t-23.5 -28.5
t-41.5 -33q54 -48 42 -121l-23 -130q-13 -72 -73.5 -120.5t-132.5 -48.5q-71 0 -115 49t-32 120l22 127h68l-22 -127q-8 -45 20 -74t71 -29q47 0 83 29t44 74l23 130q5 28 -0.5 48t-17 28.5t-27.5 13.5t-31.5 4t-28.5 0z" />
    <glyph glyph-name="four" unicode="4" horiz-adv-x="454" 
d="M333 167l-30 -167h-66l30 167h-288l10 57l370 593h89l-105 -594h56l-10 -56h-56zM277 223l88 503q-15 -25 -130 -208t-184 -295h226z" />
    <glyph glyph-name="five" unicode="5" horiz-adv-x="494" 
d="M273 554q83 0 131 -58.5t34 -141.5l-29 -161q-14 -83 -83 -141.5t-152 -58.5q-84 0 -132 58t-34 142l10 55h65l-10 -55q-10 -54 24 -94t88 -40t101 40t57 94l29 161q9 54 -24 94.5t-87 40.5q-53 0 -100.5 -43.5t-62.5 -106.5h-64l84 478h401l-11 -66h-336l-45 -255
q68 58 146 58z" />
    <glyph glyph-name="six" unicode="6" horiz-adv-x="500" 
d="M273 537q81 0 131.5 -57t36.5 -138l-28 -156q-15 -82 -84.5 -138.5t-151.5 -56.5t-132 56.5t-36 138.5l77 436q15 82 84.5 138.5t151.5 56.5t132.5 -56.5t35.5 -138.5l-8 -46h-66l8 46q10 56 -24 93.5t-89 37.5t-101.5 -37t-56.5 -94l-24 -133q72 48 144 48zM261 472
q-55 0 -101 -37t-56 -93l-28 -156q-10 -56 23.5 -93.5t88.5 -37.5t102 37.5t57 93.5l28 156q10 55 -24.5 92.5t-89.5 37.5z" />
    <glyph glyph-name="seven" unicode="7" horiz-adv-x="411" 
d="M445 731l-351 -731h-70l352 751h-294l12 66h367z" />
    <glyph glyph-name="eight" unicode="8" horiz-adv-x="498" 
d="M74 560l11 65q15 81 84.5 136.5t151.5 55.5t132 -55t35 -137l-11 -65q-17 -90 -97 -146q62 -57 45 -146l-17 -97q-13 -75 -77.5 -126.5t-140.5 -51.5h-29q-76 0 -122.5 51.5t-33.5 126.5l17 97q16 87 98 146q-62 57 -46 146zM172 56h29q48 0 90.5 33.5t50.5 81.5l17 97
q10 50 -24.5 84t-89.5 34t-101 -33.5t-56 -84.5l-17 -97q-8 -49 22.5 -82t78.5 -33zM255 442q55 0 101 33.5t55 84.5l11 65q10 54 -24 91.5t-88 37.5q-55 0 -102 -37.5t-57 -91.5l-11 -65q-9 -51 25.5 -84.5t89.5 -33.5z" />
    <glyph glyph-name="nine" unicode="9" horiz-adv-x="499" 
d="M225 271q-81 0 -131.5 57t-36.5 138l28 156q15 82 84.5 138.5t151.5 56.5t132.5 -56.5t35.5 -138.5l-77 -436q-15 -82 -84.5 -138.5t-151.5 -56.5t-132 56.5t-36 138.5l8 46h66l-8 -46q-10 -56 24 -93.5t89 -37.5t101.5 37t56.5 94l24 133q-72 -48 -144 -48zM237 336
q55 0 101 37t56 93l28 156q10 56 -23.5 93.5t-88.5 37.5t-102 -37.5t-57 -93.5l-28 -156q-10 -55 24.5 -92.5t89.5 -37.5z" />
    <glyph glyph-name="colon" unicode=":" horiz-adv-x="169" 
d="M104 102l-18 -102h-76l18 102h76zM159 412l-18 -102h-76l18 102h76z" />
    <glyph glyph-name="semicolon" unicode=";" horiz-adv-x="169" 
d="M164 412l-18 -102h-76l18 102h76zM109 102l-16 -91l-88 -69l28 160h76z" />
    <glyph glyph-name="less" unicode="&#x3c;" horiz-adv-x="428" 
d="M383 284l-13 -70l-353 142l15 81l403 142l-13 -70l-320 -113q208 -82 281 -112z" />
    <glyph glyph-name="equal" unicode="=" horiz-adv-x="391" 
d="M361 452h-308l11 67h308zM329 271h-308l11 67h308z" />
    <glyph glyph-name="greater" unicode="&#x3e;" horiz-adv-x="428" 
d="M-7 214l12 70q66 24 319 112l-280 113l13 70l353 -142l-15 -81z" />
    <glyph glyph-name="question" unicode="?" horiz-adv-x="387" 
d="M388 643l-18 -101q-8 -44 -33.5 -81t-57.5 -63.5t-64 -52t-57 -58.5t-32 -72l-9 -51h-57l9 51q7 37 33 75.5t59 69.5t65.5 60.5t57 58.5t28.5 54l19 110q8 43 -15.5 75.5t-61.5 32.5q-46 0 -82.5 -31t-44.5 -77l-15 -82h-66l15 82q13 72 73 123t132 51q63 0 99 -51
t23 -123zM112 86l-16 -86h-76l16 86h76z" />
    <glyph glyph-name="at" unicode="@" horiz-adv-x="668" 
d="M271 -35h77q58 0 165 86l-18 -100q-87 -49 -158 -49h-77q-135 0 -213 94t-54 230l34 198q24 136 135.5 231t246.5 95h125q84 0 132.5 -58.5t33.5 -142.5l-38 -216q-15 -84 -71.5 -147.5t-139.5 -63.5q-31 0 -50 5q-66 -43 -122 -43q-66 0 -102.5 44.5t-25.5 110.5
q2 11 37 140q19 67 78 115t126 48h88q31 0 48.5 -21.5t13.5 -52.5l-74 -283q53 9 87 52t44 96l38 216q10 55 -24.5 96.5t-89.5 41.5h-125q-106 0 -197.5 -78.5t-110.5 -184.5l-35 -198q-19 -106 45.5 -183.5t170.5 -77.5zM380 479q-42 0 -80.5 -31.5t-49.5 -73.5l-36 -135
q-7 -39 16 -65.5t60 -26.5q47 0 82.5 32t51.5 79l58 223z" />
    <glyph glyph-name="A" unicode="A" horiz-adv-x="465" 
d="M120 279h177l-16 424q-79 -206 -161 -424zM372 0h-69l-7 222h-195l-85 -222h-68l309 817h89z" />
    <glyph glyph-name="B" unicode="B" horiz-adv-x="476" 
d="M-26 0l144 817h195q72 0 113.5 -53.5t27.5 -129.5l-18 -103q-13 -71 -93 -125q42 -28 61 -70.5t11 -89.5l-9 -48q-14 -83 -80 -140.5t-144 -57.5h-208zM247 368h-143l-53 -302h143q50 0 91.5 30t48.5 72l14 78q8 50 -22 86t-79 36zM301 751h-129l-58 -327h129q43 0 81 32
t45 75l24 133q6 35 -21.5 61t-70.5 26z" />
    <glyph glyph-name="C" unicode="C" horiz-adv-x="480" 
d="M182 -7q-82 0 -133.5 51t-39.5 123l83 476q13 71 83 122.5t152 51.5q76 0 121 -51t32 -123l-9 -54h-67l9 54q8 43 -21 75.5t-76 32.5q-54 0 -101.5 -32.5t-55.5 -75.5l-83 -476q-8 -43 27.5 -75.5t89.5 -32.5q46 0 87.5 32.5t49.5 75.5l10 58h67l-10 -58
q-13 -72 -76 -123t-139 -51z" />
    <glyph glyph-name="D" unicode="D" horiz-adv-x="438" 
d="M281 753h-108l-121 -689h108q42 0 79.5 29t45.5 72l85 487q8 43 -19 72t-70 29zM148 0h-173l144 817h174q70 0 113 -47.5t31 -117.5l-85 -487q-12 -70 -73 -117.5t-131 -47.5z" />
    <glyph glyph-name="E" unicode="E" horiz-adv-x="389" 
d="M119 817h314l-12 -66h-248l-58 -326h221l-9 -56h-221l-54 -303h248l-12 -66h-313z" />
    <glyph glyph-name="F" unicode="F" horiz-adv-x="367" 
d="M116 425h221l-9 -56h-221l-66 -369h-65l144 817h314l-12 -66h-248z" />
    <glyph glyph-name="G" unicode="G" horiz-adv-x="489" 
d="M182 -7q-81 0 -134 48t-41 117l86 487q13 71 82.5 121.5t151.5 50.5q75 0 121 -50.5t33 -121.5l-21 -118h-66l21 118q7 42 -22.5 74t-76.5 32q-54 0 -101.5 -32t-54.5 -74l-86 -487q-7 -43 29 -72t90 -29q47 0 88 29t48 72l38 214h-102l9 55h168l-47 -269
q-13 -69 -76.5 -117t-136.5 -48z" />
    <glyph glyph-name="H" unicode="H" horiz-adv-x="450" 
d="M473 817l-145 -817h-67l66 369h-219l-66 -369h-66l144 817h67l-70 -392h219l70 392h67z" />
    <glyph glyph-name="I" unicode="I" horiz-adv-x="198" 
d="M204 817l-145 -817h-69l144 817h70z" />
    <glyph glyph-name="J" unicode="J" horiz-adv-x="291" 
d="M-2 0h-63l11 60q89 -1 133 21t52 72l118 664h66l-118 -664q-13 -75 -68.5 -114t-130.5 -39z" />
    <glyph glyph-name="K" unicode="K" horiz-adv-x="502" 
d="M107 360l-64 -360h-65l144 817h66l-65 -365q287 311 338 365h81l-291 -317l126 -500h-64l-119 449z" />
    <glyph glyph-name="L" unicode="L" horiz-adv-x="341" 
d="M256 66l-12 -66h-266l144 817h66l-133 -751h201z" />
    <glyph glyph-name="M" unicode="M" horiz-adv-x="606" 
d="M511 544l-233 -544h-86l-52 548l-97 -548h-65l144 817h74l57 -717l312 717h62l-145 -817h-67z" />
    <glyph glyph-name="N" unicode="N" horiz-adv-x="479" 
d="M160 656l-116 -656h-65l144 817h74l124 -630l112 630h66l-145 -817h-59z" />
    <glyph glyph-name="O" unicode="O" 
d="M185 58q55 0 100.5 29t52.5 72l87 493q7 43 -27.5 72t-89.5 29q-54 0 -100 -29t-53 -72l-87 -493q-7 -43 28 -72t89 -29zM491 652l-87 -493q-13 -70 -81 -117.5t-149 -47.5q-80 0 -132 48t-40 117l87 493q13 69 81.5 117t148.5 48q82 0 133.5 -48t38.5 -117z" />
    <glyph glyph-name="P" unicode="P" horiz-adv-x="411" 
d="M441 643l-22 -122q-13 -72 -72.5 -122.5t-131.5 -50.5h-107l-62 -348h-66l144 817h174q71 0 113.5 -51t29.5 -123zM286 751h-107l-60 -337h107q43 0 81 32t45 75l22 122q8 43 -18.5 75.5t-69.5 32.5z" />
    <glyph glyph-name="Q" unicode="Q" horiz-adv-x="486" 
d="M269 -92h-57l-6 86h-30q-82 0 -133 47t-39 117l86 493q13 70 81 117.5t150 47.5q83 0 133.5 -47.5t37.5 -117.5l-86 -493q-8 -48 -44.5 -85.5t-97.5 -58.5zM197 186h53l10 -115q69 32 80 87l86 493q8 42 -28 71.5t-89 29.5t-99 -29t-54 -72l-86 -493q-8 -43 26.5 -72
t108.5 -29z" />
    <glyph glyph-name="R" unicode="R" horiz-adv-x="454" 
d="M111 368l-65 -368h-66l144 817h174q72 0 114.5 -51t29.5 -123l-22 -122q-12 -68 -93 -122q69 -52 56 -132l-48 -267h-67l48 267q7 40 -21 70.5t-72 30.5h-112zM316 751h-137l-58 -327h111q43 0 78 29t42 68l22 122q8 46 -9 77t-49 31z" />
    <glyph glyph-name="S" unicode="S" horiz-adv-x="451" 
d="M150 643l-21 -120q-6 -39 24 -64t79 -27q73 -6 119.5 -45.5t35.5 -99.5l-20 -117q-13 -72 -76 -123t-138 -51q-76 0 -120.5 51t-32.5 123l14 79h66l-14 -79q-8 -43 22 -75.5t77 -32.5q49 0 88 32t47 76l20 117q7 35 -24 58t-79 23q-74 0 -120.5 44.5t-34.5 110.5l21 120
q13 72 76 123t139 51t120.5 -51t31.5 -123l-14 -82h-66l14 82q8 45 -21.5 76.5t-76.5 31.5q-49 0 -88.5 -32t-47.5 -76z" />
    <glyph glyph-name="T" unicode="T" horiz-adv-x="431" 
d="M310 751l-133 -751h-66l133 751h-146l12 66h354l-12 -66h-142z" />
    <glyph glyph-name="U" unicode="U" horiz-adv-x="467" 
d="M171 61q46 0 86.5 31.5t47.5 73.5l115 651h67l-115 -651q-12 -70 -75 -120.5t-138 -50.5q-74 0 -118 50t-33 121l115 651h66l-115 -651q-7 -42 22 -73.5t75 -31.5z" />
    <glyph glyph-name="V" unicode="V" horiz-adv-x="475" 
d="M98 817h68l15 -734l272 734h68l-292 -817h-126z" />
    <glyph glyph-name="W" unicode="W" horiz-adv-x="673" 
d="M370 603l-212 -603h-73l24 817h68l-12 -602l212 602h63l-2 -602l202 602h68l-266 -817h-73z" />
    <glyph glyph-name="X" unicode="X" horiz-adv-x="558" 
d="M319 397l122 -397h-74l-101 336q-41 -67 -116 -178t-105 -158h-73l262 396q-22 76 -65 232t-52 189h75l96 -357q41 67 120.5 194t101.5 163h75q-209 -334 -266 -420z" />
    <glyph glyph-name="Y" unicode="Y" horiz-adv-x="506" 
d="M212 0h-66l70 394q-19 63 -61.5 209.5t-63.5 213.5h75l100 -332q40 61 117 178t101 154h75l-277 -423z" />
    <glyph glyph-name="Z" unicode="Z" horiz-adv-x="498" 
d="M75 66h320l-12 -66h-394l13 77l427 674h-328l12 66h405l-14 -77z" />
    <glyph glyph-name="bracketleft" unicode="[" horiz-adv-x="297" 
d="M185 834l-153 -866h146l-12 -67h-212l176 1000h213l-12 -67h-146z" />
    <glyph glyph-name="backslash" unicode="\" horiz-adv-x="418" 
d="M258 -13l-158 842h59l157 -842h-58z" />
    <glyph glyph-name="bracketright" unicode="]" horiz-adv-x="297" 
d="M111 -32l153 866h-146l12 67h213l-177 -1000h-212l12 67h145z" />
    <glyph glyph-name="asciicircum" unicode="^" horiz-adv-x="434" 
d="M203 821h66l122 -196h-78l-89 132l-142 -132h-76z" />
    <glyph glyph-name="underscore" unicode="_" horiz-adv-x="577" 
d="M515 -50h-462l7 40h462z" />
    <glyph glyph-name="grave" unicode="`" horiz-adv-x="240" 
d="M40 817h98l38 -142h-68z" />
    <glyph glyph-name="a" unicode="a" horiz-adv-x="474" 
d="M101 199h197l-12 504q-19 -53 -54.5 -149t-67.5 -182.5t-63 -172.5zM377 0h-69l-11 142h-215l-61 -142h-68l309 817h89z" />
    <glyph glyph-name="b" unicode="b" horiz-adv-x="496" 
d="M-26 0l144 817h195q72 0 113.5 -53.5t27.5 -129.5l-18 -103q-13 -71 -93 -125q42 -28 61 -70.5t11 -89.5l-9 -48q-14 -83 -80 -140.5t-144 -57.5h-208zM247 368h-143l-53 -302h143q50 0 91.5 30t48.5 72l14 78q8 50 -22 86t-79 36zM301 751h-129l-58 -327h129q43 0 81 32
t45 75l24 133q6 35 -21.5 61t-70.5 26z" />
    <glyph glyph-name="c" unicode="c" horiz-adv-x="480" 
d="M182 -7q-82 0 -133.5 51t-39.5 123l83 476q13 71 83 122.5t152 51.5q76 0 121 -51t32 -123l-9 -54h-67l9 54q8 43 -21 75.5t-76 32.5q-54 0 -101.5 -32.5t-55.5 -75.5l-83 -476q-8 -43 27.5 -75.5t89.5 -32.5q46 0 87.5 32.5t49.5 75.5l10 58h67l-10 -58
q-13 -72 -76 -123t-139 -51z" />
    <glyph glyph-name="d" unicode="d" horiz-adv-x="438" 
d="M281 753h-108l-121 -689h108q42 0 79.5 29t45.5 72l85 487q8 43 -19 72t-70 29zM148 0h-173l144 817h174q70 0 113 -47.5t31 -117.5l-85 -487q-12 -70 -73 -117.5t-131 -47.5z" />
    <glyph glyph-name="e" unicode="e" horiz-adv-x="404" 
d="M129 817h314l-12 -66h-248l-43 -246h221l-10 -56h-221l-68 -383h248l-12 -66h-313z" />
    <glyph glyph-name="f" unicode="f" horiz-adv-x="377" 
d="M111 345h221l-10 -56h-221l-51 -289h-65l144 817h314l-12 -66h-248z" />
    <glyph glyph-name="g" unicode="g" horiz-adv-x="489" 
d="M182 -7q-81 0 -134 48t-41 117l86 487q13 71 82.5 121.5t151.5 50.5q75 0 121 -50.5t33 -121.5l-21 -118h-66l21 118q7 42 -22.5 74t-76.5 32q-54 0 -101.5 -32t-54.5 -74l-86 -487q-7 -43 29 -72t90 -29q47 0 88 29t48 72l24 134h-102l9 55h168l-33 -189
q-13 -69 -76.5 -117t-136.5 -48z" />
    <glyph glyph-name="h" unicode="h" horiz-adv-x="450" 
d="M473 817l-145 -817h-67l66 369h-219l-66 -369h-66l144 817h67l-70 -392h219l70 392h67z" />
    <glyph glyph-name="i" unicode="i" horiz-adv-x="198" 
d="M204 817l-145 -817h-69l144 817h70z" />
    <glyph glyph-name="j" unicode="j" horiz-adv-x="291" 
d="M-2 0h-63l11 60q89 -1 133 21t52 72l118 664h66l-118 -664q-13 -75 -68.5 -114t-130.5 -39z" />
    <glyph glyph-name="k" unicode="k" horiz-adv-x="502" 
d="M107 360l-64 -360h-65l144 817h66l-65 -365q287 311 338 365h81l-291 -317l126 -500h-64l-119 449z" />
    <glyph glyph-name="l" unicode="l" horiz-adv-x="341" 
d="M256 66l-12 -66h-266l144 817h66l-133 -751h201z" />
    <glyph glyph-name="m" unicode="m" horiz-adv-x="606" 
d="M510 534l-232 -534h-86l-54 538l-95 -538h-65l144 817h74l57 -717l312 717h62l-145 -817h-67z" />
    <glyph glyph-name="n" unicode="n" horiz-adv-x="479" 
d="M158 646l-114 -646h-65l144 817h74l124 -630l112 630h66l-145 -817h-59z" />
    <glyph glyph-name="o" unicode="o" 
d="M185 58q55 0 100.5 29t52.5 72l87 493q7 43 -27.5 72t-89.5 29q-54 0 -100 -29t-53 -72l-87 -493q-7 -43 28 -72t89 -29zM491 652l-87 -493q-13 -70 -81 -117.5t-149 -47.5q-80 0 -132 48t-40 117l87 493q13 69 81.5 117t148.5 48q82 0 133.5 -48t38.5 -117z" />
    <glyph glyph-name="p" unicode="p" horiz-adv-x="423" 
d="M446 643l-36 -202q-13 -72 -72.5 -122.5t-131.5 -50.5h-107l-48 -268h-66l144 817h174q71 0 113.5 -51t29.5 -123zM291 751h-107l-74 -417h107q43 0 81 32t45 75l36 202q8 43 -18.5 75.5t-69.5 32.5z" />
    <glyph glyph-name="q" unicode="q" horiz-adv-x="486" 
d="M269 -92h-57l-6 86h-30q-82 0 -133 47t-39 117l86 493q13 70 81 117.5t150 47.5q83 0 133.5 -47.5t37.5 -117.5l-86 -493q-8 -48 -44.5 -85.5t-97.5 -58.5zM197 186h53l10 -115q69 32 80 87l86 493q8 42 -28 71.5t-89 29.5t-99 -29t-54 -72l-86 -493q-8 -43 26.5 -72
t108.5 -29z" />
    <glyph glyph-name="r" unicode="r" horiz-adv-x="464" 
d="M102 288l-51 -288h-66l144 817h174q72 0 114.5 -51t29.5 -123l-36 -202q-12 -68 -93 -122q69 -54 55 -132l-33 -187h-67l33 187q7 40 -20.5 70.5t-71.5 30.5h-112zM291 751h-107l-72 -407h111q43 0 78 29t42 68l36 202q8 46 -17 77t-71 31z" />
    <glyph glyph-name="s" unicode="s" horiz-adv-x="451" 
d="M150 643l-21 -120q-6 -39 24 -64t79 -27q73 -6 119.5 -45.5t35.5 -99.5l-20 -117q-13 -72 -76 -123t-138 -51q-76 0 -120.5 51t-32.5 123l14 79h66l-14 -79q-8 -43 22 -75.5t77 -32.5q49 0 88 32t47 76l20 117q7 35 -24 58t-79 23q-74 0 -120.5 44.5t-34.5 110.5l21 120
q13 72 76 123t139 51t120.5 -51t31.5 -123l-14 -82h-66l14 82q8 45 -21.5 76.5t-76.5 31.5q-49 0 -88.5 -32t-47.5 -76z" />
    <glyph glyph-name="t" unicode="t" horiz-adv-x="431" 
d="M310 751l-133 -751h-66l133 751h-146l12 66h354l-12 -66h-142z" />
    <glyph glyph-name="u" unicode="u" horiz-adv-x="467" 
d="M171 61q46 0 86.5 31.5t47.5 73.5l115 651h67l-115 -651q-12 -70 -75 -120.5t-138 -50.5q-74 0 -118 50t-33 121l115 651h66l-115 -651q-7 -42 22 -73.5t75 -31.5z" />
    <glyph glyph-name="v" unicode="v" horiz-adv-x="475" 
d="M98 817h68l15 -734l272 734h68l-292 -817h-126z" />
    <glyph glyph-name="w" unicode="w" horiz-adv-x="673" 
d="M370 603l-212 -603h-73l24 817h68l-12 -602l212 602h63l-2 -602l202 602h68l-266 -817h-73z" />
    <glyph glyph-name="x" unicode="x" horiz-adv-x="558" 
d="M319 397l122 -397h-74l-100 346q-42 -72 -119 -187.5t-103 -158.5h-73l262 396q-22 76 -65 232t-52 189h75l94 -367q54 90 224 367h75q-209 -334 -266 -420z" />
    <glyph glyph-name="y" unicode="y" horiz-adv-x="506" 
d="M212 0h-66l70 394q-19 63 -61.5 209.5t-63.5 213.5h75l100 -332q40 61 117 178t101 154h75l-277 -423z" />
    <glyph glyph-name="z" unicode="z" horiz-adv-x="498" 
d="M75 66h320l-12 -66h-394l13 77l427 674h-328l12 66h405l-14 -77z" />
    <glyph glyph-name="braceleft" unicode="{" horiz-adv-x="310" 
d="M206 -40l-10 -56q-39 -3 -66 -3q-59 0 -85.5 31t-16.5 89l56 315q4 24 -10.5 33.5t-52.5 9.5l12 70q38 0 56 9.5t22 33.5l41 232q5 30 8 44.5t10.5 39.5t18 38.5t26 28t39 21t53.5 6.5h65l-11 -60h-34q-26 0 -38 -0.5t-27.5 -4.5t-22 -13t-9.5 -24q-13 -74 -30 -174.5
t-24 -141.5q-9 -49 -56 -70q25 -13 31 -30.5t0 -39.5l-60 -343q-5 -28 10 -34.5t63 -6.5h2h2h38z" />
    <glyph glyph-name="bar" unicode="|" horiz-adv-x="169" 
d="M194 890l-173 -980h-55l172 980h56z" />
    <glyph glyph-name="braceright" unicode="}" horiz-adv-x="310" 
d="M-62 -96l10 56h38q28 0 38 0.5t24 4t19.5 12.5t8.5 24l59 333q5 30 14.5 48t33.5 32q-31 24 -20 80q11 66 30.5 169.5t25.5 136.5q5 29 -14 35.5t-69 6.5h-34l11 60h65q36 0 58.5 -11t32.5 -25.5t11 -42.5t-1.5 -46.5t-9.5 -52.5l-41 -232q-4 -24 11 -33.5t53 -9.5
l-12 -70q-38 0 -56.5 -9.5t-22.5 -33.5l-56 -315q-10 -58 -47.5 -89t-96.5 -31q-24 0 -63 3z" />
    <glyph glyph-name="asciitilde" unicode="~" horiz-adv-x="403" 
d="M234 348q-25 1 -63.5 18.5t-54.5 17.5q-21 0 -77 -46l-35 48q46 38 78 56.5t68 18.5q23 0 59.5 -18t57.5 -18t74 45l37 -45q-47 -41 -77.5 -59t-66.5 -18z" />
    <glyph glyph-name="exclamdown" unicode="&#xa1;" horiz-adv-x="184" 
d="M202 617l-16 -86h-76l16 86h76zM163 454l-102 -654h-83l129 654h56z" />
    <glyph glyph-name="cent" unicode="&#xa2;" horiz-adv-x="366" 
d="M51 82h-61l56 106q-46 53 -35 112l34 189q12 68 68 116t124 48q34 0 58 -6q1 2 2.5 5.5t7 13.5t13.5 25h62l-42 -79q34 -30 37 -73.5t-10 -93.5h-57l4 23q11 60 -3 92l-201 -356q19 -12 48 -12q43 0 80.5 32.5t45.5 75.5l9 48h57l-9 -48q-12 -68 -68.5 -116t-124.5 -48
q-33 0 -62 8q-4 -6 -8 -13.5t-10.5 -21t-14.5 -27.5zM83 263l185 330q-21 4 -40 4q-42 0 -80.5 -32.5t-45.5 -75.5q-29 -161 -31.5 -190.5t12.5 -35.5z" />
    <glyph glyph-name="sterling" unicode="&#xa3;" horiz-adv-x="406" 
d="M51 385h-44l10 57h44l35 196q12 72 72 123t132 51t114 -51t30 -123l-10 -54h-67l10 54q8 43 -18.5 75.5t-69.5 32.5q-42 0 -80.5 -33t-45.5 -75l-35 -196h196l-10 -57h-196l-54 -303q46 7 94.5 -12.5t64.5 -19.5q29 0 85 31l32 -37q-44 -35 -67.5 -46.5t-60.5 -11.5
q-25 0 -65 18t-63 18t-77 -46l-41 56q24 20 28 25z" />
    <glyph glyph-name="currency" unicode="&#xa4;" horiz-adv-x="405" 
d="M28 204h-63l91 118q-21 46 -11 97q8 53 46 97q-1 2 -3.5 8t-15 35t-31.5 75h63l35 -73q48 21 91 21q47 0 83 -23l61 75h66l-94 -119q22 -43 13 -96q-10 -54 -47 -97q34 -73 53 -118h-64l-36 72q-43 -20 -92 -20t-85 20zM220 525q-40 0 -73.5 -32.5t-40.5 -73.5
q-8 -41 14.5 -73.5t62.5 -32.5t73.5 32.5t41.5 73.5q7 40 -15.5 73t-62.5 33z" />
    <glyph glyph-name="yen" unicode="&#xa5;" horiz-adv-x="506" 
d="M214 0h-68l43 239h-120l11 67h120l15 84h-120l12 67h78l-94 360h75l96 -352q176 279 222 352h75l-223 -360h79l-12 -67h-120l-15 -84h120l-11 -67h-120z" />
    <glyph glyph-name="brokenbar" unicode="&#xa6;" horiz-adv-x="193" 
d="M210 890l-68 -386h-56l68 386h56zM105 296l-68 -386h-55l67 386h56z" />
    <glyph glyph-name="section" unicode="&#xa7;" horiz-adv-x="369" 
d="M348 411l-9 -51q-10 -57 -63 -97q40 -36 30 -91l-17 -99q-11 -59 -67 -98t-116 -39t-101.5 39t-30.5 98l11 67h60l-11 -67q-6 -35 19.5 -58t62.5 -23t71 23t40 58l17 99q4 22 -24 35t-66 13q-71 0 -107 40.5t-23 110.5q12 87 66 131q-35 38 -26 91l18 101
q11 60 66.5 99.5t116.5 39.5t102.5 -39t30.5 -100l-12 -70h-61l12 70q6 36 -19.5 59.5t-62.5 23.5t-71.5 -23.5t-40.5 -59.5l-18 -101q-4 -22 23.5 -34.5t65.5 -12.5q58 0 101.5 -38.5t32.5 -96.5zM92 406l-9 -53q-6 -32 22 -54.5t61 -22.5q37 0 71 23.5t40 60.5l9 51
q6 34 -21 57t-62 23q-38 0 -71 -24t-40 -61z" />
    <glyph glyph-name="dieresis" unicode="&#xa8;" horiz-adv-x="305" 
d="M130 816l-13 -79h-56l13 79h56zM243 816l-13 -79h-56l13 79h56z" />
    <glyph glyph-name="copyright" unicode="&#xa9;" horiz-adv-x="866" 
d="M29 394q29 167 168.5 285.5t306.5 118.5t264.5 -118.5t68.5 -285.5q-30 -167 -169.5 -285.5t-306.5 -118.5t-264 118.5t-68 285.5zM68 394q-27 -151 60.5 -258t239.5 -107q151 0 277 106.5t153 258.5q26 152 -62 258.5t-239 106.5q-152 0 -277.5 -107t-151.5 -258z
M391 139q68 0 124.5 48.5t67.5 115.5l9 48h-57l-9 -48q-8 -44 -44.5 -76t-81.5 -32q-51 0 -83.5 32t-24.5 76l31 176q8 44 52 76t95 32q45 0 70 -32t17 -76l-7 -44h57l7 44q12 67 -27.5 115.5t-107.5 48.5q-74 0 -137.5 -48.5t-75.5 -115.5l-31 -176q-11 -67 35.5 -115.5
t120.5 -48.5z" />
    <glyph glyph-name="guillemotleft" unicode="&#xab;" horiz-adv-x="483" 
d="M216 190l-15 -90l-168 228l11 65l248 228l-15 -90l-182 -171q93 -129 121 -170zM413 190l-15 -90l-168 228l11 65l248 228l-15 -90l-182 -171q93 -129 121 -170z" />
    <glyph glyph-name="logicalnot" unicode="&#xac;" horiz-adv-x="471" 
d="M439 444l-31 -181h-67l20 114h-311l11 67h378z" />
    <glyph glyph-name="registered" unicode="&#xae;" horiz-adv-x="866" 
d="M309 127l32 181h67q42 0 68.5 -28.5t19.5 -67.5l-15 -85h67l15 85q7 36 -5.5 71.5t-41.5 60.5q73 55 85 122l5 25q12 70 -29.5 119.5t-111.5 49.5h-129l-94 -533h67zM392 594h62q43 0 67.5 -29.5t16.5 -73.5l-5 -25q-7 -41 -41 -71.5t-75 -30.5h-66zM29 394
q29 167 168.5 285.5t306.5 118.5t264.5 -118.5t68.5 -285.5q-30 -167 -169.5 -285.5t-306.5 -118.5t-264 118.5t-68 285.5zM68 394q-27 -151 60.5 -258t239.5 -107q151 0 277 106.5t153 258.5q26 152 -62 258.5t-239 106.5q-152 0 -277.5 -107t-151.5 -258z" />
    <glyph glyph-name="degree" unicode="&#xb0;" horiz-adv-x="289" 
d="M248 712q-7 -44 -43 -74t-80 -30q-45 0 -69.5 29.5t-16.5 74.5t43.5 75t79.5 30t69 -31t17 -74zM203 712q4 24 -10.5 42t-38.5 18q-23 0 -44.5 -18t-25.5 -42q-4 -23 11 -41t38 -18q24 0 45 18t25 41z" />
    <glyph glyph-name="plusminus" unicode="&#xb1;" horiz-adv-x="443" 
d="M433 424l-10 -57h-160l-29 -161h-57l29 161h-161l10 57h161l28 159h57l-28 -159h160zM357 0h-375l10 57h375z" />
    <glyph glyph-name="twosuperior" unicode="&#xb2;" horiz-adv-x="440" 
d="M189 697l-15 -85h-55l15 85q8 45 46 76t83 31q43 0 70 -32t19 -75l-17 -99q-7 -37 -26.5 -66t-36.5 -41.5t-47 -29.5q-83 -47 -93 -109h168l-9 -54h-234l5 31q10 58 33.5 94.5t75.5 67.5q34 20 52 31.5t35.5 31.5t21.5 42l17 101q3 21 -10 37t-33 16q-21 0 -41 -16.5
t-24 -36.5z" />
    <glyph glyph-name="threesuperior" unicode="&#xb3;" horiz-adv-x="429" 
d="M180 523h-38l9 54h53q64 2 72 44l13 75q4 21 -10 37t-36 16t-42 -16t-24 -37l-15 -84h-55l15 84q8 46 47 77t84 31t72 -31t19 -77l-13 -75q-8 -42 -39 -71q22 -26 14 -69l-13 -75q-8 -46 -46 -77t-83 -31t-73 31t-20 77l14 82h55l-14 -82q-4 -23 11 -38t37 -15t41 15
t23 38l13 75q1 15 -4.5 24t-18 12.5t-22 4.5t-26.5 1z" />
    <glyph glyph-name="acute" unicode="&#xb4;" horiz-adv-x="240" 
d="M113 817h98l-118 -142h-68z" />
    <glyph glyph-name="mu" unicode="&#xb5;" horiz-adv-x="436" 
d="M452 569l-101 -569h-66l6 33q-40 -33 -112 -33q-55 0 -101 27l-30 -170h-65l125 712h66l-70 -398q-7 -42 19 -73.5t68 -31.5q41 0 77 29t46 72l71 402h67z" />
    <glyph glyph-name="mu" unicode="&#x3bc;" horiz-adv-x="436" 
d="M452 569l-101 -569h-66l6 33q-40 -33 -112 -33q-55 0 -101 27l-30 -170h-65l125 712h66l-70 -398q-7 -42 19 -73.5t68 -31.5q41 0 77 29t46 72l71 402h67z" />
    <glyph glyph-name="paragraph" unicode="&#xb6;" horiz-adv-x="556" 
d="M595 714l-11 -66h-71l-140 -792h-66l140 792h-160l-140 -792h-66l100 567q-52 7 -78.5 48t-17.5 97q11 62 61 104t111 42h338z" />
    <glyph glyph-name="periodcentered" unicode="&#xb7;" horiz-adv-x="192" 
d="M140 441l-17 -102h-76l17 102h76z" />
    <glyph glyph-name="cedilla" unicode="&#xb8;" horiz-adv-x="146" 
d="M50 17h33l-6 -32q29 3 46 -11t11 -46q-6 -30 -28.5 -45t-52.5 -15q-25 0 -53 13l22 31q20 -11 36 -11q37 0 41 29q2 13 -9.5 20t-26 7t-24.5 -1z" />
    <glyph glyph-name="onesuperior" unicode="&#xb9;" horiz-adv-x="265" 
d="M134 299h-54l69 392q-10 -1 -63 -1h-24l10 55h28q58 0 60 11l9 49h54z" />
    <glyph glyph-name="guillemotright" unicode="&#xbb;" horiz-adv-x="483" 
d="M-6 100l14 90q27 26 89.5 84t91.5 86l-120 171l15 90l168 -228l-11 -65zM190 100l15 90q27 26 89.5 84t91.5 86l-120 171l15 90l168 -228l-11 -65z" />
    <glyph glyph-name="onequarter" unicode="&#xbc;" horiz-adv-x="661" 
d="M494 100l-17 -100h-54l17 100h-170l10 56l220 350h66l-62 -352h33l-10 -54h-33zM450 154l45 254q-12 -20 -46.5 -73.5t-59.5 -95t-49 -85.5h110zM169 299h-54l69 392q-11 -1 -63 -1h-24l10 55h27q60 0 62 11l9 49h54zM23 -13l663 842h-51l-661 -842h49z" />
    <glyph glyph-name="onehalf" unicode="&#xbd;" horiz-adv-x="680" 
d="M171 299h-54l69 392q-10 -1 -63 -1h-24l10 55h28q59 0 61 11l9 49h54zM688 829l-663 -842h-49l661 842h51zM479 399l-15 -85h-55l15 85q7 44 45.5 75.5t83.5 31.5q43 0 70 -32t19 -75l-18 -99q-7 -37 -26 -65.5t-36.5 -41.5t-47.5 -30q-83 -48 -92 -109h168l-9 -54h-234
l5 31q10 58 33.5 94.5t75.5 67.5q34 20 52 31.5t35.5 31.5t21.5 42l17 101q3 21 -10.5 37t-33.5 16q-21 0 -41 -16.5t-23 -36.5z" />
    <glyph glyph-name="threequarters" unicode="&#xbe;" horiz-adv-x="689" 
d="M711 829l-663 -842h-49l661 842h51zM140 536h-38l10 54h53q63 2 71 44l14 75q4 21 -10 37t-36 16t-42 -16t-24 -37l-15 -84h-55l15 84q8 46 47 77t84 31t72 -31t19 -77l-14 -75q-7 -42 -38 -71q21 -25 14 -69l-14 -75q-7 -46 -45.5 -77t-83.5 -31t-72.5 31t-20.5 77
l15 82h55l-15 -82q-3 -23 11.5 -38t36.5 -15t41 15t23 38l14 75q1 15 -4.5 24t-18.5 12.5t-22.5 4.5t-26.5 1zM519 100l-17 -100h-54l17 100h-170l10 56l220 350h66l-62 -352h33l-10 -54h-33zM475 154l45 254q-12 -20 -46.5 -73.5t-59.5 -95t-49 -85.5h110z" />
    <glyph glyph-name="questiondown" unicode="&#xbf;" horiz-adv-x="387" 
d="M-2 -26l17 101q8 44 33.5 81t57.5 63.5t64 52t57 58.5t32 72l9 51h57l-9 -51q-7 -37 -33 -75.5t-59 -69.5t-65.5 -60.5t-57 -58.5t-28.5 -54l-19 -110q-8 -43 15.5 -75.5t61.5 -32.5q46 0 82.5 31t44.5 77l15 82h66l-15 -82q-13 -72 -73 -123t-132 -51q-63 0 -98.5 51
t-22.5 123zM273 531l16 86h76l-16 -86h-76z" />
    <glyph glyph-name="Agrave" unicode="&#xc0;" horiz-adv-x="465" 
d="M103 279h177l-15 424q-27 -71 -80 -210t-82 -214zM356 0h-69l-8 222h-195l-84 -222h-68l308 817h89zM191 1002h98l38 -142h-68z" />
    <glyph glyph-name="Aacute" unicode="&#xc1;" horiz-adv-x="465" 
d="M103 279h177l-15 424q-27 -71 -80 -210t-82 -214zM356 0h-69l-8 222h-195l-84 -222h-68l308 817h89zM346 1003h98l-118 -142h-68z" />
    <glyph glyph-name="Acircumflex" unicode="&#xc2;" horiz-adv-x="465" 
d="M284 279h-177q29 75 82 214t80 210zM291 0h69l-27 817h-89l-308 -817h68l84 222h195zM345 959l62 -99h-50l-45 62l-68 -62h-53l101 99h53z" />
    <glyph glyph-name="Atilde" unicode="&#xc3;" horiz-adv-x="465" 
d="M108 279h177l-16 424q-79 -206 -161 -424zM360 0h-69l-7 222h-195l-85 -222h-68l309 817h89zM347 878q-13 0 -47.5 12.5t-45.5 12.5q-9 0 -18.5 -4t-14 -7.5t-13 -11.5t-10.5 -10l-17 29q51 49 80 49q17 0 49 -12.5t57 -12.5q22 0 48 30l19 -32q-38 -43 -87 -43z" />
    <glyph glyph-name="Adieresis" unicode="&#xc4;" horiz-adv-x="465" 
d="M108 279h177l-15 424q-57 -148 -162 -424zM361 0h-69l-8 222h-195l-84 -222h-68l308 817h89zM287 949l-14 -79h-56l14 79h56zM400 949l-14 -79h-56l14 79h56z" />
    <glyph glyph-name="Aring" unicode="&#xc5;" horiz-adv-x="465" 
d="M103 279h177l-16 424q-79 -206 -161 -424zM355 0h-69l-7 222h-195l-84 -222h-69l308 817h89zM383 935q-5 -32 -31 -54t-58 -22q-33 0 -51 21.5t-12 54.5q6 32 32 54t58 22t50 -22.5t12 -53.5zM351 935q3 18 -7.5 31t-28.5 13t-33.5 -13t-18.5 -31t7.5 -31t28.5 -13
t33.5 13t18.5 31z" />
    <glyph glyph-name="AE" unicode="&#xc6;" horiz-adv-x="716" 
d="M381 604l-196 -335h137zM-54 0l482 817h316l-12 -66h-257q-16 -93 -28.5 -166t-18 -103t-10.5 -57h229l-9 -56h-229q-10 -57 -27 -147t-29 -156h258l-12 -66h-326l36 202h-165l-128 -202h-70z" />
    <glyph glyph-name="Ccedilla" unicode="&#xc7;" horiz-adv-x="480" 
d="M482 589h-67l9 54q8 43 -21 75.5t-76 32.5q-54 0 -101.5 -32.5t-55.5 -75.5l-83 -476q-7 -43 28.5 -75.5t89.5 -32.5q46 0 87 32.5t49 75.5l10 58h67l-10 -58q-12 -68 -69.5 -118t-129.5 -55l-2 -9q29 3 46 -11t11 -46q-5 -30 -27.5 -45t-52.5 -15q-25 0 -54 13l19 31
q20 -11 40 -11q14 0 26.5 8t13.5 19q4 22 -16 24.5t-45 -4.5l8 46q-77 5 -122.5 56t-33.5 117l83 476q13 71 83 122.5t152 51.5q76 0 121 -51t32 -123z" />
    <glyph glyph-name="Egrave" unicode="&#xc8;" horiz-adv-x="389" 
d="M102 817h314l-11 -66h-248l-58 -326h221l-10 -56h-221l-53 -303h248l-12 -66h-313zM184 1002h98l38 -142h-68z" />
    <glyph glyph-name="Eacute" unicode="&#xc9;" horiz-adv-x="389" 
d="M102 817h314l-11 -66h-248l-58 -326h221l-10 -56h-221l-53 -303h248l-12 -66h-313zM318 1002h98l-118 -142h-68z" />
    <glyph glyph-name="Ecircumflex" unicode="&#xca;" horiz-adv-x="389" 
d="M420 817h-314l-143 -817h313l12 66h-248l53 303h221l10 56h-221l57 326h248zM307 959l62 -99h-50l-45 62l-68 -62h-53l101 99h53z" />
    <glyph glyph-name="Edieresis" unicode="&#xcb;" horiz-adv-x="389" 
d="M107 817h314l-12 -66h-248l-57 -326h221l-10 -56h-221l-54 -303h248l-11 -66h-313zM258 949l-14 -79h-56l14 79h56zM371 949l-14 -79h-56l14 79h56z" />
    <glyph glyph-name="Igrave" unicode="&#xcc;" horiz-adv-x="198" 
d="M187 817l-144 -817h-69l143 817h70zM52 1002h98l38 -142h-68z" />
    <glyph glyph-name="Iacute" unicode="&#xcd;" horiz-adv-x="198" 
d="M187 817l-144 -817h-69l143 817h70zM211 1002h98l-118 -142h-68z" />
    <glyph glyph-name="Icircumflex" unicode="&#xce;" horiz-adv-x="198" 
d="M47 0l144 817h-70l-143 -817h69zM212 960l62 -99h-50l-45 62l-68 -62h-53l101 99h53z" />
    <glyph glyph-name="Idieresis" unicode="&#xcf;" horiz-adv-x="198" 
d="M192 817l-144 -817h-69l143 817h70zM154 950l-14 -79h-56l14 79h56zM267 950l-14 -79h-56l14 79h56z" />
    <glyph glyph-name="Eth" unicode="&#xd0;" horiz-adv-x="481" 
d="M82 367h-64l10 57h64l70 393h174q70 0 113 -47.5t31 -117.5l-85 -487q-12 -70 -73 -117.5t-131 -47.5h-174zM324 753h-108l-58 -329h132l-10 -57h-132l-53 -303h108q42 0 79.5 29t45.5 72l85 487q8 43 -19 72t-70 29z" />
    <glyph glyph-name="Ntilde" unicode="&#xd1;" horiz-adv-x="479" 
d="M148 656l-116 -656h-65l143 817h74l125 -630l111 630h66l-144 -817h-59zM354 879q-13 0 -47.5 12.5t-45.5 12.5q-9 0 -18.5 -4t-14 -7.5t-13 -11.5t-10.5 -10l-17 29q51 49 80 49q16 0 48 -12.5t58 -12.5q22 0 48 30l19 -32q-38 -43 -87 -43z" />
    <glyph glyph-name="Ograve" unicode="&#xd2;" 
d="M169 58q55 0 100 29t53 72l87 493q7 43 -28 72t-90 29q-54 0 -99.5 -29t-52.5 -72l-87 -493q-8 -43 27.5 -72t89.5 -29zM475 652l-87 -493q-13 -70 -81 -117.5t-149 -47.5q-80 0 -132 48t-39 117l86 493q12 69 80.5 117t149.5 48t132.5 -47.5t39.5 -117.5zM198 1002h98
l38 -142h-68z" />
    <glyph glyph-name="Oacute" unicode="&#xd3;" 
d="M169 58q55 0 100 29t53 72l87 493q7 43 -28 72t-90 29q-54 0 -99.5 -29t-52.5 -72l-87 -493q-8 -43 27.5 -72t89.5 -29zM475 652l-87 -493q-13 -70 -81 -117.5t-149 -47.5q-80 0 -132 48t-39 117l86 493q12 69 80.5 117t149.5 48t132.5 -47.5t39.5 -117.5zM359 1002h98
l-118 -142h-68z" />
    <glyph glyph-name="Ocircumflex" unicode="&#xd4;" 
d="M173 58q-54 0 -89.5 29t-27.5 72l86 493q8 43 53.5 72t99.5 29q55 0 90 -29t27 -72l-86 -493q-8 -43 -53 -72t-100 -29zM392 159l86 493q13 69 -38 117t-133 48q-80 0 -149 -48t-82 -117l-85 -493q-13 -69 38.5 -117t131.5 -48q82 0 150 48t81 117zM361 959l61 -99h-50
l-45 62l-68 -62h-53l102 99h53z" />
    <glyph glyph-name="Otilde" unicode="&#xd5;" 
d="M173 58q55 0 100.5 29t52.5 72l87 493q7 43 -27.5 72t-89.5 29q-54 0 -100 -29t-53 -72l-87 -493q-7 -43 28 -72t89 -29zM479 652l-87 -493q-13 -70 -81 -117.5t-149 -47.5q-80 0 -132 48t-39 117l86 493q13 69 81.5 117t148.5 48q82 0 133.5 -48t38.5 -117zM363 878
q-13 0 -48 12.5t-46 12.5q-9 0 -18 -4t-14 -8t-13 -11t-11 -10l-16 29q42 40 62 46q9 3 17 3q16 0 49 -12.5t58 -12.5q22 0 47 30l19 -32q-38 -43 -86 -43z" />
    <glyph glyph-name="Odieresis" unicode="&#xd6;" 
d="M174 58q55 0 100 29t52 72l87 493q8 43 -27 72t-90 29q-54 0 -99.5 -29t-53.5 -72l-87 -493q-7 -43 28.5 -72t89.5 -29zM479 652l-87 -493q-12 -69 -80 -117t-150 -48q-80 0 -131.5 48t-39.5 117l86 493q13 69 81.5 117t148.5 48q82 0 133.5 -48t38.5 -117zM303 949
l-14 -79h-56l14 79h56zM416 949l-14 -79h-56l14 79h56z" />
    <glyph glyph-name="multiply" unicode="&#xd7;" horiz-adv-x="408" 
d="M344 549l33 -40l-133 -113l94 -114l-49 -41l-93 114l-134 -114l-33 41l134 114l-93 112l47 40l94 -112z" />
    <glyph glyph-name="Oslash" unicode="&#xd8;" 
d="M491 652l-87 -493q-13 -70 -81 -117.5t-149 -47.5q-88 0 -139 54l-39 -61h-57l68 106q-11 31 -5 66l87 493q12 69 80.5 117t149.5 48q78 0 128 -44l36 56h58l-62 -96q19 -38 12 -81zM185 58q55 0 100 29t53 72l86 490l-331 -525q3 -29 29 -47.5t63 -18.5zM307 753
q-54 0 -99.5 -29t-52.5 -72l-80 -452l318 503q-1 21 -27.5 35.5t-58.5 14.5z" />
    <glyph glyph-name="Ugrave" unicode="&#xd9;" horiz-adv-x="467" 
d="M154 61q46 0 87 31.5t48 73.5l115 651h67l-115 -651q-13 -70 -75.5 -120.5t-137.5 -50.5q-74 0 -118.5 50.5t-31.5 120.5l114 651h66l-115 -651q-7 -42 21.5 -73.5t74.5 -31.5zM189 1003h98l38 -142h-68z" />
    <glyph glyph-name="Uacute" unicode="&#xda;" horiz-adv-x="467" 
d="M154 61q46 0 87 31.5t48 73.5l115 651h67l-115 -651q-13 -70 -75.5 -120.5t-137.5 -50.5q-74 0 -118.5 50.5t-31.5 120.5l114 651h66l-115 -651q-7 -42 21.5 -73.5t74.5 -31.5zM345 1002h98l-118 -142h-68z" />
    <glyph glyph-name="Ucircumflex" unicode="&#xdb;" horiz-adv-x="467" 
d="M158 61q-46 0 -74.5 31.5t-21.5 73.5l114 651h-66l-113 -651q-13 -70 31.5 -120.5t118.5 -50.5q75 0 137.5 50.5t75.5 120.5l114 651h-67l-114 -651q-7 -42 -48 -73.5t-87 -31.5zM346 959l62 -99h-50l-45 62l-68 -62h-53l101 99h53z" />
    <glyph glyph-name="Udieresis" unicode="&#xdc;" horiz-adv-x="467" 
d="M159 61q46 0 87 31.5t48 73.5l114 651h67l-114 -651q-13 -70 -76 -120.5t-138 -50.5q-74 0 -118 50t-31 121l113 651h66l-114 -651q-7 -42 21.5 -73.5t74.5 -31.5zM289 949l-14 -79h-56l14 79h56zM402 949l-14 -79h-56l14 79h56z" />
    <glyph glyph-name="Yacute" unicode="&#xdd;" horiz-adv-x="506" 
d="M196 0h-66l70 394q-19 62 -62 208.5t-64 214.5h75l101 -332q32 49 106.5 162.5t110.5 169.5h75l-276 -423zM366 1002h98l-118 -142h-68z" />
    <glyph glyph-name="Thorn" unicode="&#xde;" horiz-adv-x="413" 
d="M257 560h-107l-59 -336h107q43 0 80.5 31t45.5 75l21 123q8 43 -18.5 75t-69.5 32zM186 157h-107l-28 -157h-66l144 817h67l-34 -190h107q71 0 113.5 -51.5t29.5 -122.5l-21 -123q-13 -72 -73 -122.5t-132 -50.5z" />
    <glyph glyph-name="germandbls" unicode="&#xdf;" horiz-adv-x="861" 
d="M150 643l-21 -120q-6 -39 24 -64t79 -27q73 -6 119.5 -45.5t35.5 -99.5l-20 -117q-13 -72 -76 -123t-138 -51q-76 0 -120.5 51t-32.5 123l14 79h66l-14 -79q-8 -43 22 -75.5t77 -32.5q49 0 88 32t47 76l20 117q7 35 -24 58t-79 23q-74 0 -120.5 44.5t-34.5 110.5l21 120
q13 72 76 123t139 51t120.5 -51t31.5 -123l-14 -82h-66l14 82q8 45 -21.5 76.5t-76.5 31.5q-49 0 -88.5 -32t-47.5 -76zM562 643l-21 -120q-6 -39 24 -64t79 -27q73 -6 119.5 -45.5t35.5 -99.5l-20 -117q-13 -72 -76 -123t-138 -51q-76 0 -121 51t-32 123l14 79h66l-14 -79
q-8 -43 22 -75.5t77 -32.5q49 0 88 32t47 76l20 117q7 35 -24 58t-79 23q-74 0 -120.5 44.5t-34.5 110.5l21 120q13 72 76 123t139 51t120.5 -51t31.5 -123l-14 -82h-66l14 82q8 45 -21.5 76.5t-76.5 31.5q-49 0 -88.5 -32t-47.5 -76z" />
    <glyph glyph-name="agrave" unicode="&#xe0;" horiz-adv-x="474" 
d="M84 199h197l-11 504q-40 -107 -186 -504zM361 0h-69l-12 142h-215l-60 -142h-68l308 817h89zM192 1002h98l38 -142h-68z" />
    <glyph glyph-name="aacute" unicode="&#xe1;" horiz-adv-x="474" 
d="M84 199h197l-11 504q-40 -107 -186 -504zM361 0h-69l-12 142h-215l-60 -142h-68l308 817h89zM349 1002h98l-118 -142h-68z" />
    <glyph glyph-name="acircumflex" unicode="&#xe2;" horiz-adv-x="474" 
d="M285 199h-197q146 397 186 504zM296 0h69l-27 817h-89l-308 -817h68l60 142h215zM347 959l62 -99h-50l-45 62l-68 -62h-53l101 99h53z" />
    <glyph glyph-name="atilde" unicode="&#xe3;" horiz-adv-x="474" 
d="M89 199h197l-12 504q-19 -53 -54.5 -149t-67.5 -182.5t-63 -172.5zM365 0h-69l-11 142h-215l-61 -142h-68l309 817h89zM351 878q-13 0 -47.5 12.5t-45.5 12.5q-9 0 -18.5 -4t-14 -7.5t-13 -11.5t-10.5 -10l-17 29q51 49 80 49q17 0 49 -12.5t57 -12.5q22 0 48 30l19 -32
q-38 -43 -87 -43z" />
    <glyph glyph-name="adieresis" unicode="&#xe4;" horiz-adv-x="474" 
d="M89 199h197l-11 504q-40 -107 -186 -504zM366 0h-69l-12 142h-215l-60 -142h-68l308 817h89zM291 949l-14 -79h-56l14 79h56zM404 949l-14 -79h-56l14 79h56z" />
    <glyph glyph-name="aring" unicode="&#xe5;" horiz-adv-x="474" 
d="M83 199h197l-11 504q-40 -107 -186 -504zM360 0h-69l-12 142h-215l-60 -142h-68l308 817h89zM388 936q-5 -32 -31 -54t-58 -22q-33 0 -50.5 21.5t-12.5 54.5q6 32 32 54t58 22t50 -22.5t12 -53.5zM356 936q4 18 -7 31t-29 13t-33 -13t-19 -31q-3 -18 8 -31t29 -13t33 13
t18 31z" />
    <glyph glyph-name="ae" unicode="&#xe6;" horiz-adv-x="716" 
d="M381 604l-196 -335h137zM-54 0l482 817h316l-12 -66h-257q-16 -93 -28.5 -166t-18 -103t-10.5 -57h229l-9 -56h-229q-10 -57 -27 -147t-29 -156h258l-12 -66h-326l36 202h-165l-128 -202h-70z" />
    <glyph glyph-name="ccedilla" unicode="&#xe7;" horiz-adv-x="480" 
d="M482 589h-67l9 54q8 43 -21 75.5t-76 32.5q-54 0 -101.5 -32.5t-55.5 -75.5l-83 -476q-7 -43 28.5 -75.5t89.5 -32.5q46 0 87 32.5t49 75.5l10 58h67l-10 -58q-12 -68 -69.5 -118t-129.5 -55l-2 -9q29 3 46 -11t11 -46q-5 -30 -27.5 -45t-52.5 -15q-25 0 -54 13l19 31
q20 -11 40 -11q14 0 26.5 8t13.5 19q4 22 -16 24.5t-45 -4.5l8 46q-77 5 -122.5 56t-33.5 117l83 476q13 71 83 122.5t152 51.5q76 0 121 -51t32 -123z" />
    <glyph glyph-name="egrave" unicode="&#xe8;" horiz-adv-x="404" 
d="M112 817h314l-11 -66h-248l-44 -246h221l-10 -56h-221l-67 -383h248l-12 -66h-313zM189 1002h98l38 -142h-68z" />
    <glyph glyph-name="eacute" unicode="&#xe9;" horiz-adv-x="404" 
d="M112 817h314l-12 -66h-248l-43 -246h221l-10 -56h-221l-67 -383h248l-12 -66h-313zM316 1003h98l-118 -142h-68z" />
    <glyph glyph-name="ecircumflex" unicode="&#xea;" horiz-adv-x="404" 
d="M430 817h-314l-143 -817h313l12 66h-248l67 383h221l10 56h-221l43 246h248zM331 959l62 -99h-50l-45 62l-68 -62h-53l101 99h53z" />
    <glyph glyph-name="edieresis" unicode="&#xeb;" horiz-adv-x="404" 
d="M117 817h314l-12 -66h-248l-43 -246h221l-10 -56h-221l-68 -383h248l-11 -66h-313zM271 949l-14 -79h-56l14 79h56zM384 949l-14 -79h-56l14 79h56z" />
    <glyph glyph-name="igrave" unicode="&#xec;" horiz-adv-x="198" 
d="M187 817l-144 -817h-69l143 817h70zM52 1002h98l38 -142h-68z" />
    <glyph glyph-name="iacute" unicode="&#xed;" horiz-adv-x="198" 
d="M187 817l-144 -817h-69l143 817h70zM211 1002h98l-118 -142h-68z" />
    <glyph glyph-name="icircumflex" unicode="&#xee;" horiz-adv-x="198" 
d="M47 0l144 817h-70l-143 -817h69zM212 960l62 -99h-50l-45 62l-68 -62h-53l101 99h53z" />
    <glyph glyph-name="idieresis" unicode="&#xef;" horiz-adv-x="198" 
d="M192 817l-144 -817h-69l143 817h70zM154 950l-14 -79h-56l14 79h56zM267 950l-14 -79h-56l14 79h56z" />
    <glyph glyph-name="eth" unicode="&#xf0;" horiz-adv-x="481" 
d="M82 367h-64l10 57h64l70 393h174q70 0 113 -47.5t31 -117.5l-85 -487q-12 -70 -73 -117.5t-131 -47.5h-174zM324 753h-108l-58 -329h132l-10 -57h-132l-53 -303h108q42 0 79.5 29t45.5 72l85 487q8 43 -19 72t-70 29z" />
    <glyph glyph-name="ntilde" unicode="&#xf1;" horiz-adv-x="479" 
d="M148 656l-116 -656h-65l143 817h74l125 -630l111 630h66l-144 -817h-59zM354 879q-13 0 -47.5 12.5t-45.5 12.5q-9 0 -18.5 -4t-14 -7.5t-13 -11.5t-10.5 -10l-17 29q51 49 80 49q16 0 48 -12.5t58 -12.5q22 0 48 30l19 -32q-38 -43 -87 -43z" />
    <glyph glyph-name="ograve" unicode="&#xf2;" 
d="M169 58q55 0 100 29t53 72l87 493q7 43 -28 72t-90 29q-54 0 -99.5 -29t-52.5 -72l-87 -493q-8 -43 27.5 -72t89.5 -29zM475 652l-87 -493q-13 -70 -81 -117.5t-149 -47.5q-80 0 -132 48t-39 117l86 493q12 69 80.5 117t149.5 48t132.5 -47.5t39.5 -117.5zM198 1002h98
l38 -142h-68z" />
    <glyph glyph-name="oacute" unicode="&#xf3;" 
d="M169 58q55 0 100 29t53 72l87 493q7 43 -28 72t-90 29q-54 0 -99.5 -29t-52.5 -72l-87 -493q-8 -43 27.5 -72t89.5 -29zM475 652l-87 -493q-13 -70 -81 -117.5t-149 -47.5q-80 0 -132 48t-39 117l86 493q12 69 80.5 117t149.5 48t132.5 -47.5t39.5 -117.5zM359 1002h98
l-118 -142h-68z" />
    <glyph glyph-name="ocircumflex" unicode="&#xf4;" 
d="M173 58q-54 0 -89.5 29t-27.5 72l86 493q8 43 53.5 72t99.5 29q55 0 90 -29t27 -72l-86 -493q-8 -43 -53 -72t-100 -29zM392 159l86 493q13 69 -38 117t-133 48q-80 0 -149 -48t-82 -117l-85 -493q-13 -69 38.5 -117t131.5 -48q82 0 150 48t81 117zM361 959l61 -99h-50
l-45 62l-68 -62h-53l102 99h53z" />
    <glyph glyph-name="otilde" unicode="&#xf5;" 
d="M173 58q55 0 100.5 29t52.5 72l87 493q7 43 -27.5 72t-89.5 29q-54 0 -100 -29t-53 -72l-87 -493q-7 -43 28 -72t89 -29zM479 652l-87 -493q-13 -70 -81 -117.5t-149 -47.5q-80 0 -132 48t-39 117l86 493q13 69 81.5 117t148.5 48q82 0 133.5 -48t38.5 -117zM363 878
q-13 0 -48 12.5t-46 12.5q-9 0 -18 -4t-14 -8t-13 -11t-11 -10l-16 29q42 40 62 46q9 3 17 3q16 0 49 -12.5t58 -12.5q22 0 47 30l19 -32q-38 -43 -86 -43z" />
    <glyph glyph-name="odieresis" unicode="&#xf6;" 
d="M174 58q55 0 100 29t52 72l87 493q8 43 -27 72t-90 29q-54 0 -99.5 -29t-53.5 -72l-87 -493q-7 -43 28.5 -72t89.5 -29zM479 652l-87 -493q-12 -69 -80 -117t-150 -48q-80 0 -131.5 48t-39.5 117l86 493q13 69 81.5 117t148.5 48q82 0 133.5 -48t38.5 -117zM303 949
l-14 -79h-56l14 79h56zM416 949l-14 -79h-56l14 79h56z" />
    <glyph glyph-name="divide" unicode="&#xf7;" horiz-adv-x="406" 
d="M342 367h-291l10 57h291zM218 293l-18 -102h-76l18 102h76zM273 603l-18 -102h-76l18 102h76z" />
    <glyph glyph-name="oslash" unicode="&#xf8;" 
d="M491 652l-87 -493q-13 -70 -81 -117.5t-149 -47.5q-88 0 -139 54l-39 -61h-57l68 106q-11 31 -5 66l87 493q12 69 80.5 117t149.5 48q78 0 128 -44l36 56h58l-62 -96q19 -38 12 -81zM185 58q55 0 100 29t53 72l86 490l-331 -525q3 -29 29 -47.5t63 -18.5zM307 753
q-54 0 -99.5 -29t-52.5 -72l-80 -452l318 503q-1 21 -27.5 35.5t-58.5 14.5z" />
    <glyph glyph-name="ugrave" unicode="&#xf9;" horiz-adv-x="467" 
d="M154 61q46 0 87 31.5t48 73.5l115 651h67l-115 -651q-13 -70 -75.5 -120.5t-137.5 -50.5q-74 0 -118.5 50.5t-31.5 120.5l114 651h66l-115 -651q-7 -42 21.5 -73.5t74.5 -31.5zM189 1003h98l38 -142h-68z" />
    <glyph glyph-name="uacute" unicode="&#xfa;" horiz-adv-x="467" 
d="M154 61q46 0 87 31.5t48 73.5l115 651h67l-115 -651q-13 -70 -75.5 -120.5t-137.5 -50.5q-74 0 -118.5 50.5t-31.5 120.5l114 651h66l-115 -651q-7 -42 21.5 -73.5t74.5 -31.5zM345 1002h98l-118 -142h-68z" />
    <glyph glyph-name="ucircumflex" unicode="&#xfb;" horiz-adv-x="467" 
d="M158 61q-46 0 -74.5 31.5t-21.5 73.5l114 651h-66l-113 -651q-13 -70 31.5 -120.5t118.5 -50.5q75 0 137.5 50.5t75.5 120.5l114 651h-67l-114 -651q-7 -42 -48 -73.5t-87 -31.5zM346 959l62 -99h-50l-45 62l-68 -62h-53l101 99h53z" />
    <glyph glyph-name="udieresis" unicode="&#xfc;" horiz-adv-x="467" 
d="M159 61q46 0 87 31.5t48 73.5l114 651h67l-114 -651q-13 -70 -76 -120.5t-138 -50.5q-74 0 -118 50t-31 121l113 651h66l-114 -651q-7 -42 21.5 -73.5t74.5 -31.5zM289 949l-14 -79h-56l14 79h56zM402 949l-14 -79h-56l14 79h56z" />
    <glyph glyph-name="yacute" unicode="&#xfd;" horiz-adv-x="506" 
d="M196 0h-66l70 394q-19 62 -62 208.5t-64 214.5h75l101 -332q32 49 106.5 162.5t110.5 169.5h75l-276 -423zM366 1002h98l-118 -142h-68z" />
    <glyph glyph-name="thorn" unicode="&#xfe;" horiz-adv-x="413" 
d="M257 560h-107l-59 -336h107q43 0 80.5 31t45.5 75l21 123q8 43 -18.5 75t-69.5 32zM186 157h-107l-28 -157h-66l144 817h67l-34 -190h107q71 0 113.5 -51.5t29.5 -122.5l-21 -123q-13 -72 -73 -122.5t-132 -50.5z" />
    <glyph glyph-name="ydieresis" unicode="&#xff;" horiz-adv-x="506" 
d="M201 0h-66l69 394q-19 63 -61.5 209.5t-63.5 213.5h75l100 -332q40 61 117 178t101 154h75l-277 -423zM307 950l-14 -79h-56l14 79h56zM420 950l-14 -79h-56l14 79h56z" />
    <glyph glyph-name="Lslash" unicode="&#x141;" horiz-adv-x="341" 
d="M256 66l-12 -66h-266l68 391l-71 -24l10 57l71 24l66 369h66l-61 -345l138 46l-10 -57l-138 -46l-62 -349h201z" />
    <glyph glyph-name="lslash" unicode="&#x142;" horiz-adv-x="341" 
d="M256 66l-12 -66h-266l68 391l-71 -24l10 57l71 24l66 369h66l-61 -345l138 46l-10 -57l-138 -46l-62 -349h201z" />
    <glyph glyph-name="OE" unicode="&#x152;" horiz-adv-x="717" 
d="M431 817h314l-12 -66h-248l-58 -326h221l-9 -56h-221l-54 -303h248l-12 -66h-314l5 24q-51 -24 -110 -24q-80 0 -131.5 48t-39.5 117l85 487q13 69 82 117t149 48q57 0 100 -25zM193 64q43 0 79 29t44 72l86 490q6 42 -20.5 70t-67.5 28q-54 0 -99.5 -29t-53.5 -72
l-85 -487q-8 -43 27.5 -72t89.5 -29z" />
    <glyph glyph-name="oe" unicode="&#x153;" horiz-adv-x="717" 
d="M431 817h314l-12 -66h-248l-58 -326h221l-11 -66h-221l-52 -293h248l-12 -66h-314l5 24q-51 -24 -110 -24q-80 0 -131.5 48t-39.5 117l85 487q13 69 82 117t149 48q57 0 100 -25zM193 64q43 0 79 29t44 72l86 490q6 42 -20.5 70t-67.5 28q-54 0 -99.5 -29t-53.5 -72
l-85 -487q-8 -43 27.5 -72t89.5 -29z" />
    <glyph glyph-name="Scaron" unicode="&#x160;" horiz-adv-x="451" 
d="M138 643q8 44 47.5 76t88.5 32q47 0 76 -31.5t22 -76.5l-15 -82h66l15 82q13 72 -32 123t-121 51t-138.5 -51t-75.5 -123l-21 -120q-12 -66 34 -110.5t120 -44.5q48 0 79 -23t25 -58l-21 -117q-8 -44 -47 -76t-88 -32q-47 0 -77 32.5t-22 75.5l14 79h-66l-13 -79
q-13 -72 32 -123t121 -51q75 0 137.5 51t75.5 123l21 117q11 60 -36 99.5t-120 45.5q-49 2 -79 27t-23 64zM417 959l-96 -99h-53l-67 99h53l46 -62l67 62h50z" />
    <glyph glyph-name="scaron" unicode="&#x161;" horiz-adv-x="457" 
d="M138 643q8 44 47.5 76t88.5 32q47 0 76 -31.5t22 -76.5l-15 -82h66l15 82q13 72 -32 123t-121 51t-138.5 -51t-75.5 -123l-21 -120q-12 -66 34 -110.5t120 -44.5q48 0 79 -23t25 -58l-21 -117q-8 -44 -47 -76t-88 -32q-47 0 -77 32.5t-22 75.5l14 79h-66l-13 -79
q-13 -72 32 -123t121 -51q75 0 137.5 51t75.5 123l21 117q11 60 -36 99.5t-120 45.5q-49 2 -79 27t-23 64zM420 959l-96 -99h-53l-67 99h53l46 -62l67 62h50z" />
    <glyph glyph-name="Ydieresis" unicode="&#x178;" horiz-adv-x="506" 
d="M201 0h-66l69 394q-19 63 -61.5 209.5t-63.5 213.5h75l100 -332q40 61 117 178t101 154h75l-277 -423zM307 950l-14 -79h-56l14 79h56zM420 950l-14 -79h-56l14 79h56z" />
    <glyph glyph-name="Zcaron" unicode="&#x17d;" horiz-adv-x="498" 
d="M383 66h-320l428 674l14 77h-405l-12 -66h328l-425 -674l-14 -77h394zM441 959l-96 -99h-53l-67 99h53l46 -62l67 62h50z" />
    <glyph glyph-name="zcaron" unicode="&#x17e;" horiz-adv-x="498" 
d="M383 66h-320l428 674l14 77h-405l-12 -66h328l-425 -674l-14 -77h394zM441 959l-96 -99h-53l-67 99h53l46 -62l67 62h50z" />
    <glyph glyph-name="circumflex" unicode="&#x2c6;" horiz-adv-x="274" 
d="M174 817l62 -99h-50l-45 62l-68 -62h-53l101 99h53z" />
    <glyph glyph-name="caron" unicode="&#x2c7;" horiz-adv-x="274" 
d="M253 817l-96 -99h-53l-67 99h53l46 -62l67 62h50z" />
    <glyph glyph-name="breve" unicode="&#x2d8;" horiz-adv-x="209" 
d="M21 817h38q-4 -25 9 -42t35 -17q21 0 40 17t23 42h38q-7 -41 -38.5 -69t-69.5 -28q-41 0 -62 26.5t-13 70.5z" />
    <glyph glyph-name="dotaccent" unicode="&#x2d9;" horiz-adv-x="192" 
d="M140 817l-17 -102h-76l17 102h76z" />
    <glyph glyph-name="ring" unicode="&#x2da;" horiz-adv-x="213" 
d="M182 741q-6 -32 -32 -54t-58 -22q-33 0 -50.5 21.5t-11.5 54.5q5 32 31 54t58 22q31 0 49.5 -22t13.5 -54zM150 741q3 18 -8 31t-29 13t-33 -13t-18 -31q-4 -18 7 -31t29 -13t33 13t19 31z" />
    <glyph glyph-name="ogonek" unicode="&#x2db;" horiz-adv-x="154" 
d="M73 -251h-80l121 152h43z" />
    <glyph glyph-name="tilde" unicode="&#x2dc;" horiz-adv-x="337" 
d="M207 730q-13 0 -48 12.5t-46 12.5q-9 0 -18.5 -4t-14 -7.5t-13 -11.5t-10.5 -10l-17 29q51 49 80 49q16 0 49 -12.5t58 -12.5q21 0 47 30l19 -32q-38 -43 -86 -43z" />
    <glyph glyph-name="hungarumlaut" unicode="&#x2dd;" horiz-adv-x="305" 
d="M81 700h-46l57 92h66zM203 700h-47l58 92h66z" />
    <glyph glyph-name="endash" unicode="&#x2013;" horiz-adv-x="471" 
d="M418 367h-378l11 57h378z" />
    <glyph glyph-name="emdash" unicode="&#x2014;" horiz-adv-x="591" 
d="M527 367h-476l11 57h476z" />
    <glyph glyph-name="quoteleft" unicode="&#x2018;" horiz-adv-x="213" 
d="M111 817h37l-43 -66h49l-20 -114h-86l20 114z" />
    <glyph glyph-name="quoteright" unicode="&#x2019;" horiz-adv-x="213" 
d="M102 637h-37l43 66h-49l20 114h86l-20 -114z" />
    <glyph glyph-name="quotesinglbase" unicode="&#x201a;" horiz-adv-x="210" 
d="M103 -56h-37l41 56h-49l20 114h86l-20 -114z" />
    <glyph glyph-name="quotedblleft" unicode="&#x201c;" horiz-adv-x="349" 
d="M247 817h37l-43 -66h49l-20 -114h-86l20 114zM110 817h37l-43 -66h49l-20 -114h-86l20 114z" />
    <glyph glyph-name="quotedblright" unicode="&#x201d;" horiz-adv-x="349" 
d="M101 637h-37l43 66h-49l20 114h86l-20 -114zM238 637h-37l43 66h-49l20 114h86l-20 -114z" />
    <glyph glyph-name="quotedblbase" unicode="&#x201e;" horiz-adv-x="349" 
d="M102 -56h-37l41 56h-49l20 114h86l-20 -114zM239 -56h-37l41 56h-49l20 114h86l-20 -114z" />
    <glyph glyph-name="dagger" unicode="&#x2020;" horiz-adv-x="395" 
d="M207 616h-161l10 57h161l38 217h56l-38 -217h161l-10 -57h-161l-125 -706h-56z" />
    <glyph glyph-name="daggerdbl" unicode="&#x2021;" horiz-adv-x="402" 
d="M211 616h-161l10 57h161l38 217h56l-38 -217h161l-10 -57h-161l-77 -432h161l-10 -57h-161l-38 -217h-56l38 217h-160l10 57h160z" />
    <glyph glyph-name="bullet" unicode="&#x2022;" horiz-adv-x="260" 
d="M51 394q5 32 32 55t59 23q33 0 52.5 -22.5t14.5 -55.5q-6 -33 -33.5 -56.5t-60.5 -23.5t-51.5 23.5t-12.5 56.5z" />
    <glyph glyph-name="ellipsis" unicode="&#x2026;" horiz-adv-x="576" 
d="M140 102l-17 -102h-76l17 102h76zM332 102l-17 -102h-76l17 102h76zM524 102l-17 -102h-76l17 102h76z" />
    <glyph glyph-name="perthousand" unicode="&#x2030;" horiz-adv-x="826" 
d="M34 -25l456 842h58l-456 -842h-58zM137 405q-43 0 -68.5 29t-18.5 72l32 180q7 42 43.5 71.5t78.5 29.5q41 0 67 -29.5t19 -71.5l-32 -180q-7 -43 -43 -72t-78 -29zM204 506l32 180q4 20 -10 34t-31 14q-22 0 -38 -13.5t-20 -34.5l-32 -180q-4 -21 7.5 -34.5t33.5 -13.5
q19 0 36.5 14t21.5 34zM432 358q42 0 67 -29.5t18 -71.5l-32 -181q-7 -42 -43 -71.5t-78 -29.5q-43 0 -68 29t-18 72l32 181q7 43 42.5 72t79.5 29zM431 76l32 181q3 18 -9.5 32.5t-31.5 14.5q-22 0 -38 -13t-20 -34l-32 -181q-4 -21 7.5 -34t34.5 -13q21 0 37.5 14t19.5 33
zM686 358q42 0 67 -29.5t18 -71.5l-32 -181q-7 -42 -43 -71.5t-78 -29.5q-43 0 -68 29t-18 72l32 181q7 43 42.5 72t79.5 29zM685 76l32 181q3 18 -9.5 32.5t-31.5 14.5q-22 0 -38 -13t-20 -34l-32 -181q-4 -21 7.5 -34t34.5 -13q21 0 37.5 14t19.5 33z" />
    <glyph glyph-name="guilsinglleft" unicode="&#x2039;" horiz-adv-x="253" 
d="M199 190l-15 -90l-168 228l11 65l248 228l-15 -90l-182 -171q93 -129 121 -170z" />
    <glyph glyph-name="guilsinglright" unicode="&#x203a;" horiz-adv-x="253" 
d="M-23 100l15 90q32 31 98.5 93.5t81.5 76.5l-120 171l15 90l168 -228l-11 -65z" />
    <glyph glyph-name="fraction" unicode="&#x2044;" horiz-adv-x="590" 
d="M651 829l-662 -842h-50l661 842h51z" />
    <glyph glyph-name="Euro" unicode="&#x20ac;" horiz-adv-x="531" 
d="M234 -7q-82 0 -134 51.5t-39 122.5l21 124h-64l10 57h64l17 94h-64l10 57h64l25 144q13 71 83 122.5t152 51.5q76 0 121 -51t32 -123l-12 -73h-67l12 73q8 43 -21 75.5t-76 32.5q-54 0 -101.5 -32.5t-55.5 -75.5l-25 -144h177l-10 -57h-177l-17 -94h177l-10 -57h-177
l-21 -124q-8 -43 27.5 -75.5t89.5 -32.5q46 0 87.5 32.5t49.5 75.5l12 69h67l-12 -69q-13 -72 -76 -123t-139 -51z" />
    <glyph glyph-name="trademark" unicode="&#x2122;" horiz-adv-x="656" 
d="M211 779l-80 -453h-38l80 453h-88l7 38h213l-7 -38h-87zM583 665l-144 -339h-51l-32 339l-60 -339h-37l87 491h42l34 -441l191 441h36l-87 -491h-39z" />
    <glyph glyph-name="minus" unicode="&#x2212;" horiz-adv-x="406" 
d="M342 367h-291l11 57h291z" />
    </font>
</defs>
</svg>
