<?xml version="1.0" standalone="no"?>
<!DOCTYPE svg PUBLIC "-//W3C//DTD SVG 1.1//EN" "http://www.w3.org/Graphics/SVG/1.1/DTD/svg11.dtd" >
<svg xmlns="http://www.w3.org/2000/svg" xmlns:xlink="http://www.w3.org/1999/xlink" version="1.1">
<metadata>
Created by FontForge 20161013 at Sat Nov 30 01:41:44 2013
 By ,,,
Copyright (c) 2013 by Absolut Foundry. All rights reserved.
</metadata>
<defs>
<font id="Mohave-SemiBoldItalic" horiz-adv-x="495" >
  <font-face 
    font-family="Mohave"
    font-weight="600"
    font-style="italic"
    font-stretch="normal"
    units-per-em="1000"
    panose-1="0 0 0 0 0 0 0 0 0 0"
    ascent="901"
    descent="-99"
    x-height="817"
    cap-height="817"
    bbox="-69 -251 880.939 1012"
    underline-thickness="50"
    underline-position="-199"
    unicode-range="U+0020-2212"
  />
<missing-glyph horiz-adv-x="393" 
d="M416 801l-141 -800h-299l140 800h300zM357 751h-200l-123 -700h200z" />
    <glyph glyph-name=".notdef" horiz-adv-x="393" 
d="M416 801l-141 -800h-299l140 800h300zM357 751h-200l-123 -700h200z" />
    <glyph glyph-name=".null" horiz-adv-x="0" 
 />
    <glyph glyph-name="nonmarkingreturn" horiz-adv-x="333" 
 />
    <glyph glyph-name="space" unicode=" " horiz-adv-x="200" 
 />
    <glyph glyph-name="exclam" unicode="!" horiz-adv-x="184" 
d="M77 90l-16 -90h-83l16 90h83zM210 817l-127 -654h-70l105 654h92z" />
    <glyph glyph-name="quotedbl" unicode="&#x22;" horiz-adv-x="349" 
d="M105 637h-45l43 62h-49l20 118h94l-20 -118zM242 637h-45l43 62h-49l20 118h94l-20 -118z" />
    <glyph glyph-name="numbersign" unicode="#" horiz-adv-x="530" 
d="M215 465l-59 -172h148q6 17 25.5 75t34.5 98q-23 0 -71 -0.5t-78 -0.5zM475 543h47l-13 -77h-65l-61 -173h73l-13 -77h-90q-49 -138 -78 -216h-78l76 216h-148q-8 -22 -34.5 -97.5t-42.5 -118.5h-77l75 216h-54l12 77h72q12 35 32 91t29 82h-78l13 77h96l100 274h79
l-100 -274h148q74 201 100 274h80z" />
    <glyph glyph-name="dollar" unicode="$" horiz-adv-x="409" 
d="M256 148l23 128q7 43 -48 69l-49 -276q28 15 49 36.5t25 42.5zM152 643l-23 -131q-8 -44 48 -68l49 278q-65 -29 -74 -79zM167 -19l-10 -54h-71l10 54q-57 17 -87.5 63.5t-20.5 103.5l13 80h77l-14 -80q-8 -46 47 -79l52 297q-58 13 -89.5 53.5t-22.5 92.5l23 131
q11 58 57.5 104t110.5 62l9 53h71l-9 -53q59 -15 88.5 -61t19.5 -105l-14 -83h-77l14 83q10 54 -47 80l-53 -303q56 -15 89 -54.5t24 -89.5l-23 -128q-10 -58 -57 -104t-110 -63z" />
    <glyph glyph-name="percent" unicode="%" horiz-adv-x="578" 
d="M27 -25l456 842h72l-456 -842h-72zM137 405q-43 0 -68.5 29t-18.5 72l32 180q7 42 43.5 71.5t78.5 29.5q41 0 67 -29.5t19 -71.5l-32 -180q-7 -43 -43 -72t-78 -29zM193 506l32 180q2 15 -8.5 26t-23.5 11q-17 0 -30 -10.5t-15 -26.5l-32 -180q-3 -16 6 -26.5t26 -10.5
q15 0 28.5 11t16.5 26zM364 -25q-43 0 -68 29t-18 72l32 181q7 43 42.5 72t79.5 29q42 0 67 -29.5t18 -71.5l-32 -181q-7 -42 -43 -71.5t-78 -29.5zM420 76l32 181q2 14 -7.5 25t-24.5 11q-17 0 -29.5 -10t-15.5 -26l-32 -181q-3 -16 6.5 -26t26.5 -10q16 0 29 10.5t15 25.5
z" />
    <glyph glyph-name="ampersand" unicode="&#x26;" horiz-adv-x="529" 
d="M247 449h93l12 68h89l-12 -68h63l-14 -79h-63l-37 -212q-13 -73 -77 -123.5t-136 -50.5t-117 50.5t-33 123.5l23 130q12 67 77 123q-44 65 -34 121l23 130q13 73 76.5 123.5t135.5 50.5q75 0 116.5 -59t27.5 -153h-89q5 58 -13.5 91.5t-57.5 33.5t-70 -24.5t-38 -62.5
l-23 -130q-3 -34 21.5 -58.5t56.5 -24.5zM289 158l37 212h-93q-39 0 -70 -23t-37 -59l-23 -130q-7 -38 16 -62.5t62 -24.5t70 24.5t38 62.5z" />
    <glyph glyph-name="quotesingle" unicode="'" horiz-adv-x="213" 
d="M106 637h-45l43 62h-49l20 118h94l-20 -118z" />
    <glyph glyph-name="parenleft" unicode="(" horiz-adv-x="364" 
d="M328 901h65l-15 -81q-34 0 -58 -2.5t-49.5 -10t-41 -23.5t-19.5 -41l-115 -648q-12 -68 15.5 -89.5t120.5 -22.5l-15 -81h-65q-76 0 -119.5 39.5t-30.5 116.5l121 685q14 78 71.5 118t134.5 40z" />
    <glyph glyph-name="parenright" unicode=")" horiz-adv-x="364" 
d="M150 901h65q77 0 120.5 -40t29.5 -118l-121 -685q-14 -77 -71.5 -116.5t-134.5 -39.5h-64l15 81q92 1 126.5 22.5t46.5 89.5l115 648q4 25 -5.5 41t-32.5 23.5t-46.5 10t-57.5 2.5z" />
    <glyph glyph-name="asterisk" unicode="*" horiz-adv-x="295" 
d="M260 742l-61 -36q2 -1 21 -14t27 -20q-8 -8 -20 -21t-17 -19l-44 32l-12 -67h-54l13 68q-16 -10 -28.5 -17t-18 -10t-8.5 -5l-23 40l57 33l-45 35q18 18 36 39l44 -33l12 69h54l-14 -70q7 5 28.5 17t28.5 17q4 -6 12 -18.5t12 -19.5z" />
    <glyph glyph-name="plus" unicode="+" horiz-adv-x="408" 
d="M399 431l-13 -71h-153l-27 -154h-71l27 154h-154l13 71h154l27 152h71l-27 -152h153z" />
    <glyph glyph-name="comma" unicode="," horiz-adv-x="163" 
d="M140 106l-16 -95l-95 -63l27 158h84z" />
    <glyph glyph-name="hyphen" unicode="-" horiz-adv-x="406" 
d="M341 360h-291l13 71h291z" />
    <glyph glyph-name="period" unicode="." horiz-adv-x="192" 
d="M145 106l-19 -106h-84l19 106h84z" />
    <glyph glyph-name="slash" unicode="/" horiz-adv-x="418" 
d="M472 829l-456 -842h-71l454 842h73z" />
    <glyph glyph-name="zero" unicode="0" horiz-adv-x="503" 
d="M179 -9q-82 0 -132 56.5t-36 138.5l77 436q15 82 84.5 138.5t151.5 56.5t132 -56.5t35 -138.5l-77 -436q-15 -82 -84.5 -138.5t-150.5 -56.5zM311 742q-50 0 -94 -35t-53 -85l-80 -451l306 537q-31 34 -79 34zM192 66q50 0 93 35t52 85l76 430l-293 -517q23 -33 72 -33z
" />
    <glyph glyph-name="one" unicode="1" horiz-adv-x="277" 
d="M172 0h-77l116 653q-15 -3 -34.5 -4.5t-33.5 -1.5t-36.5 0.5t-32.5 0.5l12 70h33q24 0 36 0.5t31.5 3.5t29.5 11t12 21l12 63h77z" />
    <glyph glyph-name="two" unicode="2" horiz-adv-x="456" 
d="M173 649l-23 -129h-77l23 129q12 70 72 119t130 49t112 -50t30 -118q-11 -66 -17 -101.5t-8 -44.5q-8 -46 -25.5 -81.5t-46.5 -62.5t-50.5 -42t-59.5 -37q-153 -96 -150 -204h272l-14 -76h-353l12 71q16 94 52 150.5t123 103.5q41 25 61.5 39t46 36t38.5 46t18 54l24 149
q6 38 -18 65t-61 27q-38 0 -71 -27.5t-40 -64.5z" />
    <glyph glyph-name="three" unicode="3" horiz-adv-x="446" 
d="M195 380h-48l12 69h47h8q18 0 29 0.5t30 3.5t30.5 10t22.5 21t14 34l23 130q7 39 -16.5 65.5t-65.5 26.5q-40 0 -73.5 -26.5t-40.5 -65.5l-22 -128h-79l22 128q13 71 74.5 120t132.5 49q72 0 115.5 -48.5t30.5 -120.5l-23 -130q-4 -24 -16 -43t-22 -28.5t-39 -32.5
q50 -49 38 -121l-23 -130q-13 -72 -73.5 -120.5t-132.5 -48.5q-71 0 -115 49t-32 120l22 127h79l-22 -127q-7 -40 18 -66t64 -26q41 0 74 26t40 66l23 130q4 25 -1.5 42.5t-15.5 26.5t-28.5 13t-30.5 4.5t-30 0.5z" />
    <glyph glyph-name="four" unicode="4" horiz-adv-x="454" 
d="M332 160l-29 -160h-77l29 160h-277l11 64l370 593h89l-104 -587h56l-12 -70h-56zM267 230l77 438q-42 -67 -131.5 -209.5t-142.5 -228.5h197z" />
    <glyph glyph-name="five" unicode="5" horiz-adv-x="494" 
d="M273 554q83 0 131 -58.5t34 -141.5l-29 -161q-14 -83 -83 -141.5t-152 -58.5q-84 0 -132 58t-34 142l10 55h76l-10 -55q-9 -50 22 -86.5t81 -36.5t93 36.5t52 86.5l29 161q8 50 -22 87t-80 37q-49 0 -92.5 -40.5t-57.5 -98.5h-75l84 478h401l-13 -77h-325l-42 -233
q63 47 134 47z" />
    <glyph glyph-name="six" unicode="6" horiz-adv-x="500" 
d="M273 537q81 0 131.5 -57t36.5 -138l-28 -156q-15 -82 -84.5 -138.5t-151.5 -56.5t-132 56.5t-36 138.5l77 436q15 82 84.5 138.5t151.5 56.5t132.5 -56.5t35.5 -138.5l-8 -46h-77l8 46q9 51 -22 85.5t-82 34.5t-93.5 -34t-51.5 -86l-22 -126q63 41 131 41zM260 461
q-51 0 -93.5 -34t-51.5 -85l-28 -156q-9 -52 21.5 -86t81.5 -34t94 34.5t52 85.5l28 156q9 50 -22 84.5t-82 34.5z" />
    <glyph glyph-name="seven" unicode="7" horiz-adv-x="411" 
d="M445 731l-351 -731h-81l350 740h-283l14 77h367z" />
    <glyph glyph-name="eight" unicode="8" horiz-adv-x="498" 
d="M74 560l11 65q15 81 84.5 136.5t151.5 55.5t132 -55t35 -137l-11 -65q-17 -90 -97 -146q62 -57 45 -146l-17 -97q-13 -75 -77.5 -126.5t-140.5 -51.5h-29q-76 0 -122.5 51.5t-33.5 126.5l17 97q16 87 98 146q-62 57 -46 146zM174 67h29q44 0 82.5 30.5t45.5 73.5l17 97
q9 48 -22 79.5t-82 31.5t-93.5 -31.5t-51.5 -79.5l-17 -97q-7 -44 20.5 -74t71.5 -30zM256 449q51 0 93 31.5t51 79.5l11 65q9 49 -22 83.5t-81 34.5t-93.5 -34.5t-52.5 -83.5l-11 -65q-9 -48 22.5 -79.5t82.5 -31.5z" />
    <glyph glyph-name="nine" unicode="9" horiz-adv-x="499" 
d="M225 271q-81 0 -131.5 57t-36.5 138l28 156q15 82 84.5 138.5t151.5 56.5t132.5 -56.5t35.5 -138.5l-77 -436q-15 -82 -84.5 -138.5t-151.5 -56.5t-132 56.5t-36 138.5l8 46h77l-8 -46q-9 -51 22 -85.5t82 -34.5t93.5 34t51.5 86l22 126q-63 -41 -131 -41zM238 347
q51 0 93.5 34t51.5 85l28 156q9 52 -21.5 86t-81.5 34t-94 -34.5t-52 -85.5l-28 -156q-9 -50 22 -84.5t82 -34.5z" />
    <glyph glyph-name="colon" unicode=":" horiz-adv-x="169" 
d="M109 106l-19 -106h-84l19 106h84zM163 412l-19 -106h-84l19 106h84z" />
    <glyph glyph-name="semicolon" unicode=";" horiz-adv-x="169" 
d="M168 412l-19 -106h-84l19 106h84zM114 106l-17 -95l-96 -69l29 164h84z" />
    <glyph glyph-name="less" unicode="&#x3c;" horiz-adv-x="428" 
d="M385 295l-15 -81l-353 142l15 81l403 142l-15 -81l-296 -102q17 -7 115.5 -44.5t145.5 -56.5z" />
    <glyph glyph-name="equal" unicode="=" horiz-adv-x="391" 
d="M359 441h-308l13 78h308zM329 271h-308l13 78h308z" />
    <glyph glyph-name="greater" unicode="&#x3e;" horiz-adv-x="428" 
d="M-7 214l14 81q50 18 153.5 53t141.5 48l-260 102l15 81l353 -142l-15 -81z" />
    <glyph glyph-name="question" unicode="?" horiz-adv-x="387" 
d="M395 643l-18 -101q-8 -44 -33.5 -81t-57.5 -63.5t-64 -52t-57 -58.5t-32 -72l-9 -51h-71l9 51q7 37 33 75.5t59 69.5t65.5 60.5t57 58.5t28.5 54l19 110q7 39 -15 68t-57 29q-41 0 -74 -28.5t-40 -68.5l-15 -82h-77l15 82q13 72 73 123t132 51q66 0 104 -51t25 -123z
M116 90l-16 -90h-84l16 90h84z" />
    <glyph glyph-name="at" unicode="@" horiz-adv-x="668" 
d="M273 -24h77q58 0 165 86l-20 -111q-87 -49 -158 -49h-77q-135 0 -213 94t-54 230l34 198q24 136 135.5 231t246.5 95h125q84 0 132.5 -58.5t33.5 -142.5l-38 -216q-15 -84 -71.5 -147.5t-139.5 -63.5q-31 0 -50 5q-66 -43 -122 -43q-66 0 -102.5 44.5t-25.5 110.5
q2 11 37 140q19 67 78 115t126 48h88q31 0 48.5 -21.5t13.5 -52.5l-72 -272q47 8 78 47.5t40 89.5l38 216q9 51 -22.5 89t-82.5 38h-125q-102 0 -189.5 -74.5t-105.5 -177.5l-35 -198q-18 -103 43.5 -176.5t163.5 -73.5zM379 468q-38 0 -73 -28t-45 -66l-36 -135
q-6 -34 14 -57.5t53 -23.5q43 0 74.5 28.5t46.5 71.5l56 212z" />
    <glyph glyph-name="A" unicode="A" horiz-adv-x="465" 
d="M136 286h147l-12 359q-25 -64 -70 -185.5t-65 -173.5zM372 0h-80l-9 215h-173l-83 -215h-79l309 817h89z" />
    <glyph glyph-name="B" unicode="B" horiz-adv-x="476" 
d="M-26 0l144 817h191q74 0 116 -53.5t29 -129.5l-18 -103q-13 -71 -86 -125q39 -28 56 -70.5t9 -89.5l-9 -48q-14 -83 -80.5 -140.5t-147.5 -57.5h-204zM242 361h-128l-50 -284h128q47 0 86.5 30t46.5 72l12 67q8 47 -20 81t-75 34zM295 740h-114l-55 -309h114
q40 0 75.5 30t42.5 70l22 122q6 35 -19.5 61t-65.5 26z" />
    <glyph glyph-name="C" unicode="C" horiz-adv-x="480" 
d="M182 -7q-82 0 -133.5 51t-39.5 123l83 476q13 71 83 122.5t152 51.5q76 0 121 -51t32 -123l-9 -54h-78l9 54q7 39 -19 68t-69 29q-50 0 -93.5 -29t-50.5 -68l-83 -476q-7 -39 25.5 -68t82.5 -29q43 0 79.5 29t44.5 68l10 58h78l-10 -58q-13 -72 -76 -123t-139 -51z" />
    <glyph glyph-name="D" unicode="D" horiz-adv-x="438" 
d="M279 742h-97l-117 -667h97q38 0 71.5 26t40.5 64l85 487q7 38 -17 64t-63 26zM148 0h-173l144 817h174q70 0 113 -47.5t31 -117.5l-85 -487q-12 -70 -73 -117.5t-131 -47.5z" />
    <glyph glyph-name="E" unicode="E" horiz-adv-x="389" 
d="M119 817h314l-14 -77h-237l-54 -308h210l-13 -70h-210l-50 -285h237l-14 -77h-313z" />
    <glyph glyph-name="F" unicode="F" horiz-adv-x="367" 
d="M129 432h210l-13 -70h-210l-64 -362h-76l144 817h314l-14 -77h-237z" />
    <glyph glyph-name="G" unicode="G" horiz-adv-x="489" 
d="M182 -7q-81 0 -134 48t-41 117l86 487q13 71 82.5 121.5t151.5 50.5q75 0 121 -50.5t33 -121.5l-21 -118h-77l21 118q7 38 -20 66.5t-70 28.5q-50 0 -93 -28.5t-50 -66.5l-86 -487q-7 -38 26.5 -64t83.5 -26q42 0 79 26t44 64l36 207h-102l13 69h179l-49 -276
q-13 -69 -76.5 -117t-136.5 -48z" />
    <glyph glyph-name="H" unicode="H" horiz-adv-x="450" 
d="M473 817l-145 -817h-78l64 362h-197l-64 -362h-77l144 817h78l-68 -385h197l68 385h78z" />
    <glyph glyph-name="I" unicode="I" horiz-adv-x="198" 
d="M209 817l-145 -817h-79l144 817h80z" />
    <glyph glyph-name="J" unicode="J" horiz-adv-x="291" 
d="M-2 0h-63l13 71q83 -1 124 18.5t48 63.5l118 664h77l-118 -664q-13 -75 -68.5 -114t-130.5 -39z" />
    <glyph glyph-name="K" unicode="K" horiz-adv-x="502" 
d="M119 367l-65 -367h-76l144 817h77l-59 -332q213 232 306 332h96l-291 -317l126 -500h-79l-114 434z" />
    <glyph glyph-name="L" unicode="L" horiz-adv-x="341" 
d="M258 77l-14 -77h-266l144 817h77l-131 -740h190z" />
    <glyph glyph-name="M" unicode="M" horiz-adv-x="606" 
d="M494 507l-216 -507h-86l-47 511l-91 -511h-76l144 817h85l52 -681l295 681h73l-145 -817h-78z" />
    <glyph glyph-name="N" unicode="N" horiz-adv-x="479" 
d="M163 612l-108 -612h-76l144 817h85l109 -590l105 590h77l-145 -817h-70z" />
    <glyph glyph-name="O" unicode="O" 
d="M187 69q51 0 92 26t48 64l87 493q7 38 -25.5 64t-82.5 26t-91.5 -26t-48.5 -64l-87 -493q-7 -38 25.5 -64t82.5 -26zM491 652l-87 -493q-13 -70 -81 -117.5t-149 -47.5q-80 0 -132 48t-40 117l87 493q13 69 81.5 117t148.5 48q82 0 133.5 -48t38.5 -117z" />
    <glyph glyph-name="P" unicode="P" horiz-adv-x="411" 
d="M441 643l-22 -122q-13 -72 -72.5 -122.5t-131.5 -50.5h-96l-62 -348h-77l144 817h174q71 0 113.5 -51t29.5 -123zM284 740h-96l-56 -315h96q39 0 72.5 28.5t40.5 67.5l22 122q7 39 -16.5 68t-62.5 29z" />
    <glyph glyph-name="Q" unicode="Q" horiz-adv-x="486" 
d="M276 -92h-71l-6 86h-23q-82 0 -133 47t-39 117l86 493q13 70 81 117.5t150 47.5q83 0 133.5 -47.5t37.5 -117.5l-86 -493q-18 -99 -134 -141zM188 186h70l8 -98q55 28 63 70l86 493q7 37 -26 63.5t-82 26.5t-91 -26t-49 -64l-86 -493q-7 -38 23.5 -63.5t91.5 -26.5z" />
    <glyph glyph-name="R" unicode="R" horiz-adv-x="454" 
d="M121 361l-64 -361h-77l144 817h174q72 0 114.5 -51t29.5 -123l-22 -122q-12 -68 -86 -122q62 -51 49 -132l-48 -267h-78l48 267q6 38 -18.5 66t-64.5 28h-101zM303 740h-115l-55 -309h100q38 0 70 27t38 63l22 122q7 41 -10.5 69t-49.5 28z" />
    <glyph glyph-name="S" unicode="S" horiz-adv-x="451" 
d="M161 643l-21 -120q-6 -36 21 -59t72 -25q72 -6 118.5 -47.5t35.5 -104.5l-20 -117q-13 -72 -76 -123t-138 -51q-76 0 -120.5 51t-32.5 123l14 79h77l-14 -79q-7 -39 20 -68t70 -29q44 0 79.5 29t42.5 68l20 117q7 34 -21 55.5t-72 21.5q-74 0 -120 46t-34 113l21 120
q13 72 76 123t139 51t120.5 -51t31.5 -123l-14 -82h-77l14 82q7 40 -19.5 68.5t-69.5 28.5q-44 0 -80 -29t-43 -68z" />
    <glyph glyph-name="T" unicode="T" horiz-adv-x="431" 
d="M313 740l-131 -740h-77l131 740h-140l14 77h354l-14 -77h-137z" />
    <glyph glyph-name="U" unicode="U" horiz-adv-x="467" 
d="M173 72q42 0 78 28t43 66l115 651h78l-115 -651q-12 -70 -75 -120.5t-138 -50.5q-74 0 -118 50t-33 121l115 651h77l-115 -651q-7 -38 19.5 -66t68.5 -28z" />
    <glyph glyph-name="V" unicode="V" horiz-adv-x="475" 
d="M98 817h79l12 -687l253 687h79l-292 -817h-126z" />
    <glyph glyph-name="W" unicode="W" horiz-adv-x="673" 
d="M363 563l-194 -563h-84l24 817h79l-12 -562l194 562h77l-6 -562l188 562h79l-266 -817h-84z" />
    <glyph glyph-name="X" unicode="X" horiz-adv-x="558" 
d="M323 397l118 -397h-85l-94 314q-38 -63 -108.5 -167t-97.5 -147h-84l258 396q-20 73 -60 223t-53 198h86l88 -335q37 59 108 173.5t100 161.5h86q-213 -344 -262 -420z" />
    <glyph glyph-name="Y" unicode="Y" horiz-adv-x="506" 
d="M218 0h-77l70 394q-18 62 -59 208.5t-61 214.5h86l92 -317q32 50 101.5 157.5t102.5 159.5h86l-271 -423z" />
    <glyph glyph-name="Z" unicode="Z" horiz-adv-x="498" 
d="M84 77h313l-14 -77h-401l14 77l420 663h-317l14 77h409l-14 -77z" />
    <glyph glyph-name="bracketleft" unicode="[" horiz-adv-x="297" 
d="M194 823l-149 -844h135l-14 -78h-212l176 1000h213l-14 -78h-135z" />
    <glyph glyph-name="backslash" unicode="\" horiz-adv-x="418" 
d="M251 -13l-158 842h73l157 -842h-72z" />
    <glyph glyph-name="bracketright" unicode="]" horiz-adv-x="297" 
d="M102 -21l149 844h-135l14 78h213l-177 -1000h-212l14 78h134z" />
    <glyph glyph-name="asciicircum" unicode="^" horiz-adv-x="434" 
d="M203 821h66l122 -196h-89l-79 121l-130 -121h-87z" />
    <glyph glyph-name="underscore" unicode="_" horiz-adv-x="577" 
d="M514 -57h-462l9 47h462z" />
    <glyph glyph-name="grave" unicode="`" horiz-adv-x="240" 
d="M36 817h109l38 -142h-79z" />
    <glyph glyph-name="a" unicode="a" horiz-adv-x="474" 
d="M117 206h167l-8 439q-61 -167 -159 -439zM377 0h-87l-10 135h-185l-56 -135h-86l309 817h89z" />
    <glyph glyph-name="b" unicode="b" horiz-adv-x="496" 
d="M-26 0l144 817h191q74 0 116 -53.5t29 -129.5l-18 -103q-13 -71 -86 -125q39 -28 56 -70.5t9 -89.5l-9 -48q-14 -83 -80.5 -140.5t-147.5 -57.5h-204zM242 361h-128l-50 -284h128q47 0 86.5 30t46.5 72l12 67q8 47 -20 81t-75 34zM295 740h-114l-55 -309h114
q40 0 75.5 30t42.5 70l22 122q6 35 -19.5 61t-65.5 26z" />
    <glyph glyph-name="c" unicode="c" horiz-adv-x="480" 
d="M182 -7q-82 0 -133.5 51t-39.5 123l83 476q13 71 83 122.5t152 51.5q76 0 121 -51t32 -123l-9 -54h-78l9 54q7 39 -19 68t-69 29q-50 0 -93.5 -29t-50.5 -68l-83 -476q-7 -39 25.5 -68t82.5 -29q43 0 79.5 29t44.5 68l10 58h78l-10 -58q-13 -72 -76 -123t-139 -51z" />
    <glyph glyph-name="d" unicode="d" horiz-adv-x="438" 
d="M279 742h-97l-117 -667h97q38 0 71.5 26t40.5 64l85 487q7 38 -17 64t-63 26zM148 0h-173l144 817h174q70 0 113 -47.5t31 -117.5l-85 -487q-12 -70 -73 -117.5t-131 -47.5z" />
    <glyph glyph-name="e" unicode="e" horiz-adv-x="404" 
d="M129 817h314l-14 -77h-237l-40 -228h210l-13 -70h-210l-64 -365h237l-14 -77h-313z" />
    <glyph glyph-name="f" unicode="f" horiz-adv-x="377" 
d="M124 352h210l-13 -70h-210l-50 -282h-76l144 817h314l-14 -77h-237z" />
    <glyph glyph-name="g" unicode="g" horiz-adv-x="489" 
d="M182 -7q-81 0 -134 48t-41 117l86 487q13 71 82.5 121.5t151.5 50.5q75 0 121 -50.5t33 -121.5l-21 -118h-77l21 118q7 38 -20 66.5t-70 28.5q-50 0 -93 -28.5t-50 -66.5l-86 -487q-7 -38 26.5 -64t83.5 -26q42 0 79 26t44 64l22 127h-102l13 69h179l-35 -196
q-13 -69 -76.5 -117t-136.5 -48z" />
    <glyph glyph-name="h" unicode="h" horiz-adv-x="450" 
d="M473 817l-145 -817h-78l64 362h-197l-64 -362h-77l144 817h78l-68 -385h197l68 385h78z" />
    <glyph glyph-name="i" unicode="i" horiz-adv-x="198" 
d="M209 817l-145 -817h-79l144 817h80z" />
    <glyph glyph-name="j" unicode="j" horiz-adv-x="291" 
d="M-2 0h-63l13 71q83 -1 124 18.5t48 63.5l118 664h77l-118 -664q-13 -75 -68.5 -114t-130.5 -39z" />
    <glyph glyph-name="k" unicode="k" horiz-adv-x="502" 
d="M119 367l-65 -367h-76l144 817h77l-59 -332q213 232 306 332h96l-291 -317l126 -500h-79l-114 434z" />
    <glyph glyph-name="l" unicode="l" horiz-adv-x="341" 
d="M258 77l-14 -77h-266l144 817h77l-131 -740h190z" />
    <glyph glyph-name="m" unicode="m" horiz-adv-x="606" 
d="M493 501l-215 -501h-86l-48 505l-90 -505h-76l144 817h85l52 -681l295 681h73l-145 -817h-78z" />
    <glyph glyph-name="n" unicode="n" horiz-adv-x="479" 
d="M162 606l-107 -606h-76l144 817h85l109 -590l105 590h77l-145 -817h-70z" />
    <glyph glyph-name="o" unicode="o" 
d="M187 69q51 0 92 26t48 64l87 493q7 38 -25.5 64t-82.5 26t-91.5 -26t-48.5 -64l-87 -493q-7 -38 25.5 -64t82.5 -26zM491 652l-87 -493q-13 -70 -81 -117.5t-149 -47.5q-80 0 -132 48t-40 117l87 493q13 69 81.5 117t148.5 48q82 0 133.5 -48t38.5 -117z" />
    <glyph glyph-name="p" unicode="p" horiz-adv-x="423" 
d="M446 643l-36 -202q-13 -72 -72.5 -122.5t-131.5 -50.5h-96l-48 -268h-77l144 817h174q71 0 113.5 -51t29.5 -123zM289 740h-96l-70 -395h96q39 0 72.5 28.5t40.5 67.5l36 202q7 39 -16.5 68t-62.5 29z" />
    <glyph glyph-name="q" unicode="q" horiz-adv-x="486" 
d="M276 -92h-71l-6 86h-23q-82 0 -133 47t-39 117l86 493q13 70 81 117.5t150 47.5q83 0 133.5 -47.5t37.5 -117.5l-86 -493q-18 -99 -134 -141zM188 186h70l8 -98q55 28 63 70l86 493q7 37 -26 63.5t-82 26.5t-91 -26t-49 -64l-86 -493q-7 -38 23.5 -63.5t91.5 -26.5z" />
    <glyph glyph-name="r" unicode="r" horiz-adv-x="464" 
d="M112 281l-50 -281h-77l144 817h174q72 0 114.5 -51t29.5 -123l-36 -202q-12 -68 -86 -122q62 -53 48 -132l-33 -187h-78l33 187q7 38 -17.5 66t-64.5 28h-101zM289 740h-96l-69 -389h100q38 0 70 27t38 63l36 202q7 41 -16 69t-63 28z" />
    <glyph glyph-name="s" unicode="s" horiz-adv-x="451" 
d="M161 643l-21 -120q-6 -36 21 -59t72 -25q72 -6 118.5 -47.5t35.5 -104.5l-20 -117q-13 -72 -76 -123t-138 -51q-76 0 -120.5 51t-32.5 123l14 79h77l-14 -79q-7 -39 20 -68t70 -29q44 0 79.5 29t42.5 68l20 117q7 34 -21 55.5t-72 21.5q-74 0 -120 46t-34 113l21 120
q13 72 76 123t139 51t120.5 -51t31.5 -123l-14 -82h-77l14 82q7 40 -19.5 68.5t-69.5 28.5q-44 0 -80 -29t-43 -68z" />
    <glyph glyph-name="t" unicode="t" horiz-adv-x="431" 
d="M313 740l-131 -740h-77l131 740h-140l14 77h354l-14 -77h-137z" />
    <glyph glyph-name="u" unicode="u" horiz-adv-x="467" 
d="M173 72q42 0 78 28t43 66l115 651h78l-115 -651q-12 -70 -75 -120.5t-138 -50.5q-74 0 -118 50t-33 121l115 651h77l-115 -651q-7 -38 19.5 -66t68.5 -28z" />
    <glyph glyph-name="v" unicode="v" horiz-adv-x="475" 
d="M98 817h79l12 -687l253 687h79l-292 -817h-126z" />
    <glyph glyph-name="w" unicode="w" horiz-adv-x="673" 
d="M363 563l-194 -563h-84l24 817h79l-12 -562l194 562h77l-6 -562l188 562h79l-266 -817h-84z" />
    <glyph glyph-name="x" unicode="x" horiz-adv-x="558" 
d="M323 397l118 -397h-85l-93 320q-39 -65 -110 -171.5t-97 -148.5h-84l258 396q-20 73 -60 223t-53 198h86l87 -341q201 328 209 341h86q-213 -344 -262 -420z" />
    <glyph glyph-name="y" unicode="y" horiz-adv-x="506" 
d="M218 0h-77l70 394q-18 62 -59 208.5t-61 214.5h86l92 -317q32 50 101.5 157.5t102.5 159.5h86l-271 -423z" />
    <glyph glyph-name="z" unicode="z" horiz-adv-x="498" 
d="M84 77h313l-14 -77h-401l14 77l420 663h-317l14 77h409l-14 -77z" />
    <glyph glyph-name="braceleft" unicode="{" horiz-adv-x="310" 
d="M208 -29l-12 -67q-39 -3 -66 -3q-59 0 -85.5 31t-16.5 89l55 311q4 24 -10.5 33.5t-52.5 9.5l14 78q38 0 56 9.5t22 33.5l40 228q5 30 8 44.5t10.5 39.5t18 38.5t26 28t39 21t53.5 6.5h65l-13 -71h-34q-30 0 -43.5 -1.5t-26.5 -11t-16 -29.5q-4 -22 -51 -301
q-9 -51 -50 -74q20 -13 24.5 -31.5t-0.5 -42.5l-58 -328q-5 -28 8 -34.5t55 -6.5h3h38z" />
    <glyph glyph-name="bar" unicode="|" horiz-adv-x="169" 
d="M201 890l-173 -980h-69l172 980h70z" />
    <glyph glyph-name="braceright" unicode="}" horiz-adv-x="310" 
d="M-62 -96l12 67h38q24 0 33 0.5t21 4t17 12.5t8 24l57 322q5 30 14 48t30 32q-27 24 -16 80q9 52 27.5 149t26.5 146q2 12 -0.5 20.5t-7.5 12.5t-16.5 6t-20 2.5t-27.5 0.5h-34l13 71h65q36 0 58.5 -11t32.5 -25.5t11 -42.5t-1.5 -46.5t-9.5 -52.5l-40 -228
q-4 -24 11 -33.5t53 -9.5l-14 -78q-38 0 -56.5 -9.5t-22.5 -33.5l-55 -311q-10 -58 -47.5 -89t-96.5 -31q-24 0 -63 3z" />
    <glyph glyph-name="asciitilde" unicode="~" horiz-adv-x="403" 
d="M240 341q-25 1 -63.5 18.5t-54.5 17.5q-21 0 -77 -46l-40 55q46 39 77.5 57t67.5 18q23 0 60 -18t58 -18q22 0 74 45l43 -52q-47 -40 -78 -58.5t-67 -18.5z" />
    <glyph glyph-name="exclamdown" unicode="&#xa1;" horiz-adv-x="184" 
d="M206 617l-16 -90h-84l16 90h84zM170 454l-105 -654h-91l126 654h70z" />
    <glyph glyph-name="cent" unicode="&#xa2;" horiz-adv-x="366" 
d="M55 82h-69l56 106q-41 54 -31 112l34 189q12 68 68 116t124 48q31 0 54 -6q1 2 2.5 5.5t7 13.5t13.5 25h70l-43 -80q22 -21 29 -50t5 -49t-10 -67h-64l4 23q8 49 -1 77l-187 -336q18 -10 40 -10q40 0 75.5 30.5t42.5 70.5l9 48h64l-9 -48q-12 -68 -68.5 -116t-124.5 -48
q-31 0 -58 8q-6 -9 -33 -62zM84 270l176 316q-17 4 -34 4q-39 0 -74.5 -30.5t-42.5 -70.5q-28 -155 -31.5 -184.5t6.5 -34.5z" />
    <glyph glyph-name="sterling" unicode="&#xa3;" horiz-adv-x="406" 
d="M50 378h-44l12 71h44l34 189q12 72 72 123t132 51t114 -51t30 -123l-10 -54h-78l10 54q7 39 -16.5 68t-62.5 29q-38 0 -72 -29.5t-41 -67.5l-34 -189h185l-12 -71h-185l-51 -285q43 7 88 -12.5t60 -19.5q26 0 74 31l41 -48q-44 -35 -67.5 -46.5t-60.5 -11.5q-25 0 -65 18
t-63 18t-77 -46l-45 60q3 3 17 14.5t16 13.5z" />
    <glyph glyph-name="currency" unicode="&#xa4;" horiz-adv-x="405" 
d="M43 204h-78l91 118q-21 46 -11 97q8 53 46 97q-1 2 -3.5 8t-15 35t-31.5 75h78l31 -69q46 17 80 17q39 0 73 -19l56 71h81l-94 -119q22 -43 13 -96q-10 -54 -47 -97q34 -73 53 -118h-79l-32 68q-39 -16 -81 -16t-74 16zM218 513q-35 0 -65 -29t-36 -65q-7 -36 12.5 -65
t55.5 -29t65.5 28.5t36.5 65.5q6 36 -13.5 65t-55.5 29z" />
    <glyph glyph-name="yen" unicode="&#xa5;" horiz-adv-x="506" 
d="M219 0h-78l41 228h-115l13 78h115l13 73h-115l14 78h78l-94 360h86l89 -330q160 256 207 330h86l-223 -360h79l-14 -78h-115l-13 -73h115l-13 -78h-115z" />
    <glyph glyph-name="brokenbar" unicode="&#xa6;" horiz-adv-x="193" 
d="M217 890l-68 -386h-70l68 386h70zM112 296l-68 -386h-69l67 386h70z" />
    <glyph glyph-name="section" unicode="&#xa7;" horiz-adv-x="369" 
d="M348 411l-9 -51q-10 -57 -63 -97q40 -36 30 -91l-17 -99q-11 -59 -67 -98t-116 -39t-101.5 39t-30.5 98l11 67h71l-11 -67q-6 -30 17 -50t56 -20q32 0 62 20t36 50l17 99q4 22 -20.5 35t-58.5 13q-71 0 -107 40.5t-23 110.5q12 87 66 131q-35 38 -26 91l18 101
q11 60 66.5 99.5t116.5 39.5t102.5 -39t30.5 -100l-12 -70h-72l12 70q6 32 -17 52t-56 20t-63 -20.5t-36 -51.5l-18 -101q-4 -22 20 -34.5t58 -12.5q58 0 101.5 -38.5t32.5 -96.5zM103 406l-9 -53q-5 -27 20 -46.5t54 -19.5q33 0 62.5 20.5t35.5 52.5l9 51q6 30 -18.5 49.5
t-55.5 19.5q-34 0 -63 -21t-35 -53z" />
    <glyph glyph-name="dieresis" unicode="&#xa8;" horiz-adv-x="305" 
d="M135 816l-15 -83h-64l15 83h64zM248 816l-15 -83h-64l15 83h64z" />
    <glyph glyph-name="copyright" unicode="&#xa9;" horiz-adv-x="866" 
d="M29 394q29 167 168.5 285.5t306.5 118.5t264.5 -118.5t68.5 -285.5q-30 -167 -169.5 -285.5t-306.5 -118.5t-264 118.5t-68 285.5zM75 394q-26 -149 60 -253.5t234 -104.5q149 0 272.5 105t149.5 253q26 149 -60.5 253.5t-234.5 104.5q-149 0 -272.5 -105t-148.5 -253z
M391 139q68 0 124.5 48.5t67.5 115.5l9 48h-64l-9 -48q-7 -41 -41 -71t-76 -30q-48 0 -79 30.5t-24 70.5l31 176q8 41 49 71t89 30q42 0 66 -30t16 -71l-7 -44h64l7 44q12 67 -27.5 115.5t-107.5 48.5q-74 0 -137.5 -48.5t-75.5 -115.5l-31 -176q-11 -67 35.5 -115.5
t120.5 -48.5z" />
    <glyph glyph-name="guillemotleft" unicode="&#xab;" horiz-adv-x="483" 
d="M218 201l-17 -101l-168 228l11 65l248 228l-17 -101l-169 -160q106 -150 112 -159zM415 201l-17 -101l-168 228l11 65l248 228l-17 -101l-169 -160q106 -150 112 -159z" />
    <glyph glyph-name="logicalnot" unicode="&#xac;" horiz-adv-x="471" 
d="M439 444l-31 -181h-78l18 103h-300l13 78h378z" />
    <glyph glyph-name="registered" unicode="&#xae;" horiz-adv-x="866" 
d="M316 127l32 177h60q39 0 63.5 -27.5t17.5 -64.5l-15 -85h74l15 85q7 36 -4.5 71.5t-38.5 60.5q69 55 81 122l5 25q12 70 -29.5 119.5t-111.5 49.5h-129l-94 -533h74zM398 587h55q40 0 62.5 -27.5t15.5 -68.5l-5 -25q-7 -38 -38.5 -66.5t-69.5 -28.5h-59zM29 394
q29 167 168.5 285.5t306.5 118.5t264.5 -118.5t68.5 -285.5q-30 -167 -169.5 -285.5t-306.5 -118.5t-264 118.5t-68 285.5zM75 394q-26 -149 60 -253.5t234 -104.5q149 0 272.5 105t149.5 253q26 149 -60.5 253.5t-234.5 104.5q-149 0 -272.5 -105t-148.5 -253z" />
    <glyph glyph-name="degree" unicode="&#xb0;" horiz-adv-x="289" 
d="M248 712q-7 -44 -43 -74t-80 -30q-45 0 -69.5 29.5t-16.5 74.5t43.5 75t79.5 30t69 -31t17 -74zM199 712q4 22 -9.5 39t-36.5 17q-22 0 -41 -16.5t-24 -39.5q-4 -22 10 -38.5t36 -16.5t41.5 16.5t23.5 38.5z" />
    <glyph glyph-name="plusminus" unicode="&#xb1;" horiz-adv-x="443" 
d="M434 431l-12 -71h-153l-28 -154h-71l28 154h-154l12 71h154l27 152h71l-27 -152h153zM357 0h-375l13 72h375z" />
    <glyph glyph-name="twosuperior" unicode="&#xb2;" horiz-adv-x="440" 
d="M196 697l-15 -85h-62l15 85q8 45 46 76t83 31q43 0 70 -32t19 -75l-17 -99q-7 -37 -26.5 -66t-36.5 -41.5t-47 -29.5q-79 -45 -87 -102h164l-11 -61h-234l7 38q10 57 33 94t75 68q32 19 48.5 29.5t33 29.5t19.5 39l17 101q2 18 -9.5 32t-28.5 14q-18 0 -35.5 -14.5
t-20.5 -31.5z" />
    <glyph glyph-name="threesuperior" unicode="&#xb3;" horiz-adv-x="429" 
d="M179 519h-38l11 62h53q57 2 64 40l13 75q3 18 -9 32t-31 14t-37 -14t-21 -32l-15 -84h-62l15 84q8 46 47 77t84 31t72 -31t19 -77l-13 -75q-8 -42 -39 -71q22 -26 14 -69l-13 -75q-8 -46 -46 -77t-83 -31t-73 31t-20 77l14 82h62l-14 -82q-3 -20 10 -33t32 -13t35.5 13
t20.5 33l13 75q1 18 -10 27t-23 10.5t-32 0.5z" />
    <glyph glyph-name="acute" unicode="&#xb4;" horiz-adv-x="240" 
d="M109 817h109l-118 -142h-79z" />
    <glyph glyph-name="mu" unicode="&#xb5;" horiz-adv-x="436" 
d="M452 569l-101 -569h-77l6 33q-16 -15 -45 -24t-56 -9q-47 0 -91 23l-29 -166h-76l125 712h77l-70 -398q-7 -38 16.5 -66t61.5 -28q37 0 69 26t41 64l71 402h78z" />
    <glyph glyph-name="mu" unicode="&#x3bc;" horiz-adv-x="436" 
d="M452 569l-101 -569h-77l6 33q-16 -15 -45 -24t-56 -9q-47 0 -91 23l-29 -166h-76l125 712h77l-70 -398q-7 -38 16.5 -66t61.5 -28q37 0 69 26t41 64l71 402h78z" />
    <glyph glyph-name="paragraph" unicode="&#xb6;" horiz-adv-x="556" 
d="M595 714l-13 -77h-71l-138 -781h-77l138 781h-138l-138 -781h-77l100 567q-52 7 -78.5 48t-17.5 97q11 62 61 104t111 42h338z" />
    <glyph glyph-name="periodcentered" unicode="&#xb7;" horiz-adv-x="192" 
d="M145 445l-19 -106h-84l19 106h84z" />
    <glyph glyph-name="cedilla" unicode="&#xb8;" horiz-adv-x="146" 
d="M46 17h37l-6 -32q29 3 46 -11t11 -46q-6 -30 -28.5 -45t-52.5 -15q-25 0 -53 13l23 35q20 -11 36 -11q32 0 36 25q3 19 -21.5 23t-39.5 -1z" />
    <glyph glyph-name="onesuperior" unicode="&#xb9;" horiz-adv-x="265" 
d="M134 299h-61l68 388q-9 -1 -56 -1h-24l11 63h28q52 0 54 11l8 45h61z" />
    <glyph glyph-name="guillemotright" unicode="&#xbb;" horiz-adv-x="483" 
d="M-6 100l16 101q19 19 168 159l-111 160l17 101l168 -228l-11 -65zM190 100l17 101q19 19 168 159l-111 160l17 101l168 -228l-11 -65z" />
    <glyph glyph-name="onequarter" unicode="&#xbc;" horiz-adv-x="661" 
d="M494 100l-17 -100h-61l17 100h-163l10 56l220 350h66l-61 -345h33l-11 -61h-33zM444 161l37 210q-105 -167 -129 -210h92zM169 299h-61l69 388q-10 -1 -56 -1h-24l11 63h27q52 0 55 11l8 45h61zM27 -13l663 842h-59l-661 -842h57z" />
    <glyph glyph-name="onehalf" unicode="&#xbd;" horiz-adv-x="680" 
d="M171 299h-61l69 388q-9 -1 -56 -1h-24l11 63h28q51 0 54 11l8 45h61zM692 829l-663 -842h-57l661 842h59zM486 399l-15 -85h-62l15 85q7 44 45.5 75.5t83.5 31.5q43 0 70 -32t19 -75l-18 -99q-7 -37 -26 -65.5t-36.5 -41.5t-47.5 -30q-78 -45 -87 -102h164l-10 -61h-234
l6 38q10 58 33.5 94.5t75.5 67.5q32 19 48.5 29.5t33 29.5t19.5 39l17 101q2 18 -9.5 32t-28.5 14q-18 0 -35.5 -14.5t-20.5 -31.5z" />
    <glyph glyph-name="threequarters" unicode="&#xbe;" horiz-adv-x="689" 
d="M715 829l-663 -842h-57l661 842h59zM139 532h-38l11 62h53q58 2 64 40l14 75q3 18 -9 32t-31 14t-37 -14t-21 -32l-15 -84h-62l15 84q8 46 47 77t84 31t72 -31t19 -77l-14 -75q-7 -42 -38 -71q21 -25 14 -69l-14 -75q-7 -46 -45.5 -77t-83.5 -31t-72.5 31t-20.5 77l15 82
h62l-15 -82q-2 -20 10.5 -33t31.5 -13t36 13t20 33l14 75q0 18 -10.5 27t-23 10.5t-32.5 0.5zM519 100l-17 -100h-61l17 100h-163l10 56l220 350h66l-61 -345h33l-11 -61h-33zM469 161l37 210q-105 -167 -129 -210h92z" />
    <glyph glyph-name="questiondown" unicode="&#xbf;" horiz-adv-x="387" 
d="M-9 -25l17 101q8 44 33.5 81t57.5 63.5t64 52t57 58.5t32 72l9 51h72l-9 -51q-7 -37 -33 -75.5t-59 -69.5t-65.5 -60.5t-57 -58.5t-28.5 -54l-19 -110q-7 -38 14.5 -67.5t56.5 -29.5q41 0 74 28t40 69l15 82h77l-15 -82q-13 -72 -73 -123t-132 -51q-66 0 -103.5 51
t-24.5 123zM270 529l16 89h83l-16 -89h-83z" />
    <glyph glyph-name="Agrave" unicode="&#xc0;" horiz-adv-x="465" 
d="M120 286h147l-12 359q-64 -166 -135 -359zM356 0h-80l-9 215h-173l-83 -215h-79l308 817h89zM187 1002h109l38 -142h-79z" />
    <glyph glyph-name="Aacute" unicode="&#xc1;" horiz-adv-x="465" 
d="M120 286h147l-12 359q-64 -166 -135 -359zM356 0h-80l-9 215h-173l-83 -215h-79l308 817h89zM342 1003h109l-118 -142h-79z" />
    <glyph glyph-name="Acircumflex" unicode="&#xc2;" horiz-adv-x="465" 
d="M270 286h-147q125 331 136 359zM280 0h80l-27 817h-89l-308 -817h79l83 215h173zM345 959l62 -99h-57l-40 55l-59 -55h-60l101 99h53z" />
    <glyph glyph-name="Atilde" unicode="&#xc3;" horiz-adv-x="465" 
d="M124 286h147l-12 359q-64 -166 -135 -359zM360 0h-80l-9 215h-173l-83 -215h-79l308 817h89zM349 874q-13 0 -47.5 12.5t-45.5 12.5q-9 0 -18.5 -4t-14 -7.5t-13 -11.5t-10.5 -10l-21 36q51 49 80 49q17 0 49 -12.5t57 -12.5q22 0 48 30l23 -39q-38 -43 -87 -43z" />
    <glyph glyph-name="Adieresis" unicode="&#xc4;" horiz-adv-x="465" 
d="M124 286h147l-11 359q-11 -28 -136 -359zM361 0h-80l-9 215h-173l-83 -215h-79l308 817h89zM291 949l-14 -83h-64l14 83h64zM404 949l-14 -83h-64l14 83h64z" />
    <glyph glyph-name="Aring" unicode="&#xc5;" horiz-adv-x="465" 
d="M119 286h147l-12 359q-25 -64 -70 -185.5t-65 -173.5zM355 0h-80l-9 215h-173l-83 -215h-79l308 817h89zM383 935q-5 -32 -31 -54t-58 -22q-33 0 -51 21.5t-12 54.5q6 32 32 54t58 22t50 -22.5t12 -53.5zM345 935q3 16 -6 27t-25 11t-29 -11t-16 -27q-2 -16 7 -27t25 -11
t29 11t15 27z" />
    <glyph glyph-name="AE" unicode="&#xc6;" horiz-adv-x="716" 
d="M377 582l-175 -302h122zM-54 0l482 817h316l-14 -77h-246q-33 -184 -53 -308h218l-13 -70h-218q-11 -63 -27 -148.5t-25 -136.5h247l-14 -77h-326l36 202h-154l-128 -202h-81z" />
    <glyph glyph-name="Ccedilla" unicode="&#xc7;" horiz-adv-x="480" 
d="M482 589h-78l9 54q7 39 -19 68t-69 29q-50 0 -93.5 -29t-50.5 -68l-83 -476q-7 -39 25.5 -68t82.5 -29q43 0 79.5 29t44.5 68l10 58h78l-10 -58q-12 -68 -69.5 -118t-129.5 -55l-2 -9q29 3 46 -11t11 -46q-5 -30 -27.5 -45t-52.5 -15q-25 0 -54 13l20 35q20 -11 39 -11
q13 0 24 6.5t13 17.5q3 20 -19 22.5t-43 -4.5l8 47q-75 7 -119.5 57t-32.5 116l83 476q13 71 83 122.5t152 51.5q76 0 121 -51t32 -123z" />
    <glyph glyph-name="Egrave" unicode="&#xc8;" horiz-adv-x="389" 
d="M102 817h314l-13 -77h-237l-55 -308h210l-12 -70h-210l-50 -285h237l-14 -77h-313zM180 1002h109l38 -142h-79z" />
    <glyph glyph-name="Eacute" unicode="&#xc9;" horiz-adv-x="389" 
d="M102 817h314l-13 -77h-237l-55 -308h210l-12 -70h-210l-50 -285h237l-14 -77h-313zM314 1002h109l-118 -142h-79z" />
    <glyph glyph-name="Ecircumflex" unicode="&#xca;" horiz-adv-x="389" 
d="M420 817h-314l-143 -817h313l14 77h-237l50 285h210l12 70h-210l54 308h237zM307 959l62 -99h-57l-40 55l-59 -55h-60l101 99h53z" />
    <glyph glyph-name="Edieresis" unicode="&#xcb;" horiz-adv-x="389" 
d="M107 817h314l-14 -77h-237l-54 -308h210l-12 -70h-210l-51 -285h237l-13 -77h-313zM262 949l-14 -83h-64l14 83h64zM375 949l-14 -83h-64l14 83h64z" />
    <glyph glyph-name="Igrave" unicode="&#xcc;" horiz-adv-x="198" 
d="M192 817l-144 -817h-79l143 817h80zM48 1002h109l38 -142h-79z" />
    <glyph glyph-name="Iacute" unicode="&#xcd;" horiz-adv-x="198" 
d="M192 817l-144 -817h-79l143 817h80zM207 1002h109l-118 -142h-79z" />
    <glyph glyph-name="Icircumflex" unicode="&#xce;" horiz-adv-x="198" 
d="M52 0l144 817h-80l-143 -817h79zM212 960l62 -99h-57l-40 55l-59 -55h-60l101 99h53z" />
    <glyph glyph-name="Idieresis" unicode="&#xcf;" horiz-adv-x="198" 
d="M197 817l-144 -817h-79l143 817h80zM158 950l-14 -83h-64l14 83h64zM271 950l-14 -83h-64l14 83h64z" />
    <glyph glyph-name="Eth" unicode="&#xd0;" horiz-adv-x="481" 
d="M81 360h-64l12 71h64l69 386h174q70 0 113 -47.5t31 -117.5l-85 -487q-12 -70 -73 -117.5t-131 -47.5h-174zM322 742h-97l-55 -311h121l-12 -71h-121l-50 -285h97q38 0 71.5 26t40.5 64l85 487q7 38 -17 64t-63 26z" />
    <glyph glyph-name="Ntilde" unicode="&#xd1;" horiz-adv-x="479" 
d="M151 612l-108 -612h-76l143 817h85l110 -590l104 590h77l-144 -817h-70zM356 875q-13 0 -47.5 12.5t-45.5 12.5q-9 0 -18.5 -4t-14 -7.5t-13 -11.5t-10.5 -10l-21 36q51 49 80 49q16 0 49 -12.5t58 -12.5q21 0 47 30l23 -39q-38 -43 -87 -43z" />
    <glyph glyph-name="Ograve" unicode="&#xd2;" 
d="M171 69q51 0 92 26t48 64l87 493q7 38 -25.5 64t-82.5 26t-91.5 -26t-48.5 -64l-87 -493q-7 -38 25.5 -64t82.5 -26zM475 652l-87 -493q-13 -70 -81 -117.5t-149 -47.5q-80 0 -132 48t-39 117l86 493q12 69 80.5 117t149.5 48t132.5 -47.5t39.5 -117.5zM194 1002h109
l38 -142h-79z" />
    <glyph glyph-name="Oacute" unicode="&#xd3;" 
d="M171 69q51 0 92 26t48 64l87 493q7 38 -25.5 64t-82.5 26t-91.5 -26t-48.5 -64l-87 -493q-7 -38 25.5 -64t82.5 -26zM475 652l-87 -493q-13 -70 -81 -117.5t-149 -47.5q-80 0 -132 48t-39 117l86 493q12 69 80.5 117t149.5 48t132.5 -47.5t39.5 -117.5zM355 1002h109
l-118 -142h-79z" />
    <glyph glyph-name="Ocircumflex" unicode="&#xd4;" 
d="M175 69q-50 0 -82.5 26t-25.5 64l86 493q7 38 48.5 64t91.5 26q51 0 83 -26t25 -64l-86 -493q-7 -38 -48.5 -64t-91.5 -26zM392 159l86 493q13 69 -38 117t-133 48q-80 0 -149 -48t-82 -117l-85 -493q-13 -69 38.5 -117t131.5 -48q82 0 150 48t81 117zM361 959l61 -99
h-57l-39 55l-60 -55h-60l102 99h53z" />
    <glyph glyph-name="Otilde" unicode="&#xd5;" 
d="M175 69q51 0 92 26t48 64l87 493q7 38 -25.5 64t-82.5 26t-91.5 -26t-48.5 -64l-87 -493q-7 -38 25.5 -64t82.5 -26zM479 652l-87 -493q-13 -70 -81 -117.5t-149 -47.5q-80 0 -132 48t-39 117l86 493q12 69 80.5 117t149.5 48t132.5 -47.5t39.5 -117.5zM365 874
q-13 0 -48 12.5t-46 12.5q-9 0 -18 -4t-14 -8t-13 -11t-11 -10l-20 36q42 40 62 46q9 3 17 3q16 0 48.5 -12.5t58.5 -12.5q22 0 47 30l23 -39q-38 -43 -86 -43z" />
    <glyph glyph-name="Odieresis" unicode="&#xd6;" 
d="M176 69q50 0 91 26t48 64l87 493q7 38 -25.5 64t-82.5 26t-91.5 -26t-48.5 -64l-87 -493q-7 -38 26 -64t83 -26zM479 652l-87 -493q-12 -69 -80 -117t-150 -48q-80 0 -131.5 48t-39.5 117l86 493q13 69 81.5 117t148.5 48q82 0 133.5 -48t38.5 -117zM307 949l-15 -83h-64
l15 83h64zM420 949l-15 -83h-64l15 83h64z" />
    <glyph glyph-name="multiply" unicode="&#xd7;" horiz-adv-x="408" 
d="M340 554l41 -50l-127 -108l89 -109l-60 -51l-88 109l-129 -109l-42 51l129 109l-88 107l58 50l89 -107z" />
    <glyph glyph-name="Oslash" unicode="&#xd8;" 
d="M491 652l-87 -493q-13 -70 -81 -117.5t-149 -47.5q-88 0 -139 54l-39 -61h-57l68 106q-11 31 -5 66l87 493q12 69 80.5 117t149.5 48q78 0 128 -44l36 56h58l-62 -96q19 -38 12 -81zM187 69q50 0 91.5 26t48.5 64l82 467l-314 -495q2 -27 28.5 -44.5t63.5 -17.5zM305 742
q-50 0 -91 -26t-48 -64l-76 -430l301 474q-4 20 -29.5 33t-56.5 13z" />
    <glyph glyph-name="Ugrave" unicode="&#xd9;" horiz-adv-x="467" 
d="M156 72q42 0 78.5 28t43.5 66l115 651h78l-115 -651q-13 -70 -75.5 -120.5t-137.5 -50.5q-74 0 -118.5 50.5t-31.5 120.5l114 651h77l-115 -651q-7 -38 19 -66t68 -28zM185 1003h109l38 -142h-79z" />
    <glyph glyph-name="Uacute" unicode="&#xda;" horiz-adv-x="467" 
d="M156 72q42 0 78.5 28t43.5 66l115 651h78l-115 -651q-13 -70 -75.5 -120.5t-137.5 -50.5q-74 0 -118.5 50.5t-31.5 120.5l114 651h77l-115 -651q-7 -38 19 -66t68 -28zM341 1002h109l-118 -142h-79z" />
    <glyph glyph-name="Ucircumflex" unicode="&#xdb;" horiz-adv-x="467" 
d="M160 72q-42 0 -68 28t-19 66l114 651h-77l-113 -651q-13 -70 31.5 -120.5t118.5 -50.5q75 0 137.5 50.5t75.5 120.5l114 651h-78l-114 -651q-7 -38 -43.5 -66t-78.5 -28zM346 959l62 -99h-57l-39 55l-60 -55h-60l101 99h53z" />
    <glyph glyph-name="Udieresis" unicode="&#xdc;" horiz-adv-x="467" 
d="M161 72q42 0 78.5 28t43.5 66l114 651h78l-114 -651q-13 -70 -76 -120.5t-138 -50.5q-74 0 -118 50t-31 121l113 651h77l-114 -651q-7 -38 19 -66t68 -28zM293 949l-15 -83h-64l15 83h64zM406 949l-15 -83h-64l15 83h64z" />
    <glyph glyph-name="Yacute" unicode="&#xdd;" horiz-adv-x="506" 
d="M202 0h-77l70 394q-17 60 -59 207t-62 216h86l92 -317q20 31 94 145t110 172h86l-270 -423zM362 1002h109l-118 -142h-79z" />
    <glyph glyph-name="Thorn" unicode="&#xde;" horiz-adv-x="413" 
d="M255 549h-96l-55 -314h96q39 0 72.5 27.5t40.5 67.5l21 123q7 39 -16.5 67.5t-62.5 28.5zM186 157h-96l-28 -157h-77l144 817h78l-34 -190h96q71 0 113.5 -51.5t29.5 -122.5l-21 -123q-13 -72 -73 -122.5t-132 -50.5z" />
    <glyph glyph-name="germandbls" unicode="&#xdf;" horiz-adv-x="883" 
d="M167 643l-21 -120q-6 -36 21.5 -59t71.5 -25q72 -6 118.5 -47.5t35.5 -104.5l-20 -117q-13 -72 -76 -123t-138 -51q-76 0 -120.5 51t-32.5 123l14 79h77l-14 -79q-7 -39 20 -68t70 -29q44 0 79.5 28.5t42.5 68.5l20 117q7 34 -21 55.5t-72 21.5q-74 0 -120 46t-34 113
l21 120q13 72 76 123t139 51t120.5 -51t31.5 -123l-14 -82h-77l14 82q7 40 -19.5 68.5t-69.5 28.5q-44 0 -80 -29t-43 -68zM589 643l-21 -120q-6 -36 21 -59t72 -25q72 -6 118.5 -47.5t35.5 -104.5l-20 -117q-13 -72 -76 -123t-138 -51q-76 0 -121 51t-32 123l14 79h77
l-14 -79q-7 -39 20 -68t70 -29q44 0 79.5 29t42.5 68l20 117q7 33 -21 55t-72 22q-74 0 -120 46t-34 113l21 120q13 72 76 123t139 51t120.5 -51t31.5 -123l-14 -82h-77l14 82q7 40 -19.5 68.5t-69.5 28.5q-45 0 -80.5 -28.5t-42.5 -68.5z" />
    <glyph glyph-name="agrave" unicode="&#xe0;" horiz-adv-x="474" 
d="M100 206h167l-7 439q-30 -81 -87.5 -239t-72.5 -200zM361 0h-87l-10 135h-185l-56 -135h-86l308 817h89zM188 1002h109l38 -142h-79z" />
    <glyph glyph-name="aacute" unicode="&#xe1;" horiz-adv-x="474" 
d="M100 206h167l-7 439q-30 -81 -87.5 -239t-72.5 -200zM361 0h-87l-10 135h-185l-56 -135h-86l308 817h89zM345 1002h109l-118 -142h-79z" />
    <glyph glyph-name="acircumflex" unicode="&#xe2;" horiz-adv-x="474" 
d="M271 206h-167q15 42 72.5 200t87.5 239zM278 0h87l-27 817h-89l-308 -817h86l56 135h185zM347 959l62 -99h-57l-40 55l-59 -55h-60l101 99h53z" />
    <glyph glyph-name="atilde" unicode="&#xe3;" horiz-adv-x="474" 
d="M105 206h167l-8 439q-32 -86 -159 -439zM365 0h-87l-10 135h-185l-56 -135h-86l308 817h89zM353 874q-13 0 -47.5 12.5t-45.5 12.5q-9 0 -18.5 -4t-14 -7.5t-13 -11.5t-10.5 -10l-21 36q51 49 80 49q17 0 49 -12.5t57 -12.5q22 0 48 30l23 -39q-38 -43 -87 -43z" />
    <glyph glyph-name="adieresis" unicode="&#xe4;" horiz-adv-x="474" 
d="M105 206h167l-7 439q-30 -81 -87.5 -239t-72.5 -200zM366 0h-87l-10 135h-185l-56 -135h-86l308 817h89zM295 949l-14 -83h-64l14 83h64zM408 949l-14 -83h-64l14 83h64z" />
    <glyph glyph-name="aring" unicode="&#xe5;" horiz-adv-x="474" 
d="M100 206h167l-8 439q-61 -167 -159 -439zM360 0h-87l-10 135h-185l-56 -135h-86l308 817h89zM388 936q-5 -32 -31 -54t-58 -22q-33 0 -50.5 21.5t-12.5 54.5q6 32 32 54t58 22t50 -22.5t12 -53.5zM350 936q3 16 -6 27t-25 11t-29 -11t-16 -27q-2 -16 7 -27t25 -11t29 11
t15 27z" />
    <glyph glyph-name="ae" unicode="&#xe6;" horiz-adv-x="716" 
d="M377 582l-175 -302h122zM-54 0l482 817h316l-14 -77h-246q-33 -184 -53 -308h218l-13 -70h-218q-11 -63 -27 -148.5t-25 -136.5h247l-14 -77h-326l36 202h-154l-128 -202h-81z" />
    <glyph glyph-name="ccedilla" unicode="&#xe7;" horiz-adv-x="480" 
d="M482 589h-78l9 54q7 39 -19 68t-69 29q-50 0 -93.5 -29t-50.5 -68l-83 -476q-7 -39 25.5 -68t82.5 -29q43 0 79.5 29t44.5 68l10 58h78l-10 -58q-12 -68 -69.5 -118t-129.5 -55l-2 -9q29 3 46 -11t11 -46q-5 -30 -27.5 -45t-52.5 -15q-25 0 -54 13l20 35q20 -11 39 -11
q13 0 24 6.5t13 17.5q3 20 -19 22.5t-43 -4.5l8 47q-75 7 -119.5 57t-32.5 116l83 476q13 71 83 122.5t152 51.5q76 0 121 -51t32 -123z" />
    <glyph glyph-name="egrave" unicode="&#xe8;" horiz-adv-x="404" 
d="M112 817h314l-13 -77h-237l-41 -228h210l-12 -70h-210l-64 -365h237l-14 -77h-313zM185 1002h109l38 -142h-79z" />
    <glyph glyph-name="eacute" unicode="&#xe9;" horiz-adv-x="404" 
d="M112 817h314l-13 -77h-237l-41 -228h210l-12 -70h-210l-64 -365h237l-14 -77h-313zM312 1003h109l-118 -142h-79z" />
    <glyph glyph-name="ecircumflex" unicode="&#xea;" horiz-adv-x="404" 
d="M430 817h-314l-143 -817h313l14 77h-237l64 365h210l12 70h-210l40 228h237zM331 959l62 -99h-57l-40 55l-59 -55h-60l101 99h53z" />
    <glyph glyph-name="edieresis" unicode="&#xeb;" horiz-adv-x="404" 
d="M117 817h314l-14 -77h-237l-40 -228h210l-12 -70h-210l-65 -365h237l-13 -77h-313zM275 949l-14 -83h-64l14 83h64zM388 949l-14 -83h-64l14 83h64z" />
    <glyph glyph-name="igrave" unicode="&#xec;" horiz-adv-x="198" 
d="M192 817l-144 -817h-79l143 817h80zM48 1002h109l38 -142h-79z" />
    <glyph glyph-name="iacute" unicode="&#xed;" horiz-adv-x="198" 
d="M192 817l-144 -817h-79l143 817h80zM207 1002h109l-118 -142h-79z" />
    <glyph glyph-name="icircumflex" unicode="&#xee;" horiz-adv-x="198" 
d="M52 0l144 817h-80l-143 -817h79zM212 960l62 -99h-57l-40 55l-59 -55h-60l101 99h53z" />
    <glyph glyph-name="idieresis" unicode="&#xef;" horiz-adv-x="198" 
d="M197 817l-144 -817h-79l143 817h80zM158 950l-14 -83h-64l14 83h64zM271 950l-14 -83h-64l14 83h64z" />
    <glyph glyph-name="eth" unicode="&#xf0;" horiz-adv-x="481" 
d="M81 360h-64l12 71h64l69 386h174q70 0 113 -47.5t31 -117.5l-85 -487q-12 -70 -73 -117.5t-131 -47.5h-174zM322 742h-97l-55 -311h121l-12 -71h-121l-50 -285h97q38 0 71.5 26t40.5 64l85 487q7 38 -17 64t-63 26z" />
    <glyph glyph-name="ntilde" unicode="&#xf1;" horiz-adv-x="479" 
d="M151 612l-108 -612h-76l143 817h85l110 -590l104 590h77l-144 -817h-70zM356 875q-13 0 -47.5 12.5t-45.5 12.5q-9 0 -18.5 -4t-14 -7.5t-13 -11.5t-10.5 -10l-21 36q51 49 80 49q16 0 49 -12.5t58 -12.5q21 0 47 30l23 -39q-38 -43 -87 -43z" />
    <glyph glyph-name="ograve" unicode="&#xf2;" 
d="M171 69q51 0 92 26t48 64l87 493q7 38 -25.5 64t-82.5 26t-91.5 -26t-48.5 -64l-87 -493q-7 -38 25.5 -64t82.5 -26zM475 652l-87 -493q-13 -70 -81 -117.5t-149 -47.5q-80 0 -132 48t-39 117l86 493q12 69 80.5 117t149.5 48t132.5 -47.5t39.5 -117.5zM194 1002h109
l38 -142h-79z" />
    <glyph glyph-name="oacute" unicode="&#xf3;" 
d="M171 69q51 0 92 26t48 64l87 493q7 38 -25.5 64t-82.5 26t-91.5 -26t-48.5 -64l-87 -493q-7 -38 25.5 -64t82.5 -26zM475 652l-87 -493q-13 -70 -81 -117.5t-149 -47.5q-80 0 -132 48t-39 117l86 493q12 69 80.5 117t149.5 48t132.5 -47.5t39.5 -117.5zM355 1002h109
l-118 -142h-79z" />
    <glyph glyph-name="ocircumflex" unicode="&#xf4;" 
d="M175 69q-50 0 -82.5 26t-25.5 64l86 493q7 38 48.5 64t91.5 26q51 0 83 -26t25 -64l-86 -493q-7 -38 -48.5 -64t-91.5 -26zM392 159l86 493q13 69 -38 117t-133 48q-80 0 -149 -48t-82 -117l-85 -493q-13 -69 38.5 -117t131.5 -48q82 0 150 48t81 117zM361 959l61 -99
h-57l-39 55l-60 -55h-60l102 99h53z" />
    <glyph glyph-name="otilde" unicode="&#xf5;" 
d="M175 69q51 0 92 26t48 64l87 493q7 38 -25.5 64t-82.5 26t-91.5 -26t-48.5 -64l-87 -493q-7 -38 25.5 -64t82.5 -26zM479 652l-87 -493q-13 -70 -81 -117.5t-149 -47.5q-80 0 -132 48t-39 117l86 493q12 69 80.5 117t149.5 48t132.5 -47.5t39.5 -117.5zM365 874
q-13 0 -48 12.5t-46 12.5q-9 0 -18 -4t-14 -8t-13 -11t-11 -10l-20 36q42 40 62 46q9 3 17 3q16 0 48.5 -12.5t58.5 -12.5q22 0 47 30l23 -39q-38 -43 -86 -43z" />
    <glyph glyph-name="odieresis" unicode="&#xf6;" 
d="M176 69q50 0 91 26t48 64l87 493q7 38 -25.5 64t-82.5 26t-91.5 -26t-48.5 -64l-87 -493q-7 -38 26 -64t83 -26zM479 652l-87 -493q-12 -69 -80 -117t-150 -48q-80 0 -131.5 48t-39.5 117l86 493q13 69 81.5 117t148.5 48q82 0 133.5 -48t38.5 -117zM307 949l-15 -83h-64
l15 83h64zM420 949l-15 -83h-64l15 83h64z" />
    <glyph glyph-name="divide" unicode="&#xf7;" horiz-adv-x="406" 
d="M341 360h-291l12 71h291zM223 297l-19 -106h-84l19 106h84zM277 603l-19 -106h-84l19 106h84z" />
    <glyph glyph-name="oslash" unicode="&#xf8;" 
d="M491 652l-87 -493q-13 -70 -81 -117.5t-149 -47.5q-88 0 -139 54l-39 -61h-57l68 106q-11 31 -5 66l87 493q12 69 80.5 117t149.5 48q78 0 128 -44l36 56h58l-62 -96q19 -38 12 -81zM187 69q50 0 91.5 26t48.5 64l82 467l-314 -495q2 -27 28.5 -44.5t63.5 -17.5zM305 742
q-50 0 -91 -26t-48 -64l-76 -430l301 474q-4 20 -29.5 33t-56.5 13z" />
    <glyph glyph-name="ugrave" unicode="&#xf9;" horiz-adv-x="467" 
d="M156 72q42 0 78.5 28t43.5 66l115 651h78l-115 -651q-13 -70 -75.5 -120.5t-137.5 -50.5q-74 0 -118.5 50.5t-31.5 120.5l114 651h77l-115 -651q-7 -38 19 -66t68 -28zM185 1003h109l38 -142h-79z" />
    <glyph glyph-name="uacute" unicode="&#xfa;" horiz-adv-x="467" 
d="M156 72q42 0 78.5 28t43.5 66l115 651h78l-115 -651q-13 -70 -75.5 -120.5t-137.5 -50.5q-74 0 -118.5 50.5t-31.5 120.5l114 651h77l-115 -651q-7 -38 19 -66t68 -28zM341 1002h109l-118 -142h-79z" />
    <glyph glyph-name="ucircumflex" unicode="&#xfb;" horiz-adv-x="467" 
d="M160 72q-42 0 -68 28t-19 66l114 651h-77l-113 -651q-13 -70 31.5 -120.5t118.5 -50.5q75 0 137.5 50.5t75.5 120.5l114 651h-78l-114 -651q-7 -38 -43.5 -66t-78.5 -28zM346 959l62 -99h-57l-39 55l-60 -55h-60l101 99h53z" />
    <glyph glyph-name="udieresis" unicode="&#xfc;" horiz-adv-x="467" 
d="M161 72q42 0 78.5 28t43.5 66l114 651h78l-114 -651q-13 -70 -76 -120.5t-138 -50.5q-74 0 -118 50t-31 121l113 651h77l-114 -651q-7 -38 19 -66t68 -28zM293 949l-15 -83h-64l15 83h64zM406 949l-15 -83h-64l15 83h64z" />
    <glyph glyph-name="yacute" unicode="&#xfd;" horiz-adv-x="506" 
d="M202 0h-77l70 394q-17 60 -59 207t-62 216h86l92 -317q20 31 94 145t110 172h86l-270 -423zM362 1002h109l-118 -142h-79z" />
    <glyph glyph-name="thorn" unicode="&#xfe;" horiz-adv-x="413" 
d="M255 549h-96l-55 -314h96q39 0 72.5 27.5t40.5 67.5l21 123q7 39 -16.5 67.5t-62.5 28.5zM186 157h-96l-28 -157h-77l144 817h78l-34 -190h96q71 0 113.5 -51.5t29.5 -122.5l-21 -123q-13 -72 -73 -122.5t-132 -50.5z" />
    <glyph glyph-name="ydieresis" unicode="&#xff;" horiz-adv-x="506" 
d="M207 0h-77l69 394q-18 62 -59 208.5t-61 214.5h86l92 -317q32 50 101.5 157.5t102.5 159.5h86l-271 -423zM311 950l-14 -83h-64l14 83h64zM424 950l-14 -83h-64l14 83h64z" />
    <glyph glyph-name="Lslash" unicode="&#x141;" horiz-adv-x="341" 
d="M258 77l-14 -77h-266l67 384l-71 -24l12 71l72 24l64 362h77l-59 -334l126 42l-12 -71l-127 -43l-59 -334h190z" />
    <glyph glyph-name="lslash" unicode="&#x142;" horiz-adv-x="341" 
d="M258 77l-14 -77h-266l67 384l-71 -24l12 71l72 24l64 362h77l-59 -334l126 42l-12 -71l-127 -43l-59 -334h190z" />
    <glyph glyph-name="OE" unicode="&#x152;" horiz-adv-x="717" 
d="M431 817h314l-14 -77h-237l-54 -308h210l-13 -70h-210l-50 -285h237l-14 -77h-314l5 24q-51 -24 -110 -24q-80 0 -131.5 48t-39.5 117l85 487q13 69 82 117t149 48q57 0 100 -25zM195 75q43 0 78.5 26t42.5 64l86 490q5 37 -22 62t-68 25q-50 0 -91.5 -26t-48.5 -64
l-85 -487q-7 -38 25.5 -64t82.5 -26z" />
    <glyph glyph-name="oe" unicode="&#x153;" horiz-adv-x="717" 
d="M431 817h314l-14 -77h-237l-54 -308h210l-14 -77h-210l-49 -278h237l-14 -77h-314l5 24q-51 -24 -110 -24q-80 0 -131.5 48t-39.5 117l85 487q13 69 82 117t149 48q57 0 100 -25zM195 75q43 0 78.5 26t42.5 64l86 490q5 37 -22 62t-68 25q-50 0 -91.5 -26t-48.5 -64
l-85 -487q-7 -38 25.5 -64t82.5 -26z" />
    <glyph glyph-name="Scaron" unicode="&#x160;" horiz-adv-x="451" 
d="M149 643q7 39 43 68t80 29q43 0 69.5 -28.5t19.5 -68.5l-15 -82h77l15 82q13 72 -32 123t-121 51t-138.5 -51t-75.5 -123l-21 -120q-13 -67 33 -113t120 -46q44 0 72 -21.5t22 -55.5l-21 -117q-7 -39 -42.5 -68t-79.5 -29q-43 0 -70 29t-20 68l14 79h-77l-13 -79
q-13 -72 32 -123t121 -51q75 0 137.5 51t75.5 123l21 117q11 63 -35.5 104.5t-118.5 47.5q-45 2 -72.5 25t-20.5 59zM417 959l-96 -99h-53l-67 99h60l41 -55l58 55h57z" />
    <glyph glyph-name="scaron" unicode="&#x161;" horiz-adv-x="457" 
d="M149 643q7 39 43 68t80 29q43 0 69.5 -28.5t19.5 -68.5l-15 -82h77l15 82q13 72 -32 123t-121 51t-138.5 -51t-75.5 -123l-21 -120q-13 -67 33 -113t120 -46q44 0 72 -21.5t22 -55.5l-21 -117q-7 -39 -42.5 -68t-79.5 -29q-43 0 -70 29t-20 68l14 79h-77l-13 -79
q-13 -72 32 -123t121 -51q75 0 137.5 51t75.5 123l21 117q11 63 -35.5 104.5t-118.5 47.5q-45 2 -72.5 25t-20.5 59zM420 959l-96 -99h-53l-67 99h60l41 -55l58 55h57z" />
    <glyph glyph-name="Ydieresis" unicode="&#x178;" horiz-adv-x="506" 
d="M207 0h-77l69 394q-18 62 -59 208.5t-61 214.5h86l92 -317q32 50 101.5 157.5t102.5 159.5h86l-271 -423zM311 950l-14 -83h-64l14 83h64zM424 950l-14 -83h-64l14 83h64z" />
    <glyph glyph-name="Zcaron" unicode="&#x17d;" horiz-adv-x="498" 
d="M385 77h-313l423 663l14 77h-409l-14 -77h317l-419 -663l-14 -77h401zM441 959l-96 -99h-53l-67 99h60l40 -55l59 55h57z" />
    <glyph glyph-name="zcaron" unicode="&#x17e;" horiz-adv-x="498" 
d="M385 77h-313l423 663l14 77h-409l-14 -77h317l-419 -663l-14 -77h401zM441 959l-96 -99h-53l-67 99h60l40 -55l59 55h57z" />
    <glyph glyph-name="circumflex" unicode="&#x2c6;" horiz-adv-x="274" 
d="M174 817l62 -99h-57l-40 55l-59 -55h-60l101 99h53z" />
    <glyph glyph-name="caron" unicode="&#x2c7;" horiz-adv-x="274" 
d="M253 817l-96 -99h-53l-67 99h60l41 -55l58 55h57z" />
    <glyph glyph-name="breve" unicode="&#x2d8;" horiz-adv-x="209" 
d="M21 817h45q-4 -22 7.5 -37t30.5 -15q18 0 34.5 15t20.5 37h45q-7 -41 -38.5 -69t-69.5 -28q-41 0 -62 26.5t-13 70.5z" />
    <glyph glyph-name="dotaccent" unicode="&#x2d9;" horiz-adv-x="192" 
d="M145 817l-19 -106h-84l19 106h84z" />
    <glyph glyph-name="ring" unicode="&#x2da;" horiz-adv-x="213" 
d="M182 741q-6 -32 -32 -54t-58 -22q-33 0 -50.5 21.5t-11.5 54.5q5 32 31 54t58 22q31 0 49.5 -22t13.5 -54zM144 741q2 16 -7 27t-25 11t-29 -11t-15 -27q-3 -16 6 -27t25 -11t29 11t16 27z" />
    <glyph glyph-name="ogonek" unicode="&#x2db;" horiz-adv-x="154" 
d="M77 -251h-88l121 152h51z" />
    <glyph glyph-name="tilde" unicode="&#x2dc;" horiz-adv-x="337" 
d="M209 726q-13 0 -48 12.5t-46 12.5q-9 0 -18 -4t-14 -8t-12.5 -11.5t-10.5 -9.5l-21 36q51 49 80 49q17 0 49 -12.5t57 -12.5q22 0 47 30l24 -39q-38 -43 -87 -43z" />
    <glyph glyph-name="hungarumlaut" unicode="&#x2dd;" horiz-adv-x="305" 
d="M81 700h-46l57 92h66zM203 700h-47l58 92h66z" />
    <glyph glyph-name="endash" unicode="&#x2013;" horiz-adv-x="471" 
d="M417 360h-378l13 71h378z" />
    <glyph glyph-name="emdash" unicode="&#x2014;" horiz-adv-x="591" 
d="M526 360h-476l13 71h476z" />
    <glyph glyph-name="quoteleft" unicode="&#x2018;" horiz-adv-x="213" 
d="M107 817h45l-43 -62h49l-20 -118h-94l20 118z" />
    <glyph glyph-name="quoteright" unicode="&#x2019;" horiz-adv-x="213" 
d="M106 637h-45l43 62h-49l20 118h94l-20 -118z" />
    <glyph glyph-name="quotesinglbase" unicode="&#x201a;" horiz-adv-x="211" 
d="M106 -56h-45l42 56h-49l21 118h94l-21 -118z" />
    <glyph glyph-name="quotedblleft" unicode="&#x201c;" horiz-adv-x="349" 
d="M243 817h45l-43 -62h49l-20 -118h-94l20 118zM106 817h45l-43 -62h49l-20 -118h-94l20 118z" />
    <glyph glyph-name="quotedblright" unicode="&#x201d;" horiz-adv-x="349" 
d="M105 637h-45l43 62h-49l20 118h94l-20 -118zM242 637h-45l43 62h-49l20 118h94l-20 -118z" />
    <glyph glyph-name="quotedblbase" unicode="&#x201e;" horiz-adv-x="349" 
d="M105 -56h-45l42 56h-49l21 118h94l-21 -118zM242 -56h-45l42 56h-49l21 118h94l-21 -118z" />
    <glyph glyph-name="dagger" unicode="&#x2020;" horiz-adv-x="395" 
d="M198 609h-154l13 71h154l37 210h70l-37 -210h154l-13 -71h-154l-123 -699h-70z" />
    <glyph glyph-name="daggerdbl" unicode="&#x2021;" horiz-adv-x="402" 
d="M202 609h-154l13 71h154l37 210h70l-37 -210h154l-13 -71h-154l-73 -418h154l-13 -71h-154l-37 -210h-70l37 210h-153l13 71h153z" />
    <glyph glyph-name="bullet" unicode="&#x2022;" horiz-adv-x="260" 
d="M43 394q6 35 36 60.5t65 25.5q37 0 58 -24.5t15 -61.5q-7 -37 -37 -62.5t-67 -25.5t-57 25.5t-13 62.5z" />
    <glyph glyph-name="ellipsis" unicode="&#x2026;" horiz-adv-x="576" 
d="M145 106l-19 -106h-84l19 106h84zM337 106l-19 -106h-84l19 106h84zM529 106l-19 -106h-84l19 106h84z" />
    <glyph glyph-name="perthousand" unicode="&#x2030;" horiz-adv-x="826" 
d="M27 -25l456 842h72l-456 -842h-72zM137 405q-43 0 -68.5 29t-18.5 72l32 180q7 42 43.5 71.5t78.5 29.5q41 0 67 -29.5t19 -71.5l-32 -180q-7 -43 -43 -72t-78 -29zM193 506l32 180q2 15 -8.5 26t-23.5 11q-17 0 -30 -10.5t-15 -26.5l-32 -180q-3 -16 6 -26.5t26 -10.5
q15 0 28.5 11t16.5 26zM364 -25q-43 0 -68 29t-18 72l32 181q7 43 42.5 72t79.5 29q42 0 67 -29.5t18 -71.5l-32 -181q-7 -42 -43 -71.5t-78 -29.5zM420 76l32 181q2 14 -7.5 25t-24.5 11q-17 0 -29.5 -10t-15.5 -26l-32 -181q-3 -16 6.5 -26t26.5 -10q16 0 29 10.5t15 25.5
zM618 -25q-43 0 -68 29t-18 72l32 181q7 43 42.5 72t79.5 29q42 0 67 -29.5t18 -71.5l-32 -181q-7 -42 -43 -71.5t-78 -29.5zM674 76l32 181q2 14 -7.5 25t-24.5 11q-17 0 -29.5 -10t-15.5 -26l-32 -181q-3 -16 6.5 -26t26.5 -10q16 0 29 10.5t15 25.5z" />
    <glyph glyph-name="guilsinglleft" unicode="&#x2039;" horiz-adv-x="253" 
d="M201 201l-17 -101l-168 228l11 65l248 228l-17 -101l-169 -160q106 -150 112 -159z" />
    <glyph glyph-name="guilsinglright" unicode="&#x203a;" horiz-adv-x="253" 
d="M-23 100l17 101q36 35 167 159l-111 160l17 101l168 -228l-11 -65z" />
    <glyph glyph-name="fraction" unicode="&#x2044;" horiz-adv-x="590" 
d="M655 829l-662 -842h-58l661 842h59z" />
    <glyph glyph-name="Euro" unicode="&#x20ac;" horiz-adv-x="531" 
d="M234 -7q-82 0 -134 51.5t-39 122.5l20 117h-64l13 71h64l14 80h-64l12 71h64l24 137q13 71 83 122.5t152 51.5q76 0 121 -51t32 -123l-12 -73h-78l12 73q7 39 -19 68t-69 29q-50 0 -93.5 -29t-50.5 -68l-24 -137h166l-12 -71h-166l-14 -80h166l-13 -71h-166l-20 -117
q-7 -39 25.5 -68t82.5 -29q43 0 79.5 29t44.5 68l12 69h78l-12 -69q-13 -72 -76 -123t-139 -51z" />
    <glyph glyph-name="trademark" unicode="&#x2122;" horiz-adv-x="656" 
d="M214 772l-79 -446h-46l79 446h-84l8 45h213l-8 -45h-83zM571 639l-132 -313h-51l-30 313l-55 -313h-44l87 491h49l32 -415l179 415h43l-87 -491h-46z" />
    <glyph glyph-name="minus" unicode="&#x2212;" horiz-adv-x="406" 
d="M341 360h-291l13 71h291z" />
    </font>
</defs>
</svg>
