<?xml version="1.0" standalone="no"?>
<!DOCTYPE svg PUBLIC "-//W3C//DTD SVG 1.1//EN" "http://www.w3.org/Graphics/SVG/1.1/DTD/svg11.dtd" >
<svg xmlns="http://www.w3.org/2000/svg" xmlns:xlink="http://www.w3.org/1999/xlink" version="1.1">
<metadata>
Created by FontForge 20161013 at Sat Nov 30 01:43:12 2013
 By ,,,
Copyright (c) 2013 by Absolut Foundry. All rights reserved.
</metadata>
<defs>
<font id="Mohave-BoldItalic" horiz-adv-x="495" >
  <font-face 
    font-family="Mohave"
    font-weight="700"
    font-style="italic"
    font-stretch="normal"
    units-per-em="1000"
    panose-1="0 0 0 0 0 0 0 0 0 0"
    ascent="901"
    descent="-99"
    x-height="817"
    cap-height="817"
    bbox="-71 -251 858.939 1012"
    underline-thickness="50"
    underline-position="-199"
    unicode-range="U+0020-2212"
  />
<missing-glyph horiz-adv-x="393" 
d="M416 801l-141 -800h-299l140 800h300zM357 751h-200l-123 -700h200z" />
    <glyph glyph-name=".notdef" horiz-adv-x="393" 
d="M416 801l-141 -800h-299l140 800h300zM357 751h-200l-123 -700h200z" />
    <glyph glyph-name=".null" horiz-adv-x="0" 
 />
    <glyph glyph-name="nonmarkingreturn" horiz-adv-x="333" 
 />
    <glyph glyph-name="space" unicode=" " horiz-adv-x="200" 
 />
    <glyph glyph-name="exclam" unicode="!" horiz-adv-x="184" 
d="M84 96l-17 -96h-95l17 96h95zM216 817l-120 -654h-96l112 654h104z" />
    <glyph glyph-name="quotedbl" unicode="&#x22;" horiz-adv-x="349" 
d="M111 637h-57l42 56h-49l21 124h106l-21 -124zM248 637h-57l42 56h-49l21 124h106l-21 -124z" />
    <glyph glyph-name="numbersign" unicode="#" horiz-adv-x="530" 
d="M232 452l-56 -153h110q12 32 56 154q-18 0 -53 -0.5t-57 -0.5zM476 549h47l-17 -96h-65l-57 -154h73l-17 -96h-90q-9 -24 -34.5 -93.5t-40.5 -109.5h-97l73 203h-110q-15 -41 -39.5 -109t-34.5 -94h-96l72 203h-54l16 96h72q8 23 26.5 71.5t30.5 82.5h-78l17 96h96
l99 268h98l-99 -268h110q16 45 50.5 137.5t48.5 130.5h99z" />
    <glyph glyph-name="dollar" unicode="$" horiz-adv-x="409" 
d="M237 148l23 128q6 36 -19 56l-43 -244q33 25 39 60zM171 643l-23 -131q-6 -36 19 -55l43 246q-31 -21 -39 -60zM180 -19l-10 -54h-97l10 54q-51 17 -78 63.5t-17 103.5l13 80h96l-14 -80q-6 -32 18 -60l47 265q-51 14 -79 58.5t-18 100.5l23 131q11 58 54 104t101 62
l9 53h97l-9 -53q53 -15 79 -61t16 -105l-14 -83h-96l14 83q8 40 -18 61l-48 -271q50 -16 78.5 -59.5t19.5 -97.5l-23 -128q-10 -58 -53.5 -104t-100.5 -63z" />
    <glyph glyph-name="percent" unicode="%" horiz-adv-x="578" 
d="M14 -25l456 842h98l-456 -842h-98zM137 405q-43 0 -68.5 29t-18.5 72l32 180q7 42 43.5 71.5t78.5 29.5q41 0 67 -29.5t19 -71.5l-32 -180q-7 -43 -43 -72t-78 -29zM174 506l32 180q1 7 -4.5 12.5t-11.5 5.5q-21 0 -23 -18l-32 -180q-1 -7 4 -12.5t13 -5.5q18 0 22 18z
M364 -25q-43 0 -68 29t-18 72l32 181q7 43 42.5 72t79.5 29q42 0 67 -29.5t18 -71.5l-32 -181q-7 -42 -43 -71.5t-78 -29.5zM401 76l32 181q1 7 -3.5 12t-12.5 5q-20 0 -23 -17l-32 -181q-3 -17 17 -17q18 0 22 17z" />
    <glyph glyph-name="ampersand" unicode="&#x26;" horiz-adv-x="529" 
d="M250 462h74l9 55h108l-9 -55h63l-19 -105h-63l-35 -199q-13 -73 -77 -123.5t-136 -50.5t-117 50.5t-33 123.5l23 130q12 67 71 123q-38 63 -28 121l23 130q13 73 76.5 123.5t135.5 50.5q75 0 116.5 -59t27.5 -153h-108q5 49 -9.5 77.5t-45.5 28.5t-56 -19t-30 -49
l-23 -130q-4 -29 15 -49.5t47 -20.5zM270 158l35 199h-74q-31 0 -56 -19.5t-30 -49.5l-23 -130q-5 -30 13 -49t49 -19t56 19t30 49z" />
    <glyph glyph-name="quotesingle" unicode="'" horiz-adv-x="213" 
d="M112 637h-57l42 56h-49l21 124h106l-21 -124z" />
    <glyph glyph-name="parenleft" unicode="(" horiz-adv-x="364" 
d="M328 901h65l-18 -100q-63 0 -101.5 -11.5t-44.5 -46.5l-115 -648q-10 -57 14 -74.5t106 -18.5l-18 -100h-65q-76 0 -119.5 39.5t-30.5 116.5l121 685q14 78 71.5 118t134.5 40z" />
    <glyph glyph-name="parenright" unicode=")" horiz-adv-x="364" 
d="M150 901h65q77 0 120.5 -40t29.5 -118l-121 -685q-14 -77 -71.5 -116.5t-134.5 -39.5h-64l18 100q81 1 111 18.5t40 74.5l115 648q3 19 -6 31t-29.5 17.5t-41 7.5t-49.5 2z" />
    <glyph glyph-name="asterisk" unicode="*" horiz-adv-x="295" 
d="M266 742l-61 -36q2 -1 21 -14t27 -20q-6 -7 -45 -53l-39 30l-9 -52h-66l11 55q-15 -10 -26 -17t-16.5 -10t-7.5 -5l-26 53l57 33l-45 35q8 10 22.5 26.5t22.5 25.5l37 -32l10 55h66l-11 -57q5 4 14 10t20.5 13.5t16.5 10.5z" />
    <glyph glyph-name="plus" unicode="+" horiz-adv-x="408" 
d="M401 444l-17 -97h-140l-25 -141h-97l25 141h-141l17 97h141l25 139h97l-25 -139h140z" />
    <glyph glyph-name="comma" unicode="," horiz-adv-x="163" 
d="M147 112l-17 -101l-108 -69l29 170h96z" />
    <glyph glyph-name="hyphen" unicode="-" horiz-adv-x="406" 
d="M339 347h-291l17 97h291z" />
    <glyph glyph-name="period" unicode="." horiz-adv-x="192" 
d="M151 112l-19 -112h-96l19 112h96z" />
    <glyph glyph-name="slash" unicode="/" horiz-adv-x="418" 
d="M485 829l-456 -842h-97l454 842h99z" />
    <glyph glyph-name="zero" unicode="0" horiz-adv-x="503" 
d="M179 -9q-82 0 -132 56.5t-36 138.5l77 436q15 82 84.5 138.5t151.5 56.5t132 -56.5t35 -138.5l-77 -436q-15 -82 -84.5 -138.5t-150.5 -56.5zM308 723q-43 0 -80.5 -29.5t-44.5 -71.5l-71 -401l263 474q-26 28 -67 28zM195 85q43 0 79.5 29.5t43.5 71.5l58 330l-232 -417
q23 -14 51 -14z" />
    <glyph glyph-name="one" unicode="1" horiz-adv-x="277" 
d="M172 0h-96l113 640q-17 -4 -34.5 -5t-49 -0.5t-34.5 0.5l17 96h33q20 0 29.5 0.5t25.5 3.5t25 11t11 21l9 50h96z" />
    <glyph glyph-name="two" unicode="2" horiz-adv-x="456" 
d="M192 649l-23 -129h-96l23 129q12 70 72 119t130 49t112 -50t30 -118q-11 -66 -17 -101.5t-8 -44.5q-8 -46 -25.5 -81.5t-46.5 -62.5t-50.5 -42t-59.5 -37q-65 -37 -107 -84.5t-40 -100.5h272l-17 -95h-372l13 71q17 99 53 158t123 109q40 23 61 36t46 33.5t37.5 42.5
t17.5 50l24 149q4 30 -14.5 51.5t-48.5 21.5t-57 -22t-32 -51z" />
    <glyph glyph-name="three" unicode="3" horiz-adv-x="446" 
d="M174 367h-48l16 95h47q23 0 38 1t38.5 5.5t37.5 17t18 32.5l23 130q6 31 -13.5 52t-52.5 21q-32 0 -59 -21t-33 -52l-22 -128h-98l22 128q13 71 74.5 120t132.5 49q72 0 115.5 -48.5t30.5 -120.5l-23 -130q-4 -24 -14.5 -42.5t-20.5 -29t-36 -32.5q44 -47 32 -121
l-23 -130q-13 -72 -73.5 -120.5t-132.5 -48.5q-71 0 -115 49t-32 120l22 127h98l-22 -127q-6 -32 14.5 -52.5t51.5 -20.5q33 0 59.5 21t32.5 52l23 130q7 45 -26 60.5t-82 13.5z" />
    <glyph glyph-name="four" unicode="4" horiz-adv-x="454" 
d="M329 147l-26 -147h-96l26 147h-258l14 77l370 593h89l-102 -574h56l-17 -96h-56zM250 243l58 325q-15 -23 -88.5 -139t-116.5 -186h147z" />
    <glyph glyph-name="five" unicode="5" horiz-adv-x="494" 
d="M273 554q83 0 131 -58.5t34 -141.5l-29 -161q-14 -83 -83 -141.5t-152 -58.5q-84 0 -132 58t-34 142l10 55h95l-10 -55q-7 -43 19 -73.5t69 -30.5t78.5 30.5t43.5 73.5l29 161q8 43 -17.5 74t-68.5 31q-41 0 -78 -35t-50 -85h-94l84 478h401l-17 -96h-306l-34 -195
q49 28 111 28z" />
    <glyph glyph-name="six" unicode="6" horiz-adv-x="500" 
d="M273 537q81 0 131.5 -57t36.5 -138l-28 -156q-15 -82 -84.5 -138.5t-151.5 -56.5t-132 56.5t-36 138.5l77 436q15 82 84.5 138.5t151.5 56.5t132.5 -56.5t35.5 -138.5l-8 -46h-96l8 46q7 43 -19 72t-69 29q-44 0 -80 -29t-43 -72l-20 -113q51 28 110 28zM256 442
q-43 0 -79 -28.5t-43 -71.5l-28 -156q-7 -44 18.5 -72.5t68.5 -28.5t80 29t44 72l28 156q7 42 -19.5 71t-69.5 29z" />
    <glyph glyph-name="seven" unicode="7" horiz-adv-x="411" 
d="M445 731l-351 -731h-99l346 721h-264l17 96h367z" />
    <glyph glyph-name="eight" unicode="8" horiz-adv-x="498" 
d="M74 560l11 65q15 81 84.5 136.5t151.5 55.5t132 -55t35 -137l-11 -65q-17 -90 -97 -146q62 -57 45 -146l-17 -97q-13 -75 -77.5 -126.5t-140.5 -51.5h-29q-76 0 -122.5 51.5t-33.5 126.5l17 97q16 87 98 146q-62 57 -46 146zM177 86h29q36 0 68 25t38 60l17 97
q7 42 -18.5 70t-68.5 28t-80 -28t-44 -70l-17 -97q-6 -36 16.5 -60.5t59.5 -24.5zM259 462q43 0 79 28t43 70l11 65q7 41 -19 70t-68 29q-43 0 -80 -29t-44 -70l-11 -65q-7 -42 19.5 -70t69.5 -28z" />
    <glyph glyph-name="nine" unicode="9" horiz-adv-x="499" 
d="M225 271q-81 0 -131.5 57t-36.5 138l28 156q15 82 84.5 138.5t151.5 56.5t132.5 -56.5t35.5 -138.5l-77 -436q-15 -82 -84.5 -138.5t-151.5 -56.5t-132 56.5t-36 138.5l8 46h96l-8 -46q-7 -43 19 -72t69 -29q44 0 80 29t43 72l20 113q-51 -28 -110 -28zM242 366
q43 0 79 28.5t43 71.5l28 156q7 44 -18.5 72.5t-68.5 28.5t-80 -29t-44 -72l-28 -156q-7 -42 19.5 -71t69.5 -29z" />
    <glyph glyph-name="colon" unicode=":" horiz-adv-x="169" 
d="M116 112l-20 -112h-96l20 112h96zM169 412l-20 -112h-96l20 112h96z" />
    <glyph glyph-name="semicolon" unicode=";" horiz-adv-x="169" 
d="M174 412l-20 -112h-96l20 112h96zM121 112l-18 -101l-107 -69l29 170h96z" />
    <glyph glyph-name="less" unicode="&#x3c;" horiz-adv-x="428" 
d="M388 314l-18 -100l-353 142l15 81l403 142l-18 -100l-256 -83q210 -76 227 -82z" />
    <glyph glyph-name="equal" unicode="=" horiz-adv-x="391" 
d="M355 422h-308l17 97h308zM329 271h-308l17 97h308z" />
    <glyph glyph-name="greater" unicode="&#x3e;" horiz-adv-x="428" 
d="M-7 214l17 100q43 14 131 42t124 40l-226 83l18 100l353 -142l-15 -81z" />
    <glyph glyph-name="question" unicode="?" horiz-adv-x="387" 
d="M408 643l-18 -101q-8 -44 -33.5 -81t-57.5 -63.5t-64 -52t-57 -58.5t-32 -72l-9 -51h-97l9 51q7 37 33 75.5t59 69.5t65.5 60.5t57 58.5t28.5 54l19 110q5 32 -13 55t-49 23q-32 0 -59.5 -23t-32.5 -55l-15 -82h-96l15 82q13 72 73 123t132 51q71 0 113 -51t29 -123z
M123 96l-17 -96h-96l17 96h96z" />
    <glyph glyph-name="at" unicode="@" horiz-adv-x="668" 
d="M276 -5h77q57 0 165 86l-23 -130q-87 -49 -158 -49h-77q-135 0 -213 94t-54 230l34 198q24 136 135.5 231t246.5 95h125q84 0 132.5 -58.5t33.5 -142.5l-38 -216q-15 -84 -71.5 -147.5t-139.5 -63.5q-31 0 -50 5q-66 -43 -122 -43q-66 0 -102.5 44.5t-25.5 110.5
q2 11 37 140q19 67 78 115t126 48h88q31 0 48.5 -21.5t13.5 -52.5l-69 -253q38 7 63.5 41t32.5 77l38 216q8 44 -19 76t-70 32h-125q-95 0 -176 -69t-97 -164l-35 -198q-17 -95 39.5 -163t151.5 -68zM375 449q-31 0 -59 -22.5t-36 -52.5l-36 -135q-4 -26 10.5 -44t40.5 -18
q35 0 61.5 23.5t37.5 57.5l53 193z" />
    <glyph glyph-name="A" unicode="A" horiz-adv-x="465" 
d="M162 299h99l-7 246q-17 -45 -48 -128.5t-44 -117.5zM372 0h-99l-11 202h-135l-81 -202h-98l309 817h89z" />
    <glyph glyph-name="B" unicode="B" horiz-adv-x="476" 
d="M-26 0l144 817h185q76 0 120 -53.5t31 -129.5l-18 -103q-13 -71 -73 -125q33 -28 46.5 -70.5t5.5 -89.5l-9 -48q-14 -83 -82.5 -140.5t-151.5 -57.5h-198zM234 348h-103l-45 -252h103q42 0 77.5 30t42.5 72l9 48q7 42 -17.5 72t-66.5 30zM286 721h-89l-49 -277h89
q35 0 65.5 26t36.5 61l18 103q7 35 -14.5 61t-56.5 26z" />
    <glyph glyph-name="C" unicode="C" horiz-adv-x="480" 
d="M182 -7q-82 0 -133.5 51t-39.5 123l83 476q13 71 83 122.5t152 51.5q76 0 121 -51t32 -123l-9 -54h-97l9 54q6 31 -16 54.5t-57 23.5q-43 0 -79 -23.5t-42 -54.5l-83 -476q-6 -31 22 -54.5t71 -23.5q35 0 65 23t36 55l10 58h97l-10 -58q-13 -72 -76 -123t-139 -51z" />
    <glyph glyph-name="D" unicode="D" horiz-adv-x="438" 
d="M276 723h-78l-111 -629h78q31 0 57.5 20.5t32.5 50.5l85 487q6 30 -13.5 50.5t-50.5 20.5zM148 0h-173l144 817h174q70 0 113 -47.5t31 -117.5l-85 -487q-12 -70 -73 -117.5t-131 -47.5z" />
    <glyph glyph-name="E" unicode="E" horiz-adv-x="389" 
d="M119 817h314l-17 -96h-218l-49 -276h191l-17 -96h-191l-45 -253h218l-17 -96h-313z" />
    <glyph glyph-name="F" unicode="F" horiz-adv-x="367" 
d="M150 445h191l-17 -96h-191l-62 -349h-95l144 817h314l-17 -96h-218z" />
    <glyph glyph-name="G" unicode="G" horiz-adv-x="489" 
d="M182 -7q-81 0 -134 48t-41 117l86 487q13 71 82.5 121.5t151.5 50.5q75 0 121 -50.5t33 -121.5l-21 -118h-96l21 118q5 31 -17.5 53.5t-57.5 22.5q-43 0 -79 -22.5t-41 -53.5l-86 -487q-5 -30 23.5 -50.5t70.5 -20.5q35 0 65.5 20.5t35.5 50.5l34 194h-102l17 95h198
l-51 -289q-13 -69 -76.5 -117t-136.5 -48z" />
    <glyph glyph-name="H" unicode="H" horiz-adv-x="450" 
d="M473 817l-145 -817h-97l62 349h-159l-62 -349h-96l144 817h97l-66 -372h159l66 372h97z" />
    <glyph glyph-name="I" unicode="I" horiz-adv-x="198" 
d="M217 817l-145 -817h-95l144 817h96z" />
    <glyph glyph-name="J" unicode="J" horiz-adv-x="291" 
d="M-2 0h-63l16 90q74 -1 109 14t41 49l118 664h96l-118 -664q-13 -75 -68.5 -114t-130.5 -39z" />
    <glyph glyph-name="K" unicode="K" horiz-adv-x="502" 
d="M140 380l-67 -380h-95l144 817h96l-49 -276q215 235 253 276h120l-291 -317l126 -500h-103l-107 410z" />
    <glyph glyph-name="L" unicode="L" horiz-adv-x="341" 
d="M261 96l-17 -96h-266l144 817h96l-128 -721h171z" />
    <glyph glyph-name="M" unicode="M" horiz-adv-x="606" 
d="M464 445l-186 -445h-86l-39 449l-80 -449h-95l144 817h104l44 -619l265 619h92l-145 -817h-97z" />
    <glyph glyph-name="N" unicode="N" horiz-adv-x="479" 
d="M169 538l-95 -538h-95l144 817h104l83 -522l93 522h96l-145 -817h-89z" />
    <glyph glyph-name="O" unicode="O" 
d="M191 88q43 0 77.5 20.5t39.5 50.5l87 493q5 30 -22.5 50.5t-70.5 20.5q-42 0 -77 -20.5t-40 -50.5l-87 -493q-5 -30 23 -50.5t70 -20.5zM491 652l-87 -493q-13 -70 -81 -117.5t-149 -47.5q-80 0 -132 48t-40 117l87 493q13 69 81.5 117t148.5 48q82 0 133.5 -48
t38.5 -117z" />
    <glyph glyph-name="P" unicode="P" horiz-adv-x="411" 
d="M441 643l-22 -122q-13 -72 -72.5 -122.5t-131.5 -50.5h-77l-62 -348h-96l144 817h174q71 0 113.5 -51t29.5 -123zM281 721h-77l-49 -277h77q32 0 58.5 23t31.5 54l22 122q5 32 -13.5 55t-49.5 23z" />
    <glyph glyph-name="Q" unicode="Q" horiz-adv-x="486" 
d="M289 -92h-97l-6 86h-10q-82 0 -133 47t-39 117l86 493q13 70 81 117.5t150 47.5q83 0 133.5 -47.5t37.5 -117.5l-86 -493q-17 -94 -123 -137zM172 186h99l5 -69q29 21 34 41l86 493q6 29 -22 50t-70 21q-41 0 -76.5 -20.5t-41.5 -50.5l-86 -493q-5 -28 19 -48.5t61 -22.5
z" />
    <glyph glyph-name="R" unicode="R" horiz-adv-x="454" 
d="M138 348l-62 -348h-96l144 817h174q72 0 114.5 -51t29.5 -123l-22 -122q-12 -68 -73 -122q49 -51 36 -132l-48 -267h-97l48 267q5 33 -14.5 57t-51.5 24h-82zM281 721h-77l-49 -277h81q30 0 55.5 23t30.5 54l22 122q5 32 -13 55t-50 23z" />
    <glyph glyph-name="S" unicode="S" horiz-adv-x="451" 
d="M180 643l-21 -120q-5 -30 17 -49.5t60 -21.5q72 -6 117.5 -51t33.5 -114l-20 -117q-13 -72 -76 -123t-138 -51q-76 0 -120.5 51t-32.5 123l14 79h96l-14 -79q-6 -32 16 -55t58 -23t65 23t35 55l20 117q6 31 -16.5 51t-58.5 20q-74 0 -120 47.5t-33 117.5l21 120
q13 72 76 123t139 51t120.5 -51t31.5 -123l-14 -82h-96l14 82q6 32 -16 55t-57 23q-36 0 -65.5 -23t-35.5 -55z" />
    <glyph glyph-name="T" unicode="T" horiz-adv-x="431" 
d="M319 721l-128 -721h-96l128 721h-130l17 96h354l-17 -96h-128z" />
    <glyph glyph-name="U" unicode="U" horiz-adv-x="467" 
d="M176 91q35 0 64.5 22t34.5 53l115 651h97l-115 -651q-12 -70 -75 -120.5t-138 -50.5q-74 0 -118 50t-33 121l115 651h96l-115 -651q-5 -31 16 -53t56 -22z" />
    <glyph glyph-name="V" unicode="V" horiz-adv-x="475" 
d="M98 817h98l8 -606l219 606h98l-292 -817h-126z" />
    <glyph glyph-name="W" unicode="W" horiz-adv-x="673" 
d="M351 495l-163 -495h-103l24 817h98l-13 -494l163 494h103l-13 -494l163 494h98l-266 -817h-103z" />
    <glyph glyph-name="X" unicode="X" horiz-adv-x="558" 
d="M329 397l112 -397h-104l-82 277q-32 -53 -92.5 -143.5t-87.5 -133.5h-103l252 396q-20 75 -58.5 228.5t-48.5 192.5h105l76 -298q26 43 57 94t68 111.5t57 92.5h105q-198 -330 -256 -420z" />
    <glyph glyph-name="Y" unicode="Y" horiz-adv-x="506" 
d="M228 0h-96l70 394q-19 74 -59 225.5t-52 197.5h105l77 -293q29 47 181 293h105l-261 -423z" />
    <glyph glyph-name="Z" unicode="Z" horiz-adv-x="498" 
d="M100 96h300l-17 -96h-414l14 77l411 644h-298l17 96h415l-14 -77z" />
    <glyph glyph-name="bracketleft" unicode="[" horiz-adv-x="297" 
d="M210 804l-143 -806h116l-17 -97h-212l176 1000h213l-17 -97h-116z" />
    <glyph glyph-name="backslash" unicode="\" horiz-adv-x="418" 
d="M238 -13l-158 842h99l157 -842h-98z" />
    <glyph glyph-name="bracketright" unicode="]" horiz-adv-x="297" 
d="M86 -2l143 806h-116l17 97h213l-177 -1000h-212l17 97h115z" />
    <glyph glyph-name="asciicircum" unicode="^" horiz-adv-x="434" 
d="M203 821h66l122 -196h-108l-64 102l-107 -102h-106z" />
    <glyph glyph-name="underscore" unicode="_" horiz-adv-x="577" 
d="M513 -70h-462l11 60h462z" />
    <glyph glyph-name="grave" unicode="`" horiz-adv-x="240" 
d="M30 817h128l38 -142h-98z" />
    <glyph glyph-name="a" unicode="a" horiz-adv-x="474" 
d="M143 219h119l-3 326q-20 -55 -58 -162.5t-58 -163.5zM377 0h-118l-5 122h-137l-47 -122h-117l309 817h89z" />
    <glyph glyph-name="b" unicode="b" horiz-adv-x="496" 
d="M-26 0l144 817h185q76 0 120 -53.5t31 -129.5l-18 -103q-13 -71 -73 -125q33 -28 46.5 -70.5t5.5 -89.5l-9 -48q-14 -83 -82.5 -140.5t-151.5 -57.5h-198zM234 348h-103l-45 -252h103q42 0 77.5 30t42.5 72l9 48q7 42 -17.5 72t-66.5 30zM286 721h-89l-49 -277h89
q35 0 65.5 26t36.5 61l18 103q7 35 -14.5 61t-56.5 26z" />
    <glyph glyph-name="c" unicode="c" horiz-adv-x="480" 
d="M182 -7q-82 0 -133.5 51t-39.5 123l83 476q13 71 83 122.5t152 51.5q76 0 121 -51t32 -123l-9 -54h-97l9 54q6 31 -16 54.5t-57 23.5q-43 0 -79 -23.5t-42 -54.5l-83 -476q-6 -31 22 -54.5t71 -23.5q35 0 65 23t36 55l10 58h97l-10 -58q-13 -72 -76 -123t-139 -51z" />
    <glyph glyph-name="d" unicode="d" horiz-adv-x="438" 
d="M276 723h-78l-111 -629h78q31 0 57.5 20.5t32.5 50.5l85 487q6 30 -13.5 50.5t-50.5 20.5zM148 0h-173l144 817h174q70 0 113 -47.5t31 -117.5l-85 -487q-12 -70 -73 -117.5t-131 -47.5z" />
    <glyph glyph-name="e" unicode="e" horiz-adv-x="404" 
d="M129 817h314l-17 -96h-218l-35 -196h191l-17 -96h-191l-59 -333h218l-17 -96h-313z" />
    <glyph glyph-name="f" unicode="f" horiz-adv-x="377" 
d="M145 365h191l-17 -96h-191l-48 -269h-95l144 817h314l-17 -96h-218z" />
    <glyph glyph-name="g" unicode="g" horiz-adv-x="489" 
d="M182 -7q-81 0 -134 48t-41 117l86 487q13 71 82.5 121.5t151.5 50.5q75 0 121 -50.5t33 -121.5l-21 -118h-96l21 118q5 31 -17.5 53.5t-57.5 22.5q-43 0 -79 -22.5t-41 -53.5l-86 -487q-5 -30 23.5 -50.5t70.5 -20.5q35 0 65.5 20.5t35.5 50.5l20 114h-102l17 95h198
l-37 -209q-13 -69 -76.5 -117t-136.5 -48z" />
    <glyph glyph-name="h" unicode="h" horiz-adv-x="450" 
d="M473 817l-145 -817h-97l62 349h-159l-62 -349h-96l144 817h97l-66 -372h159l66 372h97z" />
    <glyph glyph-name="i" unicode="i" horiz-adv-x="198" 
d="M217 817l-145 -817h-95l144 817h96z" />
    <glyph glyph-name="j" unicode="j" horiz-adv-x="291" 
d="M-2 0h-63l16 90q74 -1 109 14t41 49l118 664h96l-118 -664q-13 -75 -68.5 -114t-130.5 -39z" />
    <glyph glyph-name="k" unicode="k" horiz-adv-x="502" 
d="M140 380l-67 -380h-95l144 817h96l-49 -276q215 235 253 276h120l-291 -317l126 -500h-103l-107 410z" />
    <glyph glyph-name="l" unicode="l" horiz-adv-x="341" 
d="M261 96l-17 -96h-266l144 817h96l-128 -721h171z" />
    <glyph glyph-name="m" unicode="m" horiz-adv-x="606" 
d="M464 445l-186 -445h-86l-39 449l-80 -449h-95l144 817h104l44 -619l265 619h92l-145 -817h-97z" />
    <glyph glyph-name="n" unicode="n" horiz-adv-x="479" 
d="M169 538l-95 -538h-95l144 817h104l83 -522l93 522h96l-145 -817h-89z" />
    <glyph glyph-name="o" unicode="o" 
d="M191 88q43 0 77.5 20.5t39.5 50.5l87 493q5 30 -22.5 50.5t-70.5 20.5q-42 0 -77 -20.5t-40 -50.5l-87 -493q-5 -30 23 -50.5t70 -20.5zM491 652l-87 -493q-13 -70 -81 -117.5t-149 -47.5q-80 0 -132 48t-40 117l87 493q13 69 81.5 117t148.5 48q82 0 133.5 -48
t38.5 -117z" />
    <glyph glyph-name="p" unicode="p" horiz-adv-x="423" 
d="M446 643l-36 -202q-13 -72 -72.5 -122.5t-131.5 -50.5h-77l-48 -268h-96l144 817h174q71 0 113.5 -51t29.5 -123zM286 721h-77l-63 -357h77q32 0 58.5 23t31.5 54l36 202q5 32 -13.5 55t-49.5 23z" />
    <glyph glyph-name="q" unicode="q" horiz-adv-x="486" 
d="M289 -92h-97l-6 86h-10q-82 0 -133 47t-39 117l86 493q13 70 81 117.5t150 47.5q83 0 133.5 -47.5t37.5 -117.5l-86 -493q-17 -94 -123 -137zM172 186h99l5 -69q29 21 34 41l86 493q6 29 -22 50t-70 21q-41 0 -76.5 -20.5t-41.5 -50.5l-86 -493q-5 -28 19 -48.5t61 -22.5
z" />
    <glyph glyph-name="r" unicode="r" horiz-adv-x="464" 
d="M129 268l-48 -268h-96l144 817h174q72 0 114.5 -51t29.5 -123l-36 -202q-12 -68 -73 -122q50 -53 35 -132l-33 -187h-97l33 187q6 33 -13.5 57t-51.5 24h-82zM286 721h-77l-63 -357h81q30 0 55.5 23t30.5 54l36 202q5 32 -13 55t-50 23z" />
    <glyph glyph-name="s" unicode="s" horiz-adv-x="451" 
d="M180 643l-21 -120q-5 -30 17 -49.5t60 -21.5q72 -6 117.5 -51t33.5 -114l-20 -117q-13 -72 -76 -123t-138 -51q-76 0 -120.5 51t-32.5 123l14 79h96l-14 -79q-6 -32 16 -55t58 -23t65 23t35 55l20 117q6 31 -16.5 51t-58.5 20q-74 0 -120 47.5t-33 117.5l21 120
q13 72 76 123t139 51t120.5 -51t31.5 -123l-14 -82h-96l14 82q6 32 -16 55t-57 23q-36 0 -65.5 -23t-35.5 -55z" />
    <glyph glyph-name="t" unicode="t" horiz-adv-x="431" 
d="M319 721l-128 -721h-96l128 721h-130l17 96h354l-17 -96h-128z" />
    <glyph glyph-name="u" unicode="u" horiz-adv-x="467" 
d="M176 91q35 0 64.5 22t34.5 53l115 651h97l-115 -651q-12 -70 -75 -120.5t-138 -50.5q-74 0 -118 50t-33 121l115 651h96l-115 -651q-5 -31 16 -53t56 -22z" />
    <glyph glyph-name="v" unicode="v" horiz-adv-x="475" 
d="M98 817h98l8 -606l219 606h98l-292 -817h-126z" />
    <glyph glyph-name="w" unicode="w" horiz-adv-x="673" 
d="M351 495l-163 -495h-103l24 817h98l-13 -494l163 494h103l-13 -494l163 494h98l-266 -817h-103z" />
    <glyph glyph-name="x" unicode="x" horiz-adv-x="558" 
d="M329 397l112 -397h-104l-82 277q-32 -53 -92.5 -143.5t-87.5 -133.5h-103l252 396q-20 75 -58.5 228.5t-48.5 192.5h105l76 -298q26 43 57 94t68 111.5t57 92.5h105q-198 -330 -256 -420z" />
    <glyph glyph-name="y" unicode="y" horiz-adv-x="506" 
d="M228 0h-96l70 394q-19 74 -59 225.5t-52 197.5h105l77 -293q29 47 181 293h105l-261 -423z" />
    <glyph glyph-name="z" unicode="z" horiz-adv-x="498" 
d="M100 96h300l-17 -96h-414l14 77l411 644h-298l17 96h415l-14 -77z" />
    <glyph glyph-name="braceleft" unicode="{" horiz-adv-x="310" 
d="M211 -10l-15 -86q-39 -3 -66 -3q-59 0 -85.5 31t-16.5 89l54 305q4 24 -10.5 33.5t-52.5 9.5l16 90q38 0 56 9.5t22 33.5l39 222q5 30 8 44.5t10.5 39.5t18 38.5t26 28t39 21t53.5 6.5h65l-16 -90h-34q-23 0 -33.5 -1.5t-20.5 -11t-14 -29.5q-11 -64 -25.5 -152
t-20.5 -124q-11 -56 -39 -80q21 -23 11 -80l-54 -303q-1 -9 -1 -15.5t0.5 -11t4.5 -7.5t6.5 -4.5t10 -2t11.5 -0.5h15h38z" />
    <glyph glyph-name="bar" unicode="|" horiz-adv-x="169" 
d="M214 890l-173 -980h-95l172 980h96z" />
    <glyph glyph-name="braceright" unicode="}" horiz-adv-x="310" 
d="M-62 -96l15 86h38q23 0 31.5 1.5t17 10.5t11.5 29l54 303q5 30 13 48t26 32q-22 24 -11 80q10 55 26.5 146t23.5 130q5 29 -7 35.5t-45 6.5h-34l16 90h65q36 0 58.5 -11t32.5 -25.5t11 -42.5t-1.5 -46.5t-9.5 -52.5l-39 -222q-4 -24 11.5 -33.5t52.5 -9.5l-16 -90
q-38 0 -56.5 -9.5t-22.5 -33.5l-54 -305q-10 -58 -47.5 -89t-96.5 -31q-24 0 -63 3z" />
    <glyph glyph-name="asciitilde" unicode="~" horiz-adv-x="403" 
d="M252 328q-25 1 -63.5 18.5t-54.5 17.5q-23 0 -77 -46l-51 68q46 39 77.5 57t67.5 18q23 0 60 -18t58 -18t74 45l53 -65q-45 -40 -76.5 -58.5t-67.5 -18.5z" />
    <glyph glyph-name="exclamdown" unicode="&#xa1;" horiz-adv-x="184" 
d="M212 617l-17 -96h-96l17 96h96zM183 454l-112 -654h-103l119 654h96z" />
    <glyph glyph-name="cent" unicode="&#xa2;" horiz-adv-x="366" 
d="M61 82h-81l56 106q-36 53 -25 112l34 189q12 68 68 116t124 48q29 0 48 -6q1 2 2.5 5.5t7 13.5t13.5 25h82l-45 -83q27 -31 29.5 -72t-9.5 -91h-77l4 23q5 33 4 51l-163 -301q14 -6 27 -6q35 0 65.5 26.5t36.5 61.5l9 48h77l-9 -48q-12 -68 -68.5 -116t-124.5 -48
q-28 0 -52 8q-6 -9 -33 -62zM86 283l158 290q-9 4 -20 4q-35 0 -65.5 -26.5t-36.5 -61.5q-36 -201 -36 -206z" />
    <glyph glyph-name="sterling" unicode="&#xa3;" horiz-adv-x="406" 
d="M47 365h-44l17 97h44l32 176q12 72 72 123t132 51t114 -51t30 -123l-10 -54h-97l10 54q5 32 -14 55t-50 23t-58 -23.5t-32 -54.5l-32 -176h166l-17 -97h-166l-44 -253q37 7 76 -12.5t52 -19.5q19 0 56 31l56 -67q-44 -35 -67.5 -46.5t-60.5 -11.5q-25 0 -65 18t-63 18
t-77 -46l-50 68q29 25 41 33z" />
    <glyph glyph-name="currency" unicode="&#xa4;" horiz-adv-x="405" 
d="M67 204h-102l91 118q-21 46 -11 97q8 53 46 97q-1 2 -3.5 8t-15 35t-31.5 75h102l27 -63q33 11 60 11q30 0 55 -13l50 65h105l-94 -119q22 -43 13 -96q-10 -54 -47 -97q34 -73 53 -118h-103l-28 62q-30 -10 -61 -10q-33 0 -56 10zM214 492q-28 0 -51 -22.5t-28 -50.5
q-5 -29 10 -51.5t43 -22.5t52 22.5t29 51.5q5 28 -11 50.5t-44 22.5z" />
    <glyph glyph-name="yen" unicode="&#xa5;" horiz-adv-x="506" 
d="M228 0h-96l37 209h-106l17 97h106l10 54h-106l17 97h78l-94 360h105l77 -293q66 107 181 293h105l-223 -360h79l-17 -97h-106l-10 -54h106l-17 -97h-106z" />
    <glyph glyph-name="brokenbar" unicode="&#xa6;" horiz-adv-x="193" 
d="M230 890l-68 -386h-96l68 386h96zM125 296l-68 -386h-95l67 386h96z" />
    <glyph glyph-name="section" unicode="&#xa7;" horiz-adv-x="369" 
d="M348 411l-9 -51q-10 -57 -63 -97q40 -36 30 -91l-17 -99q-11 -59 -67 -98t-116 -39t-101.5 39t-30.5 98l11 67h90l-11 -67q-4 -22 14 -36.5t44 -14.5q25 0 48 14.5t27 36.5l17 99q4 22 -15 35t-45 13q-71 0 -107 40.5t-23 110.5q12 87 66 131q-35 38 -26 91l18 101
q11 60 66.5 99.5t116.5 39.5t102.5 -39t30.5 -100l-12 -70h-91l12 70q4 23 -14 38t-44 15q-25 0 -48.5 -15t-27.5 -38l-18 -101q-4 -22 14.5 -34.5t44.5 -12.5q58 0 101.5 -38.5t32.5 -96.5zM122 406l-9 -53q-4 -19 16 -33t43 -14q25 0 48 15t27 39l9 51q4 22 -14.5 36
t-43.5 14q-26 0 -49 -15.5t-27 -39.5z" />
    <glyph glyph-name="dieresis" unicode="&#xa8;" horiz-adv-x="305" 
d="M141 816l-15 -89h-76l15 89h76zM254 816l-15 -89h-76l15 89h76z" />
    <glyph glyph-name="copyright" unicode="&#xa9;" horiz-adv-x="866" 
d="M29 394q29 167 168.5 285.5t306.5 118.5t264.5 -118.5t68.5 -285.5q-30 -167 -169.5 -285.5t-306.5 -118.5t-264 118.5t-68 285.5zM88 394q-25 -142 58 -243.5t226 -101.5q142 0 261 101t145 244q25 143 -59 244t-226 101q-143 0 -261.5 -101.5t-143.5 -243.5zM391 139
q68 0 124.5 48.5t67.5 115.5l9 48h-77l-9 -48q-6 -36 -36 -62t-66 -26q-44 0 -71 26t-21 62l31 176q7 36 43 62t80 26q36 0 57 -26t14 -62l-7 -44h77l7 44q12 67 -27.5 115.5t-107.5 48.5q-74 0 -137.5 -48.5t-75.5 -115.5l-31 -176q-11 -67 35.5 -115.5t120.5 -48.5z" />
    <glyph glyph-name="guillemotleft" unicode="&#xab;" horiz-adv-x="483" 
d="M222 220l-21 -120l-168 228l11 65l248 228l-21 -120l-146 -141q12 -17 46 -66t51 -74zM419 220l-21 -120l-168 228l11 65l248 228l-21 -120l-146 -141q12 -17 46 -66t51 -74z" />
    <glyph glyph-name="logicalnot" unicode="&#xac;" horiz-adv-x="471" 
d="M439 444l-31 -181h-97l14 84h-281l17 97h378z" />
    <glyph glyph-name="registered" unicode="&#xae;" horiz-adv-x="866" 
d="M329 127l31 171h47q35 0 55.5 -25.5t13.5 -60.5l-15 -85h87l15 85q15 79 -37 132q63 54 75 122l5 25q12 70 -29.5 119.5t-111.5 49.5h-129l-94 -533h87zM408 574h42q34 0 54 -24t14 -59l-5 -25q-6 -33 -32.5 -57.5t-59.5 -24.5h-46zM29 394q29 167 168.5 285.5
t306.5 118.5t264.5 -118.5t68.5 -285.5q-30 -167 -169.5 -285.5t-306.5 -118.5t-264 118.5t-68 285.5zM88 394q-25 -142 58 -243.5t226 -101.5q142 0 261 101t145 244q25 143 -59 244t-226 101q-143 0 -261.5 -101.5t-143.5 -243.5z" />
    <glyph glyph-name="degree" unicode="&#xb0;" horiz-adv-x="289" 
d="M248 712q-7 -44 -43 -74t-80 -30q-45 0 -69.5 29.5t-16.5 74.5t43.5 75t79.5 30t69 -31t17 -74zM192 712q4 19 -8 34t-32 15q-19 0 -36 -15t-21 -34q-3 -19 9 -33.5t31 -14.5t36.5 14.5t20.5 33.5z" />
    <glyph glyph-name="plusminus" unicode="&#xb1;" horiz-adv-x="443" 
d="M436 444l-17 -97h-140l-25 -141h-97l25 141h-141l17 97h141l25 139h97l-25 -139h140zM357 0h-375l17 96h375z" />
    <glyph glyph-name="twosuperior" unicode="&#xb2;" horiz-adv-x="440" 
d="M209 697l-15 -85h-75l15 85q8 45 46 76t83 31q43 0 70 -32t19 -75l-17 -99q-7 -37 -26.5 -66t-36.5 -41.5t-47 -29.5q-72 -40 -79 -89h158l-13 -74h-234l9 51q10 58 33.5 94.5t74.5 67.5q41 23 61.5 41t24.5 44l17 101q1 13 -7 23t-20 10q-14 0 -26.5 -10.5t-14.5 -22.5z
" />
    <glyph glyph-name="threesuperior" unicode="&#xb3;" horiz-adv-x="429" 
d="M178 513h-38l13 74h53q44 2 50 34l13 75q2 14 -6.5 23.5t-22.5 9.5t-27.5 -10t-15.5 -23l-15 -84h-75l15 84q8 46 47 77t84 31t72 -31t19 -77l-13 -75q-8 -42 -39 -71q22 -26 14 -69l-13 -75q-8 -46 -46 -77t-83 -31t-73 31t-20 77l14 82h75l-14 -82q-2 -14 7.5 -23.5
t23.5 -9.5q15 0 27 9.5t14 23.5l13 75q2 21 -13.5 27.5t-39.5 4.5z" />
    <glyph glyph-name="acute" unicode="&#xb4;" horiz-adv-x="240" 
d="M103 817h128l-118 -142h-98z" />
    <glyph glyph-name="mu" unicode="&#xb5;" horiz-adv-x="436" 
d="M452 569l-101 -569h-96l6 33q-13 -15 -37 -24t-45 -9q-41 0 -73 17l-28 -160h-95l125 712h96l-70 -398q-5 -31 13 -53t49 -22q29 0 55 20.5t33 50.5l71 402h97z" />
    <glyph glyph-name="mu" unicode="&#x3bc;" horiz-adv-x="436" 
d="M452 569l-101 -569h-96l6 33q-13 -15 -37 -24t-45 -9q-41 0 -73 17l-28 -160h-95l125 712h96l-70 -398q-5 -31 13 -53t49 -22q29 0 55 20.5t33 50.5l71 402h97z" />
    <glyph glyph-name="paragraph" unicode="&#xb6;" horiz-adv-x="556" 
d="M595 714l-17 -96h-71l-134 -762h-96l134 762h-100l-134 -762h-96l100 567q-52 7 -78.5 48t-17.5 97q11 62 61 104t111 42h338z" />
    <glyph glyph-name="periodcentered" unicode="&#xb7;" horiz-adv-x="192" 
d="M151 451l-19 -112h-96l19 112h96z" />
    <glyph glyph-name="cedilla" unicode="&#xb8;" horiz-adv-x="146" 
d="M40 17h43l-6 -32q29 3 46 -11t11 -46q-6 -30 -28.5 -45t-52.5 -15q-25 0 -53 13l24 41q20 -11 36 -11q26 0 29 19q5 27 -58 17q-3 -1 -4 -1z" />
    <glyph glyph-name="onesuperior" unicode="&#xb9;" horiz-adv-x="265" 
d="M134 299h-74l67 382q-7 -1 -43 -1h-24l13 75h28q39 0 41 11l7 39h74z" />
    <glyph glyph-name="guillemotright" unicode="&#xbb;" horiz-adv-x="483" 
d="M-6 100l20 120q27 27 145 140l-96 141l21 120l168 -228l-11 -65zM190 100l21 120q27 27 145 140l-96 141l21 120l168 -228l-11 -65z" />
    <glyph glyph-name="onequarter" unicode="&#xbc;" horiz-adv-x="661" 
d="M494 100l-17 -100h-74l17 100h-150l10 56l220 350h66l-59 -332h33l-13 -74h-33zM433 174l24 135q-23 -35 -84 -135h60zM169 299h-74l68 382q-8 -1 -44 -1h-24l14 75h27q40 0 42 11l7 39h74zM33 -13l663 842h-71l-661 -842h69z" />
    <glyph glyph-name="onehalf" unicode="&#xbd;" horiz-adv-x="680" 
d="M171 299h-74l68 382q-7 -1 -44 -1h-24l14 75h28q39 0 41 11l7 39h74zM698 829l-663 -842h-69l661 842h71zM499 399l-15 -85h-75l15 85q7 44 45.5 75.5t83.5 31.5q43 0 70 -32t19 -75l-18 -99q-7 -37 -26 -65.5t-36.5 -41.5t-47.5 -30q-71 -41 -78 -89h158l-13 -74h-234
l9 51q10 57 33 94t75 68q40 23 60.5 41t25.5 44l17 101q1 13 -7 23t-20 10q-14 0 -26.5 -10.5t-14.5 -22.5z" />
    <glyph glyph-name="threequarters" unicode="&#xbe;" horiz-adv-x="689" 
d="M721 829l-663 -842h-69l661 842h71zM138 526h-38l13 74h53q44 2 50 34l14 75q2 13 -7 23t-23 10t-27 -10t-15 -23l-15 -84h-75l15 84q8 46 47 77t84 31t72 -31t19 -77l-14 -75q-7 -42 -38 -71q21 -25 14 -69l-14 -75q-7 -46 -45.5 -77t-83.5 -31t-72.5 31t-20.5 77l15 82
h75l-15 -82q-1 -14 8.5 -23.5t23.5 -9.5t26 9.5t14 23.5l14 75q1 22 -14 28t-40 4zM519 100l-17 -100h-74l17 100h-150l10 56l220 350h66l-59 -332h33l-13 -74h-33zM458 174l24 135q-23 -35 -84 -135h60z" />
    <glyph glyph-name="questiondown" unicode="&#xbf;" horiz-adv-x="387" 
d="M-21 -22l18 101q7 44 32.5 81t57.5 63.5t64 52t57 58.5t32 72l9 51h97l-9 -51q-7 -37 -33 -75.5t-59 -69.5t-65.5 -60.5t-57 -58.5t-28.5 -54l-19 -110q-5 -32 13 -55.5t49 -23.5q32 0 59.5 23.5t32.5 55.5l15 82h96l-15 -82q-13 -72 -73 -123t-132 -51q-71 0 -112.5 51
t-28.5 123zM263 525l17 96h96l-17 -96h-96z" />
    <glyph glyph-name="Agrave" unicode="&#xc0;" horiz-adv-x="465" 
d="M146 299h99l-8 246q-13 -35 -43 -116t-48 -130zM356 0h-99l-11 202h-135l-81 -202h-98l308 817h89zM181 1002h128l38 -142h-98z" />
    <glyph glyph-name="Aacute" unicode="&#xc1;" horiz-adv-x="465" 
d="M146 299h99l-8 246q-13 -35 -43 -116t-48 -130zM356 0h-99l-11 202h-135l-81 -202h-98l308 817h89zM336 1003h128l-118 -142h-98z" />
    <glyph glyph-name="Acircumflex" unicode="&#xc2;" horiz-adv-x="465" 
d="M249 299h-99q18 49 48 130t43 116zM261 0h99l-27 817h-89l-308 -817h98l81 202h135zM345 959l62 -99h-70l-29 42l-44 -42h-73l101 99h53z" />
    <glyph glyph-name="Atilde" unicode="&#xc3;" horiz-adv-x="465" 
d="M150 299h99l-8 246q-36 -96 -91 -246zM360 0h-99l-12 202h-135l-80 -202h-98l308 817h89zM352 868q-13 0 -48 12.5t-46 12.5q-9 0 -18 -4t-14 -8t-12.5 -11.5t-10.5 -9.5l-26 46q42 40 62 46q9 3 17 3q16 0 49 -12.5t58 -12.5q22 0 47 30l28 -49q-37 -43 -86 -43z" />
    <glyph glyph-name="Adieresis" unicode="&#xc4;" horiz-adv-x="465" 
d="M151 299h99l-8 246q-36 -96 -91 -246zM361 0h-99l-12 202h-135l-80 -202h-98l308 817h89zM297 949l-16 -89h-76l16 89h76zM410 949l-16 -89h-76l16 89h76z" />
    <glyph glyph-name="Aring" unicode="&#xc5;" horiz-adv-x="465" 
d="M145 299h99l-8 246q-13 -35 -43 -116t-48 -130zM355 0h-99l-11 202h-135l-81 -202h-98l308 817h89zM383 935q-5 -32 -31 -54t-58 -22q-33 0 -51 21.5t-12 54.5q6 32 32 54t58 22t50 -22.5t12 -53.5zM335 935q2 11 -5 19.5t-18 8.5t-21 -8.5t-12 -19.5t5 -19.5t18 -8.5
t21.5 8.5t11.5 19.5z" />
    <glyph glyph-name="AE" unicode="&#xc6;" horiz-adv-x="716" 
d="M371 545l-142 -246h98zM-54 0l482 817h316l-17 -96h-227q-34 -192 -48 -276h199l-17 -96h-199q-10 -56 -24.5 -132t-22.5 -121h228l-17 -96h-326l36 202h-135l-128 -202h-100z" />
    <glyph glyph-name="Ccedilla" unicode="&#xc7;" horiz-adv-x="480" 
d="M482 589h-97l9 54q6 31 -16 54.5t-57 23.5q-43 0 -79 -23.5t-42 -54.5l-83 -476q-6 -31 22 -54.5t71 -23.5q35 0 65 23t36 55l10 58h97l-10 -58q-12 -68 -69.5 -118t-129.5 -55l-2 -9q29 3 46 -11t11 -46q-5 -30 -27.5 -45t-52.5 -15q-25 0 -54 13l24 41q20 -11 36 -11
q26 0 30 19q2 10 -3.5 15t-20 5t-19.5 -1t-19 -3l8 49q-72 8 -115 57.5t-31 114.5l83 476q13 71 83 122.5t152 51.5q76 0 121 -51t32 -123z" />
    <glyph glyph-name="Egrave" unicode="&#xc8;" horiz-adv-x="389" 
d="M102 817h314l-17 -96h-218l-48 -276h191l-17 -96h-191l-45 -253h218l-17 -96h-313zM174 1002h128l38 -142h-98z" />
    <glyph glyph-name="Eacute" unicode="&#xc9;" horiz-adv-x="389" 
d="M102 817h314l-17 -96h-218l-48 -276h191l-17 -96h-191l-45 -253h218l-17 -96h-313zM308 1002h128l-118 -142h-98z" />
    <glyph glyph-name="Ecircumflex" unicode="&#xca;" horiz-adv-x="389" 
d="M420 817h-314l-143 -817h313l17 96h-218l44 253h191l17 96h-191l49 276h218zM307 959l62 -99h-70l-29 42l-44 -42h-73l101 99h53z" />
    <glyph glyph-name="Edieresis" unicode="&#xcb;" horiz-adv-x="389" 
d="M107 817h314l-17 -96h-218l-49 -276h191l-17 -96h-191l-44 -253h218l-17 -96h-313zM268 949l-16 -89h-76l16 89h76zM381 949l-16 -89h-76l16 89h76z" />
    <glyph glyph-name="Igrave" unicode="&#xcc;" horiz-adv-x="198" 
d="M200 817l-144 -817h-95l143 817h96zM42 1002h128l38 -142h-98z" />
    <glyph glyph-name="Iacute" unicode="&#xcd;" horiz-adv-x="198" 
d="M200 817l-144 -817h-95l143 817h96zM201 1002h128l-118 -142h-98z" />
    <glyph glyph-name="Icircumflex" unicode="&#xce;" horiz-adv-x="198" 
d="M60 0l144 817h-96l-143 -817h95zM212 960l62 -99h-70l-29 42l-44 -42h-73l101 99h53z" />
    <glyph glyph-name="Idieresis" unicode="&#xcf;" horiz-adv-x="198" 
d="M205 817l-144 -817h-95l143 817h96zM164 950l-15 -89h-76l15 89h76zM277 950l-15 -89h-76l15 89h76z" />
    <glyph glyph-name="Eth" unicode="&#xd0;" horiz-adv-x="481" 
d="M79 347h-64l17 97h64l66 373h174q70 0 113 -47.5t31 -117.5l-85 -487q-12 -70 -73 -117.5t-131 -47.5h-174zM319 723h-78l-49 -279h102l-17 -97h-102l-45 -253h78q31 0 57.5 20.5t32.5 50.5l85 487q6 30 -13.5 50.5t-50.5 20.5z" />
    <glyph glyph-name="Ntilde" unicode="&#xd1;" horiz-adv-x="479" 
d="M157 538l-95 -538h-95l143 817h104l84 -522l92 522h96l-144 -817h-89zM359 869q-13 0 -48 12.5t-46 12.5q-9 0 -18 -4t-14 -8t-12.5 -11.5t-10.5 -9.5l-26 46q42 40 62 46q9 3 17 3q17 0 49 -12.5t58 -12.5q22 0 47 30l29 -49q-38 -43 -87 -43z" />
    <glyph glyph-name="Ograve" unicode="&#xd2;" 
d="M174 88q43 0 77.5 20.5t40.5 50.5l87 493q5 30 -22.5 50.5t-70.5 20.5q-42 0 -77 -20.5t-40 -50.5l-87 -493q-6 -30 22 -50.5t70 -20.5zM475 652l-87 -493q-13 -70 -81 -117.5t-149 -47.5q-80 0 -132 48t-39 117l86 493q12 69 80.5 117t149.5 48t132.5 -47.5t39.5 -117.5
zM188 1002h128l38 -142h-98z" />
    <glyph glyph-name="Oacute" unicode="&#xd3;" 
d="M174 88q43 0 77.5 20.5t40.5 50.5l87 493q5 30 -22.5 50.5t-70.5 20.5q-42 0 -77 -20.5t-40 -50.5l-87 -493q-6 -30 22 -50.5t70 -20.5zM475 652l-87 -493q-13 -70 -81 -117.5t-149 -47.5q-80 0 -132 48t-39 117l86 493q12 69 80.5 117t149.5 48t132.5 -47.5t39.5 -117.5
zM349 1002h128l-118 -142h-98z" />
    <glyph glyph-name="Ocircumflex" unicode="&#xd4;" 
d="M178 88q-42 0 -70 20.5t-22 50.5l86 493q6 30 41 50.5t77 20.5q43 0 70.5 -20.5t21.5 -50.5l-86 -493q-6 -30 -40.5 -50.5t-77.5 -20.5zM392 159l86 493q13 69 -38 117t-133 48q-80 0 -149 -48t-82 -117l-85 -493q-13 -69 38.5 -117t131.5 -48q82 0 150 48t81 117z
M361 959l61 -99h-70l-28 42l-45 -42h-73l102 99h53z" />
    <glyph glyph-name="Otilde" unicode="&#xd5;" 
d="M178 88q43 0 77.5 20.5t39.5 50.5l87 493q6 30 -21.5 50.5t-70.5 20.5q-42 0 -77 -20.5t-41 -50.5l-87 -493q-5 -30 23 -50.5t70 -20.5zM478 652l-87 -493q-12 -69 -80 -117t-150 -48q-80 0 -131.5 48t-39.5 117l86 493q13 69 81.5 117t148.5 48q82 0 133.5 -48
t38.5 -117zM367 868q-13 0 -47.5 12.5t-45.5 12.5q-9 0 -18.5 -4t-14 -7.5t-13 -11.5t-10.5 -10l-26 46q51 49 80 49q16 0 48 -12.5t58 -12.5q22 0 48 30l28 -49q-38 -43 -87 -43z" />
    <glyph glyph-name="Odieresis" unicode="&#xd6;" 
d="M179 88q43 0 77.5 20.5t39.5 50.5l87 493q6 30 -21.5 50.5t-70.5 20.5q-42 0 -77 -20.5t-41 -50.5l-87 -493q-5 -30 23 -50.5t70 -20.5zM479 652l-87 -493q-12 -69 -80 -117t-150 -48q-80 0 -131.5 48t-39.5 117l86 493q13 69 81.5 117t148.5 48q82 0 133.5 -48
t38.5 -117zM313 949l-16 -89h-76l16 89h76zM426 949l-16 -89h-76l16 89h76z" />
    <glyph glyph-name="multiply" unicode="&#xd7;" horiz-adv-x="408" 
d="M332 563l56 -68l-116 -99l82 -100l-81 -69l-81 100l-118 -100l-57 69l118 100l-81 98l80 68l82 -98z" />
    <glyph glyph-name="Oslash" unicode="&#xd8;" 
d="M491 652l-87 -493q-13 -70 -81 -117.5t-149 -47.5q-88 0 -139 54l-39 -61h-57l68 106q-11 31 -5 66l87 493q12 69 80.5 117t149.5 48q78 0 128 -44l36 56h58l-62 -96q19 -38 12 -81zM190 88q43 0 77.5 20.5t40.5 50.5l75 427l-286 -442q3 -25 29.5 -40.5t63.5 -15.5z
M302 723q-42 0 -77 -20.5t-40 -50.5l-70 -392l274 424q-23 39 -87 39z" />
    <glyph glyph-name="Ugrave" unicode="&#xd9;" horiz-adv-x="467" 
d="M160 91q35 0 64.5 22t34.5 53l115 651h97l-115 -651q-13 -70 -75.5 -120.5t-137.5 -50.5q-74 0 -118.5 50.5t-31.5 120.5l114 651h96l-115 -651q-5 -31 16 -53t56 -22zM179 1003h128l38 -142h-98z" />
    <glyph glyph-name="Uacute" unicode="&#xda;" horiz-adv-x="467" 
d="M160 91q35 0 64.5 22t34.5 53l115 651h97l-115 -651q-13 -70 -75.5 -120.5t-137.5 -50.5q-74 0 -118.5 50.5t-31.5 120.5l114 651h96l-115 -651q-5 -31 16 -53t56 -22zM335 1002h128l-118 -142h-98z" />
    <glyph glyph-name="Ucircumflex" unicode="&#xdb;" horiz-adv-x="467" 
d="M163 91q-35 0 -56 22t-15 53l114 651h-96l-113 -651q-13 -70 31.5 -120.5t118.5 -50.5q75 0 137.5 50.5t75.5 120.5l114 651h-97l-114 -651q-6 -31 -35.5 -53t-64.5 -22zM346 959l62 -99h-70l-29 42l-44 -42h-73l101 99h53z" />
    <glyph glyph-name="Udieresis" unicode="&#xdc;" horiz-adv-x="467" 
d="M164 91q35 0 64.5 22t35.5 53l114 651h97l-114 -651q-13 -70 -76 -120.5t-138 -50.5q-74 0 -118 50t-31 121l113 651h96l-114 -651q-6 -31 15 -53t56 -22zM299 949l-16 -89h-76l16 89h76zM412 949l-16 -89h-76l16 89h76z" />
    <glyph glyph-name="Yacute" unicode="&#xdd;" horiz-adv-x="506" 
d="M212 0h-96l70 394q-18 70 -57.5 217t-54.5 206h105l78 -293q30 50 91.5 149t88.5 144h105l-260 -423zM356 1002h128l-118 -142h-98z" />
    <glyph glyph-name="Thorn" unicode="&#xde;" horiz-adv-x="413" 
d="M252 530h-77l-49 -276h77q32 0 58.5 22.5t32.5 53.5l21 123q6 31 -12.5 54t-50.5 23zM186 157h-77l-28 -157h-96l144 817h97l-34 -190h77q71 0 113.5 -51.5t29.5 -122.5l-21 -123q-13 -72 -73 -122.5t-132 -50.5z" />
    <glyph glyph-name="germandbls" unicode="&#xdf;" horiz-adv-x="861" 
d="M585 643l-21 -120q-5 -30 17.5 -49.5t60.5 -21.5q72 -6 117.5 -51t33.5 -114l-20 -117q-13 -72 -76 -123t-138 -51q-76 0 -121 51t-32 123l14 79h95l-14 -79q-6 -31 16.5 -54.5t58.5 -23.5t65 23t35 55l20 117q6 31 -16.5 51t-58.5 20q-74 0 -120 47.5t-33 117.5l21 120
q13 72 76 123t139 51t120.5 -51t31.5 -123l-14 -82h-96l14 82q6 32 -16 55t-57 23q-36 0 -66 -23t-36 -55zM186 643l-21 -120q-5 -30 17 -49.5t60 -21.5q72 -6 117.5 -51t33.5 -114l-20 -117q-13 -72 -76 -123t-138 -51q-76 0 -120.5 51t-32.5 123l14 79h96l-14 -79
q-6 -32 16 -55t58 -23t65.5 23t35.5 55l20 117q6 31 -17 51t-59 20q-74 0 -120 47.5t-33 117.5l21 120q13 72 76 123t139 51t120.5 -51t31.5 -123l-14 -82h-95l14 82q6 32 -16 55t-58 23t-65.5 -23t-35.5 -55z" />
    <glyph glyph-name="agrave" unicode="&#xe0;" horiz-adv-x="474" 
d="M127 219h119l-4 326q-11 -30 -115 -326zM361 0h-118l-5 122h-137l-47 -122h-117l308 817h89zM182 1002h128l38 -142h-98z" />
    <glyph glyph-name="aacute" unicode="&#xe1;" horiz-adv-x="474" 
d="M127 219h119l-4 326q-11 -30 -115 -326zM361 0h-118l-5 122h-137l-47 -122h-117l308 817h89zM339 1002h128l-118 -142h-98z" />
    <glyph glyph-name="acircumflex" unicode="&#xe2;" horiz-adv-x="474" 
d="M250 219h-119q104 296 115 326zM247 0h118l-27 817h-89l-308 -817h117l46 122h137zM347 959l62 -99h-70l-29 42l-44 -42h-73l101 99h53z" />
    <glyph glyph-name="atilde" unicode="&#xe3;" horiz-adv-x="474" 
d="M130 219h119l-3 326q-115 -322 -116 -326zM365 0h-118l-6 122h-137l-46 -122h-117l308 817h89zM356 868q-13 0 -48 12.5t-46 12.5q-9 0 -18 -4t-14 -8t-12.5 -11.5t-10.5 -9.5l-26 46q42 40 62 46q9 3 17 3q16 0 49 -12.5t58 -12.5q22 0 47 30l28 -49q-37 -43 -86 -43z
" />
    <glyph glyph-name="adieresis" unicode="&#xe4;" horiz-adv-x="474" 
d="M131 219h119l-3 326q-115 -322 -116 -326zM366 0h-118l-6 122h-137l-46 -122h-117l308 817h89zM301 949l-16 -89h-76l16 89h76zM414 949l-16 -89h-76l16 89h76z" />
    <glyph glyph-name="aring" unicode="&#xe5;" horiz-adv-x="474" 
d="M126 219h119l-4 326q-11 -30 -115 -326zM360 0h-118l-5 122h-137l-47 -122h-117l308 817h89zM388 936q-5 -32 -31 -54t-58 -22q-33 0 -50.5 21.5t-12.5 54.5q6 32 32 54t58 22t50 -22.5t12 -53.5zM340 936q2 11 -5 19.5t-18 8.5t-21 -8.5t-12 -19.5t5 -19.5t18 -8.5
t21.5 8.5t11.5 19.5z" />
    <glyph glyph-name="ae" unicode="&#xe6;" horiz-adv-x="716" 
d="M371 545l-142 -246h98zM-54 0l482 817h316l-17 -96h-227q-34 -192 -48 -276h199l-17 -96h-199q-10 -56 -24.5 -132t-22.5 -121h228l-17 -96h-326l36 202h-135l-128 -202h-100z" />
    <glyph glyph-name="ccedilla" unicode="&#xe7;" horiz-adv-x="480" 
d="M482 589h-97l9 54q6 31 -16 54.5t-57 23.5q-43 0 -79 -23.5t-42 -54.5l-83 -476q-6 -31 22 -54.5t71 -23.5q35 0 65 23t36 55l10 58h97l-10 -58q-12 -68 -69.5 -118t-129.5 -55l-2 -9q29 3 46 -11t11 -46q-5 -30 -27.5 -45t-52.5 -15q-25 0 -54 13l24 41q20 -11 36 -11
q26 0 30 19q2 10 -3.5 15t-20 5t-19.5 -1t-19 -3l8 49q-72 8 -115 57.5t-31 114.5l83 476q13 71 83 122.5t152 51.5q76 0 121 -51t32 -123z" />
    <glyph glyph-name="egrave" unicode="&#xe8;" horiz-adv-x="404" 
d="M112 817h314l-17 -96h-218l-34 -196h191l-17 -96h-191l-59 -333h218l-17 -96h-313zM179 1002h128l38 -142h-98z" />
    <glyph glyph-name="eacute" unicode="&#xe9;" horiz-adv-x="404" 
d="M112 817h314l-17 -96h-218l-34 -196h191l-17 -96h-191l-59 -333h218l-17 -96h-313zM306 1003h128l-118 -142h-98z" />
    <glyph glyph-name="ecircumflex" unicode="&#xea;" horiz-adv-x="404" 
d="M430 817h-314l-143 -817h313l17 96h-218l59 333h191l17 96h-191l34 196h218zM331 959l62 -99h-70l-29 42l-44 -42h-73l101 99h53z" />
    <glyph glyph-name="edieresis" unicode="&#xeb;" horiz-adv-x="404" 
d="M117 817h314l-17 -96h-218l-35 -196h191l-17 -96h-191l-58 -333h218l-17 -96h-313zM281 949l-16 -89h-76l16 89h76zM394 949l-16 -89h-76l16 89h76z" />
    <glyph glyph-name="igrave" unicode="&#xec;" horiz-adv-x="198" 
d="M200 817l-144 -817h-95l143 817h96zM42 1002h128l38 -142h-98z" />
    <glyph glyph-name="iacute" unicode="&#xed;" horiz-adv-x="198" 
d="M200 817l-144 -817h-95l143 817h96zM201 1002h128l-118 -142h-98z" />
    <glyph glyph-name="icircumflex" unicode="&#xee;" horiz-adv-x="198" 
d="M60 0l144 817h-96l-143 -817h95zM212 960l62 -99h-70l-29 42l-44 -42h-73l101 99h53z" />
    <glyph glyph-name="idieresis" unicode="&#xef;" horiz-adv-x="198" 
d="M205 817l-144 -817h-95l143 817h96zM164 950l-15 -89h-76l15 89h76zM277 950l-15 -89h-76l15 89h76z" />
    <glyph glyph-name="eth" unicode="&#xf0;" horiz-adv-x="481" 
d="M79 347h-64l17 97h64l66 373h174q70 0 113 -47.5t31 -117.5l-85 -487q-12 -70 -73 -117.5t-131 -47.5h-174zM319 723h-78l-49 -279h102l-17 -97h-102l-45 -253h78q31 0 57.5 20.5t32.5 50.5l85 487q6 30 -13.5 50.5t-50.5 20.5z" />
    <glyph glyph-name="ntilde" unicode="&#xf1;" horiz-adv-x="479" 
d="M157 538l-95 -538h-95l143 817h104l84 -522l92 522h96l-144 -817h-89zM359 869q-13 0 -48 12.5t-46 12.5q-9 0 -18 -4t-14 -8t-12.5 -11.5t-10.5 -9.5l-26 46q42 40 62 46q9 3 17 3q17 0 49 -12.5t58 -12.5q22 0 47 30l29 -49q-38 -43 -87 -43z" />
    <glyph glyph-name="ograve" unicode="&#xf2;" 
d="M174 88q43 0 77.5 20.5t40.5 50.5l87 493q5 30 -22.5 50.5t-70.5 20.5q-42 0 -77 -20.5t-40 -50.5l-87 -493q-6 -30 22 -50.5t70 -20.5zM475 652l-87 -493q-13 -70 -81 -117.5t-149 -47.5q-80 0 -132 48t-39 117l86 493q12 69 80.5 117t149.5 48t132.5 -47.5t39.5 -117.5
zM188 1002h128l38 -142h-98z" />
    <glyph glyph-name="oacute" unicode="&#xf3;" 
d="M174 88q43 0 77.5 20.5t40.5 50.5l87 493q5 30 -22.5 50.5t-70.5 20.5q-42 0 -77 -20.5t-40 -50.5l-87 -493q-6 -30 22 -50.5t70 -20.5zM475 652l-87 -493q-13 -70 -81 -117.5t-149 -47.5q-80 0 -132 48t-39 117l86 493q12 69 80.5 117t149.5 48t132.5 -47.5t39.5 -117.5
zM349 1002h128l-118 -142h-98z" />
    <glyph glyph-name="ocircumflex" unicode="&#xf4;" 
d="M178 88q-42 0 -70 20.5t-22 50.5l86 493q6 30 41 50.5t77 20.5q43 0 70.5 -20.5t21.5 -50.5l-86 -493q-6 -30 -40.5 -50.5t-77.5 -20.5zM392 159l86 493q13 69 -38 117t-133 48q-80 0 -149 -48t-82 -117l-85 -493q-13 -69 38.5 -117t131.5 -48q82 0 150 48t81 117z
M361 959l61 -99h-70l-28 42l-45 -42h-73l102 99h53z" />
    <glyph glyph-name="otilde" unicode="&#xf5;" 
d="M178 88q43 0 77.5 20.5t39.5 50.5l87 493q6 30 -21.5 50.5t-70.5 20.5q-42 0 -77 -20.5t-41 -50.5l-87 -493q-5 -30 23 -50.5t70 -20.5zM478 652l-87 -493q-12 -69 -80 -117t-150 -48q-80 0 -131.5 48t-39.5 117l86 493q13 69 81.5 117t148.5 48q82 0 133.5 -48
t38.5 -117zM367 868q-13 0 -47.5 12.5t-45.5 12.5q-9 0 -18.5 -4t-14 -7.5t-13 -11.5t-10.5 -10l-26 46q51 49 80 49q16 0 48 -12.5t58 -12.5q22 0 48 30l28 -49q-38 -43 -87 -43z" />
    <glyph glyph-name="odieresis" unicode="&#xf6;" 
d="M179 88q43 0 77.5 20.5t39.5 50.5l87 493q6 30 -21.5 50.5t-70.5 20.5q-42 0 -77 -20.5t-41 -50.5l-87 -493q-5 -30 23 -50.5t70 -20.5zM479 652l-87 -493q-12 -69 -80 -117t-150 -48q-80 0 -131.5 48t-39.5 117l86 493q13 69 81.5 117t148.5 48q82 0 133.5 -48
t38.5 -117zM313 949l-16 -89h-76l16 89h76zM426 949l-16 -89h-76l16 89h76z" />
    <glyph glyph-name="divide" unicode="&#xf7;" horiz-adv-x="406" 
d="M339 347h-291l17 97h291zM230 303l-20 -112h-96l20 112h96zM283 603l-20 -112h-96l20 112h96z" />
    <glyph glyph-name="oslash" unicode="&#xf8;" 
d="M491 652l-87 -493q-13 -70 -81 -117.5t-149 -47.5q-88 0 -139 54l-39 -61h-57l68 106q-11 31 -5 66l87 493q12 69 80.5 117t149.5 48q78 0 128 -44l36 56h58l-62 -96q19 -38 12 -81zM190 88q43 0 77.5 20.5t40.5 50.5l75 427l-286 -442q3 -25 29.5 -40.5t63.5 -15.5z
M302 723q-42 0 -77 -20.5t-40 -50.5l-70 -392l274 424q-23 39 -87 39z" />
    <glyph glyph-name="ugrave" unicode="&#xf9;" horiz-adv-x="467" 
d="M160 91q35 0 64.5 22t34.5 53l115 651h97l-115 -651q-13 -70 -75.5 -120.5t-137.5 -50.5q-74 0 -118.5 50.5t-31.5 120.5l114 651h96l-115 -651q-5 -31 16 -53t56 -22zM179 1003h128l38 -142h-98z" />
    <glyph glyph-name="uacute" unicode="&#xfa;" horiz-adv-x="467" 
d="M160 91q35 0 64.5 22t34.5 53l115 651h97l-115 -651q-13 -70 -75.5 -120.5t-137.5 -50.5q-74 0 -118.5 50.5t-31.5 120.5l114 651h96l-115 -651q-5 -31 16 -53t56 -22zM335 1002h128l-118 -142h-98z" />
    <glyph glyph-name="ucircumflex" unicode="&#xfb;" horiz-adv-x="467" 
d="M163 91q-35 0 -56 22t-15 53l114 651h-96l-113 -651q-13 -70 31.5 -120.5t118.5 -50.5q75 0 137.5 50.5t75.5 120.5l114 651h-97l-114 -651q-6 -31 -35.5 -53t-64.5 -22zM346 959l62 -99h-70l-29 42l-44 -42h-73l101 99h53z" />
    <glyph glyph-name="udieresis" unicode="&#xfc;" horiz-adv-x="467" 
d="M164 91q35 0 64.5 22t35.5 53l114 651h97l-114 -651q-13 -70 -76 -120.5t-138 -50.5q-74 0 -118 50t-31 121l113 651h96l-114 -651q-6 -31 15 -53t56 -22zM299 949l-16 -89h-76l16 89h76zM412 949l-16 -89h-76l16 89h76z" />
    <glyph glyph-name="yacute" unicode="&#xfd;" horiz-adv-x="506" 
d="M212 0h-96l70 394q-18 70 -57.5 217t-54.5 206h105l78 -293q30 50 91.5 149t88.5 144h105l-260 -423zM356 1002h128l-118 -142h-98z" />
    <glyph glyph-name="thorn" unicode="&#xfe;" horiz-adv-x="413" 
d="M252 530h-77l-49 -276h77q32 0 58.5 22.5t32.5 53.5l21 123q6 31 -12.5 54t-50.5 23zM186 157h-77l-28 -157h-96l144 817h97l-34 -190h77q71 0 113.5 -51.5t29.5 -122.5l-21 -123q-13 -72 -73 -122.5t-132 -50.5z" />
    <glyph glyph-name="ydieresis" unicode="&#xff;" horiz-adv-x="506" 
d="M217 0h-96l69 394q-19 74 -59 225.5t-52 197.5h105l77 -293q30 49 92 148.5t89 144.5h105l-261 -423zM317 950l-15 -89h-76l15 89h76zM430 950l-15 -89h-76l15 89h76z" />
    <glyph glyph-name="Lslash" unicode="&#x141;" horiz-adv-x="341" 
d="M261 96l-17 -96h-266l65 371l-71 -24l17 97l71 24l62 349h96l-56 -315l106 36l-17 -97l-106 -36l-55 -309h171z" />
    <glyph glyph-name="lslash" unicode="&#x142;" horiz-adv-x="341" 
d="M261 96l-17 -96h-266l65 371l-71 -24l17 97l71 24l62 349h96l-56 -315l106 36l-17 -97l-106 -36l-55 -309h171z" />
    <glyph glyph-name="OE" unicode="&#x152;" horiz-adv-x="717" 
d="M431 817h314l-17 -96h-218l-49 -276h191l-17 -96h-191l-45 -253h218l-17 -96h-314l5 24q-51 -24 -110 -24q-80 0 -131.5 48t-39.5 117l85 487q13 69 82 117t149 48q57 0 100 -25zM198 94q43 0 77.5 20.5t40.5 50.5l86 490q4 29 -24 48.5t-69 19.5q-42 0 -77 -20.5
t-41 -50.5l-85 -487q-6 -30 22 -50.5t70 -20.5z" />
    <glyph glyph-name="oe" unicode="&#x153;" horiz-adv-x="717" 
d="M431 817h314l-17 -96h-218l-49 -276h191l-17 -96h-191l-45 -253h218l-17 -96h-314l5 24q-51 -24 -110 -24q-80 0 -131.5 48t-39.5 117l85 487q13 69 82 117t149 48q57 0 100 -25zM198 94q43 0 77.5 20.5t40.5 50.5l86 490q4 29 -24 48.5t-69 19.5q-42 0 -77 -20.5
t-41 -50.5l-85 -487q-6 -30 22 -50.5t70 -20.5z" />
    <glyph glyph-name="Scaron" unicode="&#x160;" horiz-adv-x="451" 
d="M168 643q5 32 34.5 55t65.5 23q35 0 57 -23t17 -55l-15 -82h96l15 82q13 72 -32 123t-121 51t-138.5 -51t-75.5 -123l-21 -120q-13 -70 32.5 -117.5t119.5 -47.5q36 0 58.5 -20t17.5 -51l-21 -117q-5 -32 -34 -55t-65 -23t-58 23t-17 55l14 79h-96l-13 -79
q-13 -72 32 -123t121 -51q75 0 137.5 51t75.5 123l21 117q12 69 -34 114t-118 51q-37 2 -59.5 21.5t-16.5 49.5zM417 959l-96 -99h-53l-67 99h73l30 -42l43 42h70z" />
    <glyph glyph-name="scaron" unicode="&#x161;" horiz-adv-x="457" 
d="M168 643q5 32 34.5 55t65.5 23q35 0 57 -23t17 -55l-15 -82h96l15 82q13 72 -32 123t-121 51t-138.5 -51t-75.5 -123l-21 -120q-13 -70 32.5 -117.5t119.5 -47.5q36 0 58.5 -20t17.5 -51l-21 -117q-5 -32 -34 -55t-65 -23t-58 23t-17 55l14 79h-96l-13 -79
q-13 -72 32 -123t121 -51q75 0 137.5 51t75.5 123l21 117q12 69 -34 114t-118 51q-37 2 -59.5 21.5t-16.5 49.5zM420 959l-96 -99h-53l-67 99h73l30 -42l43 42h70z" />
    <glyph glyph-name="Ydieresis" unicode="&#x178;" horiz-adv-x="506" 
d="M217 0h-96l69 394q-19 74 -59 225.5t-52 197.5h105l77 -293q30 49 92 148.5t89 144.5h105l-261 -423zM317 950l-15 -89h-76l15 89h76zM430 950l-15 -89h-76l15 89h76z" />
    <glyph glyph-name="Zcaron" unicode="&#x17d;" horiz-adv-x="498" 
d="M388 96h-300l413 644l14 77h-415l-17 -96h298l-410 -644l-14 -77h414zM441 959l-96 -99h-53l-67 99h73l30 -42l43 42h70z" />
    <glyph glyph-name="zcaron" unicode="&#x17e;" horiz-adv-x="498" 
d="M388 96h-300l413 644l14 77h-415l-17 -96h298l-410 -644l-14 -77h414zM441 959l-96 -99h-53l-67 99h73l30 -42l43 42h70z" />
    <glyph glyph-name="circumflex" unicode="&#x2c6;" horiz-adv-x="274" 
d="M174 817l62 -99h-70l-29 42l-44 -42h-73l101 99h53z" />
    <glyph glyph-name="caron" unicode="&#x2c7;" horiz-adv-x="274" 
d="M253 817l-96 -99h-53l-67 99h73l30 -42l43 42h70z" />
    <glyph glyph-name="breve" unicode="&#x2d8;" horiz-adv-x="209" 
d="M21 817h58q-3 -16 5 -27.5t22 -11.5q13 0 25 11.5t15 27.5h58q-7 -41 -38.5 -69t-69.5 -28q-41 0 -62 26.5t-13 70.5z" />
    <glyph glyph-name="dotaccent" unicode="&#x2d9;" horiz-adv-x="192" 
d="M151 817l-19 -112h-96l19 112h96z" />
    <glyph glyph-name="ring" unicode="&#x2da;" horiz-adv-x="213" 
d="M182 741q-6 -32 -32 -54t-58 -22q-33 0 -50.5 21.5t-11.5 54.5q5 32 31 54t58 22q31 0 49.5 -22t13.5 -54zM134 741q2 11 -5.5 19.5t-18.5 8.5t-21 -8.5t-11 -19.5q-2 -11 5 -19.5t18 -8.5t21 8.5t12 19.5z" />
    <glyph glyph-name="ogonek" unicode="&#x2db;" horiz-adv-x="154" 
d="M83 -251h-100l121 152h63z" />
    <glyph glyph-name="tilde" unicode="&#x2dc;" horiz-adv-x="337" 
d="M212 720q-13 0 -47.5 12.5t-45.5 12.5q-9 0 -18.5 -4t-14 -7.5t-13 -11.5t-10.5 -10l-26 46q42 40 62 46q9 3 17 3q16 0 49 -12.5t58 -12.5q22 0 47 30l29 -49q-38 -43 -87 -43z" />
    <glyph glyph-name="hungarumlaut" unicode="&#x2dd;" horiz-adv-x="305" 
d="M81 700h-46l57 92h66zM203 700h-47l58 92h66z" />
    <glyph glyph-name="endash" unicode="&#x2013;" horiz-adv-x="471" 
d="M415 347h-378l17 97h378z" />
    <glyph glyph-name="emdash" unicode="&#x2014;" horiz-adv-x="591" 
d="M524 347h-476l17 97h476z" />
    <glyph glyph-name="quoteleft" unicode="&#x2018;" horiz-adv-x="213" 
d="M101 817h57l-42 -56h49l-21 -124h-106l21 124z" />
    <glyph glyph-name="quoteright" unicode="&#x2019;" horiz-adv-x="213" 
d="M112 637h-57l42 56h-49l21 124h106l-21 -124z" />
    <glyph glyph-name="quotesinglbase" unicode="&#x201a;" horiz-adv-x="213" 
d="M112 -56h-57l42 56h-49l21 124h106l-21 -124z" />
    <glyph glyph-name="quotedblleft" unicode="&#x201c;" horiz-adv-x="349" 
d="M237 817h57l-42 -56h49l-21 -124h-106l21 124zM100 817h57l-42 -56h49l-21 -124h-106l21 124z" />
    <glyph glyph-name="quotedblright" unicode="&#x201d;" horiz-adv-x="349" 
d="M111 637h-57l42 56h-49l21 124h106l-21 -124zM248 637h-57l42 56h-49l21 124h106l-21 -124z" />
    <glyph glyph-name="quotedblbase" unicode="&#x201e;" horiz-adv-x="349" 
d="M111 -56h-57l42 56h-49l21 124h106l-21 -124zM248 -56h-57l42 56h-49l21 124h106l-21 -124z" />
    <glyph glyph-name="dagger" unicode="&#x2020;" horiz-adv-x="395" 
d="M183 596h-141l17 97h141l35 197h96l-35 -197h141l-17 -97h-141l-121 -686h-96z" />
    <glyph glyph-name="daggerdbl" unicode="&#x2021;" horiz-adv-x="402" 
d="M187 596h-141l17 97h141l35 197h96l-35 -197h141l-17 -97h-141l-69 -392h141l-17 -97h-141l-35 -197h-96l35 197h-140l17 97h140z" />
    <glyph glyph-name="bullet" unicode="&#x2022;" horiz-adv-x="260" 
d="M28 394q7 41 42 71t76 30q43 0 68 -29.5t18 -71.5q-8 -43 -43 -73t-78 -30t-67 30t-16 73z" />
    <glyph glyph-name="ellipsis" unicode="&#x2026;" horiz-adv-x="576" 
d="M151 112l-19 -112h-96l19 112h96zM343 112l-19 -112h-96l19 112h96zM535 112l-19 -112h-96l19 112h96z" />
    <glyph glyph-name="perthousand" unicode="&#x2030;" horiz-adv-x="826" 
d="M14 -25l456 842h98l-456 -842h-98zM137 405q-43 0 -68.5 29t-18.5 72l32 180q7 42 43.5 71.5t78.5 29.5q41 0 67 -29.5t19 -71.5l-32 -180q-7 -43 -43 -72t-78 -29zM174 506l32 180q1 7 -4.5 12.5t-11.5 5.5q-21 0 -23 -18l-32 -180q-1 -7 4 -12.5t13 -5.5q18 0 22 18z
M364 -25q-43 0 -68 29t-18 72l32 181q7 43 42.5 72t79.5 29q42 0 67 -29.5t18 -71.5l-32 -181q-7 -42 -43 -71.5t-78 -29.5zM401 76l32 181q1 7 -3.5 12t-12.5 5q-20 0 -23 -17l-32 -181q-3 -17 17 -17q18 0 22 17zM618 -25q-43 0 -68 29t-18 72l32 181q7 43 42.5 72
t79.5 29q42 0 67 -29.5t18 -71.5l-32 -181q-7 -42 -43 -71.5t-78 -29.5zM655 76l32 181q1 7 -3.5 12t-12.5 5q-20 0 -23 -17l-32 -181q-3 -17 17 -17q18 0 22 17z" />
    <glyph glyph-name="guilsinglleft" unicode="&#x2039;" horiz-adv-x="253" 
d="M205 220l-21 -120l-168 228l11 65l248 228l-21 -120l-146 -141q12 -17 46 -66t51 -74z" />
    <glyph glyph-name="guilsinglright" unicode="&#x203a;" horiz-adv-x="253" 
d="M-23 100l21 120q32 33 144 140l-96 141l21 120l168 -228l-11 -65z" />
    <glyph glyph-name="fraction" unicode="&#x2044;" horiz-adv-x="590" 
d="M661 829l-662 -842h-70l661 842h71z" />
    <glyph glyph-name="Euro" unicode="&#x20ac;" horiz-adv-x="531" 
d="M234 -7q-82 0 -134 51.5t-39 122.5l18 104h-64l17 97h64l9 54h-64l18 97h64l21 124q13 71 83 122.5t152 51.5q76 0 121 -51t32 -123l-12 -73h-97l12 73q6 31 -16 54.5t-57 23.5q-43 0 -79 -23.5t-42 -54.5l-21 -124h147l-18 -97h-147l-9 -54h147l-17 -97h-147l-18 -104
q-6 -31 22 -54.5t71 -23.5q35 0 65 23t36 55l12 69h97l-12 -69q-13 -72 -76 -123t-139 -51z" />
    <glyph glyph-name="trademark" unicode="&#x2122;" horiz-adv-x="656" 
d="M218 759l-77 -433h-58l77 433h-78l10 58h213l-10 -58h-77zM551 596l-112 -270h-51l-24 270l-48 -270h-57l87 491h62l26 -372l159 372h56l-87 -491h-59z" />
    <glyph glyph-name="minus" unicode="&#x2212;" horiz-adv-x="406" 
d="M339 347h-291l17 97h291z" />
    </font>
</defs>
</svg>
